G04*
G04 #@! TF.GenerationSoftware,Altium Limited,Altium Designer,25.1.2 (22)*
G04*
G04 Layer_Color=32896*
%FSLAX44Y44*%
%MOMM*%
G71*
G04*
G04 #@! TF.SameCoordinates,4DC4BC11-A5A9-46D6-A818-46A4CD50810F*
G04*
G04*
G04 #@! TF.FilePolarity,Positive*
G04*
G01*
G75*
%ADD12C,0.1000*%
%ADD16C,0.1500*%
D12*
X110328Y441686D02*
X112096Y443453D01*
X118106Y433908D02*
X119874Y435675D01*
X119677Y451034D02*
X121445Y452802D01*
X127455Y443256D02*
X129223Y445024D01*
X129025Y460383D02*
X130793Y462150D01*
X136803Y452604D02*
X138571Y454372D01*
D16*
X206955Y392275D02*
X210725Y388505D01*
X207897Y385677D01*
X206012Y387562D01*
X207897Y385677D01*
X205070Y382850D01*
X198472Y389447D02*
X196587Y391332D01*
X196587Y393217D01*
X198472Y395102D01*
X200357D01*
X202242Y393217D01*
X202242Y391332D01*
X200357Y389447D01*
X198472D01*
X197530Y397930D02*
X193760Y394160D01*
X195645Y396045D01*
Y397930D01*
Y399815D01*
X194702Y400757D01*
X188105Y407355D02*
X190932Y404527D01*
X190932Y402642D01*
X189047Y400757D01*
X187162D01*
X184335Y403585D01*
X179622Y408297D02*
X181507Y406412D01*
X183392D01*
X185277Y408297D01*
X185277Y410182D01*
X183392Y412067D01*
X181507D01*
X180565Y411125D01*
X184335Y407355D01*
X171140Y416780D02*
X169255Y418665D01*
X170197Y417722D01*
X175852Y423377D01*
X175852Y421492D01*
X172082Y427147D02*
X168312Y423377D01*
X164542D01*
Y427147D01*
X168312Y430917D01*
X165485Y431860D02*
Y433745D01*
X163600Y435630D01*
X161715D01*
X160772Y434687D01*
Y432802D01*
X158887Y432802D01*
X157945Y431860D01*
X157945Y429975D01*
X159830Y428090D01*
X161715D01*
X162657Y429032D01*
Y430917D01*
X164542Y430917D01*
X165485Y431860D01*
X162657Y430917D02*
X160772Y432802D01*
X152290Y446940D02*
X154175Y445055D01*
X154175Y443170D01*
X150405Y439400D01*
X148520D01*
X146635Y441285D01*
X146635Y443170D01*
X150405Y446940D01*
X152290D01*
X143807Y444112D02*
X149462Y449767D01*
X140037Y447882D01*
X145692Y453537D01*
X197971Y382841D02*
X201740Y379071D01*
X198913Y376243D01*
X197028Y378128D01*
X198913Y376243D01*
X196085Y373416D01*
X189488Y380013D02*
X187603Y381898D01*
X187603Y383783D01*
X189488Y385668D01*
X191373D01*
X193258Y383783D01*
X193258Y381898D01*
X191373Y380013D01*
X189488D01*
X188545Y388496D02*
X184775Y384726D01*
X186660Y386611D01*
Y388496D01*
Y390381D01*
X185718Y391323D01*
X179120Y397921D02*
X181948Y395093D01*
X181948Y393208D01*
X180063Y391323D01*
X178178D01*
X175350Y394151D01*
X170638Y398863D02*
X172523Y396978D01*
X174408D01*
X176293Y398863D01*
X176293Y400748D01*
X174408Y402634D01*
X172523D01*
X171580Y401691D01*
X175350Y397921D01*
X166868Y412058D02*
X166868Y413943D01*
X164983Y415829D01*
X163098D01*
X162155Y414886D01*
Y413001D01*
X163098Y412058D01*
X162155Y413001D01*
X160270D01*
X159328Y412058D01*
Y410173D01*
X161213Y408288D01*
X163098D01*
X162155Y418656D02*
X158385Y414886D01*
X154615D01*
Y418656D01*
X158385Y422426D01*
X155558Y423369D02*
Y425254D01*
X153673Y427139D01*
X151788D01*
X150845Y426196D01*
Y424311D01*
X151788Y423369D01*
X150845Y424311D01*
X148960Y424311D01*
X148018Y423369D01*
Y421484D01*
X149903Y419599D01*
X151788D01*
X142363Y438449D02*
X144248Y436564D01*
Y434679D01*
X140478Y430909D01*
X138593D01*
X136708Y432794D01*
X136708Y434679D01*
X140478Y438449D01*
X142363D01*
X133880Y435621D02*
X139535Y441276D01*
X130110Y439391D01*
X135765Y445046D01*
X187975Y373632D02*
X191745Y369862D01*
X188918Y367034D01*
X187033Y368919D01*
X188918Y367034D01*
X186090Y364207D01*
X179493Y370804D02*
X177608Y372689D01*
X177608Y374574D01*
X179493Y376459D01*
X181378D01*
X183263Y374574D01*
X183263Y372689D01*
X181378Y370804D01*
X179493D01*
X178550Y379287D02*
X174780Y375517D01*
X176665Y377402D01*
Y379287D01*
Y381172D01*
X175723Y382114D01*
X169125Y388712D02*
X171953Y385884D01*
X171953Y383999D01*
X170068Y382114D01*
X168183D01*
X165355Y384942D01*
X160643Y389654D02*
X162528Y387769D01*
X164413D01*
X166298Y389654D01*
X166298Y391539D01*
X164413Y393424D01*
X162528D01*
X161585Y392482D01*
X165355Y388712D01*
X154045Y407562D02*
X157815Y403792D01*
X154988Y400965D01*
X154045Y403792D01*
X153103Y404734D01*
X151218D01*
X149333Y402850D01*
Y400965D01*
X151218Y399080D01*
X153103D01*
X152160Y409447D02*
X148390Y405677D01*
X144620D01*
Y409447D01*
X148390Y413217D01*
X138023Y423585D02*
X139908Y421700D01*
Y419815D01*
X136138Y416045D01*
X134253D01*
X132367Y417930D01*
Y419815D01*
X136138Y423585D01*
X138023D01*
X129540Y420757D02*
X135195Y426412D01*
X125770Y424527D01*
X131425Y430182D01*
X128858Y469349D02*
X130743D01*
X132628Y467464D01*
X132628Y465579D01*
X131685Y464636D01*
X129800Y464636D01*
X127915Y466521D01*
X126030Y466521D01*
X125088Y465579D01*
X125088Y463694D01*
X126973Y461809D01*
X128858D01*
X127915Y472177D02*
X122260Y466521D01*
X119433Y469349D01*
X119433Y471234D01*
X120375Y472177D01*
X122260Y472177D01*
X125088Y469349D01*
X122260Y472177D01*
Y474062D01*
X123203Y475004D01*
X125088D01*
X127915Y472177D01*
X116605D02*
X114720Y474062D01*
X115663Y473119D01*
X121318Y478774D01*
X121318Y476889D01*
X120083Y459561D02*
X121968D01*
X123853Y457676D01*
X123853Y455791D01*
X122910Y454849D01*
X121025Y454849D01*
X119140Y456734D01*
X117255Y456734D01*
X116313Y455791D01*
X116313Y453906D01*
X118198Y452021D01*
X120083D01*
X119140Y462389D02*
X113485Y456734D01*
X110658Y459561D01*
X110658Y461446D01*
X111600Y462389D01*
X113485Y462389D01*
X116313Y459561D01*
X113485Y462389D01*
Y464274D01*
X114428Y465216D01*
X116313D01*
X119140Y462389D01*
X104060Y466159D02*
X107830Y462389D01*
Y469929D01*
X108773Y470871D01*
X110658D01*
X112543Y468986D01*
X112543Y467101D01*
X108776Y451039D02*
X110661D01*
X112546Y449154D01*
X112546Y447269D01*
X111604Y446327D01*
X109719Y446327D01*
X107834Y448212D01*
X105949Y448212D01*
X105006Y447269D01*
X105006Y445384D01*
X106891Y443499D01*
X108776D01*
X107834Y453867D02*
X102179Y448212D01*
X99351Y451039D01*
X99351Y452924D01*
X100294Y453867D01*
X102179Y453867D01*
X105006Y451039D01*
X102179Y453867D01*
Y455752D01*
X103121Y456694D01*
X105006D01*
X107834Y453867D01*
X101236Y458579D02*
X101236Y460464D01*
X99351Y462349D01*
X97466D01*
X96524Y461407D01*
Y459522D01*
X97466Y458579D01*
X96524Y459522D01*
X94639Y459522D01*
X93696Y458579D01*
X93696Y456694D01*
X95581Y454809D01*
X97466D01*
M02*
