G04*
G04 #@! TF.GenerationSoftware,Altium Limited,Altium Designer,25.1.2 (22)*
G04*
G04 Layer_Color=16711935*
%FSLAX44Y44*%
%MOMM*%
G71*
G04*
G04 #@! TF.SameCoordinates,4DC4BC11-A5A9-46D6-A818-46A4CD50810F*
G04*
G04*
G04 #@! TF.FilePolarity,Negative*
G04*
G01*
G75*
%ADD59O,1.0016X1.9016*%
G04:AMPARAMS|DCode=60|XSize=2.2016mm|YSize=1.1016mm|CornerRadius=0mm|HoleSize=0mm|Usage=FLASHONLY|Rotation=60.000|XOffset=0mm|YOffset=0mm|HoleType=Round|Shape=Round|*
%AMOVALD60*
21,1,1.1000,1.1016,0.0000,0.0000,60.0*
1,1,1.1016,-0.2750,-0.4763*
1,1,1.1016,0.2750,0.4763*
%
%ADD60OVALD60*%

G04:AMPARAMS|DCode=61|XSize=1.9016mm|YSize=1.1016mm|CornerRadius=0.3008mm|HoleSize=0mm|Usage=FLASHONLY|Rotation=60.000|XOffset=0mm|YOffset=0mm|HoleType=Round|Shape=RoundedRectangle|*
%AMROUNDEDRECTD61*
21,1,1.9016,0.5000,0,0,60.0*
21,1,1.3000,1.1016,0,0,60.0*
1,1,0.6016,0.5415,0.4379*
1,1,0.6016,-0.1085,-0.6879*
1,1,0.6016,-0.5415,-0.4379*
1,1,0.6016,0.1085,0.6879*
%
%ADD61ROUNDEDRECTD61*%
%ADD62C,7.1016*%
%ADD63O,1.8016X2.1016*%
%ADD64R,1.8016X2.1016*%
%ADD65C,1.4096*%
%ADD66R,1.4096X1.4096*%
%ADD67C,1.6016*%
G04:AMPARAMS|DCode=97|XSize=0.25mm|YSize=0.35mm|CornerRadius=0mm|HoleSize=0mm|Usage=FLASHONLY|Rotation=315.000|XOffset=0mm|YOffset=0mm|HoleType=Round|Shape=Rectangle|*
%AMROTATEDRECTD97*
4,1,4,-0.2121,-0.0354,0.0354,0.2121,0.2121,0.0354,-0.0354,-0.2121,-0.2121,-0.0354,0.0*
%
%ADD97ROTATEDRECTD97*%

G04:AMPARAMS|DCode=99|XSize=0.55mm|YSize=0.35mm|CornerRadius=0mm|HoleSize=0mm|Usage=FLASHONLY|Rotation=315.000|XOffset=0mm|YOffset=0mm|HoleType=Round|Shape=Rectangle|*
%AMROTATEDRECTD99*
4,1,4,-0.3182,0.0707,-0.0707,0.3182,0.3182,-0.0707,0.0707,-0.3182,-0.3182,0.0707,0.0*
%
%ADD99ROTATEDRECTD99*%

D59*
X319770Y15000D02*
D03*
X253770D02*
D03*
D60*
X206201Y77620D02*
D03*
X131376Y120820D02*
D03*
D61*
X185301Y41420D02*
D03*
X110476Y84620D02*
D03*
D62*
X52500Y280000D02*
D03*
X358370Y66426D02*
D03*
X358374Y493574D02*
D03*
D63*
X536786Y287480D02*
D03*
D64*
X511386D02*
D03*
D65*
X514474Y230237D02*
D03*
D66*
Y210237D02*
D03*
D67*
X361070Y254600D02*
D03*
Y229200D02*
D03*
X386470D02*
D03*
Y254600D02*
D03*
Y280000D02*
D03*
X361070D02*
D03*
Y305400D02*
D03*
X386470D02*
D03*
Y330800D02*
D03*
X361070D02*
D03*
D97*
X113157Y440625D02*
D03*
X117046Y436736D02*
D03*
X122505Y449973D02*
D03*
X126394Y446084D02*
D03*
X131854Y459322D02*
D03*
X135743Y455433D02*
D03*
D99*
X115101Y438680D02*
D03*
X124450Y448029D02*
D03*
X133798Y457377D02*
D03*
M02*
