G04*
G04 #@! TF.GenerationSoftware,Altium Limited,Altium Designer,25.1.2 (22)*
G04*
G04 Layer_Color=128*
%FSLAX44Y44*%
%MOMM*%
G71*
G04*
G04 #@! TF.SameCoordinates,4DC4BC11-A5A9-46D6-A818-46A4CD50810F*
G04*
G04*
G04 #@! TF.FilePolarity,Positive*
G04*
G01*
G75*
%ADD100C,0.0508*%
D100*
X317270Y15000D02*
X322270D01*
X319770Y12500D02*
Y17500D01*
X251270Y15000D02*
X256270D01*
X253770Y12500D02*
Y17500D01*
X138010Y109340D02*
X144510D01*
X141260Y106090D02*
Y112590D01*
X188066Y80440D02*
X194566D01*
X191316Y77190D02*
Y83690D01*
X203200Y77620D02*
X209200D01*
X206201Y74620D02*
Y80620D01*
X128376Y120820D02*
X134376D01*
X131376Y117820D02*
Y123820D01*
X182300Y41420D02*
X188300D01*
X185301Y38420D02*
Y44420D01*
X107476Y84620D02*
X113476D01*
X110476Y81620D02*
Y87620D01*
X30000Y280000D02*
X75000D01*
X52500Y257500D02*
Y302500D01*
X335870Y66426D02*
X380870D01*
X358370Y43926D02*
Y88926D01*
X335874Y493574D02*
X380874D01*
X358374Y471074D02*
Y516074D01*
X532286Y287480D02*
X541286D01*
X536786Y282980D02*
Y291980D01*
X506886Y287480D02*
X515886D01*
X511386Y282980D02*
Y291980D01*
X510474Y230237D02*
X518474D01*
X514474Y226237D02*
Y234237D01*
X510474Y210237D02*
X518474D01*
X514474Y206237D02*
Y214237D01*
X356070Y254600D02*
X366070D01*
X361070Y249600D02*
Y259600D01*
X356070Y229200D02*
X366070D01*
X361070Y224200D02*
Y234200D01*
X381470Y229200D02*
X391470D01*
X386470Y224200D02*
Y234200D01*
X381470Y254600D02*
X391470D01*
X386470Y249600D02*
Y259600D01*
X381470Y280000D02*
X391470D01*
X386470Y275000D02*
Y285000D01*
X356070Y280000D02*
X366070D01*
X361070Y275000D02*
Y285000D01*
X356070Y305400D02*
X366070D01*
X361070Y300400D02*
Y310400D01*
X381470Y305400D02*
X391470D01*
X386470Y300400D02*
Y310400D01*
X381470Y330800D02*
X391470D01*
X386470Y325800D02*
Y335800D01*
X356070Y330800D02*
X366070D01*
X361070Y325800D02*
Y335800D01*
X324988Y546170D02*
X328988D01*
X326988Y544170D02*
Y548170D01*
X257974Y500237D02*
X261974D01*
X259974Y498237D02*
Y502237D01*
X277974Y500237D02*
X281974D01*
X279974Y498237D02*
Y502237D01*
X401192Y465989D02*
X405192D01*
X403192Y463989D02*
Y467989D01*
X293975Y496238D02*
X297975D01*
X295975Y494238D02*
Y498238D01*
X307974Y480237D02*
X311974D01*
X309974Y478237D02*
Y482237D01*
X376986Y454081D02*
X380986D01*
X378986Y452081D02*
Y456081D01*
X379476Y103404D02*
X383475D01*
X381475Y101404D02*
Y105404D01*
X247022Y232854D02*
X254134D01*
X250578Y229298D02*
Y236410D01*
X372599Y266843D02*
X376600D01*
X374599Y264844D02*
Y268843D01*
X372162Y291715D02*
X376162D01*
X374162Y289715D02*
Y293715D01*
X372455Y241211D02*
X376455D01*
X374455Y239211D02*
Y243211D01*
X331721Y241936D02*
X335722D01*
X333722Y239935D02*
Y243936D01*
X285863Y219679D02*
X289863D01*
X287863Y217679D02*
Y221679D01*
X205782Y221931D02*
X209782D01*
X207782Y219931D02*
Y223931D01*
X394096Y318748D02*
X398096D01*
X396096Y316748D02*
Y320748D01*
X219941Y509243D02*
X223941D01*
X221941Y507243D02*
Y511243D01*
X147168Y485376D02*
X151168D01*
X149168Y483376D02*
Y487375D01*
X195819Y515911D02*
X199819D01*
X197819Y513911D02*
Y517911D01*
X405851Y403925D02*
X409851D01*
X407851Y401925D02*
Y405925D01*
X407170Y437461D02*
X411170D01*
X409170Y435461D02*
Y439461D01*
X166544Y473820D02*
X170544D01*
X168544Y471820D02*
Y475820D01*
X205222Y538406D02*
X209222D01*
X207222Y536406D02*
Y540406D01*
X62254Y424088D02*
X66254D01*
X64254Y422088D02*
Y426088D01*
X103470Y282446D02*
X107470D01*
X105470Y280446D02*
Y284446D01*
X223801Y290279D02*
X227801D01*
X225801Y288279D02*
Y292279D01*
X323507Y451978D02*
X327507D01*
X325507Y449978D02*
Y453978D01*
X209368Y342186D02*
X213368D01*
X211368Y340186D02*
Y344186D01*
X200627Y183528D02*
X204627D01*
X202627Y181528D02*
Y185528D01*
X319845Y155580D02*
X323845D01*
X321845Y153580D02*
Y157580D01*
X405683Y43289D02*
X409683D01*
X407683Y41290D02*
Y45290D01*
X261753Y431296D02*
X265753D01*
X263753Y429296D02*
Y433296D01*
X285979Y379079D02*
X289979D01*
X287979Y377079D02*
Y381079D01*
X317987Y379455D02*
X321987D01*
X319987Y377455D02*
Y381455D01*
X240476Y546908D02*
X244476D01*
X242476Y544908D02*
Y548908D01*
X281431Y547429D02*
X285431D01*
X283431Y545429D02*
Y549429D01*
X132312Y346641D02*
X136312D01*
X134312Y344641D02*
Y348641D01*
X236812Y402573D02*
X240812D01*
X238812Y400573D02*
Y404573D01*
X297886Y442836D02*
X301886D01*
X299886Y440836D02*
Y444836D01*
X246729Y382140D02*
X253841D01*
X250285Y378584D02*
Y385696D01*
X133697Y260526D02*
X137697D01*
X135697Y258526D02*
Y262526D01*
X195073Y301953D02*
X199073D01*
X197073Y299953D02*
Y303953D01*
X122341Y429193D02*
X126341D01*
X124341Y427193D02*
Y431193D01*
X141058Y428437D02*
X145058D01*
X143058Y426437D02*
Y430437D01*
X156629Y430826D02*
X160629D01*
X158629Y428826D02*
Y432826D01*
X113765Y456014D02*
X117765D01*
X115765Y454014D02*
Y458014D01*
X156233Y239925D02*
X160233D01*
X158233Y237925D02*
Y241925D01*
X269472Y366313D02*
X273472D01*
X271472Y364313D02*
Y368313D01*
X294733Y350825D02*
X298733D01*
X296733Y348825D02*
Y352825D01*
X320397Y168484D02*
X324397D01*
X322397Y166483D02*
Y170483D01*
X268886Y346821D02*
X272886D01*
X270886Y344821D02*
Y348821D01*
X517974Y180237D02*
X521974D01*
X519974Y178237D02*
Y182237D01*
X127974Y360237D02*
X131974D01*
X129974Y358237D02*
Y362237D01*
X387974Y40237D02*
X391974D01*
X389974Y38237D02*
Y42237D01*
X207974Y520237D02*
X211974D01*
X209974Y518237D02*
Y522237D01*
X447974Y480237D02*
X451974D01*
X449974Y478237D02*
Y482237D01*
X417974Y140237D02*
X421974D01*
X419974Y138237D02*
Y142237D01*
X267974Y480237D02*
X271974D01*
X269974Y478237D02*
Y482237D01*
X477974Y460237D02*
X481974D01*
X479974Y458237D02*
Y462237D01*
X457974Y140237D02*
X461974D01*
X459974Y138237D02*
Y142237D01*
X477974Y380237D02*
X481974D01*
X479974Y378237D02*
Y382237D01*
X437974Y100237D02*
X441974D01*
X439974Y98237D02*
Y102237D01*
X77974Y220237D02*
X81974D01*
X79974Y218237D02*
Y222237D01*
X27974Y240237D02*
X31974D01*
X29974Y238237D02*
Y242237D01*
X187974Y440237D02*
X191974D01*
X189974Y438237D02*
Y442237D01*
X47974Y360237D02*
X51974D01*
X49974Y358237D02*
Y362237D01*
X137974Y60237D02*
X141974D01*
X139974Y58237D02*
Y62237D01*
X417974Y460237D02*
X421974D01*
X419974Y458237D02*
Y462237D01*
X487974Y120237D02*
X491974D01*
X489974Y118237D02*
Y122237D01*
X107974Y400237D02*
X111974D01*
X109974Y398237D02*
Y402237D01*
X497974Y180237D02*
X501974D01*
X499974Y178237D02*
Y182237D01*
X247974Y160237D02*
X251974D01*
X249974Y158237D02*
Y162237D01*
X67974Y120237D02*
X71974D01*
X69974Y118237D02*
Y122237D01*
X97974Y100237D02*
X101974D01*
X99974Y98237D02*
Y102237D01*
X177974Y60237D02*
X181974D01*
X179974Y58237D02*
Y62237D01*
X477974Y300237D02*
X481974D01*
X479974Y298237D02*
Y302237D01*
X107974Y120237D02*
X111974D01*
X109974Y118237D02*
Y122237D01*
X157974Y60237D02*
X161974D01*
X159974Y58237D02*
Y62237D01*
X497974Y380237D02*
X501974D01*
X499974Y378237D02*
Y382237D01*
X197974Y380237D02*
X201974D01*
X199974Y378237D02*
Y382237D01*
X267974Y280237D02*
X271974D01*
X269974Y278237D02*
Y282237D01*
X467974Y120237D02*
X471974D01*
X469974Y118237D02*
Y122237D01*
X197974Y420237D02*
X201974D01*
X199974Y418237D02*
Y422237D01*
X107974Y360237D02*
X111974D01*
X109974Y358237D02*
Y362237D01*
X227974Y440237D02*
X231974D01*
X229974Y438237D02*
Y442237D01*
X37974Y180237D02*
X41974D01*
X39974Y178237D02*
Y182237D01*
X457974Y380237D02*
X461974D01*
X459974Y378237D02*
Y382237D01*
X467974Y440237D02*
X471974D01*
X469974Y438237D02*
Y442237D01*
X97974Y220237D02*
X101974D01*
X99974Y218237D02*
Y222237D01*
X197974Y260237D02*
X201974D01*
X199974Y258237D02*
Y262237D01*
X537974Y340237D02*
X541974D01*
X539974Y338237D02*
Y342237D01*
X467974Y400237D02*
X471974D01*
X469974Y398237D02*
Y402237D01*
X247974Y480237D02*
X251974D01*
X249974Y478237D02*
Y482237D01*
X47974Y200237D02*
X51974D01*
X49974Y198237D02*
Y202237D01*
X67974Y360237D02*
X71974D01*
X69974Y358237D02*
Y362237D01*
X457974Y300237D02*
X461974D01*
X459974Y298237D02*
Y302237D01*
X67974Y400237D02*
X71974D01*
X69974Y398237D02*
Y402237D01*
X77974Y380237D02*
X81974D01*
X79974Y378237D02*
Y382237D01*
X187974Y360237D02*
X191974D01*
X189974Y358237D02*
Y362237D01*
X217974Y540237D02*
X221974D01*
X219974Y538237D02*
Y542237D01*
X487974Y160237D02*
X491974D01*
X489974Y158237D02*
Y162237D01*
X487974Y400237D02*
X491974D01*
X489974Y398237D02*
Y402237D01*
X487974Y360237D02*
X491974D01*
X489974Y358237D02*
Y362237D01*
X117974Y220237D02*
X121974D01*
X119974Y218237D02*
Y222237D01*
X507974Y400237D02*
X511974D01*
X509974Y398237D02*
Y402237D01*
X477974Y340237D02*
X481974D01*
X479974Y338237D02*
Y342237D01*
X67974Y240237D02*
X71974D01*
X69974Y238237D02*
Y242237D01*
X147974Y80237D02*
X151974D01*
X149974Y78237D02*
Y82237D01*
X287974Y480237D02*
X291974D01*
X289974Y478237D02*
Y482237D01*
X447974Y80237D02*
X451974D01*
X449974Y78237D02*
Y82237D01*
X497974Y340237D02*
X501974D01*
X499974Y338237D02*
Y342237D01*
X457974Y460237D02*
X461974D01*
X459974Y458237D02*
Y462237D01*
X37974Y220237D02*
X41974D01*
X39974Y218237D02*
Y222237D01*
X67974Y320237D02*
X71974D01*
X69974Y318237D02*
Y322237D01*
X417974Y380237D02*
X421974D01*
X419974Y378237D02*
Y382237D01*
X117974Y100237D02*
X121974D01*
X119974Y98237D02*
Y102237D01*
X467974Y160237D02*
X471974D01*
X469974Y158237D02*
Y162237D01*
X97974Y420237D02*
X101974D01*
X99974Y418237D02*
Y422237D01*
X427974Y120237D02*
X431974D01*
X429974Y118237D02*
Y122237D01*
X467974Y360237D02*
X471974D01*
X469974Y358237D02*
Y362237D01*
X507974Y160237D02*
X511974D01*
X509974Y158237D02*
Y162237D01*
X527974Y360237D02*
X531974D01*
X529974Y358237D02*
Y362237D01*
X37974Y380237D02*
X41974D01*
X39974Y378237D02*
Y382237D01*
X307974Y80237D02*
X311974D01*
X309974Y78237D02*
Y82237D01*
X47974Y400237D02*
X51974D01*
X49974Y398237D02*
Y402237D01*
X57974Y180237D02*
X61974D01*
X59974Y178237D02*
Y182237D01*
X217974Y420237D02*
X221974D01*
X219974Y418237D02*
Y422237D01*
X57974Y340237D02*
X61974D01*
X59974Y338237D02*
Y342237D01*
X467974Y320237D02*
X471974D01*
X469974Y318237D02*
Y322237D01*
X307974Y280237D02*
X311974D01*
X309974Y278237D02*
Y282237D01*
X457974Y420237D02*
X461974D01*
X459974Y418237D02*
Y422237D01*
X497974Y140237D02*
X501974D01*
X499974Y138237D02*
Y142237D01*
X517974Y380237D02*
X521974D01*
X519974Y378237D02*
Y382237D01*
X387974Y360237D02*
X391974D01*
X389974Y358237D02*
Y362237D01*
X97974Y380237D02*
X101974D01*
X99974Y378237D02*
Y382237D01*
X507974Y360237D02*
X511974D01*
X509974Y358237D02*
Y362237D01*
X437974Y140237D02*
X441974D01*
X439974Y138237D02*
Y142237D01*
X87974Y400237D02*
X91974D01*
X89974Y398237D02*
Y402237D01*
X87974Y360237D02*
X91974D01*
X89974Y358237D02*
Y362237D01*
X497974Y420237D02*
X501974D01*
X499974Y418237D02*
Y422237D01*
X77974Y420237D02*
X81974D01*
X79974Y418237D02*
Y422237D01*
X417974Y420237D02*
X421974D01*
X419974Y418237D02*
Y422237D01*
X217974Y380237D02*
X221974D01*
X219974Y378237D02*
Y382237D01*
X207974Y440237D02*
X211974D01*
X209974Y438237D02*
Y442237D01*
X227974Y520237D02*
X231974D01*
X229974Y518237D02*
Y522237D01*
X117974Y380237D02*
X121974D01*
X119974Y378237D02*
Y382237D01*
X207974Y360237D02*
X211974D01*
X209974Y358237D02*
Y362237D01*
X87974Y120237D02*
X91974D01*
X89974Y118237D02*
Y122237D01*
X77974Y340237D02*
X81974D01*
X79974Y338237D02*
Y342237D01*
X47974Y160237D02*
X51974D01*
X49974Y158237D02*
Y162237D01*
X287974Y280237D02*
X291974D01*
X289974Y278237D02*
Y282237D01*
X477974Y420237D02*
X481974D01*
X479974Y418237D02*
Y422237D01*
X177974Y380237D02*
X181974D01*
X179974Y378237D02*
Y382237D01*
X297974Y60237D02*
X301974D01*
X299974Y58237D02*
Y62237D01*
X67974Y200237D02*
X71974D01*
X69974Y198237D02*
Y202237D01*
X57974Y220237D02*
X61974D01*
X59974Y218237D02*
Y222237D01*
X137974Y220237D02*
X141974D01*
X139974Y218237D02*
Y222237D01*
X457974Y340237D02*
X461974D01*
X459974Y338237D02*
Y342237D01*
X167974Y360237D02*
X171974D01*
X169974Y358237D02*
Y362237D01*
X227974Y160237D02*
X231974D01*
X229974Y158237D02*
Y162237D01*
X217974Y460237D02*
X221974D01*
X219974Y458237D02*
Y462237D01*
X77974Y460237D02*
X81974D01*
X79974Y458237D02*
Y462237D01*
X457974Y100237D02*
X461974D01*
X459974Y98237D02*
Y102237D01*
X447974Y120237D02*
X451974D01*
X449974Y118237D02*
Y122237D01*
X477974Y100237D02*
X481974D01*
X479974Y98237D02*
Y102237D01*
X487974Y320237D02*
X491974D01*
X489974Y318237D02*
Y322237D01*
X57974Y380237D02*
X61974D01*
X59974Y378237D02*
Y382237D01*
X27974Y320237D02*
X31974D01*
X29974Y318237D02*
Y322237D01*
X487974Y440237D02*
X491974D01*
X489974Y438237D02*
Y442237D01*
X37974Y340237D02*
X41974D01*
X39974Y338237D02*
Y342237D01*
X337974Y20237D02*
X341974D01*
X339974Y18237D02*
Y22237D01*
X477974Y140237D02*
X481974D01*
X479974Y138237D02*
Y142237D01*
X257974Y177041D02*
X261974D01*
X259974Y175040D02*
Y179041D01*
X323743Y433948D02*
X327743D01*
X325743Y431948D02*
Y435948D01*
X247293Y454197D02*
X254405D01*
X250849Y450641D02*
Y457753D01*
M02*
