G04*
G04 #@! TF.GenerationSoftware,Altium Limited,Altium Designer,25.1.2 (22)*
G04*
G04 Layer_Color=8388736*
%FSLAX44Y44*%
%MOMM*%
G71*
G04*
G04 #@! TF.SameCoordinates,4DC4BC11-A5A9-46D6-A818-46A4CD50810F*
G04*
G04*
G04 #@! TF.FilePolarity,Negative*
G04*
G01*
G75*
%ADD38R,1.5716X1.1416*%
%ADD39R,1.1416X1.5716*%
%ADD40R,2.9016X1.4516*%
%ADD41R,2.1016X1.1216*%
G04:AMPARAMS|DCode=42|XSize=1.3716mm|YSize=0.8616mm|CornerRadius=0mm|HoleSize=0mm|Usage=FLASHONLY|Rotation=315.000|XOffset=0mm|YOffset=0mm|HoleType=Round|Shape=Rectangle|*
%AMROTATEDRECTD42*
4,1,4,-0.7896,0.1803,-0.1803,0.7896,0.7896,-0.1803,0.1803,-0.7896,-0.7896,0.1803,0.0*
%
%ADD42ROTATEDRECTD42*%

G04:AMPARAMS|DCode=43|XSize=1.3116mm|YSize=0.6816mm|CornerRadius=0.1233mm|HoleSize=0mm|Usage=FLASHONLY|Rotation=180.000|XOffset=0mm|YOffset=0mm|HoleType=Round|Shape=RoundedRectangle|*
%AMROUNDEDRECTD43*
21,1,1.3116,0.4350,0,0,180.0*
21,1,1.0650,0.6816,0,0,180.0*
1,1,0.2466,-0.5325,0.2175*
1,1,0.2466,0.5325,0.2175*
1,1,0.2466,0.5325,-0.2175*
1,1,0.2466,-0.5325,-0.2175*
%
%ADD43ROUNDEDRECTD43*%
%ADD44C,1.1016*%
%ADD45R,2.0016X2.0016*%
%ADD46R,1.7016X1.5016*%
%ADD47R,0.5016X1.4516*%
G04:AMPARAMS|DCode=48|XSize=0.398mm|YSize=1.248mm|CornerRadius=0mm|HoleSize=0mm|Usage=FLASHONLY|Rotation=330.000|XOffset=0mm|YOffset=0mm|HoleType=Round|Shape=Rectangle|*
%AMROTATEDRECTD48*
4,1,4,-0.4843,-0.4409,0.1397,0.6399,0.4843,0.4409,-0.1397,-0.6399,-0.4843,-0.4409,0.0*
%
%ADD48ROTATEDRECTD48*%

G04:AMPARAMS|DCode=49|XSize=0.698mm|YSize=1.248mm|CornerRadius=0mm|HoleSize=0mm|Usage=FLASHONLY|Rotation=330.000|XOffset=0mm|YOffset=0mm|HoleType=Round|Shape=Rectangle|*
%AMROTATEDRECTD49*
4,1,4,-0.6142,-0.3659,0.0098,0.7149,0.6142,0.3659,-0.0098,-0.7149,-0.6142,-0.3659,0.0*
%
%ADD49ROTATEDRECTD49*%

%ADD50R,3.5016X1.9516*%
G04:AMPARAMS|DCode=51|XSize=1.3116mm|YSize=0.6916mm|CornerRadius=0.1246mm|HoleSize=0mm|Usage=FLASHONLY|Rotation=0.000|XOffset=0mm|YOffset=0mm|HoleType=Round|Shape=RoundedRectangle|*
%AMROUNDEDRECTD51*
21,1,1.3116,0.4425,0,0,0.0*
21,1,1.0625,0.6916,0,0,0.0*
1,1,0.2491,0.5313,-0.2213*
1,1,0.2491,-0.5313,-0.2213*
1,1,0.2491,-0.5313,0.2213*
1,1,0.2491,0.5313,0.2213*
%
%ADD51ROUNDEDRECTD51*%
G04:AMPARAMS|DCode=52|XSize=1.4216mm|YSize=0.7016mm|CornerRadius=0.1258mm|HoleSize=0mm|Usage=FLASHONLY|Rotation=90.000|XOffset=0mm|YOffset=0mm|HoleType=Round|Shape=RoundedRectangle|*
%AMROUNDEDRECTD52*
21,1,1.4216,0.4500,0,0,90.0*
21,1,1.1700,0.7016,0,0,90.0*
1,1,0.2516,0.2250,0.5850*
1,1,0.2516,0.2250,-0.5850*
1,1,0.2516,-0.2250,-0.5850*
1,1,0.2516,-0.2250,0.5850*
%
%ADD52ROUNDEDRECTD52*%
G04:AMPARAMS|DCode=53|XSize=1.3116mm|YSize=0.8316mm|CornerRadius=0.2333mm|HoleSize=0mm|Usage=FLASHONLY|Rotation=0.000|XOffset=0mm|YOffset=0mm|HoleType=Round|Shape=RoundedRectangle|*
%AMROUNDEDRECTD53*
21,1,1.3116,0.3650,0,0,0.0*
21,1,0.8450,0.8316,0,0,0.0*
1,1,0.4666,0.4225,-0.1825*
1,1,0.4666,-0.4225,-0.1825*
1,1,0.4666,-0.4225,0.1825*
1,1,0.4666,0.4225,0.1825*
%
%ADD53ROUNDEDRECTD53*%
%ADD54R,0.9016X0.9016*%
G04:AMPARAMS|DCode=55|XSize=1.1416mm|YSize=1.5716mm|CornerRadius=0mm|HoleSize=0mm|Usage=FLASHONLY|Rotation=315.000|XOffset=0mm|YOffset=0mm|HoleType=Round|Shape=Rectangle|*
%AMROTATEDRECTD55*
4,1,4,-0.9593,-0.1520,0.1520,0.9593,0.9593,0.1520,-0.1520,-0.9593,-0.9593,-0.1520,0.0*
%
%ADD55ROTATEDRECTD55*%

G04:AMPARAMS|DCode=56|XSize=1.1416mm|YSize=1.5716mm|CornerRadius=0mm|HoleSize=0mm|Usage=FLASHONLY|Rotation=75.000|XOffset=0mm|YOffset=0mm|HoleType=Round|Shape=Rectangle|*
%AMROTATEDRECTD56*
4,1,4,0.6113,-0.7547,-0.9068,-0.3480,-0.6113,0.7547,0.9068,0.3480,0.6113,-0.7547,0.0*
%
%ADD56ROTATEDRECTD56*%

G04:AMPARAMS|DCode=57|XSize=1.1416mm|YSize=1.5716mm|CornerRadius=0mm|HoleSize=0mm|Usage=FLASHONLY|Rotation=225.000|XOffset=0mm|YOffset=0mm|HoleType=Round|Shape=Rectangle|*
%AMROTATEDRECTD57*
4,1,4,-0.1520,0.9593,0.9593,-0.1520,0.1520,-0.9593,-0.9593,0.1520,-0.1520,0.9593,0.0*
%
%ADD57ROTATEDRECTD57*%

G04:AMPARAMS|DCode=58|XSize=1.3116mm|YSize=0.5216mm|CornerRadius=0.1558mm|HoleSize=0mm|Usage=FLASHONLY|Rotation=90.000|XOffset=0mm|YOffset=0mm|HoleType=Round|Shape=RoundedRectangle|*
%AMROUNDEDRECTD58*
21,1,1.3116,0.2100,0,0,90.0*
21,1,1.0000,0.5216,0,0,90.0*
1,1,0.3116,0.1050,0.5000*
1,1,0.3116,0.1050,-0.5000*
1,1,0.3116,-0.1050,-0.5000*
1,1,0.3116,-0.1050,0.5000*
%
%ADD58ROUNDEDRECTD58*%
%ADD59O,1.0016X1.9016*%
G04:AMPARAMS|DCode=60|XSize=2.2016mm|YSize=1.1016mm|CornerRadius=0mm|HoleSize=0mm|Usage=FLASHONLY|Rotation=60.000|XOffset=0mm|YOffset=0mm|HoleType=Round|Shape=Round|*
%AMOVALD60*
21,1,1.1000,1.1016,0.0000,0.0000,60.0*
1,1,1.1016,-0.2750,-0.4763*
1,1,1.1016,0.2750,0.4763*
%
%ADD60OVALD60*%

G04:AMPARAMS|DCode=61|XSize=1.9016mm|YSize=1.1016mm|CornerRadius=0.3008mm|HoleSize=0mm|Usage=FLASHONLY|Rotation=60.000|XOffset=0mm|YOffset=0mm|HoleType=Round|Shape=RoundedRectangle|*
%AMROUNDEDRECTD61*
21,1,1.9016,0.5000,0,0,60.0*
21,1,1.3000,1.1016,0,0,60.0*
1,1,0.6016,0.5415,0.4379*
1,1,0.6016,-0.1085,-0.6879*
1,1,0.6016,-0.5415,-0.4379*
1,1,0.6016,0.1085,0.6879*
%
%ADD61ROUNDEDRECTD61*%
%ADD62C,7.1016*%
%ADD63O,1.8016X2.1016*%
%ADD64R,1.8016X2.1016*%
%ADD65C,1.4096*%
%ADD66R,1.4096X1.4096*%
%ADD67C,1.6016*%
%ADD68C,1.0032*%
%ADD69C,1.4732*%
%ADD70C,0.9016*%
D38*
X158130Y271269D02*
D03*
Y252469D02*
D03*
X306810Y316627D02*
D03*
Y297827D02*
D03*
X393148Y426873D02*
D03*
Y445673D02*
D03*
X231792Y366316D02*
D03*
Y347517D02*
D03*
X284367Y455182D02*
D03*
Y436382D02*
D03*
X181631Y325984D02*
D03*
Y344784D02*
D03*
X335081Y109593D02*
D03*
Y128393D02*
D03*
X425608Y60674D02*
D03*
Y79474D02*
D03*
X142479Y302162D02*
D03*
Y320961D02*
D03*
X359655Y109331D02*
D03*
Y128131D02*
D03*
X287510Y163466D02*
D03*
Y144666D02*
D03*
D39*
X244561Y305216D02*
D03*
X225761D02*
D03*
X295144Y393169D02*
D03*
X276343D02*
D03*
X284573Y304433D02*
D03*
X265773D02*
D03*
X338679Y394035D02*
D03*
X319879D02*
D03*
X264697Y327317D02*
D03*
X283498D02*
D03*
X288773Y185651D02*
D03*
X307573D02*
D03*
X182120Y301953D02*
D03*
X163320D02*
D03*
X239073Y208894D02*
D03*
X257873D02*
D03*
X275344Y415213D02*
D03*
X294144D02*
D03*
X224761Y327261D02*
D03*
X243561D02*
D03*
X319046Y415166D02*
D03*
X337846D02*
D03*
X80415Y168340D02*
D03*
X99215D02*
D03*
X96384Y323913D02*
D03*
X115184D02*
D03*
D40*
X309233Y336825D02*
D03*
Y364825D02*
D03*
X362593Y441014D02*
D03*
Y413014D02*
D03*
D41*
X341520Y330800D02*
D03*
Y305400D02*
D03*
X406020D02*
D03*
X341520Y280000D02*
D03*
X406020D02*
D03*
X341520Y254600D02*
D03*
X406020D02*
D03*
X341520Y229200D02*
D03*
X407020D02*
D03*
X406020Y330800D02*
D03*
D42*
X169401Y420054D02*
D03*
X160420Y411074D02*
D03*
X151440Y402094D02*
D03*
X142460Y393114D02*
D03*
X88578Y446995D02*
D03*
X97559Y455975D02*
D03*
X106539Y464956D02*
D03*
X115519Y473936D02*
D03*
D43*
X334565Y149523D02*
D03*
X334565Y159023D02*
D03*
X334565Y168523D02*
D03*
X309465Y149523D02*
D03*
Y159023D02*
D03*
Y168523D02*
D03*
D44*
X75391Y130711D02*
D03*
X256722Y107632D02*
D03*
X300088Y489102D02*
D03*
X308633Y65839D02*
D03*
X358507Y391399D02*
D03*
X169826Y174082D02*
D03*
X385974Y151632D02*
D03*
X162817Y320532D02*
D03*
D45*
X298770Y15000D02*
D03*
X274770Y15000D02*
D03*
D46*
X318770Y39500D02*
D03*
X254770D02*
D03*
D47*
X299770Y41750D02*
D03*
X293270Y41750D02*
D03*
X286770Y41750D02*
D03*
X280270Y41750D02*
D03*
X273770Y41750D02*
D03*
D48*
X156508Y112949D02*
D03*
X160838Y110450D02*
D03*
X165168Y107949D02*
D03*
X186819Y95449D02*
D03*
X182488Y97949D02*
D03*
X178158Y100449D02*
D03*
X169498Y105449D02*
D03*
X173828Y102949D02*
D03*
D49*
X192448Y92199D02*
D03*
X150879Y116200D02*
D03*
X199376Y88200D02*
D03*
X143950Y120199D02*
D03*
D50*
X114715Y245750D02*
D03*
Y190250D02*
D03*
D51*
X258687Y355061D02*
D03*
Y345561D02*
D03*
Y364561D02*
D03*
X283787D02*
D03*
Y355061D02*
D03*
Y345561D02*
D03*
X338136Y433410D02*
D03*
Y442910D02*
D03*
Y452410D02*
D03*
X313036D02*
D03*
Y433410D02*
D03*
Y442910D02*
D03*
D52*
X301132Y208960D02*
D03*
X320132D02*
D03*
X310632Y228960D02*
D03*
D53*
X520098Y261997D02*
D03*
X486498D02*
D03*
X224817Y186215D02*
D03*
X258417D02*
D03*
D54*
X400745Y61323D02*
D03*
Y76323D02*
D03*
D55*
X159980Y465657D02*
D03*
X173274Y452363D02*
D03*
X176439Y481843D02*
D03*
X189732Y468549D02*
D03*
X191660Y497711D02*
D03*
X204953Y484418D02*
D03*
D56*
X203105Y27804D02*
D03*
X207971Y45963D02*
D03*
X224910Y21961D02*
D03*
X229776Y40120D02*
D03*
D57*
X181588Y523020D02*
D03*
X168294Y509727D02*
D03*
D58*
X124773Y269998D02*
D03*
X118273D02*
D03*
X111773D02*
D03*
X105273D02*
D03*
Y295098D02*
D03*
X111773D02*
D03*
X118273D02*
D03*
X124773D02*
D03*
D59*
X319770Y15000D02*
D03*
X253770D02*
D03*
D60*
X206201Y77620D02*
D03*
X131376Y120820D02*
D03*
D61*
X185301Y41420D02*
D03*
X110476Y84620D02*
D03*
D62*
X52500Y280000D02*
D03*
X358370Y66426D02*
D03*
X358374Y493574D02*
D03*
D63*
X536786Y287480D02*
D03*
D64*
X511386D02*
D03*
D65*
X514474Y230237D02*
D03*
D66*
Y210237D02*
D03*
D67*
X361070Y254600D02*
D03*
Y229200D02*
D03*
X386470D02*
D03*
Y254600D02*
D03*
Y280000D02*
D03*
X361070D02*
D03*
Y305400D02*
D03*
X386470D02*
D03*
Y330800D02*
D03*
X361070D02*
D03*
D68*
X381475Y103404D02*
D03*
X407851Y403925D02*
D03*
X134312Y346641D02*
D03*
X238812Y402573D02*
D03*
X299886Y442836D02*
D03*
D69*
X250578Y232854D02*
D03*
X250285Y382140D02*
D03*
X250849Y454197D02*
D03*
D70*
X396096Y318748D02*
D03*
X271472Y366313D02*
D03*
M02*
