G04*
G04 #@! TF.GenerationSoftware,Altium Limited,Altium Designer,25.1.2 (22)*
G04*
G04 Layer_Physical_Order=2*
G04 Layer_Color=16711680*
%FSLAX44Y44*%
%MOMM*%
G71*
G04*
G04 #@! TF.SameCoordinates,4DC4BC11-A5A9-46D6-A818-46A4CD50810F*
G04*
G04*
G04 #@! TF.FilePolarity,Positive*
G04*
G01*
G75*
%ADD10C,0.3000*%
%ADD11C,0.2000*%
%ADD71C,0.2500*%
%ADD76C,0.6000*%
%ADD77C,0.5000*%
%ADD85O,0.9000X1.8000*%
%ADD86C,0.6500*%
G04:AMPARAMS|DCode=87|XSize=2.1mm|YSize=1mm|CornerRadius=0mm|HoleSize=0mm|Usage=FLASHONLY|Rotation=60.000|XOffset=0mm|YOffset=0mm|HoleType=Round|Shape=Round|*
%AMOVALD87*
21,1,1.1000,1.0000,0.0000,0.0000,60.0*
1,1,1.0000,-0.2750,-0.4763*
1,1,1.0000,0.2750,0.4763*
%
%ADD87OVALD87*%

G04:AMPARAMS|DCode=88|XSize=1.8mm|YSize=1mm|CornerRadius=0.25mm|HoleSize=0mm|Usage=FLASHONLY|Rotation=60.000|XOffset=0mm|YOffset=0mm|HoleType=Round|Shape=RoundedRectangle|*
%AMROUNDEDRECTD88*
21,1,1.8000,0.5000,0,0,60.0*
21,1,1.3000,1.0000,0,0,60.0*
1,1,0.5000,0.5415,0.4379*
1,1,0.5000,-0.1085,-0.6879*
1,1,0.5000,-0.5415,-0.4379*
1,1,0.5000,0.1085,0.6879*
%
%ADD88ROUNDEDRECTD88*%
%ADD89C,7.0000*%
%ADD90O,1.7000X2.0000*%
%ADD91R,1.7000X2.0000*%
%ADD92C,1.3080*%
%ADD93R,1.3080X1.3080*%
%ADD94C,1.5000*%
%ADD95C,0.8000*%
%ADD96C,1.2700*%
G04:AMPARAMS|DCode=97|XSize=0.25mm|YSize=0.35mm|CornerRadius=0mm|HoleSize=0mm|Usage=FLASHONLY|Rotation=315.000|XOffset=0mm|YOffset=0mm|HoleType=Round|Shape=Rectangle|*
%AMROTATEDRECTD97*
4,1,4,-0.2121,-0.0354,0.0354,0.2121,0.2121,0.0354,-0.0354,-0.2121,-0.2121,-0.0354,0.0*
%
%ADD97ROTATEDRECTD97*%

%ADD98C,1.5000*%
G36*
X296784Y557469D02*
X313506Y555949D01*
X330107Y553423D01*
X346524Y549898D01*
X362699Y545389D01*
X378572Y539912D01*
X394085Y533486D01*
X409182Y526135D01*
X423807Y517887D01*
X437908Y508770D01*
X451433Y498818D01*
X464332Y488068D01*
X476559Y476559D01*
X488068Y464332D01*
X498818Y451433D01*
X508770Y437908D01*
X517887Y423807D01*
X526135Y409182D01*
X533486Y394085D01*
X539912Y378572D01*
X545389Y362699D01*
X549898Y346524D01*
X553423Y330107D01*
X555949Y313506D01*
X557469Y296784D01*
X557971Y280172D01*
X557936Y280000D01*
X557971Y279828D01*
X557469Y263216D01*
X555949Y246494D01*
X553423Y229893D01*
X549898Y213476D01*
X545389Y197301D01*
X539912Y181428D01*
X533486Y165915D01*
X526135Y150818D01*
X517887Y136193D01*
X508770Y122092D01*
X498818Y108567D01*
X488068Y95668D01*
X476559Y83441D01*
X464332Y71932D01*
X451433Y61182D01*
X437908Y51230D01*
X423807Y42113D01*
X409182Y33865D01*
X394085Y26514D01*
X378572Y20088D01*
X362699Y14611D01*
X346524Y10102D01*
X330107Y6578D01*
X326686Y6057D01*
X326041Y7243D01*
X326629Y8662D01*
X326871Y10500D01*
Y13730D01*
X319770D01*
X312669D01*
Y10500D01*
X312911Y8662D01*
X313621Y6950D01*
X314749Y5479D01*
X314811Y5431D01*
X314495Y4201D01*
X313506Y4051D01*
X296784Y2531D01*
X280172Y2029D01*
X280000Y2064D01*
X279828Y2029D01*
X263216Y2531D01*
X257501Y3051D01*
X257304Y4344D01*
X257320Y4351D01*
X258791Y5479D01*
X259919Y6950D01*
X260629Y8662D01*
X260871Y10500D01*
Y13730D01*
X253770D01*
X246669D01*
Y10500D01*
X246911Y8662D01*
X247621Y6950D01*
X248749Y5479D01*
X249278Y5073D01*
X248797Y3842D01*
X246494Y4051D01*
X229893Y6578D01*
X213476Y10102D01*
X197301Y14611D01*
X181428Y20088D01*
X165915Y26514D01*
X150818Y33865D01*
X136193Y42113D01*
X122092Y51230D01*
X108567Y61182D01*
X95668Y71932D01*
X83441Y83441D01*
X71932Y95668D01*
X61182Y108567D01*
X51230Y122092D01*
X42113Y136193D01*
X33865Y150818D01*
X26514Y165915D01*
X20088Y181428D01*
X14611Y197301D01*
X10102Y213476D01*
X6578Y229893D01*
X4051Y246494D01*
X2531Y263216D01*
X2029Y279828D01*
X2064Y280000D01*
X2029Y280172D01*
X2531Y296784D01*
X4051Y313506D01*
X6578Y330107D01*
X10102Y346524D01*
X14611Y362699D01*
X20088Y378572D01*
X26514Y394085D01*
X33865Y409182D01*
X42113Y423807D01*
X51230Y437908D01*
X61182Y451433D01*
X71932Y464332D01*
X83441Y476559D01*
X95668Y488068D01*
X108567Y498818D01*
X122092Y508770D01*
X136193Y517887D01*
X150818Y526135D01*
X165915Y533486D01*
X181428Y539912D01*
X197301Y545389D01*
X213476Y549898D01*
X229893Y553423D01*
X246494Y555949D01*
X263216Y557469D01*
X279828Y557971D01*
X280000Y557936D01*
X280172Y557971D01*
X296784Y557469D01*
D02*
G37*
%LPC*%
G36*
X358374Y530211D02*
X352643Y529760D01*
X347053Y528418D01*
X341741Y526217D01*
X336839Y523214D01*
X332468Y519480D01*
X328734Y515108D01*
X325730Y510207D01*
X323530Y504895D01*
X322188Y499305D01*
X321737Y493574D01*
X322188Y487842D01*
X323530Y482252D01*
X325730Y476941D01*
X328734Y472039D01*
X332468Y467668D01*
X336839Y463934D01*
X341741Y460930D01*
X347053Y458730D01*
X352643Y457388D01*
X358374Y456937D01*
X364105Y457388D01*
X369696Y458730D01*
X375007Y460930D01*
X379909Y463934D01*
X384280Y467668D01*
X388014Y472039D01*
X391018Y476941D01*
X393218Y482252D01*
X394560Y487842D01*
X395011Y493574D01*
X394560Y499305D01*
X393218Y504895D01*
X391018Y510207D01*
X388014Y515108D01*
X384280Y519480D01*
X379909Y523214D01*
X375007Y526217D01*
X369696Y528418D01*
X364105Y529760D01*
X358374Y530211D01*
D02*
G37*
G36*
X132207Y463599D02*
X128941Y460332D01*
X128930Y460331D01*
X128907Y460299D01*
X128836Y460228D01*
X128612Y460135D01*
X128520Y459911D01*
X128314Y459705D01*
X128295Y459688D01*
X127577Y458969D01*
X126846Y457953D01*
X123459Y454567D01*
X123282Y454497D01*
X123141Y454452D01*
X122785Y454413D01*
X122448Y454451D01*
X121652Y454839D01*
X121618Y454910D01*
X121544Y455106D01*
X121487Y455305D01*
X121446Y455513D01*
X121422Y455729D01*
X121414Y456022D01*
X121381Y456095D01*
X120969Y458169D01*
X119748Y459997D01*
X117920Y461218D01*
X115765Y461646D01*
X113610Y461218D01*
X111783Y459997D01*
X110562Y458169D01*
X110133Y456014D01*
X110562Y453859D01*
X111783Y452032D01*
X113610Y450811D01*
X115684Y450398D01*
X115757Y450365D01*
X116050Y450357D01*
X116267Y450333D01*
X116474Y450292D01*
X116673Y450235D01*
X116869Y450161D01*
X117064Y450068D01*
X117076Y450061D01*
X117218Y449929D01*
X117291Y449775D01*
X117422Y449037D01*
X117413Y448813D01*
X117298Y448414D01*
X117291Y448402D01*
X117280Y448388D01*
X114525Y445633D01*
X113510Y444902D01*
X112790Y444184D01*
X112770Y444161D01*
X112567Y443959D01*
X112344Y443866D01*
X112251Y443643D01*
X112181Y443573D01*
X112148Y443549D01*
X112147Y443538D01*
X108880Y440271D01*
X115372Y433780D01*
X115373Y433773D01*
X115390Y433761D01*
X115433Y433718D01*
X115526Y433495D01*
X115749Y433402D01*
X116692Y432459D01*
X116692Y432459D01*
X117507Y431926D01*
X117562Y431904D01*
X117750Y431784D01*
X117802Y431733D01*
X117858Y431577D01*
X118054Y431364D01*
X118185Y431194D01*
X118299Y431015D01*
X118399Y430822D01*
X118485Y430614D01*
X118558Y430387D01*
X118616Y430139D01*
X118659Y429867D01*
X118684Y429570D01*
X118692Y429199D01*
X118721Y429134D01*
X119138Y427038D01*
X120358Y425210D01*
X122186Y423989D01*
X124341Y423561D01*
X126496Y423989D01*
X128324Y425210D01*
X129545Y427038D01*
X129973Y429193D01*
X129545Y431348D01*
X128324Y433175D01*
X126496Y434396D01*
X124400Y434813D01*
X124335Y434842D01*
X123964Y434850D01*
X123667Y434875D01*
X123395Y434918D01*
X123147Y434976D01*
X122920Y435049D01*
X122711Y435135D01*
X122519Y435235D01*
X122340Y435349D01*
X122170Y435480D01*
X121957Y435676D01*
X121801Y435732D01*
X121749Y435785D01*
X121121Y436889D01*
X121322Y437090D01*
X120379Y438032D01*
X120287Y438256D01*
X120126Y438322D01*
X120029Y438466D01*
X119926Y438486D01*
X117351Y441060D01*
X117429Y441147D01*
X117665Y441387D01*
X117739Y441568D01*
X121137Y444966D01*
X121163Y444986D01*
X122718Y445131D01*
X124596Y443253D01*
X124602Y443203D01*
X124785Y443059D01*
X124874Y442843D01*
X125098Y442751D01*
X126041Y441808D01*
X126110Y441878D01*
X127219Y441260D01*
X136791Y431688D01*
X136807Y431611D01*
X136908Y431545D01*
X136949Y431432D01*
X137146Y431216D01*
X137264Y431058D01*
X137357Y430902D01*
X137431Y430745D01*
X137487Y430579D01*
X137528Y430402D01*
X137552Y430206D01*
X137558Y429988D01*
X137543Y429744D01*
X137494Y429412D01*
X137564Y429133D01*
X137425Y428437D01*
X137854Y426282D01*
X139075Y424454D01*
X140902Y423233D01*
X143058Y422805D01*
X145213Y423233D01*
X147040Y424454D01*
X148261Y426282D01*
X148690Y428437D01*
X148261Y430592D01*
X147040Y432420D01*
X145213Y433640D01*
X144316Y433819D01*
X144060Y433996D01*
X143274Y434164D01*
X142984Y434250D01*
X142699Y434352D01*
X142437Y434464D01*
X142197Y434585D01*
X141979Y434713D01*
X141780Y434850D01*
X141598Y434995D01*
X141387Y435191D01*
X141230Y435249D01*
X131161Y445318D01*
X131097Y445482D01*
X130507Y446096D01*
X130425Y446193D01*
X130671Y446438D01*
X129728Y447381D01*
X129635Y447604D01*
X129420Y447694D01*
X129275Y447877D01*
X129226Y447883D01*
X126700Y450409D01*
X126777Y450496D01*
X127014Y450735D01*
X127088Y450917D01*
X130519Y454348D01*
X132066Y454479D01*
X133944Y452601D01*
X133950Y452552D01*
X134133Y452407D01*
X134223Y452192D01*
X134446Y452099D01*
X135389Y451156D01*
X135459Y451226D01*
X136567Y450608D01*
X152805Y434371D01*
X152860Y434217D01*
X153059Y433999D01*
X153169Y433850D01*
X153250Y433712D01*
X153306Y433584D01*
X153343Y433458D01*
X153365Y433327D01*
X153371Y433181D01*
X153360Y433014D01*
X153325Y432820D01*
X153243Y432527D01*
X153278Y432237D01*
X152997Y430826D01*
X153426Y428671D01*
X154647Y426843D01*
X156474Y425622D01*
X158629Y425194D01*
X160784Y425622D01*
X162612Y426843D01*
X163833Y428671D01*
X164261Y430826D01*
X163833Y432981D01*
X162612Y434809D01*
X160784Y436029D01*
X160464Y436093D01*
X160321Y436216D01*
X159937Y436342D01*
X159233Y436616D01*
X158966Y436740D01*
X158399Y437052D01*
X158184Y437192D01*
X157974Y437346D01*
X157786Y437502D01*
X157578Y437697D01*
X157418Y437757D01*
X140509Y454666D01*
X140445Y454830D01*
X139856Y455445D01*
X139774Y455541D01*
X140019Y455786D01*
X139076Y456729D01*
X138984Y456953D01*
X138768Y457042D01*
X138624Y457225D01*
X138574Y457231D01*
X136096Y459709D01*
X132207Y463599D01*
D02*
G37*
G36*
X197819Y521543D02*
X195664Y521114D01*
X193836Y519893D01*
X192616Y518066D01*
X192187Y515911D01*
X192616Y513755D01*
X193836Y511928D01*
X195664Y510707D01*
X197760Y510290D01*
X197825Y510261D01*
X198197Y510254D01*
X198493Y510228D01*
X198765Y510186D01*
X199014Y510127D01*
X199240Y510055D01*
X199449Y509968D01*
X199641Y509868D01*
X199820Y509754D01*
X199990Y509624D01*
X200203Y509428D01*
X200359Y509371D01*
X246466Y463264D01*
X246463Y463248D01*
X246368Y462893D01*
X245990Y461887D01*
X245747Y461360D01*
X244592Y459277D01*
X244106Y458502D01*
X244072Y458300D01*
X243971Y458168D01*
X243178Y456253D01*
X242907Y454197D01*
X243178Y452141D01*
X243971Y450226D01*
X245233Y448581D01*
X246878Y447319D01*
X248793Y446526D01*
X250849Y446255D01*
X252904Y446526D01*
X254820Y447319D01*
X256465Y448581D01*
X257727Y450226D01*
X258520Y452141D01*
X258791Y454197D01*
X258520Y456253D01*
X257727Y458168D01*
X256465Y459813D01*
X255229Y460761D01*
X255072Y460991D01*
X254451Y461395D01*
X253945Y461771D01*
X253516Y462139D01*
X253162Y462495D01*
X252881Y462835D01*
X252668Y463157D01*
X252515Y463458D01*
X252413Y463743D01*
X252355Y464019D01*
X252328Y464411D01*
X252275Y464519D01*
X252297Y464637D01*
X252151Y464850D01*
X252046Y465379D01*
X251433Y466297D01*
X251432Y466297D01*
X204359Y513371D01*
X204302Y513526D01*
X204106Y513740D01*
X203976Y513909D01*
X203861Y514089D01*
X203761Y514281D01*
X203675Y514489D01*
X203602Y514716D01*
X203544Y514964D01*
X203501Y515236D01*
X203476Y515533D01*
X203468Y515905D01*
X203440Y515970D01*
X203022Y518066D01*
X201802Y519893D01*
X199974Y521114D01*
X197819Y521543D01*
D02*
G37*
G36*
X299886Y448468D02*
X297731Y448040D01*
X295903Y446819D01*
X294682Y444991D01*
X294254Y442836D01*
X294682Y440681D01*
X295903Y438853D01*
X297731Y437633D01*
X299826Y437216D01*
X299892Y437187D01*
X300263Y437179D01*
X300560Y437154D01*
X300832Y437111D01*
X301080Y437053D01*
X301307Y436980D01*
X301516Y436894D01*
X301707Y436794D01*
X301887Y436679D01*
X302056Y436549D01*
X302270Y436353D01*
X302425Y436296D01*
X313804Y424918D01*
X314721Y424305D01*
X315804Y424090D01*
X382988D01*
X383199Y424002D01*
X401279Y406381D01*
X401338Y406226D01*
X401536Y406015D01*
X401669Y405847D01*
X401786Y405669D01*
X401888Y405479D01*
X401977Y405271D01*
X402053Y405045D01*
X402114Y404798D01*
X402160Y404526D01*
X402189Y404230D01*
X402202Y403859D01*
X402255Y403742D01*
X402647Y401770D01*
X403868Y399943D01*
X405695Y398722D01*
X407851Y398293D01*
X410006Y398722D01*
X411833Y399943D01*
X413054Y401770D01*
X413483Y403925D01*
X413054Y406081D01*
X411833Y407908D01*
X410006Y409129D01*
X407851Y409557D01*
X407823Y409552D01*
X407772Y409574D01*
X407400Y409577D01*
X407104Y409598D01*
X406831Y409637D01*
X406582Y409693D01*
X406354Y409762D01*
X406145Y409846D01*
X405951Y409944D01*
X405770Y410056D01*
X405599Y410184D01*
X405383Y410377D01*
X405227Y410432D01*
X387871Y427347D01*
X386987Y428260D01*
X386987Y428260D01*
X385301Y429386D01*
X384437Y429558D01*
X384562Y430828D01*
X404956D01*
X406038Y431043D01*
X406650Y431452D01*
X406979Y431580D01*
X407184Y431776D01*
X407342Y431912D01*
X407473Y432011D01*
X407572Y432076D01*
X407610Y432096D01*
X407697Y432052D01*
X407829Y432096D01*
X409170Y431829D01*
X411325Y432258D01*
X413153Y433479D01*
X414374Y435306D01*
X414802Y437461D01*
X414374Y439617D01*
X413153Y441444D01*
X411325Y442665D01*
X409170Y443094D01*
X407015Y442665D01*
X405187Y441444D01*
X403967Y439617D01*
X403538Y437461D01*
X402543Y436519D01*
X402407Y436485D01*
X332284D01*
X332154Y436551D01*
X332126Y436542D01*
X332100Y436554D01*
X331809Y436567D01*
X331605Y436595D01*
X331410Y436641D01*
X331221Y436704D01*
X331034Y436788D01*
X330846Y436894D01*
X330654Y437025D01*
X330458Y437185D01*
X330259Y437375D01*
X330019Y437640D01*
X329874Y437708D01*
X329726Y437931D01*
X327898Y439152D01*
X325743Y439581D01*
X323588Y439152D01*
X321760Y437931D01*
X320540Y436104D01*
X320111Y433948D01*
X320540Y431793D01*
X321058Y431017D01*
X320379Y429747D01*
X316975D01*
X306425Y440296D01*
X306369Y440451D01*
X306173Y440665D01*
X306042Y440835D01*
X305928Y441014D01*
X305828Y441206D01*
X305742Y441415D01*
X305669Y441641D01*
X305611Y441890D01*
X305568Y442162D01*
X305543Y442458D01*
X305535Y442830D01*
X305506Y442895D01*
X305089Y444991D01*
X303869Y446819D01*
X302041Y448040D01*
X299886Y448468D01*
D02*
G37*
G36*
X238812Y408205D02*
X236657Y407776D01*
X234830Y406556D01*
X233608Y404728D01*
X233180Y402573D01*
X233608Y400418D01*
X234830Y398590D01*
X236657Y397369D01*
X238812Y396941D01*
X240967Y397369D01*
X242745Y398557D01*
X242811Y398583D01*
X243079Y398840D01*
X243307Y399032D01*
X243529Y399194D01*
X243746Y399328D01*
X243958Y399437D01*
X244166Y399524D01*
X244373Y399589D01*
X244580Y399635D01*
X244793Y399663D01*
X245082Y399675D01*
X245232Y399745D01*
X246316D01*
X254542Y391519D01*
X253822Y390442D01*
X252641Y390931D01*
X250285Y391242D01*
X247929Y390931D01*
X245734Y390022D01*
X243849Y388576D01*
X242403Y386691D01*
X241493Y384495D01*
X241183Y382140D01*
Y268755D01*
X241476Y266534D01*
Y232854D01*
X241786Y230499D01*
X242695Y228303D01*
X244142Y226418D01*
X246027Y224972D01*
X248222Y224062D01*
X250578Y223752D01*
X252933Y224062D01*
X255128Y224972D01*
X257014Y226418D01*
X258460Y228303D01*
X259369Y230499D01*
X259680Y232854D01*
Y268462D01*
X259387Y270683D01*
Y382140D01*
X259077Y384495D01*
X258588Y385677D01*
X259664Y386396D01*
X291325Y354736D01*
X291380Y354582D01*
X291582Y354361D01*
X291688Y354217D01*
X291756Y354099D01*
X291796Y354004D01*
X291816Y353926D01*
X291824Y353854D01*
X291821Y353774D01*
X291803Y353671D01*
X291762Y353539D01*
X291655Y353296D01*
X291652Y353162D01*
X291530Y352980D01*
X291101Y350825D01*
X291530Y348669D01*
X292751Y346842D01*
X294578Y345621D01*
X296733Y345193D01*
X298889Y345621D01*
X300716Y346842D01*
X301937Y348669D01*
X302365Y350825D01*
X301937Y352980D01*
X300716Y354807D01*
X299271Y355773D01*
X299119Y355945D01*
X298438Y356280D01*
X297860Y356610D01*
X297330Y356963D01*
X297119Y357121D01*
X296664Y357505D01*
X296457Y357703D01*
X296293Y357767D01*
X296103Y357957D01*
X296096Y357965D01*
X296095Y357966D01*
X249487Y404573D01*
X248570Y405186D01*
X247487Y405401D01*
X245232D01*
X245082Y405471D01*
X244793Y405484D01*
X244580Y405511D01*
X244373Y405557D01*
X244166Y405622D01*
X243958Y405709D01*
X243746Y405818D01*
X243529Y405952D01*
X243307Y406114D01*
X243079Y406306D01*
X242811Y406563D01*
X242745Y406589D01*
X240967Y407776D01*
X238812Y408205D01*
D02*
G37*
G36*
X270886Y352453D02*
X268731Y352024D01*
X266904Y350804D01*
X265683Y348976D01*
X265254Y346821D01*
X265683Y344666D01*
X266904Y342838D01*
X268731Y341618D01*
X270827Y341200D01*
X270892Y341172D01*
X271264Y341164D01*
X271561Y341139D01*
X271833Y341096D01*
X272081Y341038D01*
X272308Y340965D01*
X272516Y340879D01*
X272708Y340779D01*
X272888Y340664D01*
X273057Y340534D01*
X273271Y340338D01*
X273426Y340281D01*
X296959Y316748D01*
X296960Y316748D01*
X297877Y316135D01*
X298960Y315920D01*
X389676D01*
X389826Y315850D01*
X390116Y315837D01*
X390328Y315810D01*
X390535Y315764D01*
X390742Y315698D01*
X390950Y315612D01*
X391162Y315503D01*
X391379Y315369D01*
X391601Y315207D01*
X391829Y315015D01*
X392097Y314758D01*
X392164Y314732D01*
X393941Y313544D01*
X396096Y313116D01*
X398251Y313544D01*
X400079Y314765D01*
X401300Y316593D01*
X401728Y318748D01*
X401300Y320903D01*
X400079Y322730D01*
X398251Y323951D01*
X396096Y324380D01*
X394235Y324010D01*
X393529Y324832D01*
X393429Y325046D01*
X394352Y326249D01*
X395262Y328444D01*
X395572Y330800D01*
X395262Y333156D01*
X394352Y335351D01*
X392906Y337236D01*
X391021Y338682D01*
X388826Y339592D01*
X386470Y339902D01*
X384114Y339592D01*
X381919Y338682D01*
X380034Y337236D01*
X378588Y335351D01*
X377678Y333156D01*
X377368Y330800D01*
X377678Y328444D01*
X378588Y326249D01*
X380034Y324364D01*
X381919Y322918D01*
X382091Y322846D01*
X381839Y321576D01*
X365701D01*
X365449Y322846D01*
X365621Y322918D01*
X367506Y324364D01*
X368952Y326249D01*
X369862Y328444D01*
X370172Y330800D01*
X369862Y333156D01*
X368952Y335351D01*
X367506Y337236D01*
X365621Y338682D01*
X363426Y339592D01*
X361070Y339902D01*
X358714Y339592D01*
X356519Y338682D01*
X354634Y337236D01*
X353188Y335351D01*
X352278Y333156D01*
X351968Y330800D01*
X352278Y328444D01*
X353188Y326249D01*
X354634Y324364D01*
X356519Y322918D01*
X356691Y322846D01*
X356439Y321576D01*
X300131D01*
X277426Y344281D01*
X277369Y344436D01*
X277173Y344650D01*
X277043Y344820D01*
X276929Y344999D01*
X276829Y345191D01*
X276742Y345400D01*
X276670Y345627D01*
X276611Y345875D01*
X276569Y346147D01*
X276543Y346443D01*
X276535Y346815D01*
X276507Y346880D01*
X276090Y348976D01*
X274869Y350804D01*
X273042Y352024D01*
X270886Y352453D01*
D02*
G37*
G36*
X386470Y314502D02*
X384114Y314192D01*
X381919Y313282D01*
X380034Y311836D01*
X378588Y309951D01*
X377678Y307756D01*
X377368Y305400D01*
X377678Y303044D01*
X378588Y300849D01*
X380034Y298964D01*
X381919Y297518D01*
X384114Y296608D01*
X386470Y296298D01*
X388826Y296608D01*
X391021Y297518D01*
X392906Y298964D01*
X394352Y300849D01*
X395262Y303044D01*
X395572Y305400D01*
X395262Y307756D01*
X394352Y309951D01*
X392906Y311836D01*
X391021Y313282D01*
X388826Y314192D01*
X386470Y314502D01*
D02*
G37*
G36*
X361070D02*
X358714Y314192D01*
X356519Y313282D01*
X354634Y311836D01*
X353188Y309951D01*
X352278Y307756D01*
X351968Y305400D01*
X352278Y303044D01*
X353188Y300849D01*
X354634Y298964D01*
X356519Y297518D01*
X358714Y296608D01*
X361070Y296298D01*
X363426Y296608D01*
X365621Y297518D01*
X367506Y298964D01*
X368952Y300849D01*
X369862Y303044D01*
X370172Y305400D01*
X369862Y307756D01*
X368952Y309951D01*
X367506Y311836D01*
X365621Y313282D01*
X363426Y314192D01*
X361070Y314502D01*
D02*
G37*
G36*
X362340Y289959D02*
Y281270D01*
X371029D01*
X370852Y282621D01*
X369840Y285063D01*
X368231Y287161D01*
X366133Y288770D01*
X363691Y289782D01*
X362340Y289959D01*
D02*
G37*
G36*
X359800D02*
X358449Y289782D01*
X356007Y288770D01*
X353909Y287161D01*
X352300Y285063D01*
X351288Y282621D01*
X351111Y281270D01*
X359800D01*
Y289959D01*
D02*
G37*
G36*
X521410Y299004D02*
X501362D01*
Y275956D01*
X521410D01*
Y299004D01*
D02*
G37*
G36*
X536786Y299090D02*
X534170Y298746D01*
X531731Y297736D01*
X529637Y296129D01*
X528030Y294035D01*
X527020Y291597D01*
X526676Y288980D01*
Y285980D01*
X527020Y283363D01*
X528030Y280925D01*
X529637Y278831D01*
X531731Y277224D01*
X534170Y276214D01*
X536786Y275870D01*
X539403Y276214D01*
X541842Y277224D01*
X543936Y278831D01*
X545542Y280925D01*
X546552Y283363D01*
X546897Y285980D01*
Y288980D01*
X546552Y291597D01*
X545542Y294035D01*
X543936Y296129D01*
X541842Y297736D01*
X539403Y298746D01*
X536786Y299090D01*
D02*
G37*
G36*
X386470Y289102D02*
X384114Y288792D01*
X381919Y287882D01*
X380034Y286436D01*
X378588Y284551D01*
X377678Y282356D01*
X377368Y280000D01*
X377678Y277644D01*
X378588Y275449D01*
X380034Y273564D01*
X381919Y272118D01*
X384114Y271208D01*
X386470Y270898D01*
X388826Y271208D01*
X391021Y272118D01*
X392906Y273564D01*
X394352Y275449D01*
X395262Y277644D01*
X395572Y280000D01*
X395262Y282356D01*
X394352Y284551D01*
X392906Y286436D01*
X391021Y287882D01*
X388826Y288792D01*
X386470Y289102D01*
D02*
G37*
G36*
X371029Y278730D02*
X362340D01*
Y270041D01*
X363691Y270218D01*
X366133Y271230D01*
X368231Y272839D01*
X369840Y274937D01*
X370852Y277379D01*
X371029Y278730D01*
D02*
G37*
G36*
X359800D02*
X351111D01*
X351288Y277379D01*
X352300Y274937D01*
X353909Y272839D01*
X356007Y271230D01*
X358449Y270218D01*
X359800Y270041D01*
Y278730D01*
D02*
G37*
G36*
X134312Y352274D02*
X132156Y351845D01*
X130329Y350624D01*
X129108Y348797D01*
X128679Y346641D01*
X129108Y344486D01*
X130048Y343080D01*
X130048Y343078D01*
X130048Y343065D01*
X130057Y343044D01*
X130064Y343009D01*
X130159Y341515D01*
X130162Y341108D01*
X130209Y340997D01*
Y266767D01*
X130162Y266649D01*
X130177Y266614D01*
X130165Y266579D01*
X130209Y265858D01*
Y262724D01*
X130355Y261987D01*
X130065Y260526D01*
X130494Y258371D01*
X131715Y256544D01*
X133542Y255323D01*
X135697Y254894D01*
X137853Y255323D01*
X139680Y256544D01*
X140901Y258371D01*
X141329Y260526D01*
X140901Y262682D01*
X139680Y264509D01*
X138564Y265255D01*
X138560Y265272D01*
X138535Y265417D01*
X138466Y266386D01*
X138461Y266787D01*
X138459Y266792D01*
X138461Y266797D01*
X138414Y266904D01*
Y340978D01*
X138461Y341083D01*
X138487Y342273D01*
X138528Y342797D01*
X138548Y342952D01*
X138566Y343044D01*
X138575Y343065D01*
X138575Y343078D01*
X138576Y343080D01*
X139515Y344486D01*
X139944Y346641D01*
X139515Y348797D01*
X138294Y350624D01*
X136467Y351845D01*
X134312Y352274D01*
D02*
G37*
G36*
X386470Y263702D02*
X384114Y263392D01*
X381919Y262482D01*
X380034Y261036D01*
X378588Y259151D01*
X377678Y256956D01*
X377368Y254600D01*
X377678Y252244D01*
X378588Y250049D01*
X380034Y248164D01*
X381919Y246718D01*
X384114Y245808D01*
X386470Y245498D01*
X388826Y245808D01*
X391021Y246718D01*
X392906Y248164D01*
X394352Y250049D01*
X395262Y252244D01*
X395572Y254600D01*
X395262Y256956D01*
X394352Y259151D01*
X392906Y261036D01*
X391021Y262482D01*
X388826Y263392D01*
X386470Y263702D01*
D02*
G37*
G36*
X361070D02*
X358714Y263392D01*
X356519Y262482D01*
X354634Y261036D01*
X353188Y259151D01*
X352278Y256956D01*
X351968Y254600D01*
X352278Y252244D01*
X353188Y250049D01*
X354634Y248164D01*
X356519Y246718D01*
X358714Y245808D01*
X361070Y245498D01*
X363426Y245808D01*
X365621Y246718D01*
X367506Y248164D01*
X368952Y250049D01*
X369862Y252244D01*
X370172Y254600D01*
X369862Y256956D01*
X368952Y259151D01*
X367506Y261036D01*
X365621Y262482D01*
X363426Y263392D01*
X361070Y263702D01*
D02*
G37*
G36*
X52500Y316637D02*
X46769Y316186D01*
X41179Y314844D01*
X35867Y312644D01*
X30965Y309640D01*
X26594Y305906D01*
X22860Y301535D01*
X19856Y296633D01*
X17656Y291321D01*
X16314Y285731D01*
X15863Y280000D01*
X16314Y274269D01*
X17656Y268679D01*
X19856Y263367D01*
X22860Y258465D01*
X26594Y254094D01*
X30965Y250360D01*
X35867Y247356D01*
X41179Y245156D01*
X46769Y243814D01*
X52500Y243363D01*
X58231Y243814D01*
X63821Y245156D01*
X69133Y247356D01*
X74035Y250360D01*
X78406Y254094D01*
X82140Y258465D01*
X85144Y263367D01*
X87344Y268679D01*
X88686Y274269D01*
X89137Y280000D01*
X88686Y285731D01*
X87344Y291321D01*
X85144Y296633D01*
X82140Y301535D01*
X78406Y305906D01*
X74035Y309640D01*
X69133Y312644D01*
X63821Y314844D01*
X58231Y316186D01*
X52500Y316637D01*
D02*
G37*
G36*
X514474Y238371D02*
X512369Y238094D01*
X510408Y237281D01*
X508723Y235989D01*
X507430Y234304D01*
X506618Y232342D01*
X506341Y230237D01*
X506618Y228132D01*
X507430Y226170D01*
X508723Y224486D01*
X510408Y223193D01*
X512369Y222381D01*
X514474Y222104D01*
X516580Y222381D01*
X518541Y223193D01*
X520226Y224486D01*
X521518Y226170D01*
X522331Y228132D01*
X522608Y230237D01*
X522331Y232342D01*
X521518Y234304D01*
X520226Y235989D01*
X518541Y237281D01*
X516580Y238094D01*
X514474Y238371D01*
D02*
G37*
G36*
X386470Y238302D02*
X384114Y237992D01*
X381919Y237082D01*
X380034Y235636D01*
X378588Y233751D01*
X377678Y231556D01*
X377368Y229200D01*
X377678Y226844D01*
X378588Y224649D01*
X380034Y222764D01*
X381919Y221318D01*
X384114Y220408D01*
X386470Y220098D01*
X388826Y220408D01*
X391021Y221318D01*
X392906Y222764D01*
X394352Y224649D01*
X395262Y226844D01*
X395572Y229200D01*
X395262Y231556D01*
X394352Y233751D01*
X392906Y235636D01*
X391021Y237082D01*
X388826Y237992D01*
X386470Y238302D01*
D02*
G37*
G36*
X361070D02*
X358714Y237992D01*
X356519Y237082D01*
X354634Y235636D01*
X353188Y233751D01*
X352278Y231556D01*
X351968Y229200D01*
X352278Y226844D01*
X353188Y224649D01*
X354634Y222764D01*
X356519Y221318D01*
X358714Y220408D01*
X361070Y220098D01*
X363426Y220408D01*
X365621Y221318D01*
X367506Y222764D01*
X368952Y224649D01*
X369862Y226844D01*
X370172Y229200D01*
X369862Y231556D01*
X368952Y233751D01*
X367506Y235636D01*
X365621Y237082D01*
X363426Y237992D01*
X361070Y238302D01*
D02*
G37*
G36*
X523554Y219317D02*
X515744D01*
Y211507D01*
X523554D01*
Y219317D01*
D02*
G37*
G36*
X513204D02*
X505394D01*
Y211507D01*
X513204D01*
Y219317D01*
D02*
G37*
G36*
X523554Y208967D02*
X515744D01*
Y201157D01*
X523554D01*
Y208967D01*
D02*
G37*
G36*
X513204D02*
X505394D01*
Y201157D01*
X513204D01*
Y208967D01*
D02*
G37*
G36*
X134126Y133188D02*
X132158Y132929D01*
X130323Y132169D01*
X128748Y130961D01*
X127540Y129385D01*
X125425Y125722D01*
X130911Y122555D01*
X136745Y132659D01*
X136094Y132929D01*
X134126Y133188D01*
D02*
G37*
G36*
X138945Y131389D02*
X133111Y121285D01*
X138597Y118117D01*
X140712Y121781D01*
X141472Y123615D01*
X141731Y125583D01*
X141472Y127551D01*
X140712Y129385D01*
X139503Y130961D01*
X138945Y131389D01*
D02*
G37*
G36*
X124155Y123523D02*
X122040Y119859D01*
X121280Y118025D01*
X121021Y116057D01*
X121280Y114088D01*
X122040Y112254D01*
X123248Y110679D01*
X123807Y110250D01*
X129641Y120355D01*
X124155Y123523D01*
D02*
G37*
G36*
X131841Y119085D02*
X126007Y108980D01*
X126658Y108711D01*
X128626Y108452D01*
X130594Y108711D01*
X132428Y109471D01*
X134003Y110679D01*
X135212Y112254D01*
X137327Y115918D01*
X131841Y119085D01*
D02*
G37*
G36*
X141260Y114203D02*
X140666Y114085D01*
X140000Y114042D01*
X139698Y113893D01*
X139399Y113833D01*
X138895Y113497D01*
X138297Y113202D01*
X138075Y112948D01*
X137821Y112779D01*
X137485Y112275D01*
X137045Y111774D01*
X136937Y111455D01*
X136767Y111201D01*
X136649Y110607D01*
X136434Y109975D01*
X136456Y109639D01*
X136397Y109340D01*
X136515Y108746D01*
X136558Y108080D01*
X136707Y107778D01*
X136767Y107479D01*
X137103Y106975D01*
X137398Y106377D01*
X137651Y106155D01*
X137821Y105901D01*
X138324Y105564D01*
X138826Y105124D01*
X139145Y105016D01*
X139399Y104847D01*
X139993Y104728D01*
X140625Y104514D01*
X140961Y104536D01*
X141260Y104476D01*
X141854Y104594D01*
X142520Y104638D01*
X142822Y104787D01*
X143121Y104847D01*
X143625Y105183D01*
X144223Y105478D01*
X144445Y105731D01*
X144699Y105901D01*
X145035Y106404D01*
X145476Y106906D01*
X145584Y107225D01*
X145753Y107479D01*
X145871Y108073D01*
X146086Y108705D01*
X146064Y109040D01*
X146124Y109340D01*
X146005Y109934D01*
X145962Y110600D01*
X145813Y110901D01*
X145753Y111201D01*
X145417Y111705D01*
X145122Y112303D01*
X144869Y112525D01*
X144699Y112779D01*
X144196Y113115D01*
X143694Y113555D01*
X143375Y113663D01*
X143121Y113833D01*
X142527Y113951D01*
X141895Y114166D01*
X141560Y114144D01*
X141260Y114203D01*
D02*
G37*
G36*
X322397Y174116D02*
X320242Y173687D01*
X318415Y172466D01*
X317194Y170639D01*
X316765Y168484D01*
X317194Y166328D01*
X318415Y164501D01*
X320242Y163280D01*
X321285Y163072D01*
X376863Y107495D01*
Y106444D01*
X376272Y105560D01*
X375843Y103404D01*
X376272Y101249D01*
X377493Y99422D01*
X379320Y98201D01*
X381475Y97772D01*
X383631Y98201D01*
X385458Y99422D01*
X386679Y101249D01*
X387108Y103404D01*
X386679Y105560D01*
X386088Y106444D01*
Y109405D01*
X385737Y111171D01*
X384737Y112667D01*
X327808Y169596D01*
X327601Y170639D01*
X326380Y172466D01*
X324553Y173687D01*
X322397Y174116D01*
D02*
G37*
G36*
X112232Y96594D02*
X110231Y96463D01*
X108433Y95576D01*
X107111Y94068D01*
X104496Y89539D01*
X110011Y86355D01*
X115195Y95334D01*
X114130Y95949D01*
X112232Y96594D01*
D02*
G37*
G36*
X117395Y94064D02*
X112211Y85085D01*
X117726Y81901D01*
X120341Y86430D01*
X120986Y88328D01*
X120855Y90329D01*
X119968Y92127D01*
X118460Y93449D01*
X117395Y94064D01*
D02*
G37*
G36*
X208951Y89988D02*
X206982Y89729D01*
X205148Y88969D01*
X203573Y87760D01*
X202364Y86186D01*
X200249Y82522D01*
X205736Y79355D01*
X211570Y89459D01*
X210919Y89729D01*
X208951Y89988D01*
D02*
G37*
G36*
X191316Y85303D02*
X190722Y85185D01*
X190056Y85141D01*
X189755Y84993D01*
X189455Y84933D01*
X188952Y84597D01*
X188353Y84301D01*
X188131Y84048D01*
X187877Y83879D01*
X187541Y83375D01*
X187101Y82873D01*
X186993Y82555D01*
X186823Y82301D01*
X186705Y81707D01*
X186490Y81075D01*
X186513Y80739D01*
X186453Y80440D01*
X186571Y79846D01*
X186615Y79180D01*
X186763Y78878D01*
X186823Y78579D01*
X187160Y78075D01*
X187455Y77477D01*
X187708Y77255D01*
X187877Y77001D01*
X188381Y76664D01*
X188883Y76224D01*
X189201Y76116D01*
X189455Y75946D01*
X190049Y75828D01*
X190681Y75614D01*
X191017Y75636D01*
X191316Y75576D01*
X191910Y75694D01*
X192576Y75738D01*
X192878Y75887D01*
X193178Y75946D01*
X193681Y76283D01*
X194279Y76578D01*
X194501Y76831D01*
X194755Y77001D01*
X195092Y77504D01*
X195532Y78006D01*
X195640Y78325D01*
X195810Y78579D01*
X195928Y79172D01*
X196142Y79804D01*
X196120Y80140D01*
X196180Y80440D01*
X196062Y81034D01*
X196018Y81699D01*
X195869Y82001D01*
X195810Y82301D01*
X195473Y82804D01*
X195178Y83403D01*
X194925Y83625D01*
X194755Y83879D01*
X194252Y84215D01*
X193750Y84655D01*
X193431Y84763D01*
X193178Y84933D01*
X192584Y85051D01*
X191952Y85266D01*
X191616Y85244D01*
X191316Y85303D01*
D02*
G37*
G36*
X103226Y87339D02*
X100611Y82810D01*
X99966Y80912D01*
X100097Y78911D01*
X100984Y77112D01*
X102492Y75791D01*
X103557Y75175D01*
X108741Y84155D01*
X103226Y87339D01*
D02*
G37*
G36*
X213769Y88189D02*
X207935Y78085D01*
X213422Y74917D01*
X215537Y78580D01*
X216296Y80415D01*
X216556Y82383D01*
X216296Y84351D01*
X215537Y86186D01*
X214328Y87760D01*
X213769Y88189D01*
D02*
G37*
G36*
X110941Y82885D02*
X105756Y73906D01*
X106822Y73291D01*
X108720Y72646D01*
X110721Y72777D01*
X112519Y73664D01*
X113841Y75171D01*
X116456Y79701D01*
X110941Y82885D01*
D02*
G37*
G36*
X198979Y80323D02*
X196864Y76659D01*
X196105Y74825D01*
X195845Y72857D01*
X196105Y70888D01*
X196864Y69054D01*
X198073Y67479D01*
X198632Y67050D01*
X204466Y77155D01*
X198979Y80323D01*
D02*
G37*
G36*
X206665Y75885D02*
X200831Y65780D01*
X201482Y65511D01*
X203451Y65252D01*
X205419Y65511D01*
X207253Y66270D01*
X208828Y67479D01*
X210037Y69054D01*
X212152Y72717D01*
X206665Y75885D01*
D02*
G37*
G36*
X187056Y53394D02*
X185055Y53263D01*
X183257Y52376D01*
X181935Y50869D01*
X179320Y46339D01*
X184836Y43155D01*
X190020Y52134D01*
X188955Y52749D01*
X187056Y53394D01*
D02*
G37*
G36*
X192220Y50864D02*
X187035Y41885D01*
X192551Y38700D01*
X195166Y43230D01*
X195810Y45128D01*
X195679Y47129D01*
X194792Y48927D01*
X193285Y50249D01*
X192220Y50864D01*
D02*
G37*
G36*
X178050Y44139D02*
X175435Y39610D01*
X174791Y37712D01*
X174922Y35711D01*
X175809Y33913D01*
X177316Y32591D01*
X178381Y31976D01*
X183566Y40955D01*
X178050Y44139D01*
D02*
G37*
G36*
X358370Y103063D02*
X352639Y102612D01*
X347049Y101270D01*
X341737Y99070D01*
X336835Y96066D01*
X332464Y92332D01*
X328730Y87961D01*
X325726Y83059D01*
X323526Y77748D01*
X322184Y72158D01*
X321733Y66426D01*
X322184Y60695D01*
X323526Y55105D01*
X325726Y49793D01*
X328730Y44892D01*
X332464Y40520D01*
X336835Y36786D01*
X341737Y33782D01*
X347049Y31582D01*
X352639Y30240D01*
X358370Y29789D01*
X364101Y30240D01*
X369691Y31582D01*
X375003Y33782D01*
X379905Y36786D01*
X384276Y40520D01*
X388010Y44892D01*
X391014Y49793D01*
X393214Y55105D01*
X394556Y60695D01*
X395007Y66426D01*
X394556Y72158D01*
X393214Y77748D01*
X391014Y83059D01*
X388010Y87961D01*
X384276Y92332D01*
X379905Y96066D01*
X375003Y99070D01*
X369691Y101270D01*
X364101Y102612D01*
X358370Y103063D01*
D02*
G37*
G36*
X185765Y39685D02*
X180581Y30706D01*
X181646Y30091D01*
X183545Y29446D01*
X185546Y29577D01*
X187344Y30464D01*
X188666Y31971D01*
X191281Y36501D01*
X185765Y39685D01*
D02*
G37*
G36*
X321040Y26434D02*
Y16270D01*
X326871D01*
Y19500D01*
X326629Y21338D01*
X325919Y23050D01*
X324791Y24521D01*
X323320Y25649D01*
X321608Y26359D01*
X321040Y26434D01*
D02*
G37*
G36*
X255040D02*
Y16270D01*
X260871D01*
Y19500D01*
X260629Y21338D01*
X259919Y23050D01*
X258791Y24521D01*
X257320Y25649D01*
X255608Y26359D01*
X255040Y26434D01*
D02*
G37*
G36*
X318500D02*
X317932Y26359D01*
X316220Y25649D01*
X314749Y24521D01*
X313621Y23050D01*
X312911Y21338D01*
X312669Y19500D01*
Y16270D01*
X318500D01*
Y26434D01*
D02*
G37*
G36*
X252500D02*
X251932Y26359D01*
X250220Y25649D01*
X248749Y24521D01*
X247621Y23050D01*
X246911Y21338D01*
X246669Y19500D01*
Y16270D01*
X252500D01*
Y26434D01*
D02*
G37*
%LPD*%
G36*
X131500Y457247D02*
X131457Y457262D01*
X131388Y457246D01*
X131294Y457198D01*
X131175Y457119D01*
X131031Y457009D01*
X130667Y456694D01*
X129932Y455987D01*
X128518Y457401D01*
X128785Y457671D01*
X129651Y458644D01*
X129730Y458763D01*
X129778Y458857D01*
X129794Y458925D01*
X129779Y458968D01*
X131500Y457247D01*
D02*
G37*
G36*
X125841Y451895D02*
X125573Y451624D01*
X124708Y450652D01*
X124629Y450533D01*
X124581Y450439D01*
X124565Y450370D01*
X124580Y450327D01*
X122859Y452048D01*
X122902Y452033D01*
X122971Y452049D01*
X123064Y452097D01*
X123183Y452176D01*
X123327Y452287D01*
X123691Y452602D01*
X124426Y453309D01*
X125841Y451895D01*
D02*
G37*
G36*
X137772Y455706D02*
X137769Y455597D01*
X137808Y455459D01*
X137889Y455292D01*
X138012Y455097D01*
X138176Y454873D01*
X138632Y454338D01*
X139255Y453689D01*
X137487Y451921D01*
X137148Y452253D01*
X136079Y453164D01*
X135883Y453287D01*
X135717Y453368D01*
X135579Y453406D01*
X135470Y453403D01*
X135389Y453358D01*
X137817Y455786D01*
X137772Y455706D01*
D02*
G37*
G36*
X119775Y455614D02*
X119814Y455263D01*
X119881Y454920D01*
X119977Y454585D01*
X120101Y454259D01*
X120253Y453942D01*
X120433Y453633D01*
X120642Y453332D01*
X120879Y453040D01*
X121145Y452756D01*
X119024Y450634D01*
X118740Y450900D01*
X118447Y451137D01*
X118147Y451346D01*
X117837Y451526D01*
X117520Y451678D01*
X117194Y451802D01*
X116859Y451898D01*
X116516Y451965D01*
X116165Y452004D01*
X115805Y452014D01*
X119765Y455974D01*
X119775Y455614D01*
D02*
G37*
G36*
X122152Y447899D02*
X122108Y447914D01*
X122040Y447898D01*
X121946Y447850D01*
X121827Y447771D01*
X121683Y447660D01*
X121319Y447346D01*
X120584Y446638D01*
X119170Y448052D01*
X119437Y448323D01*
X120302Y449296D01*
X120381Y449414D01*
X120429Y449508D01*
X120445Y449577D01*
X120430Y449620D01*
X122152Y447899D01*
D02*
G37*
G36*
X116492Y442546D02*
X116225Y442276D01*
X115359Y441303D01*
X115280Y441184D01*
X115233Y441090D01*
X115216Y441022D01*
X115231Y440979D01*
X113510Y442700D01*
X113554Y442685D01*
X113622Y442701D01*
X113716Y442749D01*
X113835Y442828D01*
X113979Y442938D01*
X114343Y443253D01*
X115078Y443960D01*
X116492Y442546D01*
D02*
G37*
G36*
X128424Y446357D02*
X128421Y446248D01*
X128460Y446110D01*
X128540Y445944D01*
X128663Y445748D01*
X128828Y445524D01*
X129283Y444990D01*
X129906Y444340D01*
X128139Y442572D01*
X127800Y442905D01*
X126730Y443815D01*
X126535Y443938D01*
X126368Y444019D01*
X126230Y444058D01*
X126121Y444055D01*
X126041Y444010D01*
X128469Y446438D01*
X128424Y446357D01*
D02*
G37*
G36*
X119052Y436986D02*
X119028Y436855D01*
X119048Y436699D01*
X119113Y436516D01*
X119222Y436307D01*
X119375Y436072D01*
X119573Y435810D01*
X120103Y435208D01*
X120434Y434868D01*
X118666Y433100D01*
X118328Y433434D01*
X117107Y434510D01*
X116957Y434608D01*
X116837Y434665D01*
X116749Y434683D01*
X116692Y434661D01*
X119121Y437090D01*
X119052Y436986D01*
D02*
G37*
G36*
X156694Y436264D02*
X156959Y436045D01*
X157244Y435836D01*
X157549Y435636D01*
X158221Y435267D01*
X158587Y435098D01*
X159380Y434788D01*
X159808Y434648D01*
X154831Y432080D01*
X154935Y432451D01*
X154999Y432811D01*
X155024Y433161D01*
X155008Y433501D01*
X154953Y433831D01*
X154858Y434150D01*
X154723Y434460D01*
X154549Y434759D01*
X154334Y435048D01*
X154080Y435328D01*
X156449Y436494D01*
X156694Y436264D01*
D02*
G37*
G36*
X121108Y434216D02*
X121392Y433997D01*
X121694Y433805D01*
X122014Y433639D01*
X122351Y433499D01*
X122706Y433385D01*
X123078Y433298D01*
X123468Y433236D01*
X123876Y433201D01*
X124301Y433193D01*
X120341Y429233D01*
X120333Y429658D01*
X120297Y430066D01*
X120236Y430456D01*
X120149Y430828D01*
X120035Y431183D01*
X119895Y431520D01*
X119729Y431840D01*
X119537Y432142D01*
X119318Y432426D01*
X119073Y432693D01*
X120841Y434460D01*
X121108Y434216D01*
D02*
G37*
G36*
X140521Y433744D02*
X140797Y433524D01*
X141092Y433321D01*
X141407Y433135D01*
X141742Y432967D01*
X142097Y432816D01*
X142471Y432682D01*
X142866Y432565D01*
X143714Y432383D01*
X139126Y429172D01*
X139185Y429572D01*
X139209Y429958D01*
X139199Y430329D01*
X139155Y430687D01*
X139076Y431031D01*
X138963Y431362D01*
X138816Y431678D01*
X138634Y431980D01*
X138418Y432269D01*
X138168Y432543D01*
X140265Y433981D01*
X140521Y433744D01*
D02*
G37*
G36*
X201828Y515445D02*
X201863Y515038D01*
X201924Y514648D01*
X202011Y514275D01*
X202125Y513920D01*
X202265Y513583D01*
X202431Y513264D01*
X202623Y512962D01*
X202842Y512677D01*
X203087Y512411D01*
X201319Y510643D01*
X201052Y510888D01*
X200768Y511106D01*
X200466Y511299D01*
X200146Y511465D01*
X199809Y511605D01*
X199454Y511718D01*
X199082Y511806D01*
X198692Y511867D01*
X198284Y511902D01*
X197859Y511911D01*
X201819Y515871D01*
X201828Y515445D01*
D02*
G37*
G36*
X250718Y463792D02*
X250822Y463294D01*
X250997Y462805D01*
X251241Y462324D01*
X251555Y461851D01*
X251938Y461386D01*
X252392Y460930D01*
X252915Y460481D01*
X253508Y460041D01*
X254170Y459609D01*
X245504Y457626D01*
X246013Y458439D01*
X247218Y460613D01*
X247513Y461249D01*
X247942Y462390D01*
X248076Y462894D01*
X248156Y463354D01*
X248183Y463770D01*
X250683Y464297D01*
X250718Y463792D01*
D02*
G37*
G36*
X303894Y442371D02*
X303929Y441963D01*
X303991Y441573D01*
X304078Y441201D01*
X304192Y440846D01*
X304332Y440509D01*
X304498Y440189D01*
X304690Y439887D01*
X304909Y439603D01*
X305154Y439336D01*
X303386Y437568D01*
X303119Y437813D01*
X302835Y438032D01*
X302533Y438224D01*
X302213Y438390D01*
X301876Y438530D01*
X301521Y438644D01*
X301149Y438731D01*
X300759Y438792D01*
X300351Y438828D01*
X299926Y438836D01*
X303886Y442796D01*
X303894Y442371D01*
D02*
G37*
G36*
X407816Y433698D02*
X407657Y433738D01*
X407490Y433750D01*
X407313Y433731D01*
X407129Y433683D01*
X406935Y433605D01*
X406733Y433498D01*
X406523Y433361D01*
X406304Y433194D01*
X406076Y432998D01*
X405840Y432772D01*
X404072Y434540D01*
X404324Y434802D01*
X404740Y435293D01*
X404903Y435522D01*
X405036Y435741D01*
X405138Y435947D01*
X405211Y436143D01*
X405254Y436328D01*
X405267Y436502D01*
X405250Y436665D01*
X407816Y433698D01*
D02*
G37*
G36*
X329076Y436223D02*
X329366Y435947D01*
X329665Y435703D01*
X329974Y435492D01*
X330292Y435313D01*
X330620Y435166D01*
X330957Y435053D01*
X331304Y434971D01*
X331661Y434922D01*
X332027Y434906D01*
X331834Y432406D01*
X331477Y432392D01*
X331123Y432348D01*
X330772Y432275D01*
X330423Y432173D01*
X330077Y432042D01*
X329734Y431881D01*
X329393Y431691D01*
X329055Y431473D01*
X328720Y431224D01*
X328387Y430947D01*
X328797Y436532D01*
X329076Y436223D01*
D02*
G37*
G36*
X404553Y408906D02*
X404840Y408691D01*
X405145Y408503D01*
X405466Y408341D01*
X405805Y408205D01*
X406161Y408096D01*
X406535Y408013D01*
X406926Y407957D01*
X407334Y407928D01*
X407759Y407924D01*
X403851Y403914D01*
X403836Y404339D01*
X403796Y404746D01*
X403730Y405135D01*
X403638Y405507D01*
X403520Y405860D01*
X403375Y406195D01*
X403205Y406513D01*
X403009Y406812D01*
X402787Y407094D01*
X402538Y407357D01*
X404283Y409148D01*
X404553Y408906D01*
D02*
G37*
G36*
X241975Y405079D02*
X242288Y404815D01*
X242608Y404582D01*
X242933Y404381D01*
X243264Y404211D01*
X243601Y404071D01*
X243945Y403963D01*
X244294Y403885D01*
X244650Y403839D01*
X245012Y403823D01*
Y401323D01*
X244650Y401307D01*
X244294Y401261D01*
X243945Y401184D01*
X243601Y401075D01*
X243264Y400936D01*
X242933Y400765D01*
X242608Y400564D01*
X242288Y400331D01*
X241975Y400067D01*
X241669Y399773D01*
Y405373D01*
X241975Y405079D01*
D02*
G37*
G36*
X295560Y356278D02*
X296091Y355830D01*
X296378Y355615D01*
X296993Y355206D01*
X297664Y354822D01*
X298392Y354465D01*
X293164Y352630D01*
X293309Y352959D01*
X293410Y353284D01*
X293465Y353603D01*
X293476Y353917D01*
X293442Y354226D01*
X293363Y354529D01*
X293239Y354828D01*
X293071Y355122D01*
X292857Y355410D01*
X292599Y355694D01*
X295316Y356512D01*
X295560Y356278D01*
D02*
G37*
G36*
X274895Y346356D02*
X274930Y345948D01*
X274991Y345558D01*
X275079Y345186D01*
X275192Y344831D01*
X275332Y344494D01*
X275498Y344174D01*
X275691Y343872D01*
X275909Y343588D01*
X276154Y343321D01*
X274386Y341553D01*
X274120Y341798D01*
X273835Y342017D01*
X273533Y342209D01*
X273214Y342375D01*
X272877Y342515D01*
X272522Y342629D01*
X272149Y342716D01*
X271759Y342777D01*
X271352Y342812D01*
X270926Y342821D01*
X274886Y346781D01*
X274895Y346356D01*
D02*
G37*
G36*
X393239Y315948D02*
X392933Y316242D01*
X392620Y316506D01*
X392300Y316738D01*
X391975Y316940D01*
X391644Y317110D01*
X391307Y317250D01*
X390963Y317358D01*
X390614Y317436D01*
X390258Y317482D01*
X389896Y317498D01*
Y319998D01*
X390258Y320013D01*
X390614Y320060D01*
X390963Y320137D01*
X391307Y320246D01*
X391644Y320385D01*
X391975Y320556D01*
X392300Y320757D01*
X392620Y320990D01*
X392933Y321253D01*
X393239Y321548D01*
Y315948D01*
D02*
G37*
G36*
X137055Y343705D02*
X137004Y343584D01*
X136959Y343421D01*
X136920Y343217D01*
X136887Y342971D01*
X136839Y342355D01*
X136812Y341119D01*
X131812D01*
X131809Y341572D01*
X131704Y343217D01*
X131665Y343421D01*
X131620Y343584D01*
X131569Y343705D01*
X131512Y343785D01*
X137112D01*
X137055Y343705D01*
D02*
G37*
G36*
X136817Y266318D02*
X136895Y265222D01*
X136942Y264941D01*
X137000Y264703D01*
X137068Y264508D01*
X137146Y264355D01*
X137235Y264244D01*
X137334Y264176D01*
X132081Y262236D01*
X131812Y266679D01*
X136812Y266768D01*
X136817Y266318D01*
D02*
G37*
D10*
X115765Y456014D02*
X121806Y449973D01*
D11*
X113157Y440625D02*
X131854Y459322D01*
X113157Y440625D02*
Y440625D01*
D71*
X384988Y426208D02*
G03*
X383243Y426918I-1745J-1790D01*
G01*
X325063Y433656D02*
X404956D01*
X383243Y426918D02*
X383243Y426918D01*
X384988Y426208D02*
X407851Y403925D01*
X117046Y436488D02*
Y436736D01*
Y436488D02*
X124341Y429193D01*
X126394Y446084D02*
X143058Y429421D01*
Y428437D02*
Y429421D01*
X135743Y455433D02*
X158629Y432546D01*
Y430826D02*
Y432546D01*
X238812Y402573D02*
X247487D01*
X296159Y353901D01*
X298960Y318748D02*
X396096D01*
X270886Y346821D02*
X298960Y318748D01*
X299886Y442836D02*
X315804Y426918D01*
X383243D01*
X299886Y442836D02*
Y442836D01*
X404956Y433656D02*
X408761Y437461D01*
X409170D01*
X249433Y455613D02*
Y464297D01*
X197819Y515911D02*
X249433Y464297D01*
Y455613D02*
X250849Y454197D01*
D76*
X381475Y103404D02*
Y109405D01*
X322397Y168484D02*
X381475Y109405D01*
D77*
X134312Y262724D02*
X135697Y261338D01*
X134312Y262724D02*
Y346641D01*
X135697Y260526D02*
Y261338D01*
D85*
X319770Y15000D02*
D03*
X253770D02*
D03*
D86*
X141260Y109340D02*
D03*
X191316Y80440D02*
D03*
D87*
X206201Y77620D02*
D03*
X131376Y120820D02*
D03*
D88*
X185301Y41420D02*
D03*
X110476Y84620D02*
D03*
D89*
X52500Y280000D02*
D03*
X358370Y66426D02*
D03*
X358374Y493574D02*
D03*
D90*
X536786Y287480D02*
D03*
D91*
X511386D02*
D03*
D92*
X514474Y230237D02*
D03*
D93*
Y210237D02*
D03*
D94*
X361070Y254600D02*
D03*
Y229200D02*
D03*
X386470D02*
D03*
Y254600D02*
D03*
Y280000D02*
D03*
X361070D02*
D03*
Y305400D02*
D03*
X386470D02*
D03*
Y330800D02*
D03*
X361070D02*
D03*
D95*
X326988Y546170D02*
D03*
X259974Y500237D02*
D03*
X279974D02*
D03*
X403192Y465989D02*
D03*
X295975Y496238D02*
D03*
X309974Y480237D02*
D03*
X378986Y454081D02*
D03*
X381475Y103404D02*
D03*
X374599Y266843D02*
D03*
X374162Y291715D02*
D03*
X374455Y241211D02*
D03*
X333722Y241936D02*
D03*
X287863Y219679D02*
D03*
X207782Y221931D02*
D03*
X396096Y318748D02*
D03*
X221941Y509243D02*
D03*
X149168Y485376D02*
D03*
X197819Y515911D02*
D03*
X407851Y403925D02*
D03*
X409170Y437461D02*
D03*
X168544Y473820D02*
D03*
X207222Y538406D02*
D03*
X64254Y424088D02*
D03*
X105470Y282446D02*
D03*
X225801Y290279D02*
D03*
X325507Y451978D02*
D03*
X211368Y342186D02*
D03*
X202627Y183528D02*
D03*
X321845Y155580D02*
D03*
X407683Y43289D02*
D03*
X263753Y431296D02*
D03*
X287979Y379079D02*
D03*
X319987Y379455D02*
D03*
X242476Y546908D02*
D03*
X283431Y547429D02*
D03*
X134312Y346641D02*
D03*
X238812Y402573D02*
D03*
X299886Y442836D02*
D03*
X135697Y260526D02*
D03*
X197073Y301953D02*
D03*
X124341Y429193D02*
D03*
X143058Y428437D02*
D03*
X158629Y430826D02*
D03*
X115765Y456014D02*
D03*
X158233Y239925D02*
D03*
X271472Y366313D02*
D03*
X296733Y350825D02*
D03*
X322397Y168484D02*
D03*
X270886Y346821D02*
D03*
X519974Y180237D02*
D03*
X129974Y360237D02*
D03*
X389974Y40237D02*
D03*
X209974Y520237D02*
D03*
X449974Y480237D02*
D03*
X419974Y140237D02*
D03*
X269974Y480237D02*
D03*
X479974Y460237D02*
D03*
X459974Y140237D02*
D03*
X479974Y380237D02*
D03*
X439974Y100237D02*
D03*
X79974Y220237D02*
D03*
X29974Y240237D02*
D03*
X189974Y440237D02*
D03*
X49974Y360237D02*
D03*
X139974Y60237D02*
D03*
X419974Y460237D02*
D03*
X489974Y120237D02*
D03*
X109974Y400237D02*
D03*
X499974Y180237D02*
D03*
X249974Y160237D02*
D03*
X69974Y120237D02*
D03*
X99974Y100237D02*
D03*
X179974Y60237D02*
D03*
X479974Y300237D02*
D03*
X109974Y120237D02*
D03*
X159974Y60237D02*
D03*
X499974Y380237D02*
D03*
X199974D02*
D03*
X269974Y280237D02*
D03*
X469974Y120237D02*
D03*
X199974Y420237D02*
D03*
X109974Y360237D02*
D03*
X229974Y440237D02*
D03*
X39974Y180237D02*
D03*
X459974Y380237D02*
D03*
X469974Y440237D02*
D03*
X99974Y220237D02*
D03*
X199974Y260237D02*
D03*
X539974Y340237D02*
D03*
X469974Y400237D02*
D03*
X249974Y480237D02*
D03*
X49974Y200237D02*
D03*
X69974Y360237D02*
D03*
X459974Y300237D02*
D03*
X69974Y400237D02*
D03*
X79974Y380237D02*
D03*
X189974Y360237D02*
D03*
X219974Y540237D02*
D03*
X489974Y160237D02*
D03*
Y400237D02*
D03*
Y360237D02*
D03*
X119974Y220237D02*
D03*
X509974Y400237D02*
D03*
X479974Y340237D02*
D03*
X69974Y240237D02*
D03*
X149974Y80237D02*
D03*
X289974Y480237D02*
D03*
X449974Y80237D02*
D03*
X499974Y340237D02*
D03*
X459974Y460237D02*
D03*
X39974Y220237D02*
D03*
X69974Y320237D02*
D03*
X419974Y380237D02*
D03*
X119974Y100237D02*
D03*
X469974Y160237D02*
D03*
X99974Y420237D02*
D03*
X429974Y120237D02*
D03*
X469974Y360237D02*
D03*
X509974Y160237D02*
D03*
X529974Y360237D02*
D03*
X39974Y380237D02*
D03*
X309974Y80237D02*
D03*
X49974Y400237D02*
D03*
X59974Y180237D02*
D03*
X219974Y420237D02*
D03*
X59974Y340237D02*
D03*
X469974Y320237D02*
D03*
X309974Y280237D02*
D03*
X459974Y420237D02*
D03*
X499974Y140237D02*
D03*
X519974Y380237D02*
D03*
X389974Y360237D02*
D03*
X99974Y380237D02*
D03*
X509974Y360237D02*
D03*
X439974Y140237D02*
D03*
X89974Y400237D02*
D03*
Y360237D02*
D03*
X499974Y420237D02*
D03*
X79974D02*
D03*
X419974D02*
D03*
X219974Y380237D02*
D03*
X209974Y440237D02*
D03*
X229974Y520237D02*
D03*
X119974Y380237D02*
D03*
X209974Y360237D02*
D03*
X89974Y120237D02*
D03*
X79974Y340237D02*
D03*
X49974Y160237D02*
D03*
X289974Y280237D02*
D03*
X479974Y420237D02*
D03*
X179974Y380237D02*
D03*
X299974Y60237D02*
D03*
X69974Y200237D02*
D03*
X59974Y220237D02*
D03*
X139974D02*
D03*
X459974Y340237D02*
D03*
X169974Y360237D02*
D03*
X229974Y160237D02*
D03*
X219974Y460237D02*
D03*
X79974D02*
D03*
X459974Y100237D02*
D03*
X449974Y120237D02*
D03*
X479974Y100237D02*
D03*
X489974Y320237D02*
D03*
X59974Y380237D02*
D03*
X29974Y320237D02*
D03*
X489974Y440237D02*
D03*
X39974Y340237D02*
D03*
X339974Y20237D02*
D03*
X479974Y140237D02*
D03*
X259974Y177041D02*
D03*
X325743Y433948D02*
D03*
D96*
X250578Y232854D02*
D03*
X250285Y382140D02*
D03*
X250849Y454197D02*
D03*
D97*
X113157Y440625D02*
D03*
X117046Y436736D02*
D03*
X122505Y449973D02*
D03*
X126394Y446084D02*
D03*
X131854Y459322D02*
D03*
X135743Y455433D02*
D03*
D98*
X250285Y268755D02*
X250578Y268462D01*
Y232854D02*
Y268462D01*
X250285Y268755D02*
Y382140D01*
M02*
