M48
;Layer_Color=9474304
;FILE_FORMAT=4:4
METRIC,LZ
;TYPE=PLATED
T01F00S00C0.4000
T02F00S00C1.0200
T03F00S00C4.5000
;TYPE=NON_PLATED
T04F00S00C1.2100
%
T01
X00088735Y00096767
X00086816Y00121397
X00121527Y0010515
X00156754Y00109414
X00170764Y00138742
X00166578Y00195653
X00214295Y00197449
X00238783Y00222818
X00277529Y00225815
X00305223Y00231054
X00332676Y00226029
X00331432Y00246994
X00351345Y00270681
X00361133Y00267137
X00386447Y0026733
X00386668Y00242112
X00373879Y0022089
X0037379Y0018526
X00332953Y00186894
X00320823Y00205929
X00306812Y00198131
X00265678Y00201682
X0026148Y00248502
X0025919Y00284384
X00241631Y00272741
X00234378Y0030805
X00217391Y00293736
X00217572Y00359273
X00239994Y00357057
X00261633Y00356536
X0029706Y00356143
X00319586
X00340828Y00341645
X00373255Y00343693
X00374051Y00368577
X00373753Y00393958
X00373454Y00316221
X00342739Y00280891
X0028858Y00287631
X0028665Y00313507
X0028801Y00260335
X00281448Y00375829
X00274018Y00391603
X00249119Y00393037
X00202841Y00370875
X00162156Y00391073
X00127962Y00390732
X00132012Y00334249
X00146408Y0029726
X00151952Y00049588
X00189473Y00031341
X00219796Y00072771
X00208942Y00106381
X00272076Y00113674
X00280909Y00140374
X00313908Y00123191
X00342699Y00106313
X00332605Y00155012
X00373792Y00139378
X00318995Y00052152
X00336297Y00020657
X0027726Y00020567
X00257481Y00015453
X00411235Y00048203
X00399413Y00102591
X00399248Y0016548
X00451609Y00488729
X00392263Y00466039
X00373653Y00448702
X00373653Y00418344
X00338224Y00437319
X00322913Y00406547
X00288725Y00405655
X00276495Y00420021
X00277277Y00436447
X00289995Y00481045
X00321427Y00532802
X00228471Y00539237
X0016349Y00495858
X0012766Y00495953
X00237386Y00405421
T02
X0036107Y001276
Y00153
Y001784
Y002038
Y002292
Y002546
Y0028
Y003054
X0038647
Y0028
Y002546
Y002292
Y002038
Y001784
Y00153
Y001276
Y003308
Y003562
Y003816
X0036107
Y003562
X00361065Y003308
X0036107Y00407
X0038647
Y004324
X0036107
T03
X000525Y0028
X0035837Y00066426
X00358374Y00493574
T04
X00224822Y00438812
M30
