G04*
G04 #@! TF.GenerationSoftware,Altium Limited,Altium Designer,25.1.2 (22)*
G04*
G04 Layer_Physical_Order=1*
G04 Layer_Color=255*
%FSLAX44Y44*%
%MOMM*%
G71*
G04*
G04 #@! TF.SameCoordinates,BCEF5572-1F7E-4207-9204-8C5AED3481CC*
G04*
G04*
G04 #@! TF.FilePolarity,Positive*
G04*
G01*
G75*
%ADD10C,0.2000*%
%ADD11C,0.6000*%
%ADD12C,0.2500*%
%ADD14C,0.1500*%
%ADD17R,1.0400X1.4700*%
G04:AMPARAMS|DCode=18|XSize=1.04mm|YSize=1.47mm|CornerRadius=0mm|HoleSize=0mm|Usage=FLASHONLY|Rotation=315.000|XOffset=0mm|YOffset=0mm|HoleType=Round|Shape=Rectangle|*
%AMROTATEDRECTD18*
4,1,4,-0.8874,-0.1520,0.1520,0.8874,0.8874,0.1520,-0.1520,-0.8874,-0.8874,-0.1520,0.0*
%
%ADD18ROTATEDRECTD18*%

%ADD19R,1.4700X1.0400*%
G04:AMPARAMS|DCode=20|XSize=0.25mm|YSize=1.25mm|CornerRadius=0mm|HoleSize=0mm|Usage=FLASHONLY|Rotation=315.000|XOffset=0mm|YOffset=0mm|HoleType=Round|Shape=Round|*
%AMOVALD20*
21,1,1.0000,0.2500,0.0000,0.0000,45.0*
1,1,0.2500,-0.3536,-0.3536*
1,1,0.2500,0.3536,0.3536*
%
%ADD20OVALD20*%

G04:AMPARAMS|DCode=21|XSize=0.25mm|YSize=1.25mm|CornerRadius=0mm|HoleSize=0mm|Usage=FLASHONLY|Rotation=225.000|XOffset=0mm|YOffset=0mm|HoleType=Round|Shape=Round|*
%AMOVALD21*
21,1,1.0000,0.2500,0.0000,0.0000,315.0*
1,1,0.2500,-0.3536,0.3536*
1,1,0.2500,0.3536,-0.3536*
%
%ADD21OVALD21*%

%ADD22R,2.1000X3.0000*%
%ADD23R,0.8000X1.6000*%
%ADD24P,1.1314X4X180.0*%
G04:AMPARAMS|DCode=25|XSize=1.04mm|YSize=1.47mm|CornerRadius=0mm|HoleSize=0mm|Usage=FLASHONLY|Rotation=225.000|XOffset=0mm|YOffset=0mm|HoleType=Round|Shape=Rectangle|*
%AMROTATEDRECTD25*
4,1,4,-0.1520,0.8874,0.8874,-0.1520,0.1520,-0.8874,-0.8874,0.1520,-0.1520,0.8874,0.0*
%
%ADD25ROTATEDRECTD25*%

G04:AMPARAMS|DCode=26|XSize=0.8128mm|YSize=0.8mm|CornerRadius=0mm|HoleSize=0mm|Usage=FLASHONLY|Rotation=315.000|XOffset=0mm|YOffset=0mm|HoleType=Round|Shape=Rectangle|*
%AMROTATEDRECTD26*
4,1,4,-0.5702,0.0045,-0.0045,0.5702,0.5702,-0.0045,0.0045,-0.5702,-0.5702,0.0045,0.0*
%
%ADD26ROTATEDRECTD26*%

%ADD39R,0.2500X0.3500*%
G04:AMPARAMS|DCode=40|XSize=0.25mm|YSize=0.35mm|CornerRadius=0mm|HoleSize=0mm|Usage=FLASHONLY|Rotation=225.000|XOffset=0mm|YOffset=0mm|HoleType=Round|Shape=Rectangle|*
%AMROTATEDRECTD40*
4,1,4,-0.0354,0.2121,0.2121,-0.0354,0.0354,-0.2121,-0.2121,0.0354,-0.0354,0.2121,0.0*
%
%ADD40ROTATEDRECTD40*%

%ADD41R,0.3500X0.2500*%
%ADD50C,0.5000*%
%ADD51C,0.4000*%
%ADD52C,0.3000*%
%ADD53C,0.1524*%
%ADD54C,0.1530*%
%ADD55C,0.8000*%
%ADD56C,0.6000*%
%ADD57C,1.5000*%
%ADD58P,2.1213X4X90.0*%
%ADD59R,1.3700X1.3700*%
%ADD60C,1.3700*%
%ADD61C,5.5000*%
%ADD62R,1.5000X1.5000*%
%ADD63C,0.8000*%
G36*
X174041Y504300D02*
X171715Y499924D01*
X171464Y499295D01*
X171285Y498748D01*
X171178Y498283D01*
X171142Y497899D01*
X169142Y497398D01*
X169096Y497953D01*
X168958Y498507D01*
X168727Y499059D01*
X168404Y499610D01*
X167989Y500160D01*
X167482Y500709D01*
X166882Y501256D01*
X166190Y501802D01*
X165406Y502347D01*
X164530Y502891D01*
X174721Y505421D01*
X174041Y504300D01*
D02*
G37*
G36*
X245134Y503726D02*
X244306Y502972D01*
X242912Y501543D01*
X242346Y500868D01*
X241866Y500220D01*
X241474Y499599D01*
X241169Y499004D01*
X240951Y498435D01*
X240821Y497893D01*
X240777Y497378D01*
X238777Y497486D01*
X238736Y497967D01*
X238612Y498493D01*
X238406Y499063D01*
X238117Y499676D01*
X237745Y500334D01*
X237291Y501036D01*
X236135Y502573D01*
X235433Y503407D01*
X234649Y504285D01*
X245134Y503726D01*
D02*
G37*
G36*
X154817Y485222D02*
X153457Y483696D01*
X152904Y482986D01*
X152437Y482310D01*
X152054Y481670D01*
X151757Y481065D01*
X151544Y480495D01*
X151417Y479960D01*
X151374Y479461D01*
X149374D01*
X149332Y479960D01*
X149204Y480495D01*
X148992Y481065D01*
X148694Y481670D01*
X148312Y482310D01*
X147844Y482986D01*
X147292Y483696D01*
X145932Y485222D01*
X145124Y486037D01*
X155624D01*
X154817Y485222D01*
D02*
G37*
G36*
X190909Y485347D02*
X189027Y483035D01*
X188566Y482345D01*
X188190Y481694D01*
X187897Y481084D01*
X187688Y480514D01*
X187562Y479984D01*
X187521Y479494D01*
X185521Y479434D01*
X185478Y479943D01*
X185348Y480482D01*
X185133Y481051D01*
X184831Y481650D01*
X184443Y482280D01*
X183968Y482940D01*
X183408Y483630D01*
X182028Y485101D01*
X181208Y485882D01*
X191704Y486198D01*
X190909Y485347D01*
D02*
G37*
G36*
X172424Y467146D02*
X171556Y466554D01*
X170093Y465385D01*
X169499Y464808D01*
X168996Y464235D01*
X168585Y463668D01*
X168265Y463106D01*
X168037Y462548D01*
X167900Y461996D01*
X167854Y461449D01*
X165854Y461855D01*
X165817Y462268D01*
X165705Y462752D01*
X165519Y463308D01*
X165258Y463937D01*
X164923Y464637D01*
X164029Y466254D01*
X162838Y468159D01*
X162131Y469219D01*
X172424Y467146D01*
D02*
G37*
G36*
X371213Y463092D02*
X371259Y462964D01*
X371336Y462852D01*
X371443Y462754D01*
X371581Y462672D01*
X371749Y462604D01*
X371948Y462552D01*
X372177Y462514D01*
X372438Y462492D01*
X372728Y462484D01*
Y460984D01*
X372438Y460977D01*
X372177Y460954D01*
X371948Y460917D01*
X371749Y460864D01*
X371581Y460797D01*
X371443Y460714D01*
X371336Y460617D01*
X371259Y460504D01*
X371213Y460377D01*
X371198Y460234D01*
Y463234D01*
X371213Y463092D01*
D02*
G37*
G36*
X363294Y459860D02*
X363274Y459996D01*
X363214Y460118D01*
X363114Y460225D01*
X362974Y460319D01*
X362794Y460397D01*
X362574Y460462D01*
X362314Y460512D01*
X362014Y460548D01*
X361674Y460569D01*
X361294Y460577D01*
Y462577D01*
X361674Y462584D01*
X362314Y462641D01*
X362574Y462691D01*
X362794Y462756D01*
X362974Y462835D01*
X363114Y462928D01*
X363214Y463036D01*
X363274Y463157D01*
X363294Y463294D01*
Y459860D01*
D02*
G37*
G36*
X337673Y463387D02*
X337734Y463217D01*
X337835Y463067D01*
X337977Y462937D01*
X338160Y462827D01*
X338383Y462737D01*
X338647Y462667D01*
X338952Y462617D01*
X339297Y462587D01*
X339683Y462577D01*
Y460577D01*
X339297Y460567D01*
X338952Y460537D01*
X338647Y460487D01*
X338383Y460417D01*
X338160Y460327D01*
X337977Y460217D01*
X337835Y460087D01*
X337734Y459937D01*
X337673Y459767D01*
X337653Y459577D01*
Y463577D01*
X337673Y463387D01*
D02*
G37*
G36*
X380476Y456829D02*
X380522Y456702D01*
X380599Y456589D01*
X380706Y456492D01*
X380844Y456409D01*
X381012Y456342D01*
X381211Y456289D01*
X381441Y456251D01*
X381701Y456229D01*
X381992Y456222D01*
Y454721D01*
X381701Y454714D01*
X381441Y454692D01*
X381211Y454654D01*
X381012Y454602D01*
X380844Y454534D01*
X380706Y454451D01*
X380599Y454354D01*
X380522Y454241D01*
X380476Y454114D01*
X380461Y453971D01*
Y456972D01*
X380476Y456829D01*
D02*
G37*
G36*
X372588Y453971D02*
X372573Y454114D01*
X372527Y454241D01*
X372450Y454354D01*
X372343Y454451D01*
X372205Y454534D01*
X372037Y454602D01*
X371838Y454654D01*
X371609Y454692D01*
X371348Y454714D01*
X371058Y454721D01*
Y456222D01*
X371348Y456229D01*
X371609Y456251D01*
X371838Y456289D01*
X372037Y456342D01*
X372205Y456409D01*
X372343Y456492D01*
X372450Y456589D01*
X372527Y456702D01*
X372573Y456829D01*
X372588Y456972D01*
Y453971D01*
D02*
G37*
G36*
X157879Y454250D02*
X157997Y452209D01*
X158108Y451316D01*
X158255Y450508D01*
X158438Y449785D01*
X158655Y449147D01*
X158908Y448594D01*
X159196Y448125D01*
X159519Y447742D01*
X158105Y446328D01*
X157722Y446651D01*
X157253Y446939D01*
X156700Y447192D01*
X156062Y447409D01*
X155338Y447591D01*
X154530Y447738D01*
X153638Y447850D01*
X151597Y447967D01*
X150449Y447973D01*
X157874Y455398D01*
X157879Y454250D01*
D02*
G37*
G36*
X280628Y436519D02*
X280682Y436185D01*
X280772Y435849D01*
X280898Y435510D01*
X281060Y435170D01*
X281258Y434827D01*
X281492Y434482D01*
X281761Y434135D01*
X282068Y433785D01*
X282409Y433434D01*
X276810D01*
X277152Y433785D01*
X277728Y434482D01*
X277962Y434827D01*
X278160Y435170D01*
X278321Y435510D01*
X278448Y435849D01*
X278538Y436185D01*
X278591Y436519D01*
X278610Y436850D01*
X280609D01*
X280628Y436519D01*
D02*
G37*
G36*
X290152Y436146D02*
X290206Y435812D01*
X290296Y435476D01*
X290422Y435137D01*
X290584Y434797D01*
X290782Y434454D01*
X291016Y434109D01*
X291286Y433762D01*
X291592Y433412D01*
X291934Y433061D01*
X286334D01*
X286676Y433412D01*
X287252Y434109D01*
X287486Y434454D01*
X287684Y434797D01*
X287846Y435137D01*
X287972Y435476D01*
X288062Y435812D01*
X288116Y436146D01*
X288134Y436477D01*
X290134D01*
X290152Y436146D01*
D02*
G37*
G36*
X137582Y427577D02*
X135582Y426214D01*
X135536Y426806D01*
X135400Y427354D01*
X135172Y427857D01*
X134853Y428316D01*
X134443Y428731D01*
X133942Y429101D01*
X133349Y429428D01*
X132666Y429710D01*
X131891Y429948D01*
X131026Y430142D01*
X139630Y435471D01*
X137582Y427577D01*
D02*
G37*
G36*
X381774Y425583D02*
X381658Y425668D01*
X381520Y425710D01*
X381361D01*
X381180Y425668D01*
X380979Y425583D01*
X380756Y425456D01*
X380512Y425286D01*
X380247Y425074D01*
X379653Y424522D01*
X378592Y425583D01*
X378889Y425891D01*
X379356Y426442D01*
X379526Y426686D01*
X379653Y426909D01*
X379738Y427110D01*
X379780Y427291D01*
Y427450D01*
X379738Y427588D01*
X379653Y427704D01*
X381774Y425583D01*
D02*
G37*
G36*
X357396D02*
X357226Y425682D01*
X357032Y425728D01*
X356811Y425720D01*
X356566Y425658D01*
X356296Y425544D01*
X356001Y425376D01*
X355680Y425154D01*
X355334Y424879D01*
X354964Y424551D01*
X354568Y424169D01*
X352839Y425268D01*
X353249Y425693D01*
X353890Y426447D01*
X354121Y426777D01*
X354292Y427075D01*
X354404Y427343D01*
X354456Y427578D01*
X354448Y427783D01*
X354380Y427955D01*
X354253Y428097D01*
X357396Y425583D01*
D02*
G37*
G36*
X101376Y431820D02*
X100544Y431080D01*
X99142Y429675D01*
X98573Y429009D01*
X98091Y428368D01*
X97696Y427751D01*
X97390Y427159D01*
X97171Y426591D01*
X97039Y426048D01*
X96995Y425529D01*
X94995Y425663D01*
X94955Y426139D01*
X94832Y426662D01*
X94627Y427232D01*
X94340Y427848D01*
X93971Y428510D01*
X93521Y429218D01*
X92374Y430774D01*
X91677Y431622D01*
X90899Y432516D01*
X101376Y431820D01*
D02*
G37*
G36*
X275663Y423663D02*
X275723Y423528D01*
X275823Y423408D01*
X275963Y423304D01*
X276143Y423216D01*
X276363Y423144D01*
X276623Y423088D01*
X276923Y423049D01*
X277263Y423025D01*
X277643Y423017D01*
Y421017D01*
X277263Y421010D01*
X276623Y420960D01*
X276363Y420915D01*
X276143Y420858D01*
X275963Y420788D01*
X275823Y420705D01*
X275723Y420610D01*
X275663Y420502D01*
X275643Y420381D01*
Y423815D01*
X275663Y423663D01*
D02*
G37*
G36*
X267709Y420381D02*
X267689Y420517D01*
X267629Y420639D01*
X267529Y420747D01*
X267389Y420840D01*
X267209Y420919D01*
X266989Y420984D01*
X266729Y421034D01*
X266429Y421069D01*
X266089Y421091D01*
X265709Y421098D01*
Y423098D01*
X266089Y423105D01*
X266729Y423163D01*
X266989Y423213D01*
X267209Y423278D01*
X267389Y423356D01*
X267529Y423450D01*
X267629Y423557D01*
X267689Y423679D01*
X267709Y423815D01*
Y420381D01*
D02*
G37*
G36*
X285458Y418420D02*
X285518Y418298D01*
X285618Y418190D01*
X285758Y418097D01*
X285938Y418018D01*
X286158Y417954D01*
X286418Y417904D01*
X286718Y417868D01*
X287058Y417846D01*
X287438Y417839D01*
Y415839D01*
X287058Y415832D01*
X286418Y415775D01*
X286158Y415724D01*
X285938Y415660D01*
X285758Y415581D01*
X285618Y415488D01*
X285518Y415380D01*
X285458Y415258D01*
X285438Y415122D01*
Y418556D01*
X285458Y418420D01*
D02*
G37*
G36*
X277504Y415122D02*
X277484Y415258D01*
X277424Y415380D01*
X277324Y415488D01*
X277184Y415581D01*
X277004Y415660D01*
X276784Y415724D01*
X276524Y415775D01*
X276224Y415811D01*
X275884Y415832D01*
X275504Y415839D01*
Y417839D01*
X275884Y417846D01*
X276524Y417904D01*
X276784Y417954D01*
X277004Y418018D01*
X277184Y418097D01*
X277324Y418190D01*
X277424Y418298D01*
X277484Y418420D01*
X277504Y418556D01*
Y415122D01*
D02*
G37*
G36*
X351221Y412876D02*
X351269Y412728D01*
X351492Y412466D01*
X351648Y412219D01*
X351813Y411872D01*
X351977Y411426D01*
X352129Y410881D01*
X352257Y410277D01*
X352535Y407752D01*
X352574Y406768D01*
X352686Y406524D01*
X352911Y404814D01*
X353755Y402777D01*
X355098Y401028D01*
X356847Y399685D01*
X358884Y398842D01*
X361070Y398554D01*
X363256Y398842D01*
X365293Y399685D01*
X366988Y400986D01*
X367435Y400916D01*
X368258Y400636D01*
Y387964D01*
X367435Y387684D01*
X366988Y387614D01*
X365293Y388915D01*
X363256Y389758D01*
X361070Y390046D01*
X358884Y389758D01*
X356847Y388915D01*
X355910Y388196D01*
X355600Y388105D01*
X354035Y386844D01*
X352689Y385901D01*
X352122Y385558D01*
X351603Y385283D01*
X351153Y385084D01*
X350781Y384957D01*
X350498Y384894D01*
X350171Y384867D01*
X350033Y384796D01*
X341116D01*
X340437Y386066D01*
X341097Y387054D01*
X341526Y389209D01*
X341097Y391365D01*
X340964Y391564D01*
X341623Y392864D01*
X342483Y393220D01*
X342966Y394387D01*
Y409087D01*
X342483Y410253D01*
X341316Y410736D01*
X330916D01*
X329750Y410253D01*
X329267Y409087D01*
Y394387D01*
X329750Y393220D01*
X330261Y393009D01*
X330823Y391564D01*
X330690Y391365D01*
X330261Y389209D01*
X330690Y387054D01*
X331350Y386066D01*
X330671Y384796D01*
X320723D01*
X320314Y385185D01*
X319940Y386153D01*
X320083Y386499D01*
Y388999D01*
X319779Y389733D01*
X319724Y389950D01*
X319677Y389978D01*
X319600Y390165D01*
X319378Y390257D01*
X319341Y390675D01*
X319335Y390997D01*
X319259Y391171D01*
Y392207D01*
X319334Y392376D01*
X319343Y392705D01*
X319346Y392737D01*
X322516D01*
X323683Y393220D01*
X324166Y394387D01*
Y409087D01*
X323683Y410253D01*
X322516Y410736D01*
X312116D01*
X310950Y410253D01*
X310467Y409087D01*
Y394387D01*
X310950Y393220D01*
X312116Y392737D01*
X314025D01*
X314028Y392705D01*
X314036Y392376D01*
X314112Y392207D01*
Y391171D01*
X314036Y390997D01*
X314030Y390654D01*
X314013Y390396D01*
X313997Y390260D01*
X313767Y390165D01*
X313690Y389979D01*
X313643Y389951D01*
X313589Y389735D01*
X313284Y388999D01*
Y386499D01*
X313426Y386156D01*
X313401Y385928D01*
X313115Y385251D01*
X312644Y384796D01*
X289888D01*
X289715Y384872D01*
X289371Y384879D01*
X289114Y384895D01*
X288978Y384911D01*
X288883Y385139D01*
X288696Y385217D01*
X288668Y385263D01*
X288452Y385318D01*
X287717Y385622D01*
X285217D01*
X284050Y385139D01*
X283383Y385139D01*
X282217Y385622D01*
X279717D01*
X278976Y385316D01*
X278762Y385261D01*
X278735Y385216D01*
X278550Y385139D01*
X278454Y384906D01*
X278039Y384869D01*
X277718Y384863D01*
X277545Y384787D01*
X234588D01*
X234519Y384833D01*
X234426Y384814D01*
X234342Y384857D01*
X233927Y384892D01*
X233619Y384968D01*
X233269Y385111D01*
X232874Y385335D01*
X232438Y385648D01*
X231968Y386058D01*
X231485Y386549D01*
X230389Y387899D01*
X229823Y388714D01*
X229560Y388884D01*
X228652Y390066D01*
X226767Y391513D01*
X224572Y392422D01*
X222216Y392732D01*
X219860Y392422D01*
X217665Y391513D01*
X215780Y390066D01*
X214334Y388181D01*
X213424Y385986D01*
X213114Y383630D01*
X213424Y381275D01*
X214334Y379080D01*
X215739Y377248D01*
X215794Y377114D01*
X216571Y376329D01*
X217866Y374876D01*
X218356Y374246D01*
X218766Y373653D01*
X219085Y373119D01*
X219317Y372648D01*
X219465Y372251D01*
X219540Y371935D01*
X219573Y371558D01*
X219643Y371422D01*
Y370060D01*
X218469Y369574D01*
X206829Y381215D01*
Y389383D01*
X206899Y389518D01*
X206931Y389895D01*
X207007Y390212D01*
X207155Y390609D01*
X207386Y391079D01*
X207706Y391614D01*
X208116Y392207D01*
X208606Y392837D01*
X209901Y394290D01*
X210678Y395074D01*
X210733Y395209D01*
X212138Y397040D01*
X213047Y399235D01*
X213349Y401524D01*
X213405Y401658D01*
X213410Y402762D01*
X213522Y404705D01*
X213621Y405498D01*
X213750Y406206D01*
X213902Y406810D01*
X214071Y407307D01*
X214248Y407692D01*
X214418Y407969D01*
X214662Y408258D01*
X214708Y408404D01*
X220570Y414266D01*
X275299D01*
X275473Y414190D01*
X275816Y414183D01*
X276073Y414167D01*
X276210Y414151D01*
X276304Y413923D01*
X276491Y413845D01*
X276519Y413799D01*
X276735Y413744D01*
X277471Y413440D01*
X279971D01*
X281137Y413923D01*
X281805Y413923D01*
X282971Y413440D01*
X285471D01*
X286206Y413744D01*
X286423Y413799D01*
X286450Y413845D01*
X286637Y413923D01*
X286730Y414146D01*
X287148Y414184D01*
X287469Y414190D01*
X287643Y414266D01*
X349832D01*
X351221Y412876D01*
D02*
G37*
G36*
X121898Y418076D02*
X121944Y416230D01*
X122033Y415410D01*
X122165Y414659D01*
X122341Y413978D01*
X122560Y413365D01*
X122823Y412821D01*
X123129Y412346D01*
X123479Y411940D01*
X122065Y410525D01*
X121659Y410875D01*
X121184Y411182D01*
X120640Y411444D01*
X120027Y411664D01*
X119345Y411839D01*
X118595Y411972D01*
X117775Y412060D01*
X116887Y412105D01*
X114903Y412065D01*
X121940Y419102D01*
X121898Y418076D01*
D02*
G37*
G36*
X83379Y413687D02*
X81543Y411269D01*
X81094Y410557D01*
X80726Y409893D01*
X80441Y409277D01*
X80237Y408708D01*
X80114Y408186D01*
X80073Y407712D01*
X78073Y407566D01*
X78029Y408086D01*
X77898Y408630D01*
X77678Y409197D01*
X77371Y409789D01*
X76975Y410403D01*
X76493Y411041D01*
X75922Y411703D01*
X75263Y412389D01*
X73682Y413831D01*
X84155Y414588D01*
X83379Y413687D01*
D02*
G37*
G36*
X354257Y414949D02*
X354694Y414676D01*
X355202Y414440D01*
X355783Y414242D01*
X356434Y414081D01*
X357158Y413959D01*
X357952Y413873D01*
X359757Y413816D01*
X360766Y413843D01*
X354222Y406833D01*
X354181Y407874D01*
X353887Y410539D01*
X353732Y411274D01*
X353548Y411932D01*
X353336Y412513D01*
X353094Y413018D01*
X352824Y413446D01*
X352526Y413797D01*
X353891Y415260D01*
X354257Y414949D01*
D02*
G37*
G36*
X213401Y409322D02*
X213077Y408938D01*
X212789Y408470D01*
X212537Y407917D01*
X212319Y407279D01*
X212137Y406555D01*
X211990Y405747D01*
X211878Y404854D01*
X211761Y402814D01*
X211755Y401666D01*
X204331Y409091D01*
X205478Y409096D01*
X207519Y409214D01*
X208412Y409325D01*
X209220Y409472D01*
X209943Y409654D01*
X210581Y409872D01*
X211135Y410125D01*
X211603Y410413D01*
X211986Y410736D01*
X213401Y409322D01*
D02*
G37*
G36*
X386401Y400150D02*
X385311Y400146D01*
X382543Y399953D01*
X381789Y399828D01*
X381119Y399673D01*
X380533Y399487D01*
X380031Y399272D01*
X379613Y399025D01*
X379280Y398749D01*
X378219Y399810D01*
X378495Y400143D01*
X378741Y400561D01*
X378957Y401063D01*
X379143Y401649D01*
X379298Y402319D01*
X379423Y403073D01*
X379582Y404834D01*
X379617Y405841D01*
X379620Y406931D01*
X386401Y400150D01*
D02*
G37*
G36*
X59028Y394252D02*
X58332Y394375D01*
X57669Y394445D01*
X57039Y394462D01*
X56442Y394425D01*
X55878Y394335D01*
X55347Y394192D01*
X54848Y393996D01*
X54383Y393746D01*
X53951Y393443D01*
X53552Y393087D01*
X52138Y394501D01*
X52492Y394899D01*
X52793Y395330D01*
X53040Y395794D01*
X53232Y396290D01*
X53371Y396818D01*
X53456Y397379D01*
X53486Y397973D01*
X53463Y398600D01*
X53385Y399259D01*
X53253Y399950D01*
X59028Y394252D01*
D02*
G37*
G36*
X103998Y400368D02*
X104115Y398328D01*
X104227Y397435D01*
X104374Y396627D01*
X104556Y395904D01*
X104773Y395265D01*
X105026Y394712D01*
X105314Y394244D01*
X105638Y393860D01*
X104223Y392446D01*
X103840Y392769D01*
X103371Y393057D01*
X102818Y393310D01*
X102180Y393528D01*
X101457Y393710D01*
X100649Y393857D01*
X99756Y393968D01*
X97715Y394086D01*
X96567Y394091D01*
X103992Y401516D01*
X103998Y400368D01*
D02*
G37*
G36*
X318495Y394400D02*
X318325Y394340D01*
X318175Y394240D01*
X318045Y394100D01*
X317935Y393920D01*
X317845Y393700D01*
X317775Y393440D01*
X317725Y393140D01*
X317695Y392800D01*
X317685Y392420D01*
X315685D01*
X315675Y392800D01*
X315645Y393140D01*
X315595Y393440D01*
X315525Y393700D01*
X315435Y393920D01*
X315325Y394100D01*
X315195Y394240D01*
X315045Y394340D01*
X314875Y394400D01*
X314685Y394420D01*
X318685D01*
X318495Y394400D01*
D02*
G37*
G36*
X336912Y395151D02*
X336966Y394817D01*
X337056Y394481D01*
X337078Y394420D01*
X337894D01*
X337704Y394400D01*
X337534Y394340D01*
X337384Y394240D01*
X337254Y394100D01*
X337225Y394052D01*
X337344Y393802D01*
X337542Y393459D01*
X337776Y393114D01*
X338046Y392767D01*
X338352Y392418D01*
X338694Y392066D01*
X333094D01*
X333436Y392418D01*
X334012Y393114D01*
X334246Y393459D01*
X334444Y393802D01*
X334563Y394052D01*
X334534Y394100D01*
X334404Y394240D01*
X334254Y394340D01*
X334084Y394400D01*
X333894Y394420D01*
X334709D01*
X334732Y394481D01*
X334822Y394817D01*
X334876Y395151D01*
X334894Y395482D01*
X336894D01*
X336912Y395151D01*
D02*
G37*
G36*
X208698Y395419D02*
X207338Y393893D01*
X206786Y393183D01*
X206318Y392508D01*
X205936Y391868D01*
X205638Y391263D01*
X205426Y390693D01*
X205298Y390158D01*
X205256Y389658D01*
X203256D01*
X203213Y390158D01*
X203086Y390693D01*
X202873Y391263D01*
X202576Y391868D01*
X202193Y392508D01*
X201726Y393183D01*
X201173Y393893D01*
X199813Y395419D01*
X199006Y396235D01*
X209506D01*
X208698Y395419D01*
D02*
G37*
G36*
X317693Y390586D02*
X317750Y389946D01*
X317800Y389686D01*
X317864Y389466D01*
X317943Y389286D01*
X318036Y389146D01*
X318143Y389046D01*
X318265Y388986D01*
X318400Y388966D01*
X314966D01*
X315103Y388986D01*
X315225Y389046D01*
X315333Y389146D01*
X315427Y389286D01*
X315506Y389466D01*
X315570Y389686D01*
X315621Y389946D01*
X315657Y390246D01*
X315678Y390586D01*
X315685Y390966D01*
X317685D01*
X317693Y390586D01*
D02*
G37*
G36*
X217280Y418255D02*
X211069Y412043D01*
X210923Y411997D01*
X210634Y411753D01*
X210357Y411583D01*
X209971Y411407D01*
X209475Y411238D01*
X208871Y411085D01*
X208162Y410956D01*
X207369Y410857D01*
X205427Y410746D01*
X204322Y410740D01*
X204189Y410684D01*
X201900Y410383D01*
X199705Y409473D01*
X197820Y408027D01*
X196373Y406142D01*
X195464Y403947D01*
X195154Y401591D01*
X195464Y399235D01*
X196373Y397040D01*
X197778Y395209D01*
X197833Y395074D01*
X198611Y394289D01*
X199905Y392837D01*
X200395Y392206D01*
X200805Y391614D01*
X201125Y391079D01*
X201356Y390609D01*
X201504Y390211D01*
X201580Y389895D01*
X201612Y389518D01*
X201682Y389383D01*
Y382185D01*
X200509Y381699D01*
X188869Y393339D01*
Y410850D01*
X190846Y411669D01*
X192731Y413116D01*
X194177Y415001D01*
X195087Y417196D01*
X195393Y419525D01*
X216754D01*
X217280Y418255D01*
D02*
G37*
G36*
X394721Y388790D02*
X394445Y388457D01*
X394198Y388039D01*
X393983Y387537D01*
X393797Y386951D01*
X393642Y386281D01*
X393517Y385527D01*
X393358Y383766D01*
X393324Y382759D01*
X393320Y381669D01*
X386539Y388450D01*
X387629Y388453D01*
X390397Y388647D01*
X391151Y388772D01*
X391821Y388927D01*
X392407Y389113D01*
X392909Y389328D01*
X393327Y389575D01*
X393660Y389851D01*
X394721Y388790D01*
D02*
G37*
G36*
X318420Y383420D02*
X318480Y383378D01*
X318580Y383342D01*
X318720Y383310D01*
X318900Y383284D01*
X319380Y383245D01*
X320400Y383223D01*
Y381223D01*
X320020Y381221D01*
X318580Y381129D01*
X318480Y381101D01*
X318420Y381068D01*
X318400Y381032D01*
Y383466D01*
X318420Y383420D01*
D02*
G37*
G36*
X314966Y381032D02*
X314946Y381068D01*
X314886Y381101D01*
X314786Y381129D01*
X314646Y381154D01*
X314466Y381175D01*
X313986Y381206D01*
X312966Y381223D01*
Y383223D01*
X313346Y383225D01*
X314646Y383310D01*
X314786Y383342D01*
X314886Y383378D01*
X314946Y383420D01*
X314966Y383466D01*
Y381032D01*
D02*
G37*
G36*
X287704Y383804D02*
X287764Y383682D01*
X287864Y383574D01*
X288004Y383481D01*
X288184Y383402D01*
X288404Y383338D01*
X288664Y383288D01*
X288964Y383252D01*
X289304Y383230D01*
X289684Y383223D01*
Y381223D01*
X289304Y381216D01*
X288664Y381158D01*
X288404Y381108D01*
X288184Y381044D01*
X288004Y380965D01*
X287864Y380872D01*
X287764Y380764D01*
X287704Y380642D01*
X287684Y380506D01*
Y383940D01*
X287704Y383804D01*
D02*
G37*
G36*
X279750Y380506D02*
X279730Y380640D01*
X279670Y380761D01*
X279570Y380867D01*
X279430Y380959D01*
X279250Y381036D01*
X279030Y381100D01*
X278770Y381150D01*
X278470Y381185D01*
X278130Y381206D01*
X277750Y381213D01*
Y383213D01*
X278130Y383221D01*
X278770Y383279D01*
X279030Y383330D01*
X279250Y383395D01*
X279430Y383475D01*
X279570Y383569D01*
X279670Y383678D01*
X279730Y383802D01*
X279750Y383940D01*
Y380506D01*
D02*
G37*
G36*
X355762Y377270D02*
X355125Y378021D01*
X353900Y379286D01*
X353312Y379800D01*
X352739Y380235D01*
X352183Y380591D01*
X351643Y380867D01*
X351119Y381065D01*
X350612Y381183D01*
X350120Y381223D01*
X350305Y383223D01*
X350746Y383259D01*
X351229Y383367D01*
X351755Y383547D01*
X352324Y383798D01*
X352935Y384122D01*
X353590Y384518D01*
X355027Y385525D01*
X356634Y386820D01*
X355762Y377270D01*
D02*
G37*
G36*
X85127Y379595D02*
X85049Y379433D01*
X85013Y379257D01*
X85018Y379068D01*
X85066Y378865D01*
X85155Y378648D01*
X85287Y378417D01*
X85460Y378173D01*
X85676Y377915D01*
X85933Y377644D01*
X84519Y376229D01*
X84247Y376487D01*
X83989Y376702D01*
X83745Y376876D01*
X83515Y377007D01*
X83298Y377097D01*
X83095Y377145D01*
X82905Y377150D01*
X82730Y377114D01*
X82568Y377035D01*
X82419Y376915D01*
X85248Y379743D01*
X85127Y379595D01*
D02*
G37*
G36*
X301529Y378321D02*
X301589Y378296D01*
X301689Y378273D01*
X301829Y378253D01*
X302229Y378222D01*
X303509Y378198D01*
Y376198D01*
X303129Y376195D01*
X302009Y376127D01*
X301829Y376096D01*
X301689Y376060D01*
X301589Y376018D01*
X301529Y375970D01*
X301509Y375917D01*
Y378351D01*
X301529Y378321D01*
D02*
G37*
G36*
X298075Y375917D02*
X298055Y375970D01*
X297995Y376018D01*
X297895Y376060D01*
X297755Y376096D01*
X297575Y376127D01*
X297355Y376153D01*
X296795Y376186D01*
X296075Y376198D01*
Y378198D01*
X296455Y378199D01*
X297995Y378296D01*
X298055Y378321D01*
X298075Y378351D01*
Y375917D01*
D02*
G37*
G36*
X278235Y378778D02*
X278295Y378657D01*
X278395Y378549D01*
X278535Y378456D01*
X278715Y378377D01*
X278935Y378312D01*
X279195Y378262D01*
X279495Y378226D01*
X279835Y378205D01*
X280215Y378198D01*
Y376198D01*
X279835Y376190D01*
X279195Y376133D01*
X278935Y376083D01*
X278715Y376018D01*
X278535Y375939D01*
X278395Y375846D01*
X278295Y375739D01*
X278235Y375617D01*
X278215Y375481D01*
Y378915D01*
X278235Y378778D01*
D02*
G37*
G36*
X270281Y375481D02*
X270261Y375617D01*
X270201Y375739D01*
X270101Y375846D01*
X269961Y375939D01*
X269781Y376018D01*
X269561Y376083D01*
X269301Y376133D01*
X269001Y376169D01*
X268661Y376190D01*
X268281Y376198D01*
Y378198D01*
X268661Y378205D01*
X269301Y378262D01*
X269561Y378312D01*
X269781Y378377D01*
X269961Y378456D01*
X270101Y378549D01*
X270201Y378657D01*
X270261Y378778D01*
X270281Y378915D01*
Y375481D01*
D02*
G37*
G36*
X386401Y374750D02*
X385311Y374747D01*
X382543Y374553D01*
X381789Y374428D01*
X381119Y374273D01*
X380533Y374087D01*
X380031Y373871D01*
X379613Y373625D01*
X379280Y373349D01*
X378219Y374410D01*
X378495Y374743D01*
X378741Y375161D01*
X378957Y375663D01*
X379143Y376249D01*
X379298Y376919D01*
X379423Y377673D01*
X379582Y379434D01*
X379617Y380441D01*
X379620Y381531D01*
X386401Y374750D01*
D02*
G37*
G36*
X229069Y386907D02*
X230254Y385448D01*
X230837Y384855D01*
X231413Y384353D01*
X231984Y383943D01*
X232548Y383624D01*
X233106Y383396D01*
X233659Y383259D01*
X234205Y383213D01*
X233816Y381213D01*
X233398Y381176D01*
X232911Y381063D01*
X232353Y380876D01*
X231725Y380613D01*
X231027Y380276D01*
X229420Y379376D01*
X227533Y378176D01*
X227031Y377835D01*
X226659Y377459D01*
X225299Y375933D01*
X224746Y375223D01*
X224279Y374547D01*
X223896Y373907D01*
X223599Y373302D01*
X223386Y372732D01*
X223259Y372197D01*
X223216Y371698D01*
X221216D01*
X221174Y372197D01*
X221046Y372732D01*
X220834Y373302D01*
X220536Y373907D01*
X220154Y374547D01*
X219686Y375223D01*
X219134Y375933D01*
X217774Y377459D01*
X216966Y378274D01*
X226640D01*
X228468Y387774D01*
X229069Y386907D01*
D02*
G37*
G36*
X87550Y402801D02*
X87391Y401591D01*
X87701Y399235D01*
X88610Y397040D01*
X90057Y395155D01*
X91942Y393709D01*
X94137Y392799D01*
X96426Y392498D01*
X96559Y392442D01*
X97664Y392436D01*
X99606Y392325D01*
X100399Y392225D01*
X101107Y392097D01*
X101712Y391945D01*
X102208Y391775D01*
X102594Y391599D01*
X102871Y391429D01*
X103160Y391185D01*
X103306Y391139D01*
X103816Y390628D01*
X103934Y390035D01*
X104492Y389200D01*
X111873Y381820D01*
X112707Y381262D01*
X113692Y381066D01*
X138139D01*
X146855Y372349D01*
X146329Y371079D01*
X94722D01*
X87197Y378605D01*
X87130Y378778D01*
X86909Y379012D01*
X86883Y379043D01*
X90305Y382464D01*
X90788Y383630D01*
X90305Y384797D01*
X79699Y395404D01*
X79476Y396523D01*
X86347Y403394D01*
X87550Y402801D01*
D02*
G37*
G36*
X301373Y372612D02*
X301299Y372446D01*
X301286Y372246D01*
X301336Y372013D01*
X301446Y371747D01*
X301618Y371447D01*
X301852Y371115D01*
X302147Y370748D01*
X302923Y369917D01*
X301009Y369002D01*
X300621Y369376D01*
X299916Y369968D01*
X299598Y370187D01*
X299303Y370354D01*
X299032Y370470D01*
X298784Y370534D01*
X298560Y370546D01*
X298358Y370507D01*
X298180Y370417D01*
X301509Y372745D01*
X301373Y372612D01*
D02*
G37*
G36*
X249322Y373401D02*
X248998Y373017D01*
X248710Y372549D01*
X248458Y371996D01*
X248240Y371357D01*
X248058Y370634D01*
X247911Y369826D01*
X247799Y368933D01*
X247682Y366893D01*
X247676Y365745D01*
X240252Y373170D01*
X241399Y373175D01*
X243440Y373293D01*
X244333Y373404D01*
X245141Y373551D01*
X245864Y373733D01*
X246502Y373951D01*
X247056Y374204D01*
X247524Y374492D01*
X247908Y374815D01*
X249322Y373401D01*
D02*
G37*
G36*
X310828Y362904D02*
X310807Y363094D01*
X310747Y363264D01*
X310645Y363414D01*
X310503Y363544D01*
X310320Y363654D01*
X310097Y363744D01*
X309833Y363814D01*
X309528Y363864D01*
X309183Y363894D01*
X308797Y363904D01*
Y365904D01*
X309183Y365914D01*
X309528Y365944D01*
X309833Y365994D01*
X310097Y366064D01*
X310320Y366154D01*
X310503Y366264D01*
X310645Y366394D01*
X310747Y366544D01*
X310807Y366714D01*
X310828Y366904D01*
Y362904D01*
D02*
G37*
G36*
X358594Y365812D02*
X358856Y365618D01*
X360244Y364707D01*
X364560Y362094D01*
X355571Y360285D01*
X356012Y360927D01*
X356364Y361544D01*
X356627Y362136D01*
X356800Y362704D01*
X356883Y363247D01*
X356878Y363765D01*
X356783Y364259D01*
X356599Y364728D01*
X356325Y365173D01*
X355962Y365593D01*
X358432Y365951D01*
X358594Y365812D01*
D02*
G37*
G36*
X247682Y364447D02*
X247799Y362407D01*
X247911Y361514D01*
X248058Y360706D01*
X248240Y359982D01*
X248458Y359344D01*
X248710Y358791D01*
X248998Y358323D01*
X249322Y357939D01*
X247908Y356525D01*
X247524Y356848D01*
X247056Y357136D01*
X246502Y357389D01*
X245864Y357607D01*
X245141Y357789D01*
X244333Y357936D01*
X243440Y358047D01*
X241399Y358165D01*
X240252Y358170D01*
X247676Y365595D01*
X247682Y364447D01*
D02*
G37*
G36*
X394721Y363390D02*
X394445Y363057D01*
X394198Y362639D01*
X393983Y362137D01*
X393797Y361551D01*
X393642Y360881D01*
X393517Y360127D01*
X393358Y358366D01*
X393324Y357359D01*
X393320Y356269D01*
X386539Y363050D01*
X387629Y363054D01*
X390397Y363247D01*
X391151Y363372D01*
X391821Y363527D01*
X392407Y363713D01*
X392909Y363928D01*
X393327Y364175D01*
X393660Y364451D01*
X394721Y363390D01*
D02*
G37*
G36*
X328398Y373421D02*
X327915Y372254D01*
Y357554D01*
X328398Y356388D01*
X329564Y355905D01*
X332039D01*
X332041Y355873D01*
X332050Y355544D01*
X332126Y355374D01*
Y343499D01*
X330984Y343272D01*
X329156Y342051D01*
X329156Y342051D01*
X325353Y338247D01*
X325217Y338303D01*
X324051Y337820D01*
X313656Y327426D01*
X313173Y326259D01*
X313656Y325093D01*
X314072Y324678D01*
X313046Y323652D01*
X312598Y324100D01*
X311431Y324583D01*
X310265Y324100D01*
X299870Y313706D01*
X299695Y313282D01*
X298261Y312875D01*
X298163Y312905D01*
X297924Y313104D01*
X297905Y313132D01*
X291815Y307043D01*
X285339Y300566D01*
X285246Y299833D01*
X283419Y298612D01*
X282198Y296785D01*
X281769Y294630D01*
X282198Y292474D01*
X282905Y291416D01*
X283419Y290647D01*
X282621Y289729D01*
X261275Y268382D01*
X260770Y267626D01*
X260592Y266734D01*
Y258481D01*
X259419Y257995D01*
X237059Y280354D01*
X236470Y281488D01*
X237691Y283316D01*
X238120Y285471D01*
X237691Y287626D01*
X236470Y289453D01*
X234643Y290674D01*
X232488Y291103D01*
X231959Y290998D01*
X231286Y292159D01*
X231659Y292716D01*
X231874Y293799D01*
X232581Y294506D01*
X233664Y294721D01*
X234581Y295334D01*
X235194Y296252D01*
X235410Y297334D01*
X236117Y298041D01*
X237199Y298257D01*
X238117Y298870D01*
X238730Y299787D01*
X238945Y300870D01*
X239652Y301577D01*
X240735Y301792D01*
X241652Y302405D01*
X242265Y303323D01*
X242481Y304405D01*
X243188Y305112D01*
X244270Y305328D01*
X245188Y305941D01*
X245801Y306858D01*
X246016Y307941D01*
X246723Y308648D01*
X247806Y308863D01*
X248723Y309476D01*
X249336Y310394D01*
X249552Y311476D01*
X250259Y312183D01*
X251341Y312399D01*
X252259Y313012D01*
X252872Y313929D01*
X253087Y315012D01*
X253794Y315719D01*
X254877Y315934D01*
X255794Y316547D01*
X256407Y317465D01*
X256623Y318547D01*
X257330Y319254D01*
X258412Y319470D01*
X259330Y320083D01*
X259943Y321001D01*
X260158Y322083D01*
X259943Y323165D01*
X259330Y324083D01*
X257023Y326389D01*
X256998Y326459D01*
X256869Y326603D01*
X256800Y326697D01*
X256734Y326810D01*
X256669Y326947D01*
X256609Y327110D01*
X256555Y327302D01*
X256509Y327525D01*
X256474Y327779D01*
X256452Y328064D01*
X256443Y328417D01*
X256368Y328588D01*
Y336269D01*
X256172Y337254D01*
X255614Y338089D01*
X238149Y355554D01*
X238742Y356757D01*
X240110Y356577D01*
X240243Y356521D01*
X241348Y356515D01*
X243290Y356404D01*
X244083Y356305D01*
X244792Y356176D01*
X245396Y356023D01*
X245892Y355854D01*
X246278Y355678D01*
X246555Y355508D01*
X246844Y355264D01*
X246990Y355218D01*
X270666Y331541D01*
Y328588D01*
X270591Y328417D01*
X270582Y328064D01*
X270560Y327779D01*
X270525Y327525D01*
X270479Y327303D01*
X270425Y327110D01*
X270365Y326947D01*
X270300Y326810D01*
X270234Y326697D01*
X270165Y326603D01*
X270036Y326459D01*
X270011Y326389D01*
X267704Y324083D01*
X267091Y323165D01*
X266876Y322083D01*
X267091Y321001D01*
X267704Y320083D01*
X268622Y319470D01*
X269704Y319254D01*
X270411Y318547D01*
X270627Y317465D01*
X271240Y316547D01*
X272157Y315934D01*
X273240Y315719D01*
X273947Y315012D01*
X274037Y314561D01*
X273178Y313291D01*
X267367D01*
X266382Y313095D01*
X265547Y312537D01*
X264374Y311364D01*
X264213Y311307D01*
X264031Y311144D01*
X263895Y311046D01*
X263734Y310953D01*
X263543Y310866D01*
X263318Y310786D01*
X263057Y310716D01*
X262782Y310663D01*
X262027Y310591D01*
X261603Y310585D01*
X261544Y310560D01*
X259430Y310140D01*
X257603Y308919D01*
X256382Y307092D01*
X255954Y304936D01*
X256382Y302781D01*
X257603Y300954D01*
X259430Y299733D01*
X260294Y299561D01*
X260879Y298150D01*
X260581Y297705D01*
X260153Y295550D01*
X260581Y293394D01*
X261802Y291567D01*
X263629Y290346D01*
X265785Y289917D01*
X267940Y290346D01*
X269767Y291567D01*
X270988Y293394D01*
X271417Y295550D01*
X271399Y295641D01*
X271431Y295723D01*
X271426Y296164D01*
X271441Y296528D01*
X271475Y296855D01*
X271525Y297145D01*
X271589Y297398D01*
X271663Y297617D01*
X271747Y297802D01*
X271836Y297960D01*
X271932Y298093D01*
X272096Y298276D01*
X272152Y298437D01*
X277364Y303648D01*
X282127D01*
X283112Y303844D01*
X283878Y302828D01*
X283930Y302749D01*
X290019Y308839D01*
X296231Y315050D01*
X296182Y315408D01*
X296220Y315998D01*
X296288Y316220D01*
X296929Y316648D01*
X301228Y320947D01*
X295720Y326455D01*
X297516Y328251D01*
X303024Y322743D01*
X307323Y327042D01*
X307884Y327882D01*
X308005Y328489D01*
X308585Y329229D01*
X309217Y329676D01*
X309874Y329807D01*
X310714Y330368D01*
X315014Y334667D01*
X309505Y340175D01*
X303997Y345684D01*
X299698Y341384D01*
X299137Y340544D01*
X299016Y339937D01*
X298436Y339197D01*
X297804Y338751D01*
X297147Y338620D01*
X296307Y338059D01*
X292987Y334739D01*
X291814Y335225D01*
Y365411D01*
X293223Y366353D01*
X294444Y368180D01*
X294873Y370336D01*
X294444Y372491D01*
X293867Y373354D01*
X294546Y374624D01*
X295790D01*
X296160Y374267D01*
X296552Y373270D01*
X296392Y372883D01*
Y370384D01*
X296875Y369217D01*
X297579Y368926D01*
X297670Y368848D01*
X297751Y368854D01*
X297878Y368802D01*
X297893Y368792D01*
X297898Y368793D01*
X298042Y368734D01*
X298799D01*
X298915Y368654D01*
X299517Y368149D01*
X299864Y367814D01*
X300041Y367745D01*
X304701Y363085D01*
X305536Y362527D01*
X306521Y362331D01*
X308585D01*
X308755Y362255D01*
X309090Y362247D01*
X309115Y362244D01*
Y357554D01*
X309598Y356388D01*
X310764Y355905D01*
X321164D01*
X322331Y356388D01*
X322814Y357554D01*
Y372254D01*
X322331Y373421D01*
X322744Y374624D01*
X327985D01*
X328398Y373421D01*
D02*
G37*
G36*
X336509Y357567D02*
X336339Y357507D01*
X336189Y357407D01*
X336059Y357267D01*
X335949Y357087D01*
X335859Y356867D01*
X335789Y356607D01*
X335739Y356307D01*
X335709Y355967D01*
X335699Y355587D01*
X333699D01*
X333689Y355967D01*
X333659Y356307D01*
X333609Y356607D01*
X333539Y356867D01*
X333449Y357087D01*
X333339Y357267D01*
X333209Y357407D01*
X333059Y357507D01*
X332889Y357567D01*
X332699Y357587D01*
X336699D01*
X336509Y357567D01*
D02*
G37*
G36*
X77366Y371857D02*
X78532Y371374D01*
X79698Y371857D01*
X83120Y375279D01*
X83150Y375254D01*
X83384Y375032D01*
X83557Y374966D01*
X90855Y367669D01*
X90884Y367521D01*
X91442Y366686D01*
X92277Y366128D01*
X93261Y365933D01*
X146201D01*
X160581Y351553D01*
X160055Y350283D01*
X126662D01*
X126526Y350353D01*
X126149Y350385D01*
X125833Y350461D01*
X125435Y350609D01*
X124965Y350840D01*
X124430Y351160D01*
X123837Y351570D01*
X123207Y352060D01*
X121755Y353355D01*
X120970Y354132D01*
X120836Y354187D01*
X119004Y355592D01*
X116809Y356501D01*
X114453Y356811D01*
X112097Y356501D01*
X109902Y355592D01*
X108017Y354146D01*
X106571Y352260D01*
X105661Y350065D01*
X105351Y347710D01*
X105661Y345354D01*
X106571Y343158D01*
X108017Y341273D01*
X109902Y339827D01*
X112097Y338918D01*
X114453Y338608D01*
X116809Y338918D01*
X119004Y339827D01*
X120836Y341232D01*
X120970Y341287D01*
X121755Y342064D01*
X123207Y343359D01*
X123838Y343849D01*
X124430Y344259D01*
X124965Y344579D01*
X125435Y344810D01*
X125833Y344958D01*
X126149Y345034D01*
X126526Y345066D01*
X126662Y345136D01*
X159927D01*
X203713Y301350D01*
X203495Y299839D01*
X203169Y299651D01*
X201978Y300106D01*
X201841Y300147D01*
X170791Y331198D01*
X169956Y331755D01*
X168971Y331951D01*
X141226D01*
X141205Y332105D01*
X140296Y334300D01*
X138849Y336185D01*
X136965Y337631D01*
X134769Y338541D01*
X132414Y338851D01*
X130058Y338541D01*
X127863Y337631D01*
X125978Y336185D01*
X124531Y334300D01*
X123622Y332105D01*
X123312Y329749D01*
X123622Y327393D01*
X124531Y325198D01*
X125978Y323313D01*
X127196Y322378D01*
X126765Y321108D01*
X112556D01*
X66530Y367134D01*
Y380897D01*
X67800Y381423D01*
X77366Y371857D01*
D02*
G37*
G36*
X390041Y350354D02*
X383643Y346444D01*
X381763Y346685D01*
X382103Y347085D01*
X382352Y347514D01*
X382510Y347973D01*
X382576Y348460D01*
X382552Y348977D01*
X382436Y349523D01*
X382229Y350097D01*
X381931Y350701D01*
X381542Y351334D01*
X381062Y351996D01*
X390041Y350354D01*
D02*
G37*
G36*
X120625Y352152D02*
X122151Y350792D01*
X122861Y350239D01*
X123536Y349772D01*
X124176Y349389D01*
X124782Y349092D01*
X125351Y348880D01*
X125886Y348752D01*
X126386Y348709D01*
Y346710D01*
X125886Y346667D01*
X125351Y346539D01*
X124782Y346327D01*
X124176Y346030D01*
X123536Y345647D01*
X122861Y345179D01*
X122151Y344627D01*
X120625Y343267D01*
X119809Y342459D01*
Y352960D01*
X120625Y352152D01*
D02*
G37*
G36*
X214286Y340851D02*
X214560Y340653D01*
X214861Y340480D01*
X215190Y340329D01*
X215545Y340203D01*
X215928Y340101D01*
X216337Y340022D01*
X216773Y339968D01*
X217237Y339937D01*
X217727Y339930D01*
X213768Y335970D01*
X213761Y336461D01*
X213675Y337361D01*
X213597Y337770D01*
X213494Y338153D01*
X213368Y338508D01*
X213218Y338836D01*
X213044Y339137D01*
X212846Y339412D01*
X212625Y339659D01*
X214039Y341073D01*
X214286Y340851D01*
D02*
G37*
G36*
X303511Y337618D02*
X303545Y337647D01*
X304371Y338433D01*
X308613Y334190D01*
X307818Y333373D01*
X307789Y333340D01*
X308883Y332246D01*
X308630Y332414D01*
X308315Y332475D01*
X307937Y332429D01*
X307496Y332276D01*
X306992Y332015D01*
X306426Y331648D01*
X306249Y331515D01*
X306070Y331303D01*
X305700Y330740D01*
X305436Y330240D01*
X305279Y329803D01*
X305228Y329430D01*
X305283Y329120D01*
X305445Y328873D01*
X304395Y329923D01*
X303533Y329110D01*
X299291Y333353D01*
X300077Y334179D01*
X300106Y334212D01*
X298138Y336180D01*
X298558Y335845D01*
X299024Y335634D01*
X299535Y335547D01*
X300090Y335586D01*
X300691Y335748D01*
X301337Y336036D01*
X301568Y336174D01*
X301693Y336381D01*
X301983Y337024D01*
X302150Y337621D01*
X302192Y338173D01*
X302111Y338679D01*
X301905Y339139D01*
X301576Y339553D01*
X303511Y337618D01*
D02*
G37*
G36*
X268250Y374548D02*
X268594Y374542D01*
X268851Y374526D01*
X268988Y374509D01*
X269082Y374281D01*
X269269Y374204D01*
X269297Y374157D01*
X269513Y374103D01*
X270248Y373798D01*
X272748D01*
X273391Y374064D01*
X274414Y373679D01*
X274833Y372353D01*
X274513Y371874D01*
X274084Y369719D01*
X274513Y367564D01*
X275734Y365736D01*
X277561Y364515D01*
X277976Y364433D01*
Y333038D01*
X276775Y331982D01*
X275722Y333068D01*
X275617Y333592D01*
X275059Y334427D01*
X250629Y358857D01*
X250583Y359003D01*
X250339Y359292D01*
X250169Y359569D01*
X249992Y359955D01*
X249823Y360451D01*
X249671Y361055D01*
X249542Y361763D01*
X249443Y362556D01*
X249331Y364499D01*
X249326Y365603D01*
X249298Y365670D01*
X249326Y365737D01*
X249331Y366841D01*
X249443Y368783D01*
X249542Y369576D01*
X249671Y370285D01*
X249823Y370889D01*
X249992Y371385D01*
X250169Y371771D01*
X250339Y372048D01*
X250583Y372337D01*
X250629Y372483D01*
X252770Y374624D01*
X268077D01*
X268250Y374548D01*
D02*
G37*
G36*
X254794Y328377D02*
X254804Y327979D01*
X254833Y327602D01*
X254882Y327247D01*
X254951Y326913D01*
X255039Y326600D01*
X255147Y326308D01*
X255274Y326038D01*
X255420Y325789D01*
X255587Y325562D01*
X255773Y325355D01*
X251773Y329355D01*
X251967Y329182D01*
X252141Y329069D01*
X252294Y329018D01*
X252426Y329028D01*
X252539Y329100D01*
X252631Y329233D01*
X252702Y329427D01*
X252753Y329682D01*
X252784Y329999D01*
X252794Y330377D01*
X254794Y328377D01*
D02*
G37*
G36*
X247247Y328735D02*
X247257Y328201D01*
X247335Y327295D01*
X247404Y326923D01*
X247492Y326606D01*
X247600Y326342D01*
X247727Y326133D01*
X247874Y325978D01*
X248040Y325878D01*
X248226Y325831D01*
X245574Y326094D01*
X245512Y326033D01*
X245457Y326045D01*
X245408Y326129D01*
X245365Y326287D01*
X245329Y326518D01*
X245300Y326822D01*
X245251Y328171D01*
X245247Y328767D01*
X247247Y328735D01*
D02*
G37*
G36*
X281460Y326094D02*
X278571Y325594D01*
X278757Y325654D01*
X278923Y325767D01*
X279070Y325933D01*
X279197Y326152D01*
X279305Y326424D01*
X279393Y326749D01*
X279461Y327126D01*
X279510Y327557D01*
X279540Y328040D01*
X279549Y328576D01*
X281549Y328814D01*
X281460Y326094D01*
D02*
G37*
G36*
X274250Y329999D02*
X274281Y329682D01*
X274332Y329427D01*
X274403Y329233D01*
X274495Y329100D01*
X274608Y329028D01*
X274740Y329018D01*
X274893Y329069D01*
X275067Y329182D01*
X275261Y329355D01*
X271261Y325355D01*
X271447Y325562D01*
X271614Y325789D01*
X271760Y326038D01*
X271887Y326308D01*
X271995Y326600D01*
X272083Y326913D01*
X272152Y327247D01*
X272201Y327602D01*
X272230Y327979D01*
X272240Y328377D01*
X274240Y330377D01*
X274250Y329999D01*
D02*
G37*
G36*
X336566Y324345D02*
X336365Y324134D01*
X336197Y323934D01*
X336061Y323745D01*
X335958Y323568D01*
X335886Y323401D01*
X335848Y323245D01*
X335841Y323100D01*
X335866Y322967D01*
X335924Y322844D01*
X336014Y322732D01*
X333892Y324854D01*
X334004Y324764D01*
X334127Y324706D01*
X334260Y324681D01*
X334405Y324688D01*
X334561Y324726D01*
X334728Y324798D01*
X334905Y324901D01*
X335094Y325037D01*
X335294Y325205D01*
X335505Y325406D01*
X336566Y324345D01*
D02*
G37*
G36*
X382481Y323983D02*
X382326Y324096D01*
X382142Y324153D01*
X381930D01*
X381689Y324096D01*
X381421Y323983D01*
X381124Y323813D01*
X380798Y323587D01*
X380445Y323304D01*
X379653Y322569D01*
X378239Y323983D01*
X378635Y324393D01*
X379257Y325128D01*
X379483Y325454D01*
X379653Y325751D01*
X379766Y326019D01*
X379823Y326260D01*
Y326472D01*
X379766Y326656D01*
X379653Y326811D01*
X382481Y323983D01*
D02*
G37*
G36*
X217836Y328078D02*
X218116Y327883D01*
X218407Y327734D01*
X218708Y327632D01*
X219020Y327576D01*
X219341Y327567D01*
X219673Y327605D01*
X220015Y327689D01*
X220368Y327819D01*
X220731Y327996D01*
X219034Y322755D01*
X218804Y323227D01*
X217724Y325131D01*
X217522Y325421D01*
X217133Y325911D01*
X216946Y326111D01*
X217566Y328320D01*
X217836Y328078D01*
D02*
G37*
G36*
X238811Y320805D02*
X239981Y319767D01*
X240065Y319719D01*
X240128Y319696D01*
X238503Y318071D01*
X238480Y318134D01*
X238432Y318218D01*
X238359Y318323D01*
X238261Y318448D01*
X237816Y318950D01*
X237146Y319639D01*
X238560Y321054D01*
X238811Y320805D01*
D02*
G37*
G36*
X330447Y317165D02*
X330335Y317255D01*
X330212Y317313D01*
X330079Y317338D01*
X329934Y317332D01*
X329778Y317292D01*
X329612Y317221D01*
X329434Y317118D01*
X329245Y316982D01*
X329045Y316814D01*
X328834Y316613D01*
X327773Y317674D01*
X327974Y317885D01*
X328142Y318085D01*
X328278Y318274D01*
X328381Y318452D01*
X328452Y318618D01*
X328492Y318774D01*
X328498Y318919D01*
X328473Y319052D01*
X328415Y319175D01*
X328325Y319287D01*
X330447Y317165D01*
D02*
G37*
G36*
X297799Y321307D02*
X297629Y321154D01*
X297479Y320960D01*
X297349Y320723D01*
X297239Y320444D01*
X297149Y320123D01*
X297079Y319760D01*
X297029Y319354D01*
X296999Y318907D01*
X296989Y318417D01*
X294989Y316634D01*
X294979Y317284D01*
X294899Y318351D01*
X294829Y318768D01*
X294739Y319107D01*
X294629Y319368D01*
X294499Y319551D01*
X294349Y319657D01*
X294179Y319684D01*
X293989Y319634D01*
X297989Y321417D01*
X297799Y321307D01*
D02*
G37*
G36*
X334377Y314863D02*
X334177Y314652D01*
X334009Y314452D01*
X333873Y314263D01*
X333769Y314085D01*
X333698Y313918D01*
X333659Y313763D01*
X333652Y313618D01*
X333678Y313484D01*
X333735Y313362D01*
X333825Y313250D01*
X331704Y315371D01*
X331815Y315282D01*
X331938Y315224D01*
X332072Y315198D01*
X332216Y315205D01*
X332372Y315244D01*
X332539Y315315D01*
X332717Y315419D01*
X332906Y315555D01*
X333106Y315723D01*
X333316Y315923D01*
X334377Y314863D01*
D02*
G37*
G36*
X235285Y317260D02*
X236446Y316231D01*
X236530Y316183D01*
X236593Y316161D01*
X234968Y314536D01*
X234945Y314599D01*
X234897Y314682D01*
X234825Y314786D01*
X234727Y314911D01*
X234286Y315409D01*
X233622Y316092D01*
X235036Y317507D01*
X235285Y317260D01*
D02*
G37*
G36*
X231758Y313715D02*
X232911Y312695D01*
X232994Y312648D01*
X233057Y312625D01*
X231432Y311000D01*
X231409Y311063D01*
X231362Y311146D01*
X231290Y311250D01*
X231194Y311374D01*
X230756Y311868D01*
X230098Y312545D01*
X231512Y313959D01*
X231758Y313715D01*
D02*
G37*
G36*
X280311Y310233D02*
X280748Y310135D01*
X281022Y310047D01*
X281133Y309970D01*
X281082Y309903D01*
X280867Y309846D01*
X280490Y309800D01*
X279949Y309764D01*
X277351Y309717D01*
X277115Y311717D01*
X277664Y311727D01*
X278575Y311805D01*
X278938Y311874D01*
X279238Y311962D01*
X279478Y312069D01*
X279655Y312197D01*
X279770Y312343D01*
X279823Y312510D01*
X279815Y312696D01*
X280311Y310233D01*
D02*
G37*
G36*
X328258Y307683D02*
X328147Y307773D01*
X328024Y307831D01*
X327890Y307856D01*
X327746Y307849D01*
X327590Y307810D01*
X327423Y307739D01*
X327245Y307635D01*
X327056Y307500D01*
X326856Y307331D01*
X326646Y307131D01*
X325585Y308192D01*
X325785Y308403D01*
X325953Y308603D01*
X326089Y308791D01*
X326193Y308969D01*
X326264Y309136D01*
X326303Y309292D01*
X326310Y309436D01*
X326284Y309570D01*
X326227Y309693D01*
X326137Y309804D01*
X328258Y307683D01*
D02*
G37*
G36*
X300604Y309142D02*
X300334Y308870D01*
X299161Y307529D01*
X299137Y307465D01*
X297513Y309090D01*
X297577Y309114D01*
X297664Y309165D01*
X297774Y309243D01*
X298063Y309482D01*
X298670Y310045D01*
X299189Y310556D01*
X300604Y309142D01*
D02*
G37*
G36*
X228116Y310287D02*
X229457Y309114D01*
X229521Y309090D01*
X227897Y307465D01*
X227873Y307529D01*
X227821Y307616D01*
X227743Y307726D01*
X227504Y308015D01*
X226942Y308622D01*
X226430Y309142D01*
X227845Y310556D01*
X228116Y310287D01*
D02*
G37*
G36*
X156546Y316231D02*
X158072Y314871D01*
X158782Y314319D01*
X159457Y313851D01*
X160097Y313468D01*
X160702Y313171D01*
X161273Y312959D01*
X161807Y312831D01*
X162307Y312789D01*
Y310788D01*
X161807Y310746D01*
X161273Y310618D01*
X160702Y310406D01*
X160097Y310109D01*
X159457Y309726D01*
X158782Y309258D01*
X158072Y308706D01*
X156546Y307346D01*
X155730Y306539D01*
Y317038D01*
X156546Y316231D01*
D02*
G37*
G36*
X284322Y306792D02*
X284260Y306770D01*
X284179Y306724D01*
X284078Y306655D01*
X283958Y306562D01*
X283483Y306144D01*
X282834Y305514D01*
X281420Y306929D01*
X281653Y307164D01*
X282630Y308273D01*
X282675Y308354D01*
X282698Y308417D01*
X284322Y306792D01*
D02*
G37*
G36*
X331533Y305162D02*
X331332Y304951D01*
X331164Y304751D01*
X331028Y304562D01*
X330925Y304384D01*
X330854Y304217D01*
X330815Y304062D01*
X330808Y303917D01*
X330833Y303783D01*
X330891Y303661D01*
X330981Y303549D01*
X328859Y305670D01*
X328971Y305580D01*
X329094Y305523D01*
X329227Y305497D01*
X329372Y305504D01*
X329528Y305543D01*
X329695Y305614D01*
X329872Y305718D01*
X330061Y305854D01*
X330261Y306022D01*
X330472Y306222D01*
X331533Y305162D01*
D02*
G37*
G36*
X266728Y308665D02*
X266507Y308417D01*
X266309Y308143D01*
X266135Y307842D01*
X265985Y307514D01*
X265859Y307159D01*
X265756Y306776D01*
X265678Y306367D01*
X265623Y305930D01*
X265592Y305467D01*
X265585Y304976D01*
X261626Y308936D01*
X262116Y308943D01*
X263016Y309028D01*
X263426Y309107D01*
X263808Y309209D01*
X264163Y309335D01*
X264492Y309485D01*
X264793Y309659D01*
X265067Y309857D01*
X265314Y310079D01*
X266728Y308665D01*
D02*
G37*
G36*
X224580Y306751D02*
X225922Y305578D01*
X225986Y305554D01*
X224361Y303929D01*
X224337Y303993D01*
X224286Y304080D01*
X224207Y304191D01*
X223969Y304480D01*
X223406Y305087D01*
X222895Y305606D01*
X224309Y307020D01*
X224580Y306751D01*
D02*
G37*
G36*
X57560Y392798D02*
X58101Y392741D01*
X58740Y392627D01*
X58893Y392661D01*
X59039Y392602D01*
X59199Y392670D01*
X60571Y392489D01*
X61474Y392608D01*
X62067Y391405D01*
X58002Y387340D01*
X57444Y386506D01*
X57248Y385521D01*
Y363242D01*
X57444Y362257D01*
X58002Y361422D01*
X108328Y311096D01*
X109163Y310539D01*
X110148Y310343D01*
X135718D01*
X136703Y310539D01*
X137538Y311096D01*
X140258Y313817D01*
X141461Y313224D01*
X141272Y311789D01*
X141582Y309433D01*
X142492Y307237D01*
X143938Y305352D01*
X145823Y303906D01*
X148018Y302997D01*
X150374Y302687D01*
X152730Y302997D01*
X154925Y303906D01*
X156756Y305311D01*
X156891Y305366D01*
X157676Y306143D01*
X159128Y307438D01*
X159759Y307928D01*
X160351Y308338D01*
X160886Y308658D01*
X161356Y308889D01*
X161754Y309037D01*
X162070Y309113D01*
X162447Y309145D01*
X162582Y309215D01*
X166184D01*
X171910Y303489D01*
X171190Y302412D01*
X170690Y302620D01*
X168335Y302930D01*
X165979Y302620D01*
X163784Y301710D01*
X161899Y300264D01*
X160452Y298379D01*
X159543Y296184D01*
X159233Y293828D01*
X159543Y291472D01*
X160452Y289277D01*
X161899Y287392D01*
X163784Y285945D01*
X165979Y285036D01*
X168335Y284726D01*
X170690Y285036D01*
X172885Y285945D01*
X174771Y287392D01*
X175560Y288421D01*
X176827Y288504D01*
X205159Y260172D01*
X204673Y258999D01*
X147997D01*
X55418Y351578D01*
Y392429D01*
X55543Y392496D01*
X55865Y392623D01*
X56223Y392720D01*
X56622Y392783D01*
X57068Y392811D01*
X57560Y392798D01*
D02*
G37*
G36*
X221045Y303216D02*
X222386Y302043D01*
X222450Y302018D01*
X220826Y300394D01*
X220802Y300458D01*
X220750Y300545D01*
X220672Y300655D01*
X220433Y300944D01*
X219870Y301551D01*
X219359Y302071D01*
X220774Y303485D01*
X221045Y303216D01*
D02*
G37*
G36*
X370367Y318249D02*
X371250Y317173D01*
Y302245D01*
X369337Y300332D01*
X368380Y301171D01*
X368385Y301177D01*
X369228Y303214D01*
X369516Y305400D01*
X369228Y307586D01*
X368385Y309623D01*
X367042Y311372D01*
X365293Y312715D01*
X363256Y313558D01*
X361070Y313846D01*
X358884Y313558D01*
X356847Y312715D01*
X355098Y311372D01*
X353755Y309623D01*
X352911Y307586D01*
X352624Y305400D01*
X352911Y303214D01*
X353755Y301177D01*
X355098Y299428D01*
X356847Y298085D01*
X356588Y296818D01*
X351501D01*
X350517Y296622D01*
X349682Y296064D01*
X319262Y265644D01*
X317666Y265746D01*
X314860Y268552D01*
X314835Y268622D01*
X314754Y268713D01*
X314729Y268748D01*
X314699Y268797D01*
X314668Y268866D01*
X314634Y268957D01*
X314602Y269072D01*
X314573Y269213D01*
X314551Y269380D01*
X314536Y269574D01*
X314530Y269830D01*
X314449Y270012D01*
Y279004D01*
X321470Y286024D01*
X321655Y286095D01*
X321749Y286185D01*
X322263Y285972D01*
X323429Y286455D01*
X325197Y288223D01*
X325430Y288785D01*
X325963Y289579D01*
X326756Y290111D01*
X327319Y290344D01*
X329086Y292112D01*
X329570Y293279D01*
X329357Y293793D01*
X329446Y293887D01*
X329517Y294072D01*
X353732Y318286D01*
X370027D01*
X370367Y318249D01*
D02*
G37*
G36*
X325460Y297936D02*
X325348Y298025D01*
X325226Y298083D01*
X325092Y298109D01*
X324947Y298102D01*
X324792Y298063D01*
X324625Y297992D01*
X324447Y297888D01*
X324258Y297752D01*
X324058Y297584D01*
X323848Y297384D01*
X322787Y298444D01*
X322987Y298655D01*
X323155Y298855D01*
X323291Y299044D01*
X323395Y299222D01*
X323466Y299389D01*
X323505Y299544D01*
X323512Y299689D01*
X323486Y299823D01*
X323429Y299945D01*
X323339Y300057D01*
X325460Y297936D01*
D02*
G37*
G36*
X386401Y298550D02*
X385376Y298544D01*
X383547Y298433D01*
X382743Y298327D01*
X382014Y298188D01*
X381359Y298016D01*
X380778Y297810D01*
X380271Y297572D01*
X379838Y297300D01*
X379479Y296995D01*
X378065Y298409D01*
X378370Y298768D01*
X378642Y299201D01*
X378881Y299708D01*
X379086Y300289D01*
X379258Y300944D01*
X379397Y301673D01*
X379503Y302477D01*
X379614Y304306D01*
X379620Y305331D01*
X386401Y298550D01*
D02*
G37*
G36*
X310852Y298631D02*
X310671Y298444D01*
X310356Y298076D01*
X310222Y297895D01*
X310000Y297540D01*
X309913Y297367D01*
X309841Y297195D01*
X309785Y297025D01*
X309744Y296858D01*
X308119Y298483D01*
X308239Y298515D01*
X308368Y298565D01*
X308506Y298634D01*
X308653Y298721D01*
X308809Y298826D01*
X309148Y299091D01*
X309331Y299250D01*
X309724Y299625D01*
X310852Y298631D01*
D02*
G37*
G36*
X217509Y299680D02*
X218851Y298507D01*
X218915Y298483D01*
X217290Y296858D01*
X217266Y296922D01*
X217215Y297009D01*
X217136Y297120D01*
X216898Y297409D01*
X216335Y298015D01*
X215824Y298535D01*
X217238Y299949D01*
X217509Y299680D01*
D02*
G37*
G36*
X294929Y296185D02*
X294789Y296149D01*
X294643Y296096D01*
X294490Y296025D01*
X294330Y295937D01*
X294164Y295831D01*
X293992Y295708D01*
X293628Y295409D01*
X293436Y295234D01*
X293237Y295040D01*
X292791Y295487D01*
X292613Y294417D01*
X290486Y292083D01*
X290501Y297158D01*
X290744Y296889D01*
X290990Y296677D01*
X291239Y296520D01*
X291489Y296420D01*
X291742Y296376D01*
X291998Y296388D01*
X292255Y296457D01*
X292515Y296582D01*
X292669Y296688D01*
X292827Y296873D01*
X292950Y297046D01*
X293056Y297211D01*
X293144Y297371D01*
X293215Y297524D01*
X293268Y297670D01*
X293304Y297810D01*
X294929Y296185D01*
D02*
G37*
G36*
X270868Y299377D02*
X270644Y299128D01*
X270446Y298852D01*
X270274Y298550D01*
X270127Y298222D01*
X270006Y297868D01*
X269910Y297487D01*
X269840Y297080D01*
X269795Y296647D01*
X269776Y296188D01*
X269782Y295702D01*
X265713Y299549D01*
X266208Y299569D01*
X267114Y299676D01*
X267526Y299763D01*
X267910Y299872D01*
X268266Y300003D01*
X268594Y300157D01*
X268895Y300332D01*
X269167Y300530D01*
X269412Y300750D01*
X270868Y299377D01*
D02*
G37*
G36*
X328250Y295023D02*
X328050Y294812D01*
X327882Y294612D01*
X327746Y294423D01*
X327642Y294245D01*
X327571Y294079D01*
X327532Y293923D01*
X327525Y293778D01*
X327551Y293645D01*
X327608Y293522D01*
X327698Y293410D01*
X325577Y295532D01*
X325689Y295442D01*
X325811Y295384D01*
X325945Y295359D01*
X326090Y295365D01*
X326245Y295404D01*
X326412Y295476D01*
X326590Y295579D01*
X326779Y295715D01*
X326979Y295883D01*
X327189Y296084D01*
X328250Y295023D01*
D02*
G37*
G36*
X201187Y298603D02*
X201465Y298405D01*
X201768Y298237D01*
X202094Y298098D01*
X202446Y297988D01*
X202821Y297908D01*
X203221Y297857D01*
X203645Y297835D01*
X204093Y297843D01*
X204566Y297879D01*
X201004Y293558D01*
X200950Y294063D01*
X200789Y294983D01*
X200681Y295399D01*
X200556Y295786D01*
X200413Y296143D01*
X200251Y296470D01*
X200072Y296768D01*
X199875Y297036D01*
X199660Y297275D01*
X200933Y298830D01*
X201187Y298603D01*
D02*
G37*
G36*
X314425Y294910D02*
X314227Y294708D01*
X313744Y294159D01*
X313621Y293995D01*
X313429Y293697D01*
X313360Y293563D01*
X313311Y293438D01*
X313279Y293323D01*
X311655Y294947D01*
X311827Y294989D01*
X312000Y295046D01*
X312175Y295118D01*
X312352Y295206D01*
X312530Y295309D01*
X312710Y295427D01*
X312892Y295560D01*
X313259Y295873D01*
X313445Y296052D01*
X314425Y294910D01*
D02*
G37*
G36*
X213974Y296145D02*
X215315Y294971D01*
X215379Y294947D01*
X213755Y293323D01*
X213731Y293387D01*
X213679Y293474D01*
X213601Y293584D01*
X213362Y293873D01*
X212799Y294480D01*
X212288Y295000D01*
X213702Y296414D01*
X213974Y296145D01*
D02*
G37*
G36*
X298464Y292650D02*
X298325Y292614D01*
X298178Y292561D01*
X298025Y292490D01*
X297866Y292401D01*
X297700Y292296D01*
X297528Y292173D01*
X297163Y291874D01*
X296971Y291698D01*
X296773Y291505D01*
X295695Y292583D01*
X295888Y292781D01*
X296362Y293338D01*
X296486Y293510D01*
X296591Y293676D01*
X296680Y293835D01*
X296750Y293988D01*
X296804Y294135D01*
X296840Y294274D01*
X298464Y292650D01*
D02*
G37*
G36*
X317940Y291476D02*
X317751Y291282D01*
X317287Y290733D01*
X317166Y290561D01*
X317062Y290395D01*
X316975Y290235D01*
X316905Y290080D01*
X316851Y289931D01*
X316815Y289787D01*
X315190Y291412D01*
X315334Y291448D01*
X315483Y291502D01*
X315638Y291572D01*
X315798Y291659D01*
X315965Y291763D01*
X316136Y291884D01*
X316497Y292177D01*
X316685Y292348D01*
X316879Y292537D01*
X317940Y291476D01*
D02*
G37*
G36*
X208808Y295209D02*
X209894Y293343D01*
X210098Y293055D01*
X210492Y292565D01*
X210509Y292547D01*
X211780Y291436D01*
X211844Y291412D01*
X210219Y289787D01*
X210195Y289851D01*
X210144Y289938D01*
X210065Y290048D01*
X209826Y290338D01*
X209764Y290405D01*
X209548Y290555D01*
X209258Y290704D01*
X208959Y290805D01*
X208650Y290858D01*
X208331Y290865D01*
X208003Y290825D01*
X207666Y290738D01*
X207318Y290604D01*
X206961Y290422D01*
X208578Y295668D01*
X208808Y295209D01*
D02*
G37*
G36*
X322131Y287843D02*
X322020Y287933D01*
X321897Y287991D01*
X321763Y288016D01*
X321619Y288010D01*
X321463Y287971D01*
X321296Y287899D01*
X321118Y287796D01*
X320929Y287660D01*
X320730Y287492D01*
X320519Y287291D01*
X319458Y288352D01*
X319658Y288563D01*
X319826Y288763D01*
X319962Y288952D01*
X320066Y289130D01*
X320137Y289296D01*
X320176Y289452D01*
X320183Y289597D01*
X320158Y289730D01*
X320100Y289853D01*
X320010Y289965D01*
X322131Y287843D01*
D02*
G37*
G36*
X229631Y282671D02*
X229279Y283013D01*
X228583Y283589D01*
X228238Y283823D01*
X227895Y284021D01*
X227554Y284183D01*
X227216Y284309D01*
X226880Y284399D01*
X226546Y284453D01*
X226215Y284471D01*
Y286471D01*
X226546Y286489D01*
X226880Y286543D01*
X227216Y286633D01*
X227554Y286759D01*
X227895Y286921D01*
X228238Y287119D01*
X228583Y287353D01*
X228930Y287623D01*
X229279Y287929D01*
X229631Y288271D01*
Y282671D01*
D02*
G37*
G36*
X298447Y289809D02*
X298538Y289753D01*
X298856Y289458D01*
X298911Y289181D01*
X299524Y288263D01*
X300442Y287650D01*
X301524Y287435D01*
X302231Y286727D01*
X302446Y285645D01*
X303060Y284727D01*
X303977Y284114D01*
X305060Y283899D01*
X305767Y283192D01*
X305982Y282110D01*
X306595Y281192D01*
X307513Y280579D01*
X308595Y280364D01*
X308765Y280315D01*
X309812Y279311D01*
Y274699D01*
X308595Y273646D01*
X307513Y273431D01*
X306595Y272817D01*
X305982Y271900D01*
X305767Y270818D01*
X305060Y270110D01*
X303977Y269895D01*
X303060Y269282D01*
X302446Y268364D01*
X302231Y267282D01*
X301524Y266575D01*
X300442Y266360D01*
X299524Y265746D01*
X298911Y264829D01*
X298696Y263747D01*
X297988Y263039D01*
X296906Y262824D01*
X295989Y262211D01*
X295375Y261293D01*
X295160Y260211D01*
X294453Y259504D01*
X293371Y259289D01*
X292453Y258675D01*
X291840Y257758D01*
X291625Y256675D01*
X290917Y255968D01*
X289835Y255753D01*
X288918Y255140D01*
X288304Y254222D01*
X288089Y253140D01*
X287382Y252433D01*
X286299Y252218D01*
X285382Y251604D01*
X284769Y250687D01*
X284554Y249604D01*
X283846Y248897D01*
X282764Y248682D01*
X281846Y248069D01*
X281233Y247151D01*
X281018Y246069D01*
X280311Y245362D01*
X279228Y245146D01*
X278311Y244533D01*
X277698Y243616D01*
X277482Y242533D01*
X276775Y241826D01*
X275693Y241611D01*
X274775Y240998D01*
X274162Y240080D01*
X273947Y238998D01*
X273240Y238291D01*
X272157Y238075D01*
X271240Y237462D01*
X270627Y236545D01*
X270436Y235588D01*
X269321Y234928D01*
X268302Y235737D01*
Y259927D01*
X285188Y276813D01*
X287136Y276425D01*
X289292Y276854D01*
X291119Y278075D01*
X292340Y279902D01*
X292769Y282057D01*
X292340Y284213D01*
X291886Y284893D01*
X292105Y285303D01*
X292649Y286036D01*
X293425Y286190D01*
X294181Y286695D01*
X297458Y289972D01*
X298447Y289809D01*
D02*
G37*
G36*
X386401Y273150D02*
X385376Y273144D01*
X383547Y273033D01*
X382743Y272927D01*
X382014Y272788D01*
X381359Y272616D01*
X380778Y272410D01*
X380271Y272172D01*
X379838Y271900D01*
X379479Y271595D01*
X378065Y273009D01*
X378370Y273368D01*
X378642Y273801D01*
X378881Y274308D01*
X379086Y274889D01*
X379258Y275544D01*
X379397Y276273D01*
X379503Y277077D01*
X379614Y278906D01*
X379620Y279931D01*
X386401Y273150D01*
D02*
G37*
G36*
X312881Y269790D02*
X312888Y269490D01*
X312910Y269206D01*
X312946Y268938D01*
X312997Y268686D01*
X313063Y268451D01*
X313143Y268232D01*
X313237Y268029D01*
X313347Y267843D01*
X313471Y267673D01*
X313609Y267519D01*
X310609Y270519D01*
X310756Y270388D01*
X310887Y270303D01*
X311003Y270264D01*
X311103Y270272D01*
X311188Y270326D01*
X311257Y270426D01*
X311311Y270573D01*
X311350Y270766D01*
X311373Y271005D01*
X311381Y271290D01*
X312881Y269790D01*
D02*
G37*
G36*
X226926Y271978D02*
X227156Y271777D01*
X227258Y271702D01*
X227349Y271644D01*
X227432Y271602D01*
X227505Y271578D01*
X227569Y271570D01*
X227623Y271579D01*
X227668Y271605D01*
X226371Y269463D01*
X226370Y269510D01*
X226346Y269574D01*
X226301Y269655D01*
X226234Y269752D01*
X226146Y269866D01*
X225905Y270145D01*
X225382Y270690D01*
X226796Y272104D01*
X226926Y271978D01*
D02*
G37*
G36*
X224590Y268483D02*
X224321Y268212D01*
X223147Y266870D01*
X223123Y266806D01*
X221499Y268431D01*
X221563Y268455D01*
X221650Y268506D01*
X221760Y268585D01*
X222049Y268824D01*
X222656Y269386D01*
X223176Y269897D01*
X224590Y268483D01*
D02*
G37*
G36*
X211571Y269888D02*
X211556Y269692D01*
X211569Y269492D01*
X211611Y269289D01*
X211681Y269082D01*
X211781Y268871D01*
X211908Y268656D01*
X212065Y268438D01*
X212194Y268283D01*
X212537Y268286D01*
X213769Y268374D01*
X213993Y268414D01*
X214184Y268462D01*
X214341Y268517D01*
X214465Y268579D01*
X214555Y268649D01*
X211778Y265872D01*
X211852Y265950D01*
X211908Y266019D01*
X211948Y266081D01*
X211971Y266134D01*
X211978Y266180D01*
X211967Y266216D01*
X211940Y266245D01*
X211895Y266266D01*
X211834Y266278D01*
X211756Y266282D01*
X211998Y267523D01*
X211049Y266575D01*
X210823Y266789D01*
X210601Y266973D01*
X210382Y267130D01*
X210168Y267258D01*
X209957Y267357D01*
X209749Y267427D01*
X209546Y267469D01*
X209346Y267483D01*
X209150Y267467D01*
X208958Y267424D01*
X211615Y270081D01*
X211571Y269888D01*
D02*
G37*
G36*
X312166Y261765D02*
X312279Y261599D01*
X312446Y261452D01*
X312665Y261325D01*
X312936Y261217D01*
X313261Y261129D01*
X313639Y261061D01*
X314069Y261012D01*
X314552Y260982D01*
X315088Y260973D01*
X315327Y258973D01*
X312606Y259062D01*
X312106Y261951D01*
X312166Y261765D01*
D02*
G37*
G36*
X214428Y259062D02*
X214424Y259045D01*
X214362Y259030D01*
X214239Y259016D01*
X213815Y258995D01*
X211707Y258973D01*
X211946Y260973D01*
X212482Y260982D01*
X213396Y261061D01*
X213773Y261129D01*
X214098Y261217D01*
X214370Y261325D01*
X214588Y261452D01*
X214755Y261599D01*
X214868Y261765D01*
X214928Y261951D01*
X214428Y259062D01*
D02*
G37*
G36*
X217963Y255527D02*
X217963Y255508D01*
X217903Y255490D01*
X217782Y255475D01*
X217601Y255462D01*
X215789Y255427D01*
X215245Y255425D01*
X215473Y257425D01*
X216009Y257435D01*
X216923Y257514D01*
X217300Y257582D01*
X217624Y257670D01*
X217896Y257778D01*
X218114Y257905D01*
X218280Y258052D01*
X218392Y258218D01*
X218452Y258404D01*
X217963Y255527D01*
D02*
G37*
G36*
X308951Y257889D02*
X309044Y257722D01*
X309193Y257576D01*
X309396Y257449D01*
X309653Y257341D01*
X309964Y257253D01*
X310330Y257184D01*
X310751Y257135D01*
X311225Y257106D01*
X311755Y257096D01*
X311675Y255096D01*
X311064Y255101D01*
X309400Y255204D01*
X309178Y255251D01*
X309035Y255307D01*
X308969Y255372D01*
X308981Y255445D01*
X309071Y255527D01*
X308911Y258075D01*
X308951Y257889D01*
D02*
G37*
G36*
X305475Y254253D02*
X305535Y254087D01*
X305657Y253940D01*
X305841Y253813D01*
X306087Y253705D01*
X306394Y253617D01*
X306763Y253549D01*
X307193Y253500D01*
X307685Y253470D01*
X308239Y253461D01*
X308072Y251460D01*
X307105Y251465D01*
X304489Y251618D01*
X304410Y251674D01*
X304479Y251740D01*
X304695Y251814D01*
X305060Y251896D01*
X305476Y254439D01*
X305475Y254253D01*
D02*
G37*
G36*
X222450Y251991D02*
X222311Y251955D01*
X222166Y251902D01*
X222013Y251831D01*
X221854Y251742D01*
X221688Y251636D01*
X221516Y251513D01*
X221150Y251212D01*
X220958Y251036D01*
X220758Y250842D01*
X219676Y251923D01*
X219870Y252123D01*
X220347Y252681D01*
X220471Y252854D01*
X220577Y253020D01*
X220666Y253179D01*
X220737Y253331D01*
X220790Y253477D01*
X220826Y253616D01*
X222450Y251991D01*
D02*
G37*
G36*
X225986Y248456D02*
X225847Y248420D01*
X225701Y248367D01*
X225549Y248295D01*
X225390Y248207D01*
X225224Y248101D01*
X225051Y247977D01*
X224686Y247677D01*
X224493Y247500D01*
X224293Y247306D01*
X223211Y248388D01*
X223406Y248587D01*
X223883Y249146D01*
X224006Y249318D01*
X224113Y249484D01*
X224201Y249643D01*
X224272Y249796D01*
X224326Y249941D01*
X224361Y250080D01*
X225986Y248456D01*
D02*
G37*
G36*
X229521Y244920D02*
X229382Y244884D01*
X229237Y244831D01*
X229084Y244760D01*
X228925Y244671D01*
X228759Y244565D01*
X228587Y244442D01*
X228221Y244141D01*
X228029Y243965D01*
X227829Y243770D01*
X226747Y244852D01*
X226941Y245052D01*
X227418Y245610D01*
X227542Y245783D01*
X227648Y245949D01*
X227737Y246108D01*
X227808Y246260D01*
X227861Y246406D01*
X227897Y246545D01*
X229521Y244920D01*
D02*
G37*
G36*
X299161Y246481D02*
X299213Y246394D01*
X299291Y246283D01*
X299530Y245994D01*
X300093Y245387D01*
X300604Y244868D01*
X299189Y243454D01*
X298918Y243723D01*
X297577Y244896D01*
X297513Y244920D01*
X299137Y246545D01*
X299161Y246481D01*
D02*
G37*
G36*
X233057Y241385D02*
X232816Y241330D01*
X232583Y241264D01*
X232359Y241188D01*
X232143Y241100D01*
X231936Y241000D01*
X231737Y240890D01*
X231546Y240769D01*
X231364Y240636D01*
X231191Y240492D01*
X231026Y240336D01*
X230336Y241768D01*
X230538Y241971D01*
X231415Y242964D01*
X231432Y243009D01*
X233057Y241385D01*
D02*
G37*
G36*
X295637Y242870D02*
X295691Y242725D01*
X295762Y242572D01*
X295850Y242413D01*
X295956Y242247D01*
X296080Y242075D01*
X296381Y241709D01*
X296557Y241516D01*
X296751Y241317D01*
X295670Y240235D01*
X295470Y240429D01*
X294912Y240906D01*
X294739Y241030D01*
X294573Y241136D01*
X294414Y241224D01*
X294262Y241295D01*
X294116Y241349D01*
X293977Y241385D01*
X295602Y243009D01*
X295637Y242870D01*
D02*
G37*
G36*
X307298Y233961D02*
X307283Y234239D01*
X307240Y234517D01*
X307168Y234797D01*
X307067Y235078D01*
X306937Y235360D01*
X306778Y235644D01*
X306590Y235928D01*
X306373Y236214D01*
X306128Y236502D01*
X305853Y236790D01*
Y239618D01*
X306128Y239358D01*
X306373Y239156D01*
X306590Y239011D01*
X306778Y238925D01*
X306937Y238896D01*
X307067Y238925D01*
X307168Y239011D01*
X307240Y239156D01*
X307283Y239358D01*
X307298Y239618D01*
Y233961D01*
D02*
G37*
G36*
X236593Y237849D02*
X236449Y237813D01*
X236300Y237759D01*
X236145Y237689D01*
X235984Y237602D01*
X235818Y237498D01*
X235646Y237377D01*
X235286Y237084D01*
X235098Y236913D01*
X234904Y236724D01*
X233843Y237785D01*
X234031Y237979D01*
X234496Y238528D01*
X234617Y238699D01*
X234721Y238866D01*
X234808Y239026D01*
X234878Y239181D01*
X234931Y239330D01*
X234968Y239474D01*
X236593Y237849D01*
D02*
G37*
G36*
X292102Y239335D02*
X292155Y239189D01*
X292226Y239037D01*
X292315Y238878D01*
X292421Y238712D01*
X292545Y238539D01*
X292845Y238174D01*
X293022Y237981D01*
X293216Y237781D01*
X292134Y236699D01*
X291934Y236894D01*
X291376Y237370D01*
X291203Y237494D01*
X291038Y237600D01*
X290878Y237689D01*
X290726Y237760D01*
X290580Y237813D01*
X290442Y237849D01*
X292066Y239474D01*
X292102Y239335D01*
D02*
G37*
G36*
X256409Y236663D02*
X256140Y236392D01*
X254967Y235051D01*
X254943Y234986D01*
X253319Y236611D01*
X253382Y236635D01*
X253470Y236686D01*
X253580Y236765D01*
X253869Y237004D01*
X254476Y237566D01*
X254995Y238078D01*
X256409Y236663D01*
D02*
G37*
G36*
X239573Y234266D02*
X239559Y234263D01*
X239530Y234243D01*
X239485Y234207D01*
X239257Y233997D01*
X238733Y233482D01*
X237672Y234543D01*
X238456Y235383D01*
X239573Y234266D01*
D02*
G37*
G36*
X259945Y233128D02*
X259676Y232856D01*
X258503Y231515D01*
X258479Y231451D01*
X256854Y233076D01*
X256918Y233100D01*
X257005Y233151D01*
X257115Y233230D01*
X257404Y233468D01*
X258011Y234031D01*
X258531Y234542D01*
X259945Y233128D01*
D02*
G37*
G36*
X241825Y232365D02*
X241881Y232203D01*
X241944Y231927D01*
X243845Y230936D01*
X243706Y230987D01*
X243581Y230989D01*
X243471Y230940D01*
X243376Y230841D01*
X243295Y230693D01*
X243229Y230494D01*
X243178Y230245D01*
X243141Y229946D01*
X243119Y229597D01*
X243112Y229198D01*
X241612Y229512D01*
X241615Y230271D01*
X241775Y232411D01*
X241825Y232365D01*
D02*
G37*
G36*
X379966Y237401D02*
X380395Y237130D01*
X380901Y236890D01*
X381482Y236679D01*
X382139Y236499D01*
X382872Y236349D01*
X383681Y236229D01*
X385527Y236079D01*
X386564Y236049D01*
X379624Y229431D01*
X379641Y230445D01*
X379567Y232257D01*
X379475Y233055D01*
X379347Y233780D01*
X379183Y234433D01*
X378983Y235013D01*
X378746Y235522D01*
X378473Y235957D01*
X378164Y236321D01*
X379612Y237701D01*
X379966Y237401D01*
D02*
G37*
G36*
X285053Y231442D02*
X285077Y231358D01*
X285098Y231221D01*
X285116Y231032D01*
X285149Y230147D01*
X285156Y229294D01*
X283626Y229197D01*
X283618Y229590D01*
X283559Y230247D01*
X283507Y230510D01*
X283440Y230729D01*
X283358Y230905D01*
X283262Y231038D01*
X283150Y231127D01*
X283024Y231173D01*
X282882Y231175D01*
X284995Y231451D01*
X285026Y231473D01*
X285053Y231442D01*
D02*
G37*
G36*
X314144Y227795D02*
X313974Y227735D01*
X313824Y227635D01*
X313694Y227495D01*
X313584Y227315D01*
X313494Y227095D01*
X313424Y226835D01*
X313374Y226535D01*
X313344Y226195D01*
X313334Y225815D01*
X311334D01*
X311324Y226195D01*
X311294Y226535D01*
X311244Y226835D01*
X311174Y227095D01*
X311084Y227315D01*
X310974Y227495D01*
X310844Y227635D01*
X310694Y227735D01*
X310524Y227795D01*
X310334Y227815D01*
X314334D01*
X314144Y227795D01*
D02*
G37*
G36*
X296738Y556720D02*
X313416Y555204D01*
X329971Y552685D01*
X346344Y549170D01*
X362475Y544673D01*
X378306Y539210D01*
X393777Y532802D01*
X408833Y525471D01*
X423419Y517244D01*
X437482Y508152D01*
X450970Y498227D01*
X463834Y487506D01*
X467550Y484009D01*
X467082Y482828D01*
X409130D01*
X408048Y482613D01*
X407130Y482000D01*
X406517Y481082D01*
X406302Y480000D01*
Y188907D01*
X405128Y188421D01*
X395623Y197926D01*
X395556Y198105D01*
X395046Y198655D01*
X394970Y198751D01*
Y210650D01*
X394486Y211816D01*
X393320Y212300D01*
X379620D01*
X378454Y211816D01*
X377970Y210650D01*
Y196950D01*
X378454Y195784D01*
X379620Y195300D01*
X391512D01*
X391872Y194995D01*
X392141Y194736D01*
X392330Y194661D01*
X403288Y183704D01*
Y166679D01*
X402018Y166153D01*
X396046Y172124D01*
X396000Y172275D01*
X395805Y172509D01*
X395677Y172726D01*
X395534Y173057D01*
X395392Y173502D01*
X395262Y174056D01*
X395158Y174680D01*
X394973Y177306D01*
X394969Y178337D01*
X394904Y178493D01*
X394628Y180586D01*
X393785Y182623D01*
X392442Y184372D01*
X390693Y185715D01*
X388656Y186558D01*
X386470Y186846D01*
X384284Y186558D01*
X382247Y185715D01*
X380498Y184372D01*
X379155Y182623D01*
X378312Y180586D01*
X378024Y178400D01*
X378312Y176214D01*
X379155Y174177D01*
X380498Y172428D01*
X382247Y171085D01*
X384284Y170242D01*
X386376Y169966D01*
X386533Y169901D01*
X387594Y169897D01*
X388526Y169865D01*
X390173Y169715D01*
X390813Y169608D01*
X391368Y169478D01*
X391813Y169336D01*
X392144Y169193D01*
X392361Y169065D01*
X392595Y168870D01*
X392746Y168824D01*
X398651Y162918D01*
Y145894D01*
X397381Y145368D01*
X396038Y146711D01*
X395991Y146862D01*
X395799Y147094D01*
X395673Y147309D01*
X395530Y147639D01*
X395389Y148085D01*
X395261Y148640D01*
X395157Y149266D01*
X394973Y151901D01*
X394969Y152937D01*
X394904Y153093D01*
X394628Y155186D01*
X393785Y157223D01*
X392442Y158972D01*
X390693Y160315D01*
X388656Y161159D01*
X386470Y161446D01*
X384284Y161159D01*
X382247Y160315D01*
X380498Y158972D01*
X379155Y157223D01*
X378312Y155186D01*
X378024Y153000D01*
X378312Y150814D01*
X379155Y148777D01*
X380498Y147028D01*
X382247Y145685D01*
X384284Y144841D01*
X386377Y144566D01*
X386533Y144501D01*
X387598Y144497D01*
X388534Y144465D01*
X390187Y144316D01*
X390830Y144209D01*
X391385Y144081D01*
X391831Y143940D01*
X392161Y143797D01*
X392376Y143671D01*
X392608Y143479D01*
X392759Y143432D01*
X393933Y142258D01*
Y133716D01*
X392663Y133285D01*
X392442Y133572D01*
X390693Y134915D01*
X388656Y135758D01*
X386470Y136046D01*
X384284Y135758D01*
X382247Y134915D01*
X380498Y133572D01*
X379155Y131823D01*
X378312Y129786D01*
X378036Y127694D01*
X377971Y127537D01*
X377967Y126476D01*
X377935Y125545D01*
X377785Y123897D01*
X377678Y123257D01*
X377548Y122702D01*
X377406Y122257D01*
X377263Y121926D01*
X377135Y121709D01*
X376940Y121475D01*
X376894Y121324D01*
X375741Y120171D01*
X367230D01*
X366799Y121441D01*
X367042Y121628D01*
X368385Y123377D01*
X369228Y125414D01*
X369516Y127600D01*
X369228Y129786D01*
X368385Y131823D01*
X367042Y133572D01*
X365733Y134577D01*
X365594Y134793D01*
X365553Y134802D01*
X365528Y134836D01*
X361314Y137475D01*
X360013Y138352D01*
X359835Y138486D01*
X359720Y138586D01*
X359681Y138599D01*
X359661Y138635D01*
X359533Y138671D01*
X345942Y152262D01*
X345880Y152430D01*
X345219Y153143D01*
X345018Y153396D01*
X344938Y153510D01*
Y154276D01*
X344789Y154636D01*
X344791Y154657D01*
X344771Y154680D01*
X344455Y155442D01*
X343289Y155926D01*
X340789D01*
X339622Y155442D01*
X338955Y155442D01*
X337789Y155926D01*
X336980D01*
X336928Y155954D01*
X336376Y157196D01*
X336494Y157327D01*
X352386D01*
X353019Y156147D01*
X353011Y155989D01*
X352961Y155633D01*
X352856Y155180D01*
X352886Y154995D01*
X352884Y154979D01*
X352813Y154808D01*
X352850Y154719D01*
X352624Y153000D01*
X352911Y150814D01*
X353755Y148777D01*
X355098Y147028D01*
X356847Y145685D01*
X358884Y144841D01*
X361070Y144554D01*
X363256Y144841D01*
X365293Y145685D01*
X367042Y147028D01*
X368385Y148777D01*
X369228Y150814D01*
X369516Y153000D01*
X369228Y155186D01*
X368385Y157223D01*
X367042Y158972D01*
X365293Y160315D01*
X363256Y161159D01*
X361070Y161446D01*
X359351Y161220D01*
X359262Y161257D01*
X359091Y161186D01*
X359075Y161183D01*
X358890Y161214D01*
X358437Y161109D01*
X358081Y161059D01*
X357759Y161044D01*
X357469Y161060D01*
X357205Y161105D01*
X356961Y161175D01*
X356728Y161274D01*
X356501Y161403D01*
X356273Y161569D01*
X355983Y161831D01*
X355640Y161953D01*
X355154Y162278D01*
X354169Y162474D01*
X336122D01*
X335948Y162550D01*
X335605Y162556D01*
X335347Y162573D01*
X335211Y162589D01*
X335116Y162817D01*
X334929Y162894D01*
X334902Y162941D01*
X334685Y162996D01*
X333950Y163300D01*
X331450D01*
X330887Y163067D01*
X329950Y162883D01*
X329012Y163067D01*
X328450Y163300D01*
X326701D01*
X326425Y163584D01*
X326432Y164119D01*
X326474Y164302D01*
X326888Y164931D01*
X350174D01*
X351159Y165127D01*
X351994Y165685D01*
X355000Y168691D01*
X355148Y168738D01*
X355416Y168966D01*
X355664Y169122D01*
X356005Y169283D01*
X356444Y169438D01*
X356979Y169578D01*
X357606Y169698D01*
X358305Y169790D01*
X360031Y169895D01*
X361011Y169901D01*
X361167Y169967D01*
X363256Y170242D01*
X365293Y171085D01*
X367042Y172428D01*
X368385Y174177D01*
X369228Y176214D01*
X369516Y178400D01*
X369228Y180586D01*
X368385Y182623D01*
X367042Y184372D01*
X365293Y185715D01*
X363256Y186558D01*
X361070Y186846D01*
X358884Y186558D01*
X356847Y185715D01*
X355098Y184372D01*
X353755Y182623D01*
X352911Y180586D01*
X352636Y178497D01*
X352571Y178341D01*
X352565Y177361D01*
X352460Y175635D01*
X352368Y174936D01*
X352248Y174308D01*
X352108Y173774D01*
X351953Y173335D01*
X351792Y172994D01*
X351636Y172746D01*
X351408Y172478D01*
X351361Y172330D01*
X349108Y170078D01*
X326616D01*
X326443Y170154D01*
X326099Y170160D01*
X325842Y170176D01*
X325705Y170193D01*
X325611Y170421D01*
X325424Y170498D01*
X325396Y170545D01*
X325180Y170599D01*
X324445Y170904D01*
X321945D01*
X320778Y170421D01*
X320111Y170421D01*
X318944Y170904D01*
X316691D01*
X316562Y171043D01*
X316866Y172487D01*
X316963Y172554D01*
X317061Y172597D01*
X332440D01*
X333425Y172792D01*
X334260Y173350D01*
X355207Y194297D01*
X355376Y194360D01*
X356123Y195054D01*
X356386Y195264D01*
X356438Y195300D01*
X367920D01*
X369086Y195784D01*
X369570Y196950D01*
Y210650D01*
X369086Y211816D01*
X367920Y212300D01*
X354220D01*
X353054Y211816D01*
X352570Y210650D01*
Y199168D01*
X352547Y199134D01*
X352011Y198500D01*
X351652Y198129D01*
X351582Y197952D01*
X340347Y186716D01*
X339173Y187202D01*
Y189144D01*
X332654D01*
Y179971D01*
X332931Y179301D01*
X331374Y177743D01*
X317061D01*
X316887Y177819D01*
X316544Y177826D01*
X316286Y177842D01*
X316150Y177858D01*
X316055Y178086D01*
X315868Y178164D01*
X315840Y178211D01*
X315624Y178265D01*
X314889Y178570D01*
X312389D01*
X311222Y178086D01*
X310555Y178086D01*
X309389Y178570D01*
X306889D01*
X306236Y178299D01*
X306124Y178379D01*
X305876Y178587D01*
X305616Y178833D01*
X305316Y179151D01*
X305208Y179199D01*
X305118Y179334D01*
X303291Y180555D01*
X301136Y180983D01*
X298980Y180555D01*
X297153Y179334D01*
X295932Y177507D01*
X295504Y175351D01*
X295932Y173196D01*
X297153Y171369D01*
X298980Y170148D01*
X301136Y169719D01*
X303291Y170148D01*
X304742Y171117D01*
X304960Y171193D01*
X305303Y171499D01*
X305381Y171562D01*
X306285Y170736D01*
X306294Y170642D01*
X305637Y169660D01*
X305209Y167504D01*
X305637Y165349D01*
X306858Y163522D01*
X308685Y162301D01*
X310841Y161872D01*
X312996Y162301D01*
X314788Y163498D01*
X314847Y163522D01*
X314969Y163640D01*
X315951Y162823D01*
X315610Y162313D01*
X315181Y160157D01*
X315610Y158002D01*
X316831Y156175D01*
X318658Y154954D01*
X320813Y154525D01*
X322968Y154954D01*
X323971Y155624D01*
X324874Y154721D01*
X324883Y154703D01*
X324776Y154541D01*
X324347Y152386D01*
X324776Y150231D01*
X325996Y148403D01*
X327824Y147183D01*
X329979Y146754D01*
X332134Y147183D01*
X332966Y147738D01*
X333721Y146757D01*
X332500Y144930D01*
X332072Y142774D01*
X332500Y140619D01*
X333721Y138792D01*
X335549Y137571D01*
X336173Y137446D01*
X336407Y137276D01*
X336977Y137137D01*
X337961Y136860D01*
X338616Y136630D01*
Y135875D01*
X338849Y135312D01*
X339034Y134375D01*
X338849Y133438D01*
X338616Y132875D01*
Y131192D01*
X337346Y130666D01*
X320448Y147564D01*
X319691Y148070D01*
X318797Y148248D01*
X314584D01*
X282231Y180601D01*
X282177Y180763D01*
X282101Y180850D01*
X282086Y180872D01*
X280795Y183552D01*
X280772Y183814D01*
X280765Y184155D01*
X280779Y184448D01*
X280812Y184694D01*
X280858Y184893D01*
X280912Y185047D01*
X280969Y185164D01*
X281027Y185252D01*
X281162Y185408D01*
X281188Y185483D01*
X281255Y185524D01*
X281282Y185636D01*
X299782Y204136D01*
X300288Y204893D01*
X300465Y205786D01*
Y238157D01*
X301735Y238683D01*
X304591Y235826D01*
X304659Y235652D01*
X304903Y235396D01*
X305088Y235179D01*
X305243Y234975D01*
X305368Y234785D01*
X305466Y234611D01*
X305539Y234452D01*
X305585Y234324D01*
Y227782D01*
X306068Y226616D01*
X307234Y226133D01*
X309674D01*
X309677Y226101D01*
X309685Y225772D01*
X309761Y225602D01*
Y220663D01*
X309685Y220493D01*
X309677Y220158D01*
X309674Y220133D01*
X307085D01*
X305919Y219650D01*
X305436Y218483D01*
Y203783D01*
X305919Y202617D01*
X307085Y202134D01*
X309674D01*
X309677Y202102D01*
X309685Y201773D01*
X309761Y201603D01*
Y199944D01*
X309685Y199774D01*
X309677Y199438D01*
X309674Y199414D01*
X307384D01*
X306217Y198930D01*
X305734Y197764D01*
Y183064D01*
X306217Y181898D01*
X307384Y181414D01*
X317784D01*
X318950Y181898D01*
X319433Y183064D01*
Y197764D01*
X318950Y198930D01*
X317784Y199414D01*
X314994D01*
X314992Y199438D01*
X314983Y199774D01*
X314908Y199944D01*
Y201603D01*
X314983Y201773D01*
X314992Y202102D01*
X314995Y202134D01*
X317485D01*
X318652Y202617D01*
X319135Y203783D01*
Y218483D01*
X318652Y219650D01*
X317485Y220133D01*
X314994D01*
X314992Y220158D01*
X314983Y220493D01*
X314908Y220663D01*
Y225602D01*
X314983Y225772D01*
X314992Y226101D01*
X314995Y226133D01*
X317635D01*
X318801Y226616D01*
X319284Y227782D01*
Y242482D01*
X318801Y243648D01*
X317635Y244132D01*
X307234D01*
X306068Y243648D01*
X306003Y243490D01*
X304504Y243192D01*
X302878Y244819D01*
X303403Y246089D01*
X350618D01*
X353785Y242922D01*
X354620Y242364D01*
X355605Y242168D01*
X370092D01*
X376860Y235400D01*
X376908Y235252D01*
X377139Y234980D01*
X377294Y234733D01*
X377451Y234394D01*
X377601Y233962D01*
X377733Y233435D01*
X377842Y232817D01*
X377921Y232129D01*
X377991Y230426D01*
X377975Y229459D01*
X378037Y229300D01*
X378024Y229200D01*
X378312Y227014D01*
X379155Y224977D01*
X380498Y223228D01*
X382247Y221885D01*
X384284Y221041D01*
X386470Y220754D01*
X388656Y221041D01*
X390693Y221885D01*
X392442Y223228D01*
X393785Y224977D01*
X394628Y227014D01*
X394916Y229200D01*
X394628Y231386D01*
X393785Y233423D01*
X392442Y235172D01*
X390693Y236515D01*
X388656Y237358D01*
X386834Y237598D01*
X386611Y237698D01*
X385617Y237727D01*
X383869Y237868D01*
X383159Y237974D01*
X382523Y238104D01*
X381982Y238253D01*
X381537Y238414D01*
X381192Y238578D01*
X380945Y238734D01*
X380681Y238958D01*
X380533Y239006D01*
X372977Y246561D01*
X372142Y247119D01*
X371157Y247315D01*
X367308D01*
X366899Y248518D01*
X367042Y248627D01*
X368385Y250377D01*
X369228Y252414D01*
X369516Y254600D01*
X369228Y256786D01*
X368385Y258823D01*
X367042Y260572D01*
X365293Y261915D01*
X363256Y262758D01*
X361070Y263046D01*
X358884Y262758D01*
X356847Y261915D01*
X355098Y260572D01*
X353755Y258823D01*
X352911Y256786D01*
X352624Y254600D01*
X352911Y252414D01*
X352983Y252241D01*
X352055Y251162D01*
X351684Y251236D01*
X325095D01*
X324609Y252409D01*
X339809Y267610D01*
X376654D01*
X377638Y267806D01*
X378473Y268364D01*
X380400Y270291D01*
X380548Y270338D01*
X380816Y270566D01*
X381064Y270722D01*
X381405Y270883D01*
X381844Y271038D01*
X382379Y271178D01*
X383006Y271298D01*
X383705Y271390D01*
X385431Y271495D01*
X386411Y271501D01*
X386567Y271566D01*
X388656Y271841D01*
X390693Y272685D01*
X392442Y274028D01*
X393785Y275777D01*
X394628Y277814D01*
X394916Y280000D01*
X394628Y282186D01*
X393785Y284223D01*
X392442Y285972D01*
X390693Y287315D01*
X388656Y288158D01*
X386470Y288446D01*
X384284Y288158D01*
X382247Y287315D01*
X380498Y285972D01*
X379155Y284223D01*
X378312Y282186D01*
X378036Y280097D01*
X377971Y279941D01*
X377965Y278961D01*
X377860Y277235D01*
X377768Y276536D01*
X377648Y275908D01*
X377508Y275374D01*
X377353Y274935D01*
X377192Y274594D01*
X377036Y274346D01*
X376808Y274078D01*
X376761Y273930D01*
X375588Y272757D01*
X368949D01*
X368322Y274027D01*
X369272Y275264D01*
X370218Y277549D01*
X370374Y278730D01*
X361070D01*
Y281270D01*
X370374D01*
X370218Y282451D01*
X369272Y284735D01*
X367767Y286697D01*
X367444Y286945D01*
X367853Y288147D01*
X371791D01*
X372775Y288343D01*
X373610Y288901D01*
X380400Y295690D01*
X380548Y295738D01*
X380816Y295966D01*
X381064Y296122D01*
X381405Y296283D01*
X381844Y296438D01*
X382379Y296578D01*
X383006Y296698D01*
X383705Y296790D01*
X385431Y296895D01*
X386411Y296901D01*
X386567Y296966D01*
X388656Y297241D01*
X390693Y298085D01*
X392442Y299428D01*
X393785Y301177D01*
X394628Y303214D01*
X394916Y305400D01*
X394628Y307586D01*
X393785Y309623D01*
X392442Y311372D01*
X390693Y312715D01*
X388656Y313558D01*
X386470Y313846D01*
X384284Y313558D01*
X382247Y312715D01*
X380498Y311372D01*
X379155Y309623D01*
X378312Y307586D01*
X378036Y305497D01*
X377971Y305341D01*
X377965Y304361D01*
X377860Y302635D01*
X377850Y302563D01*
X377667Y302396D01*
X376397Y302958D01*
Y317087D01*
X380607Y321297D01*
X380775Y321360D01*
X381523Y322054D01*
X381786Y322264D01*
X381838Y322300D01*
X393320D01*
X394486Y322784D01*
X394970Y323950D01*
Y337650D01*
X394486Y338816D01*
X393320Y339300D01*
X380513D01*
X379987Y340569D01*
X384445Y345028D01*
X384504Y345037D01*
X390901Y348947D01*
X390930Y348987D01*
X390978Y348997D01*
X391115Y349209D01*
X392442Y350228D01*
X393785Y351977D01*
X394628Y354014D01*
X394904Y356107D01*
X394969Y356263D01*
X394973Y357328D01*
X395005Y358264D01*
X395154Y359917D01*
X395261Y360560D01*
X395389Y361115D01*
X395530Y361561D01*
X395673Y361891D01*
X395799Y362106D01*
X395991Y362338D01*
X396038Y362489D01*
X404258Y370709D01*
X404761Y371461D01*
X404937Y372349D01*
Y446673D01*
X404761Y447560D01*
X404258Y448312D01*
X389197Y463374D01*
X388444Y463876D01*
X387557Y464053D01*
X372952D01*
X372771Y464133D01*
X372575Y464138D01*
X372428Y464493D01*
X371261Y464976D01*
X368761D01*
X368232Y464757D01*
X368134Y464826D01*
X368296Y466268D01*
X371591Y467633D01*
X375487Y470020D01*
X378961Y472987D01*
X381928Y476461D01*
X384315Y480356D01*
X386063Y484577D01*
X387129Y489019D01*
X387488Y493574D01*
X387129Y498128D01*
X386063Y502570D01*
X384315Y506791D01*
X381928Y510686D01*
X378961Y514160D01*
X375487Y517127D01*
X371591Y519514D01*
X367371Y521263D01*
X362929Y522329D01*
X358374Y522687D01*
X353820Y522329D01*
X349378Y521263D01*
X345157Y519514D01*
X341261Y517127D01*
X337788Y514160D01*
X334821Y510686D01*
X332434Y506791D01*
X330685Y502570D01*
X329619Y498128D01*
X329260Y493574D01*
X329619Y489019D01*
X330685Y484577D01*
X332434Y480356D01*
X334821Y476461D01*
X337788Y472987D01*
X341261Y470020D01*
X345157Y467633D01*
X349378Y465885D01*
X351314Y465420D01*
X351163Y464150D01*
X339896D01*
X339726Y464226D01*
X339390Y464234D01*
X339366Y464236D01*
Y465839D01*
X338882Y467006D01*
X337716Y467489D01*
X327316D01*
X326149Y467006D01*
X325666Y465839D01*
Y451139D01*
X326149Y449973D01*
X327316Y449490D01*
X337716D01*
X338882Y449973D01*
X339366Y451139D01*
Y458917D01*
X339390Y458919D01*
X339726Y458928D01*
X339896Y459003D01*
X351361D01*
X351486Y457733D01*
X350884Y457614D01*
X350132Y457111D01*
X338082Y445061D01*
X337643Y445243D01*
X327243D01*
X326077Y444759D01*
X325593Y443593D01*
Y428893D01*
X326077Y427727D01*
X327243Y427243D01*
X337643D01*
X338810Y427727D01*
X339293Y428893D01*
Y439714D01*
X352732Y453153D01*
X370834D01*
X371015Y453073D01*
X371145Y453069D01*
X371358Y452555D01*
X372524Y452072D01*
X375024D01*
X376191Y452555D01*
X376858Y452555D01*
X378024Y452072D01*
X380524D01*
X381691Y452555D01*
X381904Y453069D01*
X382034Y453073D01*
X382215Y453153D01*
X386295D01*
X394757Y444692D01*
Y441679D01*
X393487Y440831D01*
X393320Y440900D01*
X379620D01*
X378454Y440416D01*
X377970Y439250D01*
Y427358D01*
X377665Y426997D01*
X377406Y426729D01*
X377331Y426540D01*
X368937Y418146D01*
X368434Y417394D01*
X368258Y416507D01*
Y413364D01*
X367435Y413084D01*
X366988Y413014D01*
X365293Y414315D01*
X363256Y415159D01*
X361070Y415446D01*
X360900Y415424D01*
X360721Y415492D01*
X359760Y415466D01*
X358067Y415520D01*
X357383Y415593D01*
X356770Y415698D01*
X356247Y415826D01*
X355817Y415973D01*
X355481Y416129D01*
X355233Y416284D01*
X354960Y416517D01*
X354812Y416564D01*
X352782Y418594D01*
X352716Y418705D01*
X352677Y419890D01*
X352773Y420149D01*
X355536Y422912D01*
X355713Y422981D01*
X356083Y423339D01*
X356395Y423615D01*
X356664Y423829D01*
X356768Y423900D01*
X367920D01*
X369086Y424384D01*
X369570Y425550D01*
Y439250D01*
X369086Y440416D01*
X367920Y440900D01*
X354220D01*
X353054Y440416D01*
X352570Y439250D01*
Y427441D01*
X352026Y426801D01*
X351653Y426415D01*
X351589Y426253D01*
X351447Y426154D01*
X351436Y426091D01*
X349935Y424590D01*
X292961D01*
X292575Y425860D01*
X293116Y426222D01*
X294337Y428049D01*
X294766Y430204D01*
X294337Y432360D01*
X293140Y434151D01*
X293116Y434211D01*
X292805Y434531D01*
X292558Y434812D01*
X292351Y435079D01*
X292181Y435331D01*
X292045Y435565D01*
X291942Y435781D01*
X291869Y435978D01*
X291821Y436158D01*
X291794Y436323D01*
X291781Y436567D01*
X291707Y436720D01*
Y460397D01*
X291511Y461382D01*
X290954Y462217D01*
X266110Y487060D01*
X266929Y489038D01*
X267239Y491394D01*
X266929Y493749D01*
X266020Y495945D01*
X264573Y497830D01*
X262688Y499276D01*
X260493Y500185D01*
X258137Y500495D01*
X255781Y500185D01*
X253586Y499276D01*
X251701Y497830D01*
X250255Y495945D01*
X249345Y493749D01*
X249035Y491394D01*
X249345Y489038D01*
X250255Y486843D01*
X251701Y484958D01*
X253586Y483511D01*
X255781Y482602D01*
X258137Y482292D01*
X260493Y482602D01*
X262470Y483421D01*
X286560Y459331D01*
Y436720D01*
X286487Y436567D01*
X286473Y436323D01*
X286447Y436158D01*
X286399Y435978D01*
X286325Y435781D01*
X286222Y435565D01*
X286087Y435331D01*
X285931Y435100D01*
X285447Y434515D01*
X285271Y434333D01*
X284538Y434151D01*
X283865D01*
X283616Y434524D01*
X283592Y434584D01*
X283280Y434904D01*
X283034Y435185D01*
X282827Y435452D01*
X282656Y435704D01*
X282521Y435938D01*
X282418Y436154D01*
X282345Y436351D01*
X282297Y436531D01*
X282270Y436695D01*
X282257Y436940D01*
X282183Y437093D01*
Y448859D01*
X281987Y449844D01*
X281429Y450679D01*
X242351Y489757D01*
Y497103D01*
X242421Y497239D01*
X242454Y497629D01*
X242530Y497945D01*
X242678Y498330D01*
X242909Y498781D01*
X243229Y499289D01*
X243642Y499846D01*
X244136Y500435D01*
X245453Y501785D01*
X246245Y502507D01*
X246340Y502709D01*
X246613Y502918D01*
X248059Y504803D01*
X248968Y506998D01*
X249279Y509354D01*
X248968Y511710D01*
X248059Y513905D01*
X246613Y515790D01*
X244728Y517237D01*
X242532Y518146D01*
X240177Y518456D01*
X237821Y518146D01*
X235626Y517237D01*
X233741Y515790D01*
X232294Y513905D01*
X231385Y511710D01*
X231075Y509354D01*
X231385Y506998D01*
X232294Y504803D01*
X233321Y503465D01*
X233419Y503186D01*
X234186Y502327D01*
X234844Y501545D01*
X235938Y500091D01*
X236333Y499480D01*
X236650Y498918D01*
X236881Y498429D01*
X237029Y498021D01*
X237103Y497706D01*
X237134Y497345D01*
X237204Y497210D01*
Y488691D01*
X237400Y487707D01*
X237958Y486872D01*
X277036Y447793D01*
Y437093D01*
X276962Y436939D01*
X276949Y436695D01*
X276922Y436531D01*
X276875Y436351D01*
X276801Y436154D01*
X276698Y435938D01*
X276563Y435704D01*
X276406Y435473D01*
X275923Y434888D01*
X275627Y434584D01*
X275603Y434524D01*
X274406Y432732D01*
X273977Y430577D01*
X274406Y428422D01*
X275511Y426768D01*
X275314Y426062D01*
X274982Y425498D01*
X273176D01*
X272614Y425265D01*
X271676Y425080D01*
X270739Y425265D01*
X270176Y425498D01*
X267676D01*
X266941Y425193D01*
X266725Y425139D01*
X266697Y425092D01*
X266510Y425015D01*
X266417Y424791D01*
X266000Y424754D01*
X265678Y424748D01*
X265505Y424672D01*
X193741D01*
X192731Y425988D01*
X190846Y427434D01*
X188651Y428343D01*
X186295Y428653D01*
X183939Y428343D01*
X181744Y427434D01*
X179859Y425988D01*
X178413Y424103D01*
X177503Y421907D01*
X177193Y419552D01*
X177503Y417196D01*
X178413Y415001D01*
X179859Y413116D01*
X181744Y411669D01*
X183722Y410850D01*
Y395162D01*
X182548Y394676D01*
X173710Y403514D01*
Y454206D01*
X188340Y468836D01*
X188898Y469671D01*
X189094Y470656D01*
Y479219D01*
X189164Y479354D01*
X189196Y479723D01*
X189270Y480038D01*
X189418Y480442D01*
X189650Y480923D01*
X189968Y481473D01*
X190355Y482055D01*
X192153Y484262D01*
X192909Y485072D01*
X192996Y485303D01*
X194177Y486843D01*
X195087Y489038D01*
X195397Y491394D01*
X195087Y493749D01*
X194177Y495945D01*
X192731Y497830D01*
X190846Y499276D01*
X188651Y500185D01*
X186295Y500495D01*
X183939Y500185D01*
X181744Y499276D01*
X179859Y497830D01*
X178413Y495945D01*
X177503Y493749D01*
X177193Y491394D01*
X177503Y489038D01*
X178413Y486843D01*
X179859Y484958D01*
X179998Y484851D01*
X180070Y484688D01*
X180856Y483939D01*
X182164Y482545D01*
X182657Y481938D01*
X183069Y481365D01*
X183389Y480845D01*
X183620Y480386D01*
X183769Y479995D01*
X183844Y479679D01*
X183877Y479294D01*
X183947Y479159D01*
Y471722D01*
X170601Y458375D01*
X169427Y458861D01*
Y461056D01*
X169470Y461120D01*
X169451Y461220D01*
X169498Y461311D01*
X169532Y461727D01*
X169609Y462034D01*
X169751Y462382D01*
X169974Y462774D01*
X170287Y463205D01*
X170695Y463670D01*
X171185Y464146D01*
X172537Y465226D01*
X173353Y465783D01*
X173519Y466037D01*
X174771Y466997D01*
X176217Y468882D01*
X177126Y471077D01*
X177436Y473433D01*
X177126Y475789D01*
X176217Y477984D01*
X174771Y479869D01*
X172885Y481315D01*
X170690Y482225D01*
X168335Y482535D01*
X167775Y482461D01*
X167182Y483664D01*
X171962Y488444D01*
X172520Y489279D01*
X172716Y490264D01*
Y497615D01*
X172785Y497746D01*
X172810Y498019D01*
X172876Y498305D01*
X173016Y498733D01*
X173214Y499230D01*
X175476Y503485D01*
X176131Y504566D01*
X176132Y504569D01*
X176134Y504570D01*
X176157Y504725D01*
X176217Y504803D01*
X177126Y506998D01*
X177436Y509354D01*
X177126Y511710D01*
X176217Y513905D01*
X174771Y515790D01*
X172885Y517237D01*
X170690Y518146D01*
X168335Y518456D01*
X165979Y518146D01*
X163784Y517237D01*
X161899Y515790D01*
X160452Y513905D01*
X159543Y511710D01*
X159233Y509354D01*
X159543Y506998D01*
X160452Y504803D01*
X161899Y502918D01*
X163537Y501661D01*
X163661Y501489D01*
X164500Y500968D01*
X165208Y500476D01*
X165814Y499998D01*
X166318Y499538D01*
X166722Y499101D01*
X167029Y498693D01*
X167248Y498321D01*
X167388Y497986D01*
X167463Y497683D01*
X167498Y497261D01*
X167563Y497136D01*
X167542Y496996D01*
X167569Y496961D01*
Y491330D01*
X154690Y478451D01*
X153239Y478796D01*
X153018Y479321D01*
X153050Y479698D01*
X153125Y480014D01*
X153273Y480411D01*
X153505Y480882D01*
X153824Y481417D01*
X154234Y482009D01*
X154725Y482640D01*
X156019Y484092D01*
X156796Y484877D01*
X156851Y485011D01*
X158257Y486843D01*
X159166Y489038D01*
X159476Y491394D01*
X159166Y493749D01*
X158257Y495945D01*
X156810Y497830D01*
X154925Y499276D01*
X152730Y500185D01*
X150374Y500495D01*
X148018Y500185D01*
X145823Y499276D01*
X143938Y497830D01*
X142492Y495945D01*
X141582Y493749D01*
X141272Y491394D01*
X141582Y489038D01*
X142492Y486843D01*
X143897Y485011D01*
X143952Y484877D01*
X144729Y484092D01*
X146024Y482640D01*
X146514Y482009D01*
X146924Y481417D01*
X147243Y480882D01*
X147475Y480411D01*
X147623Y480014D01*
X147698Y479698D01*
X147730Y479321D01*
X147801Y479185D01*
Y476545D01*
X142509Y471254D01*
X141307Y471847D01*
X141515Y473433D01*
X141205Y475789D01*
X140296Y477984D01*
X138849Y479869D01*
X136965Y481315D01*
X134769Y482225D01*
X132414Y482535D01*
X130058Y482225D01*
X127863Y481315D01*
X125978Y479869D01*
X124531Y477984D01*
X123622Y475789D01*
X123312Y473433D01*
X123622Y471077D01*
X124531Y468882D01*
X125978Y466997D01*
X127863Y465551D01*
X130058Y464641D01*
X132414Y464331D01*
X133999Y464540D01*
X134592Y463337D01*
X133288Y462033D01*
X132730Y461198D01*
X132534Y460213D01*
Y450534D01*
X132730Y449549D01*
X133288Y448714D01*
X134364Y447638D01*
X133771Y446435D01*
X132414Y446614D01*
X130058Y446304D01*
X127863Y445395D01*
X125978Y443948D01*
X124531Y442063D01*
X123622Y439868D01*
X123312Y437512D01*
X123622Y435156D01*
X124531Y432961D01*
X125978Y431076D01*
X127863Y429630D01*
X130058Y428720D01*
X130467Y428666D01*
X130648Y428536D01*
X130658Y428537D01*
X130666Y428532D01*
X131469Y428352D01*
X132108Y428156D01*
X132634Y427938D01*
X133049Y427710D01*
X133359Y427481D01*
X133579Y427258D01*
X133731Y427039D01*
X133835Y426809D01*
X133902Y426541D01*
X133937Y426087D01*
X134008Y425947D01*
Y401342D01*
X132738Y400816D01*
X125346Y408209D01*
Y411232D01*
X125150Y412217D01*
X124839Y412682D01*
X124729Y413016D01*
X124454Y413336D01*
X124264Y413630D01*
X124084Y414003D01*
X123919Y414462D01*
X123779Y415009D01*
X123667Y415642D01*
X123592Y416339D01*
X123548Y418063D01*
X123588Y419035D01*
X123575Y419069D01*
X123589Y419102D01*
X123518Y419273D01*
X123555Y419552D01*
X123245Y421907D01*
X122336Y424103D01*
X120889Y425988D01*
X119004Y427434D01*
X116809Y428343D01*
X114453Y428653D01*
X112097Y428343D01*
X109902Y427434D01*
X108017Y425988D01*
X106571Y424103D01*
X105661Y421907D01*
X105351Y419552D01*
X105661Y417196D01*
X106571Y415001D01*
X108017Y413116D01*
X109902Y411669D01*
X112097Y410760D01*
X114453Y410450D01*
X114732Y410486D01*
X114903Y410415D01*
X114919Y410422D01*
X114936Y410416D01*
X116862Y410455D01*
X117644Y410415D01*
X118363Y410337D01*
X118996Y410226D01*
X119542Y410085D01*
X120001Y409921D01*
X120199Y409826D01*
Y407143D01*
X120395Y406158D01*
X120953Y405323D01*
X138793Y387483D01*
X138267Y386213D01*
X114758D01*
X108807Y392164D01*
X108689Y392757D01*
X108132Y393591D01*
X106945Y394778D01*
X106899Y394924D01*
X106655Y395213D01*
X106484Y395490D01*
X106308Y395876D01*
X106139Y396372D01*
X105987Y396976D01*
X105858Y397685D01*
X105759Y398478D01*
X105647Y400420D01*
X105642Y401524D01*
X105586Y401658D01*
X105284Y403947D01*
X104375Y406142D01*
X102928Y408027D01*
X101044Y409473D01*
X98848Y410383D01*
X96493Y410693D01*
X95283Y410534D01*
X94690Y411736D01*
X97815Y414862D01*
X98373Y415697D01*
X98569Y416682D01*
Y425254D01*
X98639Y425390D01*
X98672Y425783D01*
X98749Y426098D01*
X98896Y426481D01*
X99127Y426926D01*
X99447Y427427D01*
X99860Y427977D01*
X100354Y428555D01*
X101677Y429880D01*
X102472Y430587D01*
X102579Y430808D01*
X102928Y431076D01*
X104375Y432961D01*
X105284Y435156D01*
X105594Y437512D01*
X105284Y439868D01*
X104375Y442063D01*
X102928Y443948D01*
X101044Y445395D01*
X98848Y446304D01*
X96493Y446614D01*
X94137Y446304D01*
X91942Y445395D01*
X90057Y443948D01*
X88610Y442063D01*
X87701Y439868D01*
X87391Y437512D01*
X87701Y435156D01*
X88610Y432961D01*
X89556Y431729D01*
X89655Y431432D01*
X90418Y430556D01*
X91072Y429761D01*
X92160Y428285D01*
X92554Y427665D01*
X92870Y427097D01*
X93100Y426603D01*
X93247Y426193D01*
X93321Y425879D01*
X93352Y425522D01*
X93422Y425387D01*
Y417748D01*
X82861Y407187D01*
X82638Y407262D01*
X81742Y407864D01*
X81747Y407925D01*
X81821Y408239D01*
X81968Y408650D01*
X82198Y409146D01*
X82514Y409717D01*
X82900Y410328D01*
X84663Y412649D01*
X85405Y413512D01*
X85505Y413815D01*
X86414Y415001D01*
X87324Y417196D01*
X87634Y419552D01*
X87324Y421907D01*
X86414Y424103D01*
X84968Y425988D01*
X83083Y427434D01*
X80888Y428343D01*
X78532Y428653D01*
X76176Y428343D01*
X73981Y427434D01*
X72096Y425988D01*
X70650Y424103D01*
X69740Y421907D01*
X69430Y419552D01*
X69740Y417196D01*
X70650Y415001D01*
X72096Y413116D01*
X72468Y412830D01*
X72571Y412612D01*
X74111Y411207D01*
X74701Y410592D01*
X75209Y410004D01*
X75622Y409458D01*
X75942Y408960D01*
X76172Y408517D01*
X76320Y408136D01*
X76396Y407821D01*
X76430Y407427D01*
X76500Y407291D01*
Y405838D01*
X70757Y400096D01*
X69555Y400689D01*
X69673Y401591D01*
X69363Y403947D01*
X68454Y406142D01*
X67007Y408027D01*
X65122Y409473D01*
X62927Y410383D01*
X60571Y410693D01*
X58216Y410383D01*
X56021Y409473D01*
X54135Y408027D01*
X52689Y406142D01*
X51780Y403947D01*
X51470Y401591D01*
X51667Y400095D01*
X51604Y399940D01*
X51665Y399795D01*
X51633Y399642D01*
X51753Y399008D01*
X51817Y398472D01*
X51835Y397985D01*
X51812Y397545D01*
X51753Y397151D01*
X51661Y396799D01*
X51538Y396482D01*
X51384Y396193D01*
X51196Y395924D01*
X50906Y395599D01*
X50788Y395259D01*
X50467Y394779D01*
X50271Y393794D01*
Y350512D01*
X50467Y349527D01*
X51025Y348692D01*
X145111Y254606D01*
X145946Y254048D01*
X146931Y253852D01*
X214940D01*
X215058Y253787D01*
X215155Y253814D01*
X215248Y253776D01*
X215792Y253777D01*
X215807Y253783D01*
X215821Y253777D01*
X217524Y253811D01*
X217691Y253684D01*
X217799Y253564D01*
X218081Y252955D01*
X218115Y252627D01*
X218116Y252582D01*
X207072Y241538D01*
X200257D01*
X199363Y241361D01*
X198606Y240855D01*
X196523Y238772D01*
X195320Y239365D01*
X195397Y239946D01*
X195087Y242302D01*
X194177Y244497D01*
X192731Y246382D01*
X190846Y247829D01*
X188651Y248738D01*
X186295Y249048D01*
X183939Y248738D01*
X181744Y247829D01*
X179859Y246382D01*
X178413Y244497D01*
X177503Y242302D01*
X177193Y239946D01*
X177503Y237591D01*
X178413Y235396D01*
X179859Y233510D01*
X181744Y232064D01*
X183939Y231155D01*
X186295Y230845D01*
X186877Y230921D01*
X187470Y229718D01*
X183282Y225530D01*
X140713D01*
X140296Y226537D01*
X138849Y228422D01*
X136965Y229868D01*
X134769Y230778D01*
X132414Y231088D01*
X130058Y230778D01*
X127863Y229868D01*
X125978Y228422D01*
X124531Y226537D01*
X123923Y225069D01*
X114320D01*
X114319Y225069D01*
X113140Y224834D01*
X112139Y224166D01*
X112139Y224166D01*
X99362Y211389D01*
X96345Y214406D01*
X95179Y214889D01*
X94012Y214406D01*
X86659Y207052D01*
X86175Y205886D01*
X86659Y204720D01*
X97053Y194325D01*
X98219Y193842D01*
X99386Y194325D01*
X106740Y201679D01*
X107223Y202845D01*
X106740Y204012D01*
X103723Y207029D01*
X115597Y218903D01*
X123923D01*
X124531Y217435D01*
X125978Y215550D01*
X127863Y214104D01*
X130058Y213194D01*
X132414Y212884D01*
X134769Y213194D01*
X136965Y214104D01*
X138849Y215550D01*
X140296Y217435D01*
X141205Y219630D01*
X141368Y220862D01*
X181879D01*
X182365Y219689D01*
X169125Y206450D01*
X159137D01*
X158257Y208576D01*
X156810Y210461D01*
X154925Y211908D01*
X152730Y212817D01*
X150374Y213127D01*
X148018Y212817D01*
X145823Y211908D01*
X143938Y210461D01*
X142492Y208576D01*
X141884Y207109D01*
X125138D01*
X125137Y207109D01*
X123958Y206874D01*
X122957Y206206D01*
X122957Y206206D01*
X113698Y196946D01*
X110681Y199963D01*
X109514Y200446D01*
X108348Y199963D01*
X100994Y192610D01*
X100511Y191443D01*
X100994Y190277D01*
X111389Y179882D01*
X112555Y179399D01*
X113721Y179882D01*
X121075Y187236D01*
X121559Y188403D01*
X121075Y189569D01*
X118058Y192586D01*
X126414Y200942D01*
X141884D01*
X142492Y199475D01*
X143938Y197589D01*
X145823Y196143D01*
X148018Y195234D01*
X150374Y194924D01*
X152730Y195234D01*
X154925Y196143D01*
X156810Y197589D01*
X158257Y199475D01*
X159166Y201670D01*
X159181Y201782D01*
X170092D01*
X170985Y201959D01*
X171742Y202465D01*
X194422Y225145D01*
X195499Y224426D01*
X195464Y224342D01*
X195154Y221986D01*
X195464Y219630D01*
X196373Y217435D01*
X197820Y215550D01*
X199705Y214104D01*
X201900Y213194D01*
X204256Y212884D01*
X206611Y213194D01*
X208395Y213933D01*
X209115Y212857D01*
X184657Y188399D01*
X177129D01*
X177126Y188421D01*
X176217Y190616D01*
X174771Y192501D01*
X172885Y193947D01*
X170690Y194857D01*
X168335Y195167D01*
X165979Y194857D01*
X163784Y193947D01*
X161899Y192501D01*
X160452Y190616D01*
X159844Y189148D01*
X136054D01*
X136054Y189148D01*
X134874Y188913D01*
X133874Y188245D01*
X133874Y188245D01*
X128150Y182521D01*
X125133Y185538D01*
X123967Y186021D01*
X122800Y185538D01*
X115447Y178184D01*
X114963Y177018D01*
X115447Y175851D01*
X125841Y165457D01*
X127007Y164974D01*
X128174Y165457D01*
X135528Y172811D01*
X136011Y173977D01*
X135528Y175144D01*
X132511Y178161D01*
X137331Y182982D01*
X159844D01*
X160452Y181514D01*
X161899Y179629D01*
X163784Y178183D01*
X165979Y177273D01*
X168335Y176963D01*
X170690Y177273D01*
X172885Y178183D01*
X174771Y179629D01*
X176217Y181514D01*
X177126Y183709D01*
X177129Y183731D01*
X185624D01*
X186517Y183909D01*
X187274Y184415D01*
X217170Y214311D01*
X217170Y214311D01*
X217676Y215068D01*
X217854Y215961D01*
X217854Y215961D01*
Y231576D01*
X224916Y238639D01*
X226186Y238113D01*
Y216955D01*
X226362Y216068D01*
X226865Y215315D01*
X235257Y206923D01*
Y191532D01*
X184547Y140822D01*
X184044Y140070D01*
X183868Y139183D01*
Y105024D01*
X181744Y104145D01*
X179859Y102698D01*
X178413Y100813D01*
X177503Y98618D01*
X177193Y96262D01*
X177503Y93906D01*
X178413Y91711D01*
X179859Y89826D01*
X181744Y88380D01*
X183939Y87471D01*
X186295Y87160D01*
X188651Y87471D01*
X190846Y88380D01*
X190876Y88403D01*
X199405Y79873D01*
Y65308D01*
X199888Y64142D01*
X201055Y63658D01*
X206908D01*
X218481Y52086D01*
X219316Y51528D01*
X220301Y51332D01*
X222758D01*
X222884Y51144D01*
X224380Y50144D01*
X226145Y49793D01*
X227910Y50144D01*
X228902Y50806D01*
X230172Y50177D01*
Y48323D01*
X230348Y47436D01*
X230851Y46684D01*
X237792Y39743D01*
X237374Y38365D01*
X236380Y38167D01*
X234884Y37167D01*
X233929Y35738D01*
X233733Y35547D01*
X232652Y35219D01*
X232318Y35553D01*
X231562Y36059D01*
X230670Y36236D01*
X230029D01*
X229407Y37167D01*
X227910Y38167D01*
X226145Y38518D01*
X224380Y38167D01*
X222884Y37167D01*
X221884Y35670D01*
X221533Y33905D01*
X221884Y32140D01*
X222884Y30644D01*
X224380Y29644D01*
X226145Y29293D01*
X227910Y29644D01*
X229407Y30644D01*
X230525Y30754D01*
X234308Y26971D01*
X235064Y26466D01*
X235956Y26288D01*
X237676D01*
X238589Y25175D01*
X249701D01*
X250615Y26288D01*
X260777D01*
X261670Y26466D01*
X262426Y26971D01*
X275793Y40339D01*
X276299Y41095D01*
X276476Y41987D01*
Y50522D01*
X277407Y51144D01*
X277695Y51575D01*
X277786D01*
X278678Y51752D01*
X279434Y52257D01*
X290835Y63658D01*
X296555D01*
X297721Y64142D01*
X298204Y65308D01*
Y81308D01*
X297721Y82474D01*
X296555Y82958D01*
X294531D01*
Y93034D01*
X300896D01*
X302063Y93517D01*
X302546Y94684D01*
Y109384D01*
X302063Y110550D01*
X300896Y111033D01*
X293364D01*
X281400Y122997D01*
X281418Y123041D01*
Y133441D01*
X280935Y134608D01*
X279769Y135091D01*
X269306D01*
X260857Y143540D01*
Y197287D01*
X261502Y197741D01*
X262397Y197232D01*
Y164643D01*
X262575Y163750D01*
X263081Y162992D01*
X303229Y122844D01*
X303986Y122338D01*
X304879Y122161D01*
X314843D01*
X314924Y122026D01*
X314857Y121697D01*
X314241Y120695D01*
X312517Y120352D01*
X310689Y119131D01*
X309468Y117304D01*
X309040Y115149D01*
X309468Y112993D01*
X309930Y112303D01*
X309298Y111036D01*
X309261Y111018D01*
X308130Y110550D01*
X307647Y109384D01*
Y94684D01*
X308130Y93517D01*
X309296Y93034D01*
X319696D01*
X320863Y93517D01*
X321346Y94684D01*
Y109384D01*
X320863Y110550D01*
X320007Y110904D01*
X319503Y111902D01*
X319414Y112303D01*
X319876Y112993D01*
X320304Y115149D01*
X320147Y115938D01*
X321318Y116564D01*
X329148Y108733D01*
Y100311D01*
X329068Y100135D01*
X329055Y99725D01*
X328977Y99537D01*
X328912Y99495D01*
X328858Y99250D01*
X328582Y98584D01*
Y95084D01*
X329066Y93918D01*
X330232Y93435D01*
X332732D01*
X333898Y93918D01*
X334566Y93918D01*
X335732Y93435D01*
X338232D01*
X339398Y93918D01*
X339611Y94432D01*
X339742Y94435D01*
X339922Y94516D01*
X347022D01*
X347275Y93246D01*
X345153Y92367D01*
X341257Y89980D01*
X337784Y87013D01*
X334817Y83539D01*
X332430Y79644D01*
X330681Y75423D01*
X329615Y70981D01*
X329256Y66426D01*
X329529Y62959D01*
X328355Y61898D01*
X328339Y61898D01*
X319125D01*
Y45578D01*
X330945D01*
Y53539D01*
X332190Y53786D01*
X332430Y53209D01*
X334817Y49314D01*
X337784Y45840D01*
X341257Y42873D01*
X345153Y40486D01*
X349373Y38737D01*
X353816Y37671D01*
X358370Y37313D01*
X362924Y37671D01*
X367367Y38737D01*
X371587Y40486D01*
X375483Y42873D01*
X378956Y45840D01*
X381923Y49314D01*
X384310Y53209D01*
X386059Y57430D01*
X387125Y61872D01*
X387484Y66426D01*
X387125Y70981D01*
X386059Y75423D01*
X384310Y79644D01*
X381923Y83539D01*
X378956Y87013D01*
X375483Y89980D01*
X371587Y92367D01*
X369465Y93246D01*
X369718Y94516D01*
X391004D01*
X391892Y94692D01*
X392644Y95195D01*
X405128Y107679D01*
X406302Y107193D01*
Y80000D01*
X406517Y78918D01*
X407130Y78000D01*
X408048Y77387D01*
X409130Y77172D01*
X467081Y77171D01*
X467549Y75990D01*
X463834Y72494D01*
X450970Y61773D01*
X438981Y52951D01*
X438750Y52990D01*
X438110Y54250D01*
X438109Y54384D01*
X438288Y55279D01*
Y61509D01*
X429468D01*
Y52690D01*
X435698D01*
X436125Y52775D01*
X436895Y52132D01*
X437121Y51764D01*
X437054Y51571D01*
X423419Y42756D01*
X408833Y34529D01*
X393777Y27198D01*
X378306Y20790D01*
X362475Y15327D01*
X346344Y10830D01*
X329971Y7315D01*
X313416Y4796D01*
X296738Y3280D01*
X280000Y2774D01*
X263262Y3280D01*
X246584Y4796D01*
X230029Y7315D01*
X213656Y10830D01*
X197525Y15327D01*
X181695Y20790D01*
X170448Y25448D01*
X170700Y26718D01*
X178285D01*
Y43038D01*
X166465D01*
Y29308D01*
X166645Y28405D01*
X166418Y28091D01*
X165718Y27444D01*
X151167Y34529D01*
X136581Y42756D01*
X122518Y51848D01*
X109030Y61773D01*
X96166Y72494D01*
X83972Y83972D01*
X72494Y96166D01*
X61773Y109030D01*
X51848Y122518D01*
X45475Y132374D01*
X46469Y133177D01*
X50728Y128917D01*
X51888Y128437D01*
X51895Y128434D01*
X52151Y128540D01*
X53123Y127568D01*
X53019Y127319D01*
X53017Y127312D01*
X53500Y126146D01*
X53500Y126146D01*
X59247Y120398D01*
X60414Y119915D01*
X61430Y120336D01*
X77346Y104420D01*
X78677Y103531D01*
X80247Y103219D01*
X139824D01*
X141472Y102118D01*
X143627Y101689D01*
X145782Y102118D01*
X147610Y103339D01*
X148831Y105166D01*
X149259Y107322D01*
X148831Y109477D01*
X147610Y111304D01*
X145782Y112525D01*
X143627Y112954D01*
X141472Y112525D01*
X139824Y111424D01*
X81947D01*
X72855Y120517D01*
X73579Y121588D01*
X74451Y121415D01*
X74451Y121415D01*
X90666D01*
X90666Y121415D01*
X91846Y121650D01*
X92846Y122318D01*
X103702Y133173D01*
X103702Y133173D01*
X104370Y134173D01*
X104605Y135353D01*
X104605Y135353D01*
Y143204D01*
X107842Y146442D01*
X108323Y147601D01*
X108326Y147608D01*
X107843Y148774D01*
X108612Y149665D01*
X111829Y152882D01*
X112547Y152163D01*
X113714Y151680D01*
X114880Y152163D01*
X122234Y159517D01*
X122717Y160684D01*
X122234Y161850D01*
X111840Y172245D01*
X110673Y172728D01*
X109507Y172245D01*
X102153Y164891D01*
X101670Y163724D01*
X102153Y162558D01*
X106748Y157963D01*
X102701Y153916D01*
X102186Y154431D01*
X101026Y154912D01*
X101019Y154915D01*
X99853Y154431D01*
X99853Y154431D01*
X94196Y148774D01*
X93716Y147615D01*
X93713Y147608D01*
X94196Y146442D01*
X94196Y146442D01*
X98438Y142199D01*
Y140091D01*
X97168Y139565D01*
X95970Y140763D01*
X91311Y136103D01*
X86651Y131444D01*
X88581Y129513D01*
X88655Y128037D01*
X88386Y127653D01*
X88203Y127581D01*
X75728D01*
X72848Y130461D01*
X73144Y131962D01*
X78197Y137015D01*
X78519Y137230D01*
X89223Y147935D01*
X90002Y149100D01*
X90276Y150475D01*
Y161174D01*
X91703Y162601D01*
X92183Y163761D01*
X92186Y163768D01*
X91703Y164934D01*
X92245Y166052D01*
X95438Y169245D01*
X98095Y166589D01*
X99261Y166105D01*
X100428Y166589D01*
X107782Y173943D01*
X108265Y175109D01*
X107782Y176275D01*
X97387Y186670D01*
X96221Y187153D01*
X95054Y186670D01*
X87701Y179316D01*
X87217Y178150D01*
X87701Y176983D01*
X90357Y174326D01*
X86334Y170303D01*
X86046Y170591D01*
X84887Y171071D01*
X84880Y171074D01*
X83713Y170591D01*
X83713Y170591D01*
X78056Y164934D01*
X77576Y163775D01*
X77573Y163768D01*
X78056Y162601D01*
X78057Y162601D01*
X83090Y157568D01*
Y155290D01*
X81820Y154905D01*
X81761Y154992D01*
X79831Y156923D01*
X75171Y152263D01*
X74273Y153161D01*
X73375Y152263D01*
X68715Y156923D01*
X66785Y154992D01*
X66769Y154969D01*
X65499Y155354D01*
Y157326D01*
X69446Y161273D01*
X70225Y162439D01*
X70498Y163814D01*
Y175580D01*
X74665Y179747D01*
X75146Y180907D01*
X75149Y180914D01*
X74665Y182080D01*
X74665Y182080D01*
X73682Y183063D01*
X77705Y187086D01*
X83759Y181031D01*
X84926Y180548D01*
X86092Y181031D01*
X93446Y188385D01*
X93929Y189552D01*
X93446Y190718D01*
X83052Y201113D01*
X81885Y201596D01*
X80719Y201113D01*
X73365Y193759D01*
X72882Y192592D01*
X72931Y192474D01*
X68432Y187976D01*
X67849Y188217D01*
X67842Y188220D01*
X66676Y187737D01*
X66676Y187737D01*
X61019Y182080D01*
X60539Y180921D01*
X60536Y180914D01*
X61019Y179747D01*
X61019Y179747D01*
X63312Y177454D01*
Y175209D01*
X62139Y174723D01*
X59067Y177795D01*
X58227Y178356D01*
X57235Y178554D01*
X56245Y178356D01*
X55404Y177795D01*
X53474Y175865D01*
X58134Y171205D01*
X57235Y170307D01*
X58134Y169409D01*
X53474Y164749D01*
X55404Y162819D01*
X56245Y162257D01*
X57235Y162060D01*
X58227Y162257D01*
X59067Y162819D01*
X59907Y161897D01*
X59366Y161355D01*
X58587Y160190D01*
X58313Y158815D01*
Y150330D01*
X56294Y148312D01*
X55814Y147152D01*
X55811Y147145D01*
X56294Y145979D01*
X56294Y145979D01*
X60736Y141537D01*
X60210Y140267D01*
X55358D01*
X52970Y142654D01*
X51811Y143135D01*
X51804Y143138D01*
X50638Y142655D01*
X50638Y142654D01*
X44981Y136998D01*
X44597Y136072D01*
X43324Y135701D01*
X42756Y136581D01*
X34529Y151167D01*
X27198Y166223D01*
X20790Y181695D01*
X15327Y197525D01*
X10830Y213656D01*
X7315Y230029D01*
X4796Y246584D01*
X3280Y263262D01*
X2774Y280000D01*
X3280Y296738D01*
X4796Y313416D01*
X7315Y329971D01*
X10830Y346344D01*
X15327Y362475D01*
X20790Y378306D01*
X27198Y393777D01*
X34529Y408833D01*
X42756Y423419D01*
X51848Y437482D01*
X61773Y450970D01*
X72494Y463834D01*
X83972Y476028D01*
X96166Y487506D01*
X109030Y498227D01*
X122518Y508152D01*
X136581Y517244D01*
X151167Y525471D01*
X166223Y532802D01*
X181695Y539210D01*
X197525Y544673D01*
X213656Y549170D01*
X230029Y552685D01*
X246584Y555204D01*
X263262Y556720D01*
X280000Y557225D01*
X296738Y556720D01*
D02*
G37*
G36*
X313344Y220065D02*
X313374Y219720D01*
X313424Y219415D01*
X313494Y219151D01*
X313584Y218928D01*
X313694Y218745D01*
X313824Y218603D01*
X313974Y218501D01*
X314144Y218440D01*
X314334Y218420D01*
X310334D01*
X310524Y218440D01*
X310694Y218501D01*
X310844Y218603D01*
X310974Y218745D01*
X311084Y218928D01*
X311174Y219151D01*
X311244Y219415D01*
X311294Y219720D01*
X311324Y220065D01*
X311334Y220450D01*
X313334D01*
X313344Y220065D01*
D02*
G37*
G36*
X279214Y215025D02*
X279016Y214798D01*
X278840Y214535D01*
X278685Y214236D01*
X278551Y213901D01*
X278439Y213530D01*
X278348Y213123D01*
X278279Y212679D01*
X278231Y212200D01*
X278200Y211132D01*
X274240Y215092D01*
X274792Y215097D01*
X275787Y215171D01*
X276230Y215241D01*
X276638Y215331D01*
X277009Y215444D01*
X277344Y215577D01*
X277643Y215732D01*
X277906Y215909D01*
X278132Y216106D01*
X279214Y215025D01*
D02*
G37*
G36*
X274775Y222856D02*
X275693Y222243D01*
X276775Y222027D01*
X277858Y222243D01*
X278775Y222856D01*
X279388Y223773D01*
X279604Y224856D01*
X280311Y225563D01*
X280787Y225658D01*
X282057Y224811D01*
Y222250D01*
X277211Y217404D01*
X277047Y217349D01*
X276899Y217220D01*
X276801Y217154D01*
X276657Y217079D01*
X276464Y217002D01*
X276219Y216928D01*
X275923Y216862D01*
X275598Y216812D01*
X274722Y216746D01*
X274225Y216742D01*
X274171Y216719D01*
X272045Y216296D01*
X270217Y215075D01*
X268996Y213248D01*
X268568Y211092D01*
X268794Y209953D01*
X267651Y209189D01*
X267523Y209275D01*
X265368Y209703D01*
X263212Y209275D01*
X262127Y208549D01*
X260857Y209228D01*
Y216824D01*
X267619Y223587D01*
X268124Y224343D01*
X268302Y225235D01*
Y227670D01*
X269475Y228156D01*
X274775Y222856D01*
D02*
G37*
G36*
X314144Y203796D02*
X313974Y203736D01*
X313824Y203636D01*
X313694Y203496D01*
X313584Y203316D01*
X313494Y203096D01*
X313424Y202836D01*
X313374Y202536D01*
X313344Y202196D01*
X313334Y201816D01*
X311334D01*
X311324Y202196D01*
X311294Y202536D01*
X311244Y202836D01*
X311174Y203096D01*
X311084Y203316D01*
X310974Y203496D01*
X310844Y203636D01*
X310694Y203736D01*
X310524Y203796D01*
X310334Y203816D01*
X314334D01*
X314144Y203796D01*
D02*
G37*
G36*
X268618Y206485D02*
X269374Y205833D01*
X269737Y205569D01*
X270089Y205345D01*
X270431Y205162D01*
X270762Y205019D01*
X271083Y204918D01*
X271394Y204857D01*
X271694Y204836D01*
Y203306D01*
X271394Y203286D01*
X271083Y203225D01*
X270762Y203123D01*
X270431Y202981D01*
X270089Y202798D01*
X269737Y202574D01*
X269374Y202309D01*
X269001Y202004D01*
X268224Y201271D01*
Y206871D01*
X268618Y206485D01*
D02*
G37*
G36*
X313344Y199345D02*
X313374Y199000D01*
X313424Y198695D01*
X313494Y198431D01*
X313584Y198208D01*
X313694Y198025D01*
X313824Y197883D01*
X313974Y197782D01*
X314144Y197721D01*
X314334Y197700D01*
X310334D01*
X310524Y197721D01*
X310694Y197782D01*
X310844Y197883D01*
X310974Y198025D01*
X311084Y198208D01*
X311174Y198431D01*
X311244Y198695D01*
X311294Y199000D01*
X311324Y199345D01*
X311334Y199731D01*
X313334D01*
X313344Y199345D01*
D02*
G37*
G36*
X267677Y200805D02*
X267263Y200496D01*
X266892Y200186D01*
X266565Y199876D01*
X266281Y199564D01*
X266041Y199251D01*
X265845Y198937D01*
X265692Y198623D01*
X265583Y198307D01*
X265518Y197991D01*
X265496Y197673D01*
X263966Y197925D01*
X263948Y198198D01*
X263893Y198494D01*
X263802Y198814D01*
X263675Y199156D01*
X263511Y199522D01*
X263312Y199911D01*
X262803Y200758D01*
X262148Y201697D01*
X267677Y200805D01*
D02*
G37*
G36*
X357081Y196983D02*
X356926Y197096D01*
X356742Y197153D01*
X356530D01*
X356289Y197096D01*
X356021Y196983D01*
X355724Y196813D01*
X355398Y196587D01*
X355045Y196304D01*
X354253Y195569D01*
X352839Y196983D01*
X353235Y197393D01*
X353857Y198129D01*
X354083Y198454D01*
X354253Y198751D01*
X354366Y199020D01*
X354423Y199260D01*
Y199472D01*
X354366Y199656D01*
X354253Y199811D01*
X357081Y196983D01*
D02*
G37*
G36*
X393202Y198988D02*
X393160Y198850D01*
Y198691D01*
X393202Y198510D01*
X393287Y198309D01*
X393414Y198086D01*
X393584Y197842D01*
X393796Y197577D01*
X394348Y196983D01*
X393287Y195922D01*
X392979Y196219D01*
X392428Y196686D01*
X392184Y196856D01*
X391961Y196983D01*
X391760Y197068D01*
X391579Y197110D01*
X391420D01*
X391282Y197068D01*
X391166Y196983D01*
X393287Y199104D01*
X393202Y198988D01*
D02*
G37*
G36*
X274774Y194601D02*
X274874Y194462D01*
X274993Y194340D01*
X275131Y194234D01*
X275290Y194144D01*
X275467Y194071D01*
X275665Y194014D01*
X275882Y193973D01*
X276118Y193948D01*
X276374Y193940D01*
Y192410D01*
X276118Y192402D01*
X275882Y192378D01*
X275665Y192337D01*
X275467Y192280D01*
X275290Y192206D01*
X275131Y192117D01*
X274993Y192011D01*
X274874Y191889D01*
X274774Y191750D01*
X274694Y191595D01*
Y194756D01*
X274774Y194601D01*
D02*
G37*
G36*
X271042Y189175D02*
X270654Y189155D01*
X270307Y189098D01*
X270001Y189004D01*
X269735Y188874D01*
X269511Y188707D01*
X269327Y188503D01*
X269184Y188263D01*
X269082Y187986D01*
X269021Y187673D01*
X269000Y187323D01*
X267470Y187903D01*
X267466Y188345D01*
X267275Y191091D01*
X267216Y191566D01*
X267072Y192529D01*
X271042Y189175D01*
D02*
G37*
G36*
X279919Y186492D02*
X279710Y186252D01*
X279533Y185982D01*
X279386Y185682D01*
X279271Y185351D01*
X279188Y184990D01*
X279135Y184599D01*
X279114Y184177D01*
X279124Y183725D01*
X279166Y183243D01*
X279182Y183128D01*
X279261Y182937D01*
X280660Y180032D01*
X280802Y179830D01*
X280931Y179682D01*
X280310Y178140D01*
X280058Y178359D01*
X279786Y178536D01*
X279493Y178669D01*
X279179Y178759D01*
X278845Y178806D01*
X278490Y178809D01*
X278114Y178769D01*
X277718Y178686D01*
X277301Y178560D01*
X276863Y178390D01*
X278792Y183055D01*
X274712Y186027D01*
X275296Y186121D01*
X276795Y186460D01*
X277211Y186592D01*
X277586Y186735D01*
X277918Y186886D01*
X278208Y187048D01*
X278457Y187219D01*
X278664Y187400D01*
X279919Y186492D01*
D02*
G37*
G36*
X278722Y177157D02*
X278836Y177141D01*
X278921Y177117D01*
X278991Y177085D01*
X279062Y177039D01*
X279225Y176897D01*
X279389Y176842D01*
X311967Y144264D01*
X312724Y143758D01*
X313617Y143580D01*
X317831D01*
X348325Y113086D01*
Y110503D01*
X348245Y110327D01*
X348232Y109916D01*
X348154Y109728D01*
X348089Y109686D01*
X348035Y109441D01*
X347759Y108775D01*
Y105521D01*
X345377D01*
X344813Y105287D01*
X344365Y105325D01*
X343461Y105947D01*
Y113422D01*
X343283Y114315D01*
X342777Y115072D01*
X318120Y139730D01*
X317362Y140236D01*
X316469Y140414D01*
X304453D01*
X288478Y156389D01*
Y162101D01*
X288478Y162101D01*
X288300Y162995D01*
X287794Y163752D01*
X287794Y163752D01*
X276220Y175327D01*
X276638Y176705D01*
X277388Y176854D01*
X277459Y176852D01*
X277839Y176999D01*
X278127Y177087D01*
X278371Y177138D01*
X278569Y177159D01*
X278722Y177157D01*
D02*
G37*
G36*
X314876Y176751D02*
X314936Y176629D01*
X315036Y176521D01*
X315176Y176428D01*
X315356Y176349D01*
X315576Y176285D01*
X315836Y176235D01*
X316136Y176199D01*
X316476Y176177D01*
X316856Y176170D01*
Y174170D01*
X316476Y174163D01*
X315836Y174105D01*
X315576Y174055D01*
X315356Y173991D01*
X315176Y173912D01*
X315036Y173819D01*
X314936Y173711D01*
X314876Y173589D01*
X314856Y173453D01*
Y176887D01*
X314876Y176751D01*
D02*
G37*
G36*
X304447Y177668D02*
X304779Y177353D01*
X305111Y177076D01*
X305444Y176836D01*
X305777Y176632D01*
X306111Y176466D01*
X306416Y176348D01*
X306422Y176349D01*
X306602Y176428D01*
X306742Y176521D01*
X306842Y176629D01*
X306902Y176751D01*
X306922Y176887D01*
Y176221D01*
X307115Y176189D01*
X307451Y176170D01*
X307357Y174170D01*
X307031Y174153D01*
X306922Y174135D01*
Y173453D01*
X306902Y173589D01*
X306842Y173711D01*
X306742Y173819D01*
X306602Y173912D01*
X306422Y173991D01*
X306355Y174011D01*
X306020Y173891D01*
X305673Y173734D01*
X305321Y173542D01*
X304964Y173315D01*
X304602Y173053D01*
X304235Y172756D01*
X303863Y172425D01*
X304116Y178019D01*
X304447Y177668D01*
D02*
G37*
G36*
X393324Y177245D02*
X393518Y174485D01*
X393644Y173732D01*
X393801Y173063D01*
X393987Y172477D01*
X394204Y171975D01*
X394452Y171557D01*
X394730Y171221D01*
X393649Y170140D01*
X393313Y170418D01*
X392895Y170665D01*
X392393Y170883D01*
X391807Y171070D01*
X391137Y171226D01*
X390385Y171352D01*
X388629Y171512D01*
X387625Y171546D01*
X386539Y171550D01*
X393320Y178332D01*
X393324Y177245D01*
D02*
G37*
G36*
X361002Y171550D02*
X359976Y171544D01*
X358147Y171433D01*
X357343Y171327D01*
X356614Y171188D01*
X355959Y171016D01*
X355378Y170811D01*
X354871Y170572D01*
X354438Y170300D01*
X354079Y169995D01*
X352665Y171409D01*
X352970Y171768D01*
X353242Y172201D01*
X353480Y172708D01*
X353686Y173289D01*
X353858Y173944D01*
X353997Y174673D01*
X354103Y175477D01*
X354214Y177306D01*
X354220Y178332D01*
X361002Y171550D01*
D02*
G37*
G36*
X324432Y169085D02*
X324492Y168963D01*
X324592Y168856D01*
X324732Y168762D01*
X324912Y168684D01*
X325132Y168619D01*
X325392Y168569D01*
X325692Y168533D01*
X326032Y168512D01*
X326412Y168504D01*
Y166504D01*
X326032Y166497D01*
X325392Y166440D01*
X325132Y166390D01*
X324912Y166325D01*
X324732Y166246D01*
X324592Y166153D01*
X324492Y166045D01*
X324432Y165924D01*
X324412Y165787D01*
Y169221D01*
X324432Y169085D01*
D02*
G37*
G36*
X314049Y169962D02*
X314746Y169386D01*
X315091Y169152D01*
X315434Y168954D01*
X315774Y168792D01*
X316018Y168701D01*
X316158Y168762D01*
X316298Y168856D01*
X316398Y168963D01*
X316458Y169085D01*
X316478Y169221D01*
Y168572D01*
X316782Y168522D01*
X317114Y168504D01*
Y166504D01*
X316782Y166486D01*
X316478Y166437D01*
Y165787D01*
X316458Y165924D01*
X316398Y166045D01*
X316298Y166153D01*
X316158Y166246D01*
X316018Y166307D01*
X315774Y166216D01*
X315434Y166054D01*
X315091Y165856D01*
X314746Y165622D01*
X314399Y165352D01*
X314049Y165046D01*
X313697Y164704D01*
Y170304D01*
X314049Y169962D01*
D02*
G37*
G36*
X333937Y161481D02*
X333997Y161360D01*
X334097Y161252D01*
X334237Y161159D01*
X334417Y161080D01*
X334637Y161015D01*
X334897Y160965D01*
X335197Y160929D01*
X335537Y160908D01*
X335917Y160901D01*
Y158901D01*
X335537Y158893D01*
X334897Y158836D01*
X334637Y158786D01*
X334417Y158721D01*
X334237Y158643D01*
X334097Y158549D01*
X333997Y158442D01*
X333937Y158320D01*
X333917Y158184D01*
Y161618D01*
X333937Y161481D01*
D02*
G37*
G36*
X324169Y162408D02*
X324492Y162092D01*
X324816Y161813D01*
X325143Y161571D01*
X325471Y161366D01*
X325757Y161221D01*
X325803Y161252D01*
X325903Y161360D01*
X325963Y161481D01*
X325983Y161618D01*
Y161127D01*
X326134Y161068D01*
X326469Y160975D01*
X326805Y160919D01*
X327144Y160901D01*
X327011Y158901D01*
X326684Y158883D01*
X326353Y158832D01*
X326015Y158746D01*
X325983Y158735D01*
Y158184D01*
X325963Y158320D01*
X325903Y158442D01*
X325803Y158549D01*
X325682Y158630D01*
X325672Y158626D01*
X325322Y158472D01*
X324968Y158283D01*
X324607Y158060D01*
X324240Y157803D01*
X323868Y157511D01*
X323490Y157185D01*
X323849Y162762D01*
X324169Y162408D01*
D02*
G37*
G36*
X355231Y160287D02*
X355605Y160015D01*
X355997Y159792D01*
X356408Y159618D01*
X356837Y159494D01*
X357285Y159418D01*
X357751Y159392D01*
X358236Y159415D01*
X358740Y159486D01*
X359262Y159607D01*
X354463Y154808D01*
X354584Y155330D01*
X354655Y155834D01*
X354678Y156319D01*
X354652Y156785D01*
X354576Y157233D01*
X354452Y157662D01*
X354278Y158073D01*
X354055Y158465D01*
X353783Y158839D01*
X353462Y159193D01*
X354877Y160608D01*
X355231Y160287D01*
D02*
G37*
G36*
X333103Y154950D02*
X333825Y154388D01*
X334179Y154159D01*
X334529Y153966D01*
X334875Y153807D01*
X334974Y153772D01*
X335002Y153784D01*
X335142Y153877D01*
X335242Y153985D01*
X335302Y154107D01*
X335322Y154243D01*
Y153657D01*
X335553Y153596D01*
X335885Y153544D01*
X336213Y153526D01*
X336286Y151526D01*
X335951Y151508D01*
X335616Y151453D01*
X335322Y151372D01*
Y150809D01*
X335302Y150945D01*
X335242Y151067D01*
X335142Y151175D01*
X335015Y151259D01*
X334945Y151232D01*
X334610Y151066D01*
X334275Y150864D01*
X333939Y150625D01*
X333604Y150350D01*
X333268Y150037D01*
X332932Y149688D01*
X332736Y155284D01*
X333103Y154950D01*
D02*
G37*
G36*
X343138Y153962D02*
X343101Y153763D01*
X343117Y153540D01*
X343184Y153294D01*
X343302Y153023D01*
X343473Y152728D01*
X343695Y152409D01*
X343968Y152066D01*
X344670Y151309D01*
X343756Y149395D01*
X343321Y149816D01*
X342552Y150474D01*
X342218Y150711D01*
X341919Y150886D01*
X341653Y151000D01*
X341421Y151052D01*
X341222Y151043D01*
X341058Y150972D01*
X340928Y150840D01*
X343225Y154137D01*
X343138Y153962D01*
D02*
G37*
G36*
X393324Y151841D02*
X393517Y149073D01*
X393642Y148319D01*
X393797Y147649D01*
X393983Y147063D01*
X394198Y146561D01*
X394445Y146143D01*
X394721Y145810D01*
X393660Y144749D01*
X393327Y145025D01*
X392909Y145272D01*
X392407Y145487D01*
X391821Y145673D01*
X391151Y145828D01*
X390397Y145953D01*
X388636Y146112D01*
X387629Y146146D01*
X386539Y146150D01*
X393320Y152931D01*
X393324Y151841D01*
D02*
G37*
G36*
X341471Y141301D02*
X341398Y140840D01*
X341360Y140405D01*
X341358Y139998D01*
X341391Y139618D01*
X341461Y139265D01*
X341567Y138939D01*
X341708Y138640D01*
X341717Y138626D01*
X341872Y138519D01*
X342097Y138388D01*
X342305Y138296D01*
X342495Y138243D01*
X342668Y138227D01*
X342824Y138250D01*
X342962Y138311D01*
X340329Y136678D01*
X340435Y136772D01*
X340492Y136894D01*
X340502Y137042D01*
X340463Y137218D01*
X340375Y137420D01*
X340240Y137650D01*
X340192Y137717D01*
X340038Y137807D01*
X339710Y137967D01*
X339338Y138125D01*
X338457Y138434D01*
X337396Y138733D01*
X336797Y138878D01*
X341581Y141790D01*
X341471Y141301D01*
D02*
G37*
G36*
X358798Y137202D02*
X359055Y137009D01*
X360416Y136091D01*
X364653Y133438D01*
X355676Y131823D01*
X356127Y132445D01*
X356488Y133046D01*
X356758Y133624D01*
X356937Y134179D01*
X357025Y134712D01*
X357024Y135223D01*
X356931Y135711D01*
X356748Y136177D01*
X356474Y136620D01*
X356110Y137041D01*
X358639Y137340D01*
X358798Y137202D01*
D02*
G37*
G36*
X343624Y131975D02*
X343563Y131852D01*
X343550Y131702D01*
X343586Y131526D01*
X343670Y131323D01*
X343802Y131093D01*
X343983Y130837D01*
X344212Y130554D01*
X344814Y129908D01*
X343233Y129326D01*
X342941Y129606D01*
X342409Y130052D01*
X342167Y130218D01*
X341943Y130345D01*
X341735Y130434D01*
X341543Y130485D01*
X341368Y130498D01*
X341210Y130472D01*
X341069Y130408D01*
X343733Y132072D01*
X343624Y131975D01*
D02*
G37*
G36*
X386401Y120750D02*
X385315Y120746D01*
X382555Y120552D01*
X381802Y120426D01*
X381133Y120269D01*
X380547Y120083D01*
X380045Y119865D01*
X379627Y119618D01*
X379291Y119340D01*
X378209Y120421D01*
X378488Y120757D01*
X378735Y121175D01*
X378953Y121678D01*
X379140Y122263D01*
X379296Y122933D01*
X379422Y123685D01*
X379582Y125441D01*
X379616Y126445D01*
X379620Y127531D01*
X386401Y120750D01*
D02*
G37*
G36*
X317130Y111940D02*
X316554Y111243D01*
X316320Y110899D01*
X316122Y110556D01*
X315960Y110215D01*
X315867Y109965D01*
X315922Y109828D01*
X316032Y109645D01*
X316162Y109503D01*
X316312Y109401D01*
X316482Y109340D01*
X316672Y109320D01*
X315708D01*
X315690Y109207D01*
X315672Y108876D01*
X313672D01*
X313654Y109207D01*
X313636Y109320D01*
X312672D01*
X312862Y109340D01*
X313032Y109401D01*
X313182Y109503D01*
X313312Y109645D01*
X313422Y109828D01*
X313477Y109965D01*
X313384Y110215D01*
X313222Y110556D01*
X313024Y110899D01*
X312790Y111243D01*
X312520Y111591D01*
X312214Y111940D01*
X311872Y112292D01*
X317472D01*
X317130Y111940D01*
D02*
G37*
G36*
X351428Y109982D02*
X351465Y109492D01*
X351496Y109293D01*
X351537Y109125D01*
X351587Y108987D01*
X351646Y108880D01*
X351713Y108804D01*
X351790Y108758D01*
X351876Y108742D01*
X349442D01*
X349528Y108758D01*
X349605Y108804D01*
X349673Y108880D01*
X349731Y108987D01*
X349781Y109125D01*
X349822Y109293D01*
X349853Y109492D01*
X349876Y109722D01*
X349894Y110272D01*
X351424D01*
X351428Y109982D01*
D02*
G37*
G36*
X252470Y157363D02*
Y108748D01*
X251954Y108382D01*
X251246Y108176D01*
X242495Y116927D01*
Y141347D01*
X242532Y141352D01*
X244728Y142261D01*
X246613Y143708D01*
X248059Y145593D01*
X248968Y147788D01*
X249279Y150144D01*
X248968Y152500D01*
X248059Y154695D01*
X248036Y154725D01*
X251200Y157889D01*
X252470Y157363D01*
D02*
G37*
G36*
X357361Y108383D02*
X357407Y108255D01*
X357483Y108143D01*
X357590Y108045D01*
X357728Y107963D01*
X357896Y107895D01*
X358095Y107843D01*
X358325Y107805D01*
X358585Y107783D01*
X358876Y107775D01*
Y106275D01*
X358585Y106268D01*
X358325Y106245D01*
X358095Y106208D01*
X357896Y106155D01*
X357728Y106088D01*
X357590Y106005D01*
X357483Y105908D01*
X357407Y105795D01*
X357361Y105668D01*
X357346Y105525D01*
Y108525D01*
X357361Y108383D01*
D02*
G37*
G36*
X341897Y105077D02*
X341933Y104588D01*
X341964Y104389D01*
X342005Y104221D01*
X342055Y104083D01*
X342114Y103976D01*
X342181Y103899D01*
X342258Y103854D01*
X342344Y103838D01*
X339910D01*
X339996Y103854D01*
X340073Y103899D01*
X340141Y103976D01*
X340199Y104083D01*
X340249Y104221D01*
X340290Y104389D01*
X340321Y104588D01*
X340344Y104817D01*
X340362Y105368D01*
X341892D01*
X341897Y105077D01*
D02*
G37*
G36*
X347829Y103506D02*
X347876Y103376D01*
X347954Y103261D01*
X348063Y103162D01*
X348204Y103077D01*
X348375Y103009D01*
X348578Y102955D01*
X348812Y102917D01*
X349078Y102894D01*
X349374Y102886D01*
Y101356D01*
X349078Y101349D01*
X348812Y101326D01*
X348578Y101287D01*
X348375Y101234D01*
X348204Y101165D01*
X348063Y101081D01*
X347954Y100981D01*
X347876Y100867D01*
X347829Y100737D01*
X347814Y100591D01*
Y103651D01*
X347829Y103506D01*
D02*
G37*
G36*
X283810Y161135D02*
Y155422D01*
X283988Y154529D01*
X284494Y153772D01*
X301836Y136430D01*
X302593Y135924D01*
X303487Y135746D01*
X315502D01*
X338793Y112455D01*
Y105598D01*
X338713Y105422D01*
X338700Y105012D01*
X338622Y104824D01*
X338557Y104782D01*
X338503Y104537D01*
X338228Y103871D01*
Y100371D01*
X337054Y100234D01*
X335732D01*
X335168Y100000D01*
X334720Y100038D01*
X333816Y100660D01*
Y109700D01*
X333638Y110593D01*
X333132Y111350D01*
X318338Y126145D01*
X317581Y126651D01*
X316687Y126828D01*
X305846D01*
X267065Y165609D01*
Y176221D01*
X268238Y176707D01*
X283810Y161135D01*
D02*
G37*
G36*
X332252Y99790D02*
X332288Y99301D01*
X332319Y99102D01*
X332360Y98934D01*
X332410Y98796D01*
X332468Y98689D01*
X332536Y98612D01*
X332613Y98567D01*
X332699Y98551D01*
X330265D01*
X330351Y98567D01*
X330428Y98612D01*
X330495Y98689D01*
X330554Y98796D01*
X330604Y98934D01*
X330645Y99102D01*
X330676Y99301D01*
X330699Y99530D01*
X330717Y100081D01*
X332247D01*
X332252Y99790D01*
D02*
G37*
G36*
X338184Y98192D02*
X338230Y98064D01*
X338306Y97952D01*
X338413Y97854D01*
X338551Y97772D01*
X338719Y97704D01*
X338918Y97652D01*
X339148Y97614D01*
X339408Y97592D01*
X339699Y97584D01*
Y96084D01*
X339408Y96077D01*
X339148Y96054D01*
X338918Y96017D01*
X338719Y95964D01*
X338551Y95897D01*
X338413Y95814D01*
X338306Y95717D01*
X338230Y95604D01*
X338184Y95477D01*
X338168Y95334D01*
Y98334D01*
X338184Y98192D01*
D02*
G37*
G36*
X263696Y134109D02*
X263419Y133441D01*
Y123041D01*
X263902Y121875D01*
X265069Y121392D01*
X276413D01*
X279303Y118501D01*
X278777Y117231D01*
X273689D01*
Y110711D01*
X282359D01*
Y113650D01*
X283629Y114176D01*
X288847Y108958D01*
Y94684D01*
X289330Y93517D01*
X289869Y93294D01*
Y82958D01*
X288555D01*
X287665Y82589D01*
X287285Y82499D01*
X286135Y82767D01*
X285886Y83139D01*
X285046Y83701D01*
X284055Y83898D01*
X281325D01*
Y73308D01*
X278785D01*
Y83898D01*
X276055D01*
X275064Y83701D01*
X274224Y83139D01*
X273975Y82767D01*
X272825Y82499D01*
X272445Y82589D01*
X271555Y82958D01*
X270476D01*
Y95188D01*
X270299Y96080D01*
X269793Y96836D01*
X266248Y100382D01*
X266773Y101652D01*
X271149D01*
Y108172D01*
X262479D01*
Y105946D01*
X261209Y105420D01*
X257132Y109497D01*
Y139013D01*
X258305Y139499D01*
X263696Y134109D01*
D02*
G37*
G36*
X244328Y178015D02*
Y175947D01*
X220557Y152176D01*
X220055Y151424D01*
X219878Y150536D01*
Y140977D01*
X219860Y140975D01*
X217665Y140066D01*
X215780Y138619D01*
X214334Y136734D01*
X213424Y134539D01*
X213114Y132183D01*
X213424Y129828D01*
X214334Y127632D01*
X215780Y125747D01*
X217665Y124301D01*
X219860Y123392D01*
X221472Y123180D01*
X241674Y102977D01*
Y82958D01*
X238555D01*
X237388Y82474D01*
X236905Y81308D01*
X235704D01*
X235221Y82474D01*
X234423Y82805D01*
Y93332D01*
X235524Y94980D01*
X235952Y97135D01*
X235524Y99290D01*
X234303Y101117D01*
X232475Y102338D01*
X230320Y102767D01*
X228165Y102338D01*
X226338Y101117D01*
X225117Y99290D01*
X224688Y97135D01*
X225117Y94980D01*
X226217Y93332D01*
Y82958D01*
X226055D01*
X224888Y82474D01*
X224405Y81308D01*
X223204D01*
X222721Y82474D01*
X221555Y82958D01*
X219328D01*
Y107140D01*
X219151Y108027D01*
X218649Y108780D01*
X213340Y114088D01*
X213358Y114223D01*
X213047Y116579D01*
X212138Y118774D01*
X210692Y120659D01*
X208807Y122105D01*
X206674Y122989D01*
Y142157D01*
X243058Y178541D01*
X244328Y178015D01*
D02*
G37*
%LPC*%
G36*
X311924Y352537D02*
X310933Y352340D01*
X310092Y351779D01*
X305793Y347480D01*
X310403Y342869D01*
X316534Y349000D01*
X313755Y351779D01*
X312915Y352340D01*
X311924Y352537D01*
D02*
G37*
G36*
X318330Y347204D02*
X312199Y341073D01*
X316810Y336463D01*
X321109Y340762D01*
X321670Y341603D01*
X321867Y342594D01*
X321670Y343585D01*
X321109Y344425D01*
X318330Y347204D01*
D02*
G37*
G36*
X114453Y464574D02*
X112097Y464264D01*
X109902Y463355D01*
X108017Y461909D01*
X106571Y460023D01*
X105661Y457828D01*
X105351Y455473D01*
X105661Y453117D01*
X106571Y450922D01*
X108017Y449037D01*
X109902Y447590D01*
X112097Y446681D01*
X114453Y446371D01*
X116809Y446681D01*
X119004Y447590D01*
X120889Y449037D01*
X122336Y450922D01*
X123245Y453117D01*
X123555Y455473D01*
X123245Y457828D01*
X122336Y460023D01*
X120889Y461909D01*
X119004Y463355D01*
X116809Y464264D01*
X114453Y464574D01*
D02*
G37*
G36*
X318916Y467489D02*
X308516D01*
X307349Y467006D01*
X306866Y465839D01*
Y451139D01*
X307349Y449973D01*
X308471Y449508D01*
X308098Y447637D01*
X308331Y446466D01*
X308427Y445421D01*
X307460Y444835D01*
X307277Y444759D01*
X306793Y443593D01*
Y428893D01*
X307277Y427727D01*
X308443Y427243D01*
X318843D01*
X320009Y427727D01*
X320493Y428893D01*
Y443593D01*
X320009Y444759D01*
X319986Y444769D01*
X318934Y445482D01*
X319117Y446399D01*
X319363Y447637D01*
X318988Y449520D01*
X320082Y449973D01*
X320565Y451139D01*
Y465839D01*
X320082Y467006D01*
X318916Y467489D01*
D02*
G37*
G36*
X52500Y309114D02*
X47946Y308755D01*
X43503Y307689D01*
X39283Y305940D01*
X35387Y303554D01*
X31913Y300586D01*
X28946Y297113D01*
X26560Y293217D01*
X24811Y288997D01*
X23745Y284554D01*
X23386Y280000D01*
X23745Y275446D01*
X24811Y271003D01*
X26560Y266783D01*
X28946Y262887D01*
X31913Y259414D01*
X35387Y256446D01*
X39283Y254060D01*
X43503Y252311D01*
X47946Y251245D01*
X52500Y250886D01*
X57054Y251245D01*
X61497Y252311D01*
X65717Y254060D01*
X69613Y256446D01*
X73087Y259414D01*
X76054Y262887D01*
X78440Y266783D01*
X80189Y271003D01*
X81255Y275446D01*
X81614Y280000D01*
X81255Y284554D01*
X80189Y288997D01*
X78440Y293217D01*
X76054Y297113D01*
X73087Y300586D01*
X69613Y303554D01*
X65717Y305940D01*
X61497Y307689D01*
X57054Y308755D01*
X52500Y309114D01*
D02*
G37*
G36*
X386470Y263046D02*
X384284Y262758D01*
X382247Y261915D01*
X380498Y260572D01*
X379155Y258823D01*
X378312Y256786D01*
X378024Y254600D01*
X378312Y252414D01*
X379155Y250377D01*
X380498Y248627D01*
X382247Y247285D01*
X384284Y246441D01*
X386470Y246154D01*
X388656Y246441D01*
X390693Y247285D01*
X392442Y248627D01*
X393785Y250377D01*
X394628Y252414D01*
X394916Y254600D01*
X394628Y256786D01*
X393785Y258823D01*
X392442Y260572D01*
X390693Y261915D01*
X388656Y262758D01*
X386470Y263046D01*
D02*
G37*
G36*
X336435Y244132D02*
X326035D01*
X324868Y243648D01*
X324385Y242482D01*
Y227782D01*
X324868Y226616D01*
X326035Y226133D01*
X336435D01*
X337601Y226616D01*
X338084Y227782D01*
Y232176D01*
X338196Y232194D01*
X338514Y232222D01*
X338945Y232233D01*
X339103Y232304D01*
X352087D01*
X352865Y231034D01*
X352624Y229200D01*
X352911Y227014D01*
X353755Y224977D01*
X355098Y223228D01*
X356847Y221885D01*
X358884Y221041D01*
X361070Y220754D01*
X363256Y221041D01*
X365293Y221885D01*
X367042Y223228D01*
X368385Y224977D01*
X369228Y227014D01*
X369516Y229200D01*
X369228Y231386D01*
X368385Y233423D01*
X367042Y235172D01*
X365293Y236515D01*
X363256Y237358D01*
X361070Y237646D01*
X358884Y237358D01*
X357590Y236822D01*
X357353Y237023D01*
X357167Y237203D01*
X356838Y237333D01*
X356220Y237745D01*
X355138Y237960D01*
X339103D01*
X338944Y238031D01*
X338514Y238042D01*
X338196Y238070D01*
X338084Y238088D01*
Y242482D01*
X337601Y243648D01*
X336435Y244132D01*
D02*
G37*
G36*
X336285Y221073D02*
X332355D01*
Y212403D01*
X338875D01*
Y218483D01*
X338678Y219475D01*
X338117Y220315D01*
X337276Y220876D01*
X336285Y221073D01*
D02*
G37*
G36*
X329815D02*
X325885D01*
X324894Y220876D01*
X324054Y220315D01*
X323493Y219475D01*
X323296Y218483D01*
Y212403D01*
X329815D01*
Y221073D01*
D02*
G37*
G36*
X222216Y213127D02*
X219860Y212817D01*
X217665Y211908D01*
X215780Y210461D01*
X214334Y208576D01*
X213424Y206381D01*
X213114Y204025D01*
X213424Y201670D01*
X214334Y199475D01*
X215780Y197589D01*
X217665Y196143D01*
X219860Y195234D01*
X222216Y194924D01*
X224572Y195234D01*
X226767Y196143D01*
X228652Y197589D01*
X230099Y199475D01*
X231008Y201670D01*
X231318Y204025D01*
X231008Y206381D01*
X230099Y208576D01*
X228652Y210461D01*
X226767Y211908D01*
X224572Y212817D01*
X222216Y213127D01*
D02*
G37*
G36*
X338875Y209863D02*
X331085D01*
X323296D01*
Y203783D01*
X323493Y202792D01*
X324054Y201952D01*
X324894Y201391D01*
X324920Y201386D01*
X325091Y200616D01*
X325054Y200064D01*
X324352Y199595D01*
X323791Y198755D01*
X323594Y197764D01*
Y191684D01*
X331384D01*
X339173D01*
Y197764D01*
X338976Y198755D01*
X338415Y199595D01*
X337575Y200156D01*
X337549Y200162D01*
X337378Y200932D01*
X337415Y201483D01*
X338117Y201952D01*
X338678Y202792D01*
X338875Y203783D01*
Y209863D01*
D02*
G37*
G36*
X330114Y189144D02*
X323594D01*
Y183064D01*
X323791Y182073D01*
X324352Y181233D01*
X325193Y180671D01*
X326184Y180474D01*
X330114D01*
Y189144D01*
D02*
G37*
G36*
X51678Y174069D02*
X49748Y172138D01*
X49186Y171298D01*
X48989Y170307D01*
X49186Y169316D01*
X49748Y168476D01*
X51678Y166545D01*
X55440Y170307D01*
X51678Y174069D01*
D02*
G37*
G36*
X74273Y161408D02*
X73282Y161211D01*
X72442Y160649D01*
X70511Y158719D01*
X74273Y154957D01*
X78035Y158719D01*
X76104Y160649D01*
X75264Y161211D01*
X74273Y161408D01*
D02*
G37*
G36*
X90413Y145248D02*
X89422Y145051D01*
X88581Y144489D01*
X86651Y142559D01*
X90413Y138798D01*
X94174Y142559D01*
X92244Y144489D01*
X91404Y145051D01*
X90413Y145248D01*
D02*
G37*
G36*
X84855Y140763D02*
X82924Y138833D01*
X82363Y137992D01*
X82166Y137001D01*
X82363Y136010D01*
X82924Y135170D01*
X84855Y133240D01*
X88617Y137001D01*
X84855Y140763D01*
D02*
G37*
G36*
X435698Y72869D02*
X429468D01*
Y64049D01*
X438288D01*
Y70279D01*
X438090Y71270D01*
X437529Y72111D01*
X436689Y72672D01*
X435698Y72869D01*
D02*
G37*
G36*
X426928D02*
X420698D01*
X419707Y72672D01*
X418867Y72111D01*
X418305Y71270D01*
X418108Y70279D01*
Y64049D01*
X426928D01*
Y72869D01*
D02*
G37*
G36*
X402798Y71881D02*
X400442Y71571D01*
X398247Y70662D01*
X396362Y69215D01*
X394915Y67330D01*
X394006Y65135D01*
X393696Y62779D01*
X394006Y60424D01*
X394915Y58229D01*
X396362Y56343D01*
X398247Y54897D01*
X400442Y53988D01*
X402798Y53678D01*
X405154Y53988D01*
X407349Y54897D01*
X409234Y56343D01*
X410680Y58229D01*
X411590Y60424D01*
X411900Y62779D01*
X411590Y65135D01*
X410680Y67330D01*
X409234Y69215D01*
X407349Y70662D01*
X405154Y71571D01*
X402798Y71881D01*
D02*
G37*
G36*
X426928Y61509D02*
X418108D01*
Y55279D01*
X418305Y54288D01*
X418867Y53448D01*
X419707Y52887D01*
X420698Y52690D01*
X426928D01*
Y61509D01*
D02*
G37*
G36*
X316585Y61898D02*
X307355D01*
X306364Y61701D01*
X305524Y61139D01*
X304962Y60299D01*
X304765Y59308D01*
Y45578D01*
X316585D01*
Y61898D01*
D02*
G37*
G36*
X190055D02*
X180825D01*
Y45578D01*
X192645D01*
Y59308D01*
X192447Y60299D01*
X191886Y61139D01*
X191046Y61701D01*
X190055Y61898D01*
D02*
G37*
G36*
X178285D02*
X169055D01*
X168064Y61701D01*
X167224Y61139D01*
X166662Y60299D01*
X166465Y59308D01*
Y45578D01*
X178285D01*
Y61898D01*
D02*
G37*
G36*
X330945Y43038D02*
X319125D01*
Y26718D01*
X328355D01*
X329346Y26915D01*
X330186Y27477D01*
X330747Y28317D01*
X330945Y29308D01*
Y43038D01*
D02*
G37*
G36*
X316585D02*
X304765D01*
Y29308D01*
X304962Y28317D01*
X305524Y27477D01*
X306364Y26915D01*
X307355Y26718D01*
X316585D01*
Y43038D01*
D02*
G37*
G36*
X192645D02*
X180825D01*
Y26718D01*
X190055D01*
X191046Y26915D01*
X191886Y27477D01*
X192447Y28317D01*
X192645Y29308D01*
Y43038D01*
D02*
G37*
G36*
X249541Y22635D02*
X245415D01*
Y18509D01*
X246307Y18687D01*
X248139Y19911D01*
X249364Y21744D01*
X249541Y22635D01*
D02*
G37*
G36*
X242875D02*
X238749D01*
X238927Y21744D01*
X240151Y19911D01*
X241984Y18687D01*
X242875Y18509D01*
Y22635D01*
D02*
G37*
%LPD*%
G36*
X336396Y237395D02*
X336472Y237182D01*
X336599Y236995D01*
X336776Y236832D01*
X337004Y236695D01*
X337282Y236582D01*
X337611Y236495D01*
X337990Y236432D01*
X338421Y236395D01*
X338901Y236382D01*
Y233882D01*
X338421Y233870D01*
X337990Y233832D01*
X337611Y233770D01*
X337282Y233682D01*
X337004Y233570D01*
X336776Y233432D01*
X336599Y233270D01*
X336472Y233082D01*
X336396Y232870D01*
X336371Y232632D01*
Y237632D01*
X336396Y237395D01*
D02*
G37*
G36*
X356246Y235800D02*
X356654Y235453D01*
X356838Y235323D01*
X357009Y235222D01*
X357167Y235149D01*
X357312Y235105D01*
X357443Y235089D01*
X357561Y235102D01*
X357666Y235144D01*
X355126Y232604D01*
X355168Y232709D01*
X355181Y232827D01*
X355165Y232958D01*
X355121Y233103D01*
X355048Y233261D01*
X354947Y233432D01*
X354817Y233616D01*
X354658Y233813D01*
X354254Y234248D01*
X356022Y236016D01*
X356246Y235800D01*
D02*
G37*
%LPC*%
G36*
X271149Y117231D02*
X265069D01*
X264078Y117034D01*
X263238Y116473D01*
X262676Y115633D01*
X262479Y114642D01*
Y110711D01*
X271149D01*
Y117231D01*
D02*
G37*
G36*
X282359Y108172D02*
X273689D01*
Y101652D01*
X279769D01*
X280760Y101849D01*
X281600Y102410D01*
X282161Y103251D01*
X282359Y104242D01*
Y108172D01*
D02*
G37*
%LPD*%
D10*
X276998Y377198D02*
X345771D01*
X295989Y325810D02*
X299051Y328872D01*
X280169Y297192D02*
X290917Y307941D01*
X371157Y244742D02*
X386587Y229312D01*
X223633Y382213D02*
X281017D01*
X226089Y271397D02*
X230270Y267216D01*
X312334Y195841D02*
Y235132D01*
X335894Y401414D02*
X336216Y401737D01*
X313616Y436316D02*
Y458489D01*
X313543Y436243D02*
X313616Y436316D01*
X334655Y364695D02*
X334865Y364904D01*
X333139Y338068D02*
X334699Y339628D01*
X314271Y102360D02*
X314597Y102034D01*
X304723Y309879D02*
X311383Y316539D01*
X286467Y382223D02*
X360447D01*
X220301Y53905D02*
X226145D01*
X229599Y71250D02*
X230055Y73308D01*
X229599Y66250D02*
X238145Y57703D01*
X205055Y69151D02*
X220301Y53905D01*
X205055Y69151D02*
Y72502D01*
X289241Y333051D02*
Y370336D01*
X285189Y328999D02*
X289241Y333051D01*
X285189Y323425D02*
Y328999D01*
X280311Y318547D02*
X285189Y323425D01*
X279716Y369719D02*
X280549Y368886D01*
Y325857D02*
Y368886D01*
X276775Y322083D02*
X280549Y325857D01*
X311409Y316683D02*
X312601D01*
X299927Y309879D02*
X304723D01*
X294453Y304405D02*
X299927Y309879D01*
X334655Y364695D02*
X334699Y364651D01*
X314271Y102360D02*
X314672Y102761D01*
X302466Y248663D02*
X351684D01*
X297988Y253140D02*
X302466Y248663D01*
X351684D02*
X355605Y244742D01*
X135108Y450534D02*
X143331Y442310D01*
Y401140D02*
Y442310D01*
Y401140D02*
X219989Y324482D01*
X170142Y490264D02*
Y507547D01*
X139278Y459400D02*
X170142Y490264D01*
X139278Y451347D02*
Y459400D01*
Y451347D02*
X157344Y433282D01*
Y396354D02*
Y433282D01*
X135108Y450534D02*
Y460213D01*
X110148Y312916D02*
X135718D01*
X59822Y363242D02*
X110148Y312916D01*
X59822Y363242D02*
Y385521D01*
X239777Y488691D02*
X279610Y448859D01*
Y430577D02*
Y448859D01*
X258137Y491394D02*
X289134Y460397D01*
Y430204D02*
Y460397D01*
X275019Y422017D02*
X350704D01*
X310841Y167504D02*
X317695D01*
X342039Y152526D02*
X361070Y133495D01*
X332440Y175170D02*
X361070Y203800D01*
X313639Y175170D02*
X332440D01*
X350174Y167504D02*
X361070Y178400D01*
X323195Y167504D02*
X350174D01*
X354169Y159901D02*
X361070Y153000D01*
X332700Y159901D02*
X354169D01*
X301317Y175170D02*
X308139D01*
X321070Y159901D02*
X327200D01*
X330119Y152526D02*
X336539D01*
X332616Y458489D02*
X335704Y461577D01*
X364511D01*
X299792Y371633D02*
X306521Y364904D01*
X335894Y389209D02*
Y401414D01*
X360447Y382223D02*
X361070Y381600D01*
X316685Y387749D02*
Y401206D01*
X361033Y381563D02*
X361070Y381600D01*
X345771Y377198D02*
X360630Y362339D01*
X222216Y383630D02*
X223633Y382213D01*
X240177Y365670D02*
X251704Y377198D01*
X271498D01*
X240177Y365670D02*
X273240Y332607D01*
Y325618D02*
Y332607D01*
X350898Y416839D02*
X360878Y406859D01*
X284221Y416839D02*
X350898D01*
X204256Y401591D02*
X219504Y416839D01*
X278721D01*
X186295Y392273D02*
Y419552D01*
X188842Y422098D01*
X186295Y419552D02*
X186295Y419552D01*
X188842Y422098D02*
X268926D01*
X313616Y436316D02*
X313731Y436431D01*
Y447637D01*
X373824Y301179D02*
Y318153D01*
X386470Y330800D01*
X305060Y260211D02*
X309174Y256096D01*
X318753D01*
X351501Y294244D02*
X366889D01*
X373824Y301179D01*
X318753Y256096D02*
X353377Y290721D01*
X371791D01*
X386470Y305400D01*
X312369Y259973D02*
X317229D01*
X351501Y294244D01*
X308595Y263746D02*
X312369Y259973D01*
X301524Y256675D02*
X305739Y252460D01*
X376654Y270183D02*
X386470Y280000D01*
X305739Y252460D02*
X321020D01*
X338743Y270183D01*
X376654D01*
X355605Y244742D02*
X371157D01*
X308925Y235132D02*
X312334D01*
X294453Y249604D02*
X308925Y235132D01*
X350853Y421868D02*
X361164Y432179D01*
X350704Y422017D02*
X350853Y421868D01*
X350853D01*
X316685Y401206D02*
X317216Y401737D01*
X306521Y364904D02*
X315864D01*
X360630Y356358D02*
Y362339D01*
X290917Y307941D02*
X295989Y313012D01*
X299051Y328871D02*
Y328872D01*
X239777Y488691D02*
Y508976D01*
X218189Y256425D02*
X221975Y260211D01*
X214665Y259973D02*
X218439Y263746D01*
X132414Y329749D02*
X132785Y329378D01*
X218439Y263746D02*
X226089Y271397D01*
X168335Y293828D02*
X175143D01*
X208998Y259973D02*
X214665D01*
X211756Y267282D02*
X214903D01*
X250259Y231927D02*
X256113Y237781D01*
Y252677D01*
X175143Y293828D02*
X208998Y259973D01*
X207789Y271249D02*
X211756Y267282D01*
X213537Y277773D02*
X215887Y275423D01*
X206563Y277773D02*
X213537D01*
X214997Y281297D02*
X217347Y278947D01*
X218439Y290263D02*
X223231Y285471D01*
X253794Y228391D02*
X259637Y234234D01*
Y254137D01*
X168971Y329378D02*
X204447Y293902D01*
X204989D01*
X207729D01*
X214903Y286728D01*
X135718Y312916D02*
X144614Y321813D01*
X63956Y366068D02*
X111490Y318535D01*
X136029D01*
X143331Y325837D01*
X230270Y267216D02*
Y268567D01*
X215887Y275423D02*
X233368D01*
X256113Y252677D01*
X217347Y278947D02*
X234827D01*
X259637Y254137D01*
X223231Y285471D02*
X232488D01*
X160993Y347710D02*
X218439Y290263D01*
X132785Y329378D02*
X168971D01*
X114453Y347710D02*
X160993D01*
X147267Y368506D02*
X221975Y293799D01*
X93261Y368506D02*
X147267D01*
X144614Y321813D02*
X162524D01*
X206563Y277773D01*
X52845Y350512D02*
X146931Y256425D01*
X218189D01*
X93261Y368506D02*
Y368901D01*
X78532Y383630D02*
X93261Y368901D01*
X106312Y391020D02*
Y391772D01*
X96493Y401591D02*
X106312Y391772D01*
X186521Y470656D02*
Y491168D01*
X186295Y491394D02*
X186521Y491168D01*
X295989Y313012D02*
Y325810D01*
X63956Y366068D02*
Y384643D01*
X95996Y416682D01*
X59822Y385521D02*
X79073Y404772D01*
Y419113D01*
X52845Y350512D02*
Y393794D01*
X282127Y306221D02*
X287382Y311476D01*
X265785Y295550D02*
Y295708D01*
X279000Y298361D02*
X280169Y297192D01*
X279000Y298361D02*
Y299697D01*
X265785Y295708D02*
X276298Y306221D01*
X282127D01*
X279552Y310717D02*
X283846Y315012D01*
X267367Y310717D02*
X279552D01*
X261586Y304936D02*
X267367Y310717D01*
X52845Y393794D02*
X60437Y401387D01*
X95996Y416682D02*
Y437158D01*
X106312Y391020D02*
X113692Y383640D01*
X139205D01*
X225510Y297334D01*
X136582Y400404D02*
X232581Y304405D01*
X122772Y407143D02*
X229046Y300870D01*
X114453Y419552D02*
X122772Y411232D01*
Y407143D02*
Y411232D01*
X132414Y437512D02*
X136582Y433344D01*
Y400404D02*
Y433344D01*
X171137Y455272D02*
X186521Y470656D01*
X246245Y326096D02*
X250259Y322083D01*
X242267Y323004D02*
X246723Y318547D01*
X234329Y316799D02*
X239652Y311476D01*
X230805Y313252D02*
X236117Y307941D01*
X157344Y396354D02*
X217767Y335930D01*
X168335Y509354D02*
X170142Y507547D01*
X150374Y475479D02*
Y491394D01*
X135108Y460213D02*
X150374Y475479D01*
X219989Y324482D02*
X222642D01*
X150374Y455473D02*
X162872Y442975D01*
X166854Y471952D02*
X168335Y473433D01*
X162872Y400077D02*
Y442975D01*
Y400077D02*
X230805Y332144D01*
Y313252D02*
Y332144D01*
X143331Y325837D02*
X163798D01*
X208338Y281297D01*
X214997D01*
X150374Y311789D02*
X167250D01*
X207789Y271249D01*
X334699Y339628D02*
Y364651D01*
X166854Y401747D02*
Y471952D01*
Y401747D02*
X234329Y334272D01*
Y316799D02*
Y334272D01*
X171137Y402448D02*
Y455272D01*
Y402448D02*
X237853Y335732D01*
Y320346D02*
X243188Y315012D01*
X237853Y320346D02*
Y335732D01*
X186295Y392273D02*
X242267Y336301D01*
Y323004D02*
Y336301D01*
X204256Y380149D02*
X246245Y338159D01*
Y326096D02*
Y338159D01*
X204256Y380149D02*
Y401591D01*
X222216Y367847D02*
X253794Y336269D01*
X222216Y367847D02*
Y383630D01*
X253794Y325618D02*
Y336269D01*
X314672Y102761D02*
Y115149D01*
X238145Y53905D02*
Y54405D01*
Y57703D01*
D11*
X304356Y347121D02*
X310828Y340649D01*
X299051Y328871D02*
X310828Y340647D01*
X312601Y316683D02*
X323697Y327780D01*
X299645Y347121D02*
X304356D01*
X310828Y340647D02*
Y340649D01*
D12*
X331335Y235132D02*
X355138D01*
X361070Y229200D01*
D14*
X250145Y53905D02*
X255055Y58815D01*
X257687Y53905D02*
X262145D01*
X243992Y52600D02*
Y103938D01*
X222197Y125733D02*
Y150536D01*
X250427Y39187D02*
X256145Y44905D01*
X204355Y119794D02*
X217009Y107140D01*
X228505Y238876D02*
X237160Y247532D01*
X217009Y73435D02*
Y107140D01*
X227442Y61992D02*
X232491Y56943D01*
Y48323D02*
Y56943D01*
X222311Y61992D02*
X227442D01*
X217555Y66747D02*
X222311Y61992D01*
X217555Y66747D02*
Y73308D01*
X186295Y96262D02*
X205055Y77502D01*
X255055Y58815D02*
Y73308D01*
X254327Y73713D02*
Y101816D01*
X243992Y52600D02*
X247961Y48631D01*
X252413D01*
X257687Y53905D01*
X222197Y125733D02*
X243992Y103938D01*
X405606Y111436D02*
Y184664D01*
X391004Y96834D02*
X405606Y111436D01*
X386470Y203800D02*
X405606Y184664D01*
X332543Y436243D02*
X351772Y455471D01*
X373774D01*
X387256D02*
X397075Y445652D01*
X379274Y455471D02*
X387256D01*
X370051Y461734D02*
X387557D01*
X312131Y267282D02*
Y280017D01*
X373601Y394131D02*
X386470Y407000D01*
X305060Y293899D02*
X330225Y319065D01*
X305060Y293799D02*
Y293899D01*
X308717Y290263D02*
X328036Y309583D01*
X308595Y290263D02*
X308717D01*
X325192Y299789D02*
Y299882D01*
X312131Y286728D02*
X325192Y299789D01*
X312183Y280017D02*
X321909Y289743D01*
X312131Y280017D02*
X312183D01*
X325799Y293632D02*
X352771Y320605D01*
X370337D01*
X374000Y324268D01*
Y337861D01*
X386470Y350331D01*
Y356200D01*
X373601Y347276D02*
Y394131D01*
X329081Y303771D02*
X349383Y324072D01*
Y337182D01*
X346333Y327879D02*
Y338442D01*
X331926Y313472D02*
X346333Y327879D01*
X353229Y341028D02*
X371729D01*
X351943Y344052D02*
X370377D01*
X373601Y347276D01*
X371729Y341028D02*
X376834Y346133D01*
X334114Y322954D02*
X343309Y332149D01*
Y339695D01*
X350690Y347076D02*
X369124D01*
X370577Y348528D01*
X349383Y337182D02*
X353229Y341028D01*
X346333Y338442D02*
X351943Y344052D01*
X343309Y339695D02*
X350690Y347076D01*
X370577Y348528D02*
Y416507D01*
X386470Y432400D01*
X376834Y346133D02*
Y371964D01*
X386470Y381600D01*
X397075Y392205D01*
Y445652D01*
X387557Y461734D02*
X402618Y446673D01*
Y372349D02*
Y446673D01*
X386470Y356200D02*
X402618Y372349D01*
X239652Y242533D02*
X240696Y243577D01*
X356159Y107025D02*
X381970D01*
X396251Y121306D01*
Y143219D01*
X386470Y153000D02*
X396251Y143219D01*
X336982Y96834D02*
X391004D01*
X232834Y235715D02*
X239652Y242533D01*
X238202Y234013D02*
X243188Y238998D01*
X242362Y231101D02*
X246723Y235462D01*
X186186Y96371D02*
X186295Y96262D01*
X186186Y96371D02*
Y139183D01*
X232834Y221444D02*
X242334Y211944D01*
X242362Y225688D02*
Y231101D01*
Y225688D02*
X250716Y217334D01*
X240177Y150144D02*
X250716Y160683D01*
Y217334D01*
X232834Y221444D02*
Y235715D01*
X238202Y223489D02*
Y234013D01*
Y223489D02*
X246647Y215045D01*
X222197Y150536D02*
X246647Y174986D01*
Y215045D01*
X204355Y143117D02*
X242334Y181096D01*
Y211944D01*
X186186Y139183D02*
X237576Y190572D01*
X228505Y216955D02*
Y238876D01*
Y216955D02*
X237576Y207883D01*
Y190572D02*
Y207883D01*
X204355Y119794D02*
Y143117D01*
X240177Y115967D02*
Y150144D01*
Y115967D02*
X254327Y101816D01*
X322263Y290096D02*
X325445Y293279D01*
X325546Y300235D02*
X328727Y303417D01*
X374274Y455471D02*
X378774D01*
X365011Y461577D02*
X369511D01*
X271998Y377198D02*
X276498D01*
X281467Y382223D02*
X285967D01*
X279221Y416839D02*
X283721D01*
X318195Y167504D02*
X322695D01*
X308639Y175170D02*
X313139D01*
X246330Y39131D02*
X246385Y39187D01*
X250427D01*
X241682Y39131D02*
X246330D01*
X232491Y48323D02*
X241682Y39131D01*
D17*
X331384Y190414D02*
D03*
X312584D02*
D03*
X332443Y436243D02*
D03*
X313643D02*
D03*
X332516Y458489D02*
D03*
X313716D02*
D03*
X295696Y102034D02*
D03*
X314496D02*
D03*
X312435Y235132D02*
D03*
X331235D02*
D03*
X331085Y211133D02*
D03*
X312285D02*
D03*
X315964Y364904D02*
D03*
X334764D02*
D03*
X317316Y401737D02*
D03*
X336116D02*
D03*
D18*
X309911Y314059D02*
D03*
X296618Y327353D02*
D03*
X310403Y341073D02*
D03*
X323697Y327780D02*
D03*
D19*
X272419Y128242D02*
D03*
Y109441D02*
D03*
D20*
X312131Y286728D02*
D03*
X308595Y290263D02*
D03*
X305060Y293799D02*
D03*
X301524Y297334D02*
D03*
X297988Y300870D02*
D03*
X294453Y304405D02*
D03*
X290917Y307941D02*
D03*
X287382Y311476D02*
D03*
X283846Y315012D02*
D03*
X280311Y318547D02*
D03*
X276775Y322083D02*
D03*
X273240Y325618D02*
D03*
X214903Y267282D02*
D03*
X218439Y263746D02*
D03*
X221975Y260211D02*
D03*
X225510Y256675D02*
D03*
X229046Y253140D02*
D03*
X232581Y249604D02*
D03*
X236117Y246069D02*
D03*
X239652Y242533D02*
D03*
X243188Y238998D02*
D03*
X246723Y235462D02*
D03*
X250259Y231927D02*
D03*
X253794Y228391D02*
D03*
D21*
Y325618D02*
D03*
X250259Y322083D02*
D03*
X246723Y318547D02*
D03*
X243188Y315012D02*
D03*
X239652Y311476D02*
D03*
X236117Y307941D02*
D03*
X232581Y304405D02*
D03*
X229046Y300870D02*
D03*
X225510Y297334D02*
D03*
X221975Y293799D02*
D03*
X218439Y290263D02*
D03*
X214903Y286728D02*
D03*
X273240Y228391D02*
D03*
X276775Y231927D02*
D03*
X280311Y235462D02*
D03*
X283846Y238998D02*
D03*
X287382Y242533D02*
D03*
X290917Y246069D02*
D03*
X294453Y249604D02*
D03*
X297988Y253140D02*
D03*
X301524Y256675D02*
D03*
X305060Y260211D02*
D03*
X308595Y263746D02*
D03*
X312131Y267282D02*
D03*
D22*
X179555Y44308D02*
D03*
X317855D02*
D03*
D23*
X292555Y73308D02*
D03*
X280055D02*
D03*
X267555D02*
D03*
X255055D02*
D03*
X242555D02*
D03*
X230055D02*
D03*
X217555D02*
D03*
X205055D02*
D03*
D24*
X57235Y170307D02*
D03*
X67842Y180914D02*
D03*
X74273Y153161D02*
D03*
X84880Y163768D02*
D03*
X90413Y137001D02*
D03*
X101019Y147608D02*
D03*
D25*
X96699Y204366D02*
D03*
X83406Y191072D02*
D03*
X111035Y189923D02*
D03*
X97741Y176629D02*
D03*
X125487Y175498D02*
D03*
X112193Y162204D02*
D03*
D26*
X63163Y147100D02*
D03*
X51849Y135786D02*
D03*
X60368Y127267D02*
D03*
X71682Y138581D02*
D03*
D39*
X356159Y107025D02*
D03*
X350659D02*
D03*
X346627Y102121D02*
D03*
X341127D02*
D03*
X336982Y96834D02*
D03*
X331482D02*
D03*
X274426Y422098D02*
D03*
X268926D02*
D03*
X342039Y152526D02*
D03*
X336539D02*
D03*
X332700Y159901D02*
D03*
X327200D02*
D03*
X379274Y455471D02*
D03*
X373774D02*
D03*
X370011Y461577D02*
D03*
X364511D02*
D03*
X276998Y377198D02*
D03*
X271498D02*
D03*
X280967Y382223D02*
D03*
X286467D02*
D03*
X284221Y416839D02*
D03*
X278721D02*
D03*
X317695Y167504D02*
D03*
X323195D02*
D03*
X313639Y175170D02*
D03*
X308139D02*
D03*
D40*
X328036Y309583D02*
D03*
X331926Y313472D02*
D03*
X330225Y319065D02*
D03*
X334114Y322954D02*
D03*
X325799Y293632D02*
D03*
X321909Y289743D02*
D03*
X329081Y303771D02*
D03*
X325192Y299882D02*
D03*
D41*
X299792Y371633D02*
D03*
Y377134D02*
D03*
X316683Y382249D02*
D03*
Y387749D02*
D03*
X342016Y131625D02*
D03*
Y137125D02*
D03*
D50*
X330784Y210732D02*
X337262Y217210D01*
X59112Y128457D02*
X80247Y107322D01*
X230320Y73573D02*
Y97135D01*
X230055Y73308D02*
X230320Y73573D01*
X337262Y217210D02*
X347921D01*
X80247Y107322D02*
X143627D01*
D51*
X101522Y147656D02*
X114383Y160517D01*
X70426Y139771D02*
X75978D01*
X67677Y182139D02*
X80538Y195001D01*
X66905Y163814D02*
Y181581D01*
X84880Y163768D02*
X97741Y176629D01*
X61906Y158815D02*
X66905Y163814D01*
X61906Y148290D02*
Y158815D01*
X75978Y139771D02*
X86683Y150475D01*
Y161965D01*
X84880Y163768D02*
X86683Y161965D01*
D52*
X101522Y135353D02*
Y147656D01*
X50593Y137183D02*
X61766D01*
X114319Y221986D02*
X132414D01*
X96770Y204436D02*
X114319Y221986D01*
X74451Y124498D02*
X90666D01*
X101522Y135353D01*
X125137Y204025D02*
X150374D01*
X111035Y189923D02*
X125137Y204025D01*
X136054Y186065D02*
X168335D01*
X125487Y175498D02*
X136054Y186065D01*
X61766Y137183D02*
X74451Y124498D01*
X50593Y136976D02*
Y137183D01*
D53*
X258526Y142575D02*
X293706Y107395D01*
X274145Y53905D02*
X277786D01*
X268145Y44905D02*
Y95188D01*
X257145Y33905D02*
X268145Y44905D01*
X247956Y28619D02*
X260777D01*
X274145Y41987D01*
X247384Y29191D02*
X247956Y28619D01*
X241956Y29191D02*
X247384D01*
X235956Y28619D02*
X241384D01*
X241956Y29191D01*
X230670Y33905D02*
X235956Y28619D01*
X292200Y98637D02*
X295596Y102034D01*
X292200Y73483D02*
Y98637D01*
X250145Y33905D02*
X257145D01*
X254801Y108532D02*
X268145Y95188D01*
X254801Y108532D02*
Y221266D01*
X292555Y68675D02*
Y73308D01*
X277786Y53905D02*
X292555Y68675D01*
X274145Y41987D02*
Y53905D01*
X226145Y33905D02*
X230670D01*
X293706Y103924D02*
Y107395D01*
Y103924D02*
X295596Y102034D01*
X258526Y217789D02*
X265971Y225235D01*
X289810Y292691D02*
X297988Y300870D01*
X287871Y294630D02*
X289810Y292691D01*
X287402Y294630D02*
X287871D01*
X292533Y288343D02*
X301524Y297334D01*
X284533Y288343D02*
X292533D01*
X254801Y221266D02*
X262923Y229387D01*
X258526Y142575D02*
Y217789D01*
X262923Y229387D02*
Y266734D01*
X284533Y288343D01*
X265971Y225235D02*
Y260892D01*
X287136Y282057D01*
D54*
X274739Y182393D02*
X298132Y205786D01*
X316687Y124494D02*
X331482Y109700D01*
X304879Y124494D02*
X316687D01*
X316469Y138080D02*
X341127Y113422D01*
X303487Y138080D02*
X316469D01*
X341127Y102121D02*
Y113422D01*
X331482Y96834D02*
Y109700D01*
X286144Y155422D02*
Y162101D01*
Y155422D02*
X303487Y138080D01*
X337704Y141437D02*
Y142774D01*
Y141437D02*
X342016Y137125D01*
Y131625D02*
X355803Y117837D01*
X376707D01*
X386470Y127600D01*
X274200Y211092D02*
X284391Y221283D01*
Y231382D01*
X280311Y235462D02*
X284391Y231382D01*
X318797Y145914D02*
X350659Y114052D01*
X313617Y145914D02*
X318797D01*
X277462Y182069D02*
X313617Y145914D01*
X350659Y107025D02*
Y114052D01*
X290917Y246069D02*
X298132Y238855D01*
X287382Y242533D02*
X294345Y235570D01*
X283846Y238998D02*
X288811Y234033D01*
X298132Y205786D02*
Y238855D01*
X294345Y211146D02*
Y235570D01*
X265368Y204071D02*
X276680D01*
X288811Y216203D01*
Y234033D01*
X274739Y182393D02*
X275063Y182069D01*
X271020Y193175D02*
X276374D01*
X294345Y211146D01*
X264731Y203435D02*
X265368Y204071D01*
X268235Y190391D02*
X271020Y193175D01*
X268235Y180010D02*
Y190391D01*
X346627Y102121D02*
X388298D01*
X400985Y114808D01*
Y163885D01*
X386470Y178400D02*
X400985Y163885D01*
X229524Y246547D02*
X230311D01*
X232100Y248336D01*
Y249123D01*
X232581Y249604D01*
X225988Y250082D02*
X226775D01*
X228564Y251871D01*
Y252658D01*
X229046Y253140D01*
X200257Y239205D02*
X208039D01*
X225510Y256675D01*
X215520Y232543D02*
X229524Y246547D01*
X215520Y215961D02*
Y232543D01*
X210031Y234125D02*
X225988Y250082D01*
X200101Y234125D02*
X210031D01*
X170092Y204116D02*
X200101Y234125D01*
X184248Y223196D02*
X200257Y239205D01*
X264731Y164643D02*
Y203435D01*
X275063Y182069D02*
X275294D01*
X277462D01*
X268235Y180010D02*
X286144Y162101D01*
X264731Y164643D02*
X304879Y124494D01*
X132718Y223196D02*
X184248D01*
X150490Y204116D02*
X170092D01*
X168335Y186065D02*
X185624D01*
X215520Y215961D01*
D55*
X323274Y328203D02*
X333139Y338068D01*
X333415D01*
X357923Y276853D02*
X361070Y280000D01*
X348867Y276853D02*
X357923D01*
D56*
X262145Y54405D02*
D03*
X274145D02*
D03*
X256145Y44405D02*
D03*
X244145D02*
D03*
X250145Y54405D02*
D03*
X238145D02*
D03*
X226145D02*
D03*
X268145Y44405D02*
D03*
X226145Y33905D02*
D03*
X244145Y23905D02*
D03*
X250145Y33905D02*
D03*
X238145D02*
D03*
D57*
X258137Y491394D02*
D03*
X240177Y509354D02*
D03*
X60571Y401591D02*
D03*
X96493D02*
D03*
X78532Y419552D02*
D03*
X114453D02*
D03*
X96493Y437512D02*
D03*
X132414D02*
D03*
X114453Y455473D02*
D03*
X150374D02*
D03*
X132414Y473433D02*
D03*
X168335D02*
D03*
X150374Y491394D02*
D03*
X186295D02*
D03*
X168335Y509354D02*
D03*
X240177Y365670D02*
D03*
X222216Y383630D02*
D03*
X204256Y401591D02*
D03*
X186295Y419552D02*
D03*
X114453Y347710D02*
D03*
X132414Y329749D02*
D03*
X150374Y311789D02*
D03*
X168335Y293828D02*
D03*
X222216Y204025D02*
D03*
X204256Y221986D02*
D03*
X186295Y239946D02*
D03*
X168335Y186065D02*
D03*
X150374Y204025D02*
D03*
X132414Y221986D02*
D03*
X240177Y150144D02*
D03*
X222216Y132183D02*
D03*
X204256Y114223D02*
D03*
X186295Y96262D02*
D03*
X402798Y62779D02*
D03*
D58*
X78532Y383630D02*
D03*
D59*
X386470Y203800D02*
D03*
X361070D02*
D03*
Y432400D02*
D03*
X386470D02*
D03*
Y330800D02*
D03*
X361065D02*
D03*
D60*
X386470Y178400D02*
D03*
Y153000D02*
D03*
Y127600D02*
D03*
X361070Y178400D02*
D03*
Y153000D02*
D03*
Y127600D02*
D03*
Y407000D02*
D03*
Y381600D02*
D03*
Y356200D02*
D03*
X386470Y407000D02*
D03*
Y381600D02*
D03*
Y356200D02*
D03*
Y229200D02*
D03*
Y254600D02*
D03*
Y280000D02*
D03*
Y305400D02*
D03*
X361070Y229200D02*
D03*
Y254600D02*
D03*
Y280000D02*
D03*
Y305400D02*
D03*
D61*
X358374Y493574D02*
D03*
X358370Y66426D02*
D03*
X52500Y280000D02*
D03*
D62*
X428198Y62779D02*
D03*
D63*
X230320Y97135D02*
D03*
X310991Y131573D02*
D03*
X298839Y118655D02*
D03*
X305753Y144707D02*
D03*
X337704Y142774D02*
D03*
X274200Y211092D02*
D03*
X420000Y500000D02*
D03*
X400000D02*
D03*
X390000Y520000D02*
D03*
X340000Y540000D02*
D03*
Y20000D02*
D03*
X320000Y540000D02*
D03*
X330000Y520000D02*
D03*
X320000Y500000D02*
D03*
X300000Y540000D02*
D03*
X310000Y520000D02*
D03*
X300000Y500000D02*
D03*
X310000Y480000D02*
D03*
X280000Y540000D02*
D03*
X290000Y520000D02*
D03*
X280000Y500000D02*
D03*
X290000Y480000D02*
D03*
X260000Y540000D02*
D03*
X270000Y520000D02*
D03*
Y360000D02*
D03*
X240000Y540000D02*
D03*
Y460000D02*
D03*
X250000Y440000D02*
D03*
Y400000D02*
D03*
X220000Y540000D02*
D03*
Y500000D02*
D03*
X230000Y480000D02*
D03*
X220000Y460000D02*
D03*
X230000Y440000D02*
D03*
X210000Y520000D02*
D03*
X200000Y500000D02*
D03*
X210000Y480000D02*
D03*
X200000Y460000D02*
D03*
X210000Y440000D02*
D03*
X190000Y520000D02*
D03*
Y440000D02*
D03*
X160000Y100000D02*
D03*
X170000Y80000D02*
D03*
X160000Y60000D02*
D03*
X150000Y280000D02*
D03*
Y240000D02*
D03*
Y80000D02*
D03*
X140000Y60000D02*
D03*
X120000Y260000D02*
D03*
X130000Y240000D02*
D03*
X110000Y480000D02*
D03*
X100000Y260000D02*
D03*
X110000Y240000D02*
D03*
X100000Y220000D02*
D03*
X80000Y460000D02*
D03*
X90000Y280000D02*
D03*
Y240000D02*
D03*
X80000Y220000D02*
D03*
X70000Y440000D02*
D03*
X60000Y420000D02*
D03*
X70000Y240000D02*
D03*
X60000Y220000D02*
D03*
X70000Y200000D02*
D03*
X40000Y380000D02*
D03*
Y340000D02*
D03*
X50000Y320000D02*
D03*
Y240000D02*
D03*
X40000Y220000D02*
D03*
X50000Y200000D02*
D03*
X40000Y180000D02*
D03*
X30000Y360000D02*
D03*
X20000Y340000D02*
D03*
X30000Y320000D02*
D03*
X20000Y300000D02*
D03*
Y260000D02*
D03*
X30000Y240000D02*
D03*
X20000Y220000D02*
D03*
X30000Y200000D02*
D03*
X373649Y218413D02*
D03*
X373765Y189872D02*
D03*
X373652Y166180D02*
D03*
X373878Y140683D02*
D03*
X393733Y86869D02*
D03*
X348867Y276853D02*
D03*
X336998Y290336D02*
D03*
X265348Y214681D02*
D03*
X270671Y348431D02*
D03*
X220508Y399805D02*
D03*
X208108Y415283D02*
D03*
X117105Y301902D02*
D03*
X187667Y265915D02*
D03*
X142694Y357752D02*
D03*
X289241Y370336D02*
D03*
X279716Y369719D02*
D03*
X279610Y430577D02*
D03*
X289134Y430204D02*
D03*
X335894Y389209D02*
D03*
X313731Y447637D02*
D03*
X166339Y231752D02*
D03*
X204059Y175907D02*
D03*
X265368Y204071D02*
D03*
X116855Y392736D02*
D03*
X106279Y380333D02*
D03*
X279321Y259344D02*
D03*
X347921Y217210D02*
D03*
X299645Y347121D02*
D03*
X271020Y193175D02*
D03*
X272096Y167083D02*
D03*
X301136Y175351D02*
D03*
X320813Y160157D02*
D03*
X329979Y152386D02*
D03*
X287136Y282057D02*
D03*
X287402Y294630D02*
D03*
X310841Y167504D02*
D03*
X207789Y271249D02*
D03*
X204989Y293902D02*
D03*
X230270Y268567D02*
D03*
X232488Y285471D02*
D03*
X156971Y338408D02*
D03*
X189918Y210307D02*
D03*
X261586Y304936D02*
D03*
X265785Y295550D02*
D03*
X279000Y299697D02*
D03*
X222642Y324482D02*
D03*
X217767Y335930D02*
D03*
X333415Y338068D02*
D03*
X266019Y154181D02*
D03*
X275294Y182069D02*
D03*
X94509Y88201D02*
D03*
X38300Y167376D02*
D03*
X224435Y111349D02*
D03*
X247629Y129959D02*
D03*
X280154Y88734D02*
D03*
X314672Y115149D02*
D03*
X143627Y107322D02*
D03*
X79470Y131885D02*
D03*
M02*
