G04*
G04 #@! TF.GenerationSoftware,Altium Limited,Altium Designer,25.1.2 (22)*
G04*
G04 Layer_Physical_Order=2*
G04 Layer_Color=16711680*
%FSLAX44Y44*%
%MOMM*%
G71*
G04*
G04 #@! TF.SameCoordinates,BCEF5572-1F7E-4207-9204-8C5AED3481CC*
G04*
G04*
G04 #@! TF.FilePolarity,Positive*
G04*
G01*
G75*
%ADD10C,0.2000*%
%ADD50C,0.5000*%
%ADD53C,0.1524*%
%ADD54C,0.1530*%
%ADD56C,0.6000*%
%ADD57C,1.5000*%
%ADD58P,2.1213X4X90.0*%
%ADD59R,1.3700X1.3700*%
%ADD60C,1.3700*%
%ADD61C,5.5000*%
%ADD62R,1.5000X1.5000*%
%ADD63C,0.8000*%
G36*
X338394Y343608D02*
X337313Y338965D01*
X332987Y342045D01*
X333065Y342077D01*
X333134Y342156D01*
X333195Y342282D01*
X333247Y342454D01*
X333292Y342673D01*
X333329Y342939D01*
X333377Y343610D01*
X333394Y344468D01*
X338394Y343608D01*
D02*
G37*
G36*
X296738Y556720D02*
X313416Y555204D01*
X329971Y552685D01*
X346344Y549170D01*
X362475Y544673D01*
X378306Y539210D01*
X393777Y532802D01*
X408833Y525471D01*
X423419Y517244D01*
X437482Y508152D01*
X450970Y498227D01*
X463834Y487506D01*
X467550Y484009D01*
X467082Y482828D01*
X409130D01*
X408048Y482613D01*
X407130Y482000D01*
X406517Y481082D01*
X406302Y480000D01*
Y286985D01*
X405032Y286600D01*
X404998Y286651D01*
X396399Y295250D01*
X395068Y296139D01*
X393498Y296451D01*
X390067D01*
X389814Y297721D01*
X390693Y298085D01*
X392442Y299428D01*
X393785Y301177D01*
X394628Y303214D01*
X394916Y305400D01*
X394628Y307586D01*
X393785Y309623D01*
X392442Y311372D01*
X390693Y312715D01*
X388656Y313558D01*
X386470Y313846D01*
X384284Y313558D01*
X382247Y312715D01*
X380498Y311372D01*
X379155Y309623D01*
X378312Y307586D01*
X378024Y305400D01*
X378312Y303214D01*
X379155Y301177D01*
X380498Y299428D01*
X382247Y298085D01*
X383126Y297721D01*
X382873Y296451D01*
X375821D01*
X369179Y303094D01*
X369228Y303214D01*
X369516Y305400D01*
X369228Y307586D01*
X368385Y309623D01*
X367042Y311372D01*
X365293Y312715D01*
X363256Y313558D01*
X361070Y313846D01*
X358884Y313558D01*
X358764Y313508D01*
X337777Y334495D01*
X337724Y334574D01*
X338619Y335913D01*
X339032Y337992D01*
X339703Y338995D01*
X340015Y340565D01*
X339996Y340660D01*
Y343218D01*
X340000Y343234D01*
X339996Y343258D01*
Y343292D01*
X340019Y343329D01*
X339996Y343430D01*
Y385407D01*
X341097Y387054D01*
X341526Y389209D01*
X341097Y391365D01*
X339876Y393192D01*
X338049Y394413D01*
X335894Y394841D01*
X335178Y394699D01*
X317833Y412044D01*
Y443834D01*
X318934Y445482D01*
X319363Y447637D01*
X318934Y449793D01*
X317713Y451620D01*
X315886Y452841D01*
X313731Y453269D01*
X311575Y452841D01*
X309748Y451620D01*
X308527Y449793D01*
X308098Y447637D01*
X308527Y445482D01*
X309628Y443834D01*
Y410344D01*
X309940Y408774D01*
X310830Y407443D01*
X330559Y387714D01*
X330690Y387054D01*
X331791Y385407D01*
Y344784D01*
X331768Y344748D01*
X331791Y344647D01*
Y344606D01*
X331744Y344500D01*
X331729Y343686D01*
X331705Y343360D01*
X331260Y343272D01*
X329433Y342051D01*
X328212Y340224D01*
X327783Y338068D01*
X328212Y335913D01*
X329313Y334266D01*
Y333142D01*
X329625Y331572D01*
X330514Y330241D01*
X331577Y329178D01*
X331754Y328914D01*
X352961Y307706D01*
X352911Y307586D01*
X352624Y305400D01*
X352911Y303214D01*
X353755Y301177D01*
X355098Y299428D01*
X356847Y298085D01*
X358884Y297241D01*
X361070Y296954D01*
X363256Y297241D01*
X363376Y297291D01*
X371220Y289447D01*
X372551Y288558D01*
X374122Y288246D01*
X381374D01*
X381805Y286976D01*
X380498Y285972D01*
X379155Y284223D01*
X378312Y282186D01*
X378024Y280000D01*
X378312Y277814D01*
X379155Y275777D01*
X380498Y274028D01*
X382247Y272685D01*
X384284Y271841D01*
X386470Y271554D01*
X388656Y271841D01*
X390693Y272685D01*
X392442Y274028D01*
X393785Y275777D01*
X394628Y277814D01*
X394916Y280000D01*
X394628Y282186D01*
X393785Y284223D01*
X392992Y285257D01*
X393949Y286096D01*
X397994Y282050D01*
Y119251D01*
X391368D01*
X391001Y120521D01*
X392442Y121628D01*
X393785Y123377D01*
X394628Y125414D01*
X394916Y127600D01*
X394628Y129786D01*
X393785Y131823D01*
X392442Y133572D01*
X390693Y134915D01*
X388656Y135758D01*
X386470Y136046D01*
X384284Y135758D01*
X382247Y134915D01*
X380498Y133572D01*
X379155Y131823D01*
X378312Y129786D01*
X378024Y127600D01*
X378312Y125414D01*
X379155Y123377D01*
X380498Y121628D01*
X381939Y120521D01*
X381572Y119251D01*
X365968D01*
X365601Y120521D01*
X367042Y121628D01*
X368385Y123377D01*
X369228Y125414D01*
X369516Y127600D01*
X369228Y129786D01*
X368385Y131823D01*
X367042Y133572D01*
X365293Y134915D01*
X363256Y135758D01*
X361398Y136003D01*
X361070Y136068D01*
X360742Y136003D01*
X358884Y135758D01*
X356847Y134915D01*
X355098Y133572D01*
X353755Y131823D01*
X352911Y129786D01*
X352624Y127600D01*
X352911Y125414D01*
X353755Y123377D01*
X355098Y121628D01*
X356539Y120521D01*
X356172Y119251D01*
X318475D01*
X316827Y120352D01*
X314672Y120781D01*
X312517Y120352D01*
X310689Y119131D01*
X310673Y119106D01*
X309832Y118939D01*
X308501Y118050D01*
X306411Y115960D01*
X306354Y115922D01*
X306327Y115881D01*
X306279Y115869D01*
X306217Y115766D01*
X301525Y111074D01*
X239478D01*
X237908Y110761D01*
X236577Y109872D01*
X229261Y102557D01*
X228165Y102338D01*
X226518Y101238D01*
X203419D01*
X199682Y104975D01*
X200401Y106052D01*
X201900Y105431D01*
X204256Y105121D01*
X206611Y105431D01*
X208807Y106340D01*
X210692Y107787D01*
X212138Y109672D01*
X213047Y111867D01*
X213358Y114223D01*
X213047Y116579D01*
X212138Y118774D01*
X210692Y120659D01*
X208807Y122105D01*
X206611Y123014D01*
X204256Y123325D01*
X201900Y123014D01*
X199705Y122105D01*
X197820Y120659D01*
X196373Y118774D01*
X195464Y116579D01*
X195154Y114223D01*
X195464Y111867D01*
X196085Y110368D01*
X195008Y109649D01*
X193732Y110925D01*
X192401Y111815D01*
X190831Y112127D01*
X146378D01*
X145782Y112525D01*
X143627Y112954D01*
X141472Y112525D01*
X139644Y111304D01*
X138424Y109477D01*
X137995Y107322D01*
X138424Y105166D01*
X139644Y103339D01*
X141472Y102118D01*
X143627Y101689D01*
X145782Y102118D01*
X147610Y103339D01*
X147999Y103921D01*
X179477D01*
X179754Y103106D01*
X179823Y102651D01*
X178413Y100813D01*
X177503Y98618D01*
X177193Y96262D01*
X177503Y93906D01*
X178413Y91711D01*
X179859Y89826D01*
X181744Y88380D01*
X183939Y87471D01*
X186295Y87160D01*
X188651Y87471D01*
X190846Y88380D01*
X192731Y89826D01*
X194177Y91711D01*
X195087Y93907D01*
X195350Y95906D01*
X196546Y96506D01*
X198819Y94234D01*
X200150Y93344D01*
X201720Y93032D01*
X226518D01*
X228165Y91931D01*
X230320Y91503D01*
X232475Y91931D01*
X234303Y93152D01*
X235524Y94980D01*
X235952Y97135D01*
X235868Y97559D01*
X241178Y102868D01*
X303224D01*
X304794Y103180D01*
X306125Y104070D01*
X311212Y109156D01*
X311268Y109171D01*
X311323Y109264D01*
X311424Y109303D01*
X312008Y109864D01*
X312285Y110100D01*
X312517Y109945D01*
X314672Y109516D01*
X316827Y109945D01*
X318475Y111046D01*
X397994D01*
Y70468D01*
X396362Y69215D01*
X394915Y67330D01*
X394006Y65135D01*
X393696Y62779D01*
X394006Y60424D01*
X394915Y58229D01*
X396362Y56343D01*
X398247Y54897D01*
X400442Y53988D01*
X402798Y53678D01*
X405154Y53988D01*
X407349Y54897D01*
X409234Y56343D01*
X410680Y58229D01*
X411590Y60424D01*
X411900Y62779D01*
X411590Y65135D01*
X410680Y67330D01*
X409234Y69215D01*
X407349Y70662D01*
X406199Y71138D01*
Y77211D01*
X406352Y77340D01*
X407469Y77773D01*
X408048Y77387D01*
X409130Y77172D01*
X467081Y77171D01*
X467549Y75990D01*
X463834Y72494D01*
X450970Y61773D01*
X438981Y52951D01*
X438750Y52990D01*
X438110Y54250D01*
X438109Y54384D01*
X438288Y55279D01*
Y61509D01*
X429468D01*
Y52690D01*
X435698D01*
X436125Y52775D01*
X436895Y52132D01*
X437121Y51764D01*
X437054Y51571D01*
X423419Y42756D01*
X408833Y34529D01*
X393777Y27198D01*
X378306Y20790D01*
X362475Y15327D01*
X346344Y10830D01*
X329971Y7315D01*
X313416Y4796D01*
X296738Y3280D01*
X280000Y2774D01*
X263262Y3280D01*
X246584Y4796D01*
X230029Y7315D01*
X213656Y10830D01*
X197525Y15327D01*
X181695Y20790D01*
X166223Y27198D01*
X151167Y34529D01*
X136581Y42756D01*
X122518Y51848D01*
X109030Y61773D01*
X96166Y72494D01*
X83972Y83972D01*
X72494Y96166D01*
X61773Y109030D01*
X51848Y122518D01*
X42756Y136581D01*
X34529Y151167D01*
X27198Y166223D01*
X20790Y181695D01*
X15327Y197525D01*
X10830Y213656D01*
X7315Y230029D01*
X4796Y246584D01*
X3280Y263262D01*
X2774Y280000D01*
X3280Y296738D01*
X4796Y313416D01*
X7315Y329971D01*
X10830Y346344D01*
X15327Y362475D01*
X20790Y378306D01*
X27198Y393777D01*
X34529Y408833D01*
X42756Y423419D01*
X51848Y437482D01*
X61773Y450970D01*
X72494Y463834D01*
X83972Y476028D01*
X96166Y487506D01*
X109030Y498227D01*
X122518Y508152D01*
X136581Y517244D01*
X151167Y525471D01*
X166223Y532802D01*
X181695Y539210D01*
X197525Y544673D01*
X213656Y549170D01*
X230029Y552685D01*
X246584Y555204D01*
X263262Y556720D01*
X280000Y557225D01*
X296738Y556720D01*
D02*
G37*
G36*
X312327Y111908D02*
X312241Y111941D01*
X312128Y111936D01*
X311989Y111892D01*
X311824Y111809D01*
X311633Y111687D01*
X311416Y111526D01*
X310902Y111087D01*
X310282Y110493D01*
X307264Y114546D01*
X311214Y117159D01*
X312327Y111908D01*
D02*
G37*
%LPC*%
G36*
X240177Y518456D02*
X237821Y518146D01*
X235626Y517237D01*
X233741Y515790D01*
X232294Y513905D01*
X231385Y511710D01*
X231075Y509354D01*
X231385Y506998D01*
X232294Y504803D01*
X233741Y502918D01*
X235626Y501472D01*
X237821Y500562D01*
X240177Y500252D01*
X242532Y500562D01*
X244728Y501472D01*
X246613Y502918D01*
X248059Y504803D01*
X248968Y506998D01*
X249279Y509354D01*
X248968Y511710D01*
X248059Y513905D01*
X246613Y515790D01*
X244728Y517237D01*
X242532Y518146D01*
X240177Y518456D01*
D02*
G37*
G36*
X168335D02*
X165979Y518146D01*
X163784Y517237D01*
X161899Y515790D01*
X160452Y513905D01*
X159543Y511710D01*
X159233Y509354D01*
X159543Y506998D01*
X160452Y504803D01*
X161899Y502918D01*
X163784Y501472D01*
X165979Y500562D01*
X168335Y500252D01*
X170690Y500562D01*
X172885Y501472D01*
X174771Y502918D01*
X176217Y504803D01*
X177126Y506998D01*
X177436Y509354D01*
X177126Y511710D01*
X176217Y513905D01*
X174771Y515790D01*
X172885Y517237D01*
X170690Y518146D01*
X168335Y518456D01*
D02*
G37*
G36*
X186295Y500495D02*
X183939Y500185D01*
X181744Y499276D01*
X179859Y497830D01*
X178413Y495945D01*
X177503Y493749D01*
X177193Y491394D01*
X177503Y489038D01*
X178413Y486843D01*
X179859Y484958D01*
X181744Y483511D01*
X183939Y482602D01*
X186295Y482292D01*
X188651Y482602D01*
X190846Y483511D01*
X192731Y484958D01*
X194177Y486843D01*
X195087Y489038D01*
X195397Y491394D01*
X195087Y493749D01*
X194177Y495945D01*
X192731Y497830D01*
X190846Y499276D01*
X188651Y500185D01*
X186295Y500495D01*
D02*
G37*
G36*
X150374D02*
X148018Y500185D01*
X145823Y499276D01*
X143938Y497830D01*
X142492Y495945D01*
X141582Y493749D01*
X141272Y491394D01*
X141582Y489038D01*
X142492Y486843D01*
X143938Y484958D01*
X145823Y483511D01*
X148018Y482602D01*
X150374Y482292D01*
X152730Y482602D01*
X154925Y483511D01*
X156810Y484958D01*
X158257Y486843D01*
X159166Y489038D01*
X159476Y491394D01*
X159166Y493749D01*
X158257Y495945D01*
X156810Y497830D01*
X154925Y499276D01*
X152730Y500185D01*
X150374Y500495D01*
D02*
G37*
G36*
X258137Y500495D02*
X255781Y500185D01*
X253586Y499276D01*
X251701Y497830D01*
X250255Y495945D01*
X249345Y493749D01*
X249035Y491394D01*
X249345Y489038D01*
X250255Y486843D01*
X251701Y484958D01*
X253586Y483511D01*
X255781Y482602D01*
X258137Y482292D01*
X260493Y482602D01*
X262688Y483511D01*
X264573Y484958D01*
X266020Y486843D01*
X266929Y489038D01*
X267239Y491394D01*
X266929Y493749D01*
X266020Y495945D01*
X264573Y497830D01*
X262688Y499276D01*
X260493Y500185D01*
X258137Y500495D01*
D02*
G37*
G36*
X358374Y522687D02*
X353820Y522329D01*
X349378Y521263D01*
X345157Y519514D01*
X341261Y517127D01*
X337788Y514160D01*
X334821Y510686D01*
X332434Y506791D01*
X330685Y502570D01*
X329619Y498128D01*
X329260Y493574D01*
X329619Y489019D01*
X330685Y484577D01*
X332434Y480356D01*
X334821Y476461D01*
X337788Y472987D01*
X341261Y470020D01*
X345157Y467633D01*
X349378Y465885D01*
X353820Y464818D01*
X358374Y464460D01*
X362929Y464818D01*
X367371Y465885D01*
X371591Y467633D01*
X375487Y470020D01*
X378961Y472987D01*
X381928Y476461D01*
X384315Y480356D01*
X386063Y484577D01*
X387129Y489019D01*
X387488Y493574D01*
X387129Y498128D01*
X386063Y502570D01*
X384315Y506791D01*
X381928Y510686D01*
X378961Y514160D01*
X375487Y517127D01*
X371591Y519514D01*
X367371Y521263D01*
X362929Y522329D01*
X358374Y522687D01*
D02*
G37*
G36*
X168335Y482535D02*
X165979Y482225D01*
X163784Y481315D01*
X161899Y479869D01*
X160452Y477984D01*
X159543Y475789D01*
X159233Y473433D01*
X159543Y471077D01*
X160452Y468882D01*
X161899Y466997D01*
X163784Y465551D01*
X165979Y464641D01*
X168335Y464331D01*
X170690Y464641D01*
X172885Y465551D01*
X174771Y466997D01*
X176217Y468882D01*
X177126Y471077D01*
X177436Y473433D01*
X177126Y475789D01*
X176217Y477984D01*
X174771Y479869D01*
X172885Y481315D01*
X170690Y482225D01*
X168335Y482535D01*
D02*
G37*
G36*
X132414D02*
X130058Y482225D01*
X127863Y481315D01*
X125978Y479869D01*
X124531Y477984D01*
X123622Y475789D01*
X123312Y473433D01*
X123622Y471077D01*
X124531Y468882D01*
X125978Y466997D01*
X127863Y465551D01*
X130058Y464641D01*
X132414Y464331D01*
X134769Y464641D01*
X136965Y465551D01*
X138849Y466997D01*
X140296Y468882D01*
X141205Y471077D01*
X141515Y473433D01*
X141205Y475789D01*
X140296Y477984D01*
X138849Y479869D01*
X136965Y481315D01*
X134769Y482225D01*
X132414Y482535D01*
D02*
G37*
G36*
X150374Y464574D02*
X148018Y464264D01*
X145823Y463355D01*
X143938Y461909D01*
X142492Y460023D01*
X141582Y457828D01*
X141272Y455473D01*
X141582Y453117D01*
X142492Y450922D01*
X143938Y449037D01*
X145823Y447590D01*
X148018Y446681D01*
X150374Y446371D01*
X152730Y446681D01*
X154925Y447590D01*
X156810Y449037D01*
X158257Y450922D01*
X159166Y453117D01*
X159476Y455473D01*
X159166Y457828D01*
X158257Y460023D01*
X156810Y461909D01*
X154925Y463355D01*
X152730Y464264D01*
X150374Y464574D01*
D02*
G37*
G36*
X114453D02*
X112097Y464264D01*
X109902Y463355D01*
X108017Y461909D01*
X106571Y460023D01*
X105661Y457828D01*
X105351Y455473D01*
X105661Y453117D01*
X106571Y450922D01*
X108017Y449037D01*
X109902Y447590D01*
X112097Y446681D01*
X114453Y446371D01*
X116809Y446681D01*
X119004Y447590D01*
X120889Y449037D01*
X122336Y450922D01*
X123245Y453117D01*
X123555Y455473D01*
X123245Y457828D01*
X122336Y460023D01*
X120889Y461909D01*
X119004Y463355D01*
X116809Y464264D01*
X114453Y464574D01*
D02*
G37*
G36*
X132414Y446614D02*
X130058Y446304D01*
X127863Y445395D01*
X125978Y443948D01*
X124531Y442063D01*
X123622Y439868D01*
X123312Y437512D01*
X123622Y435156D01*
X124531Y432961D01*
X125978Y431076D01*
X127863Y429630D01*
X130058Y428720D01*
X132414Y428410D01*
X134769Y428720D01*
X136965Y429630D01*
X138849Y431076D01*
X140296Y432961D01*
X141205Y435156D01*
X141515Y437512D01*
X141205Y439868D01*
X140296Y442063D01*
X138849Y443948D01*
X136965Y445395D01*
X134769Y446304D01*
X132414Y446614D01*
D02*
G37*
G36*
X96493D02*
X94137Y446304D01*
X91942Y445395D01*
X90057Y443948D01*
X88610Y442063D01*
X87701Y439868D01*
X87391Y437512D01*
X87701Y435156D01*
X88610Y432961D01*
X90057Y431076D01*
X91942Y429630D01*
X94137Y428720D01*
X96493Y428410D01*
X98848Y428720D01*
X101044Y429630D01*
X102928Y431076D01*
X104375Y432961D01*
X105284Y435156D01*
X105594Y437512D01*
X105284Y439868D01*
X104375Y442063D01*
X102928Y443948D01*
X101044Y445395D01*
X98848Y446304D01*
X96493Y446614D01*
D02*
G37*
G36*
X393320Y440900D02*
X379620D01*
X378454Y440416D01*
X377970Y439250D01*
Y425550D01*
X378454Y424384D01*
X379620Y423900D01*
X393320D01*
X394486Y424384D01*
X394970Y425550D01*
Y439250D01*
X394486Y440416D01*
X393320Y440900D01*
D02*
G37*
G36*
X367920D02*
X354220D01*
X353054Y440416D01*
X352570Y439250D01*
Y425550D01*
X353054Y424384D01*
X354220Y423900D01*
X367920D01*
X369086Y424384D01*
X369570Y425550D01*
Y439250D01*
X369086Y440416D01*
X367920Y440900D01*
D02*
G37*
G36*
X114453Y428653D02*
X112097Y428343D01*
X109902Y427434D01*
X108017Y425988D01*
X106571Y424103D01*
X105661Y421907D01*
X105351Y419552D01*
X105661Y417196D01*
X106571Y415001D01*
X108017Y413116D01*
X109902Y411669D01*
X112097Y410760D01*
X114453Y410450D01*
X116809Y410760D01*
X119004Y411669D01*
X120889Y413116D01*
X122336Y415001D01*
X123245Y417196D01*
X123555Y419552D01*
X123245Y421907D01*
X122336Y424103D01*
X120889Y425988D01*
X119004Y427434D01*
X116809Y428343D01*
X114453Y428653D01*
D02*
G37*
G36*
X78532D02*
X76176Y428343D01*
X73981Y427434D01*
X72096Y425988D01*
X70650Y424103D01*
X69740Y421907D01*
X69430Y419552D01*
X69740Y417196D01*
X70650Y415001D01*
X72096Y413116D01*
X73981Y411669D01*
X76176Y410760D01*
X78532Y410450D01*
X80888Y410760D01*
X83083Y411669D01*
X84968Y413116D01*
X86414Y415001D01*
X87324Y417196D01*
X87634Y419552D01*
X87324Y421907D01*
X86414Y424103D01*
X84968Y425988D01*
X83083Y427434D01*
X80888Y428343D01*
X78532Y428653D01*
D02*
G37*
G36*
X186295Y428653D02*
X183939Y428343D01*
X181744Y427434D01*
X179859Y425988D01*
X178413Y424103D01*
X177503Y421907D01*
X177193Y419552D01*
X177503Y417196D01*
X178413Y415001D01*
X179859Y413116D01*
X181744Y411669D01*
X183939Y410760D01*
X186295Y410450D01*
X188651Y410760D01*
X190846Y411669D01*
X192731Y413116D01*
X194177Y415001D01*
X195087Y417196D01*
X195397Y419552D01*
X195087Y421907D01*
X194177Y424103D01*
X192731Y425988D01*
X190846Y427434D01*
X188651Y428343D01*
X186295Y428653D01*
D02*
G37*
G36*
X386470Y415446D02*
X384284Y415159D01*
X382247Y414315D01*
X380498Y412972D01*
X379155Y411223D01*
X378312Y409186D01*
X378024Y407000D01*
X378312Y404814D01*
X379155Y402777D01*
X380498Y401028D01*
X382247Y399685D01*
X384284Y398842D01*
X386470Y398554D01*
X388656Y398842D01*
X390693Y399685D01*
X392442Y401028D01*
X393785Y402777D01*
X394628Y404814D01*
X394916Y407000D01*
X394628Y409186D01*
X393785Y411223D01*
X392442Y412972D01*
X390693Y414315D01*
X388656Y415159D01*
X386470Y415446D01*
D02*
G37*
G36*
X361070D02*
X358884Y415159D01*
X356847Y414315D01*
X355098Y412972D01*
X353755Y411223D01*
X352911Y409186D01*
X352624Y407000D01*
X352911Y404814D01*
X353755Y402777D01*
X355098Y401028D01*
X356847Y399685D01*
X358884Y398842D01*
X361070Y398554D01*
X363256Y398842D01*
X365293Y399685D01*
X367042Y401028D01*
X368385Y402777D01*
X369228Y404814D01*
X369516Y407000D01*
X369228Y409186D01*
X368385Y411223D01*
X367042Y412972D01*
X365293Y414315D01*
X363256Y415159D01*
X361070Y415446D01*
D02*
G37*
G36*
X96493Y410693D02*
X94137Y410383D01*
X91942Y409473D01*
X90057Y408027D01*
X88610Y406142D01*
X87701Y403947D01*
X87391Y401591D01*
X87701Y399235D01*
X88610Y397040D01*
X90057Y395155D01*
X91942Y393709D01*
X94137Y392799D01*
X96493Y392489D01*
X98848Y392799D01*
X101044Y393709D01*
X102928Y395155D01*
X104375Y397040D01*
X105284Y399235D01*
X105594Y401591D01*
X105284Y403947D01*
X104375Y406142D01*
X102928Y408027D01*
X101044Y409473D01*
X98848Y410383D01*
X96493Y410693D01*
D02*
G37*
G36*
X60571D02*
X58216Y410383D01*
X56021Y409473D01*
X54135Y408027D01*
X52689Y406142D01*
X51780Y403947D01*
X51470Y401591D01*
X51780Y399235D01*
X52689Y397040D01*
X54135Y395155D01*
X56021Y393709D01*
X58216Y392799D01*
X60571Y392489D01*
X62927Y392799D01*
X65122Y393709D01*
X67007Y395155D01*
X68454Y397040D01*
X69363Y399235D01*
X69673Y401591D01*
X69363Y403947D01*
X68454Y406142D01*
X67007Y408027D01*
X65122Y409473D01*
X62927Y410383D01*
X60571Y410693D01*
D02*
G37*
G36*
X204256Y410693D02*
X201900Y410383D01*
X199705Y409473D01*
X197820Y408027D01*
X196373Y406142D01*
X195464Y403947D01*
X195154Y401591D01*
X195464Y399235D01*
X196373Y397040D01*
X197820Y395155D01*
X199705Y393709D01*
X201900Y392799D01*
X204256Y392489D01*
X206611Y392799D01*
X208807Y393709D01*
X210692Y395155D01*
X212138Y397040D01*
X213047Y399235D01*
X213358Y401591D01*
X213047Y403947D01*
X212138Y406142D01*
X210692Y408027D01*
X208807Y409473D01*
X206611Y410383D01*
X204256Y410693D01*
D02*
G37*
G36*
X222216Y392732D02*
X219860Y392422D01*
X217665Y391513D01*
X215780Y390066D01*
X214334Y388181D01*
X213424Y385986D01*
X213114Y383630D01*
X213424Y381275D01*
X214334Y379080D01*
X215780Y377195D01*
X217665Y375748D01*
X219860Y374839D01*
X222216Y374529D01*
X224572Y374839D01*
X226767Y375748D01*
X228652Y377195D01*
X230099Y379080D01*
X231008Y381275D01*
X231318Y383630D01*
X231008Y385986D01*
X230099Y388181D01*
X228652Y390066D01*
X226767Y391513D01*
X224572Y392422D01*
X222216Y392732D01*
D02*
G37*
G36*
X386470Y390046D02*
X384284Y389758D01*
X382247Y388915D01*
X380498Y387572D01*
X379155Y385823D01*
X378312Y383786D01*
X378024Y381600D01*
X378312Y379414D01*
X379155Y377377D01*
X380498Y375628D01*
X382247Y374285D01*
X384284Y373442D01*
X386470Y373154D01*
X388656Y373442D01*
X390693Y374285D01*
X392442Y375628D01*
X393785Y377377D01*
X394628Y379414D01*
X394916Y381600D01*
X394628Y383786D01*
X393785Y385823D01*
X392442Y387572D01*
X390693Y388915D01*
X388656Y389758D01*
X386470Y390046D01*
D02*
G37*
G36*
X361070D02*
X358884Y389758D01*
X356847Y388915D01*
X355098Y387572D01*
X353755Y385823D01*
X352911Y383786D01*
X352624Y381600D01*
X352911Y379414D01*
X353755Y377377D01*
X355098Y375628D01*
X356847Y374285D01*
X358884Y373442D01*
X361070Y373154D01*
X363256Y373442D01*
X365293Y374285D01*
X367042Y375628D01*
X368385Y377377D01*
X369228Y379414D01*
X369516Y381600D01*
X369228Y383786D01*
X368385Y385823D01*
X367042Y387572D01*
X365293Y388915D01*
X363256Y389758D01*
X361070Y390046D01*
D02*
G37*
G36*
X78532Y395887D02*
X77366Y395404D01*
X66759Y384797D01*
X66276Y383630D01*
X66759Y382464D01*
X77366Y371857D01*
X78532Y371374D01*
X79698Y371857D01*
X90305Y382464D01*
X90788Y383630D01*
X90305Y384797D01*
X79698Y395404D01*
X78532Y395887D01*
D02*
G37*
G36*
X279610Y436209D02*
X277454Y435780D01*
X275627Y434560D01*
X274406Y432732D01*
X273977Y430577D01*
X274406Y428422D01*
X275603Y426630D01*
X275627Y426571D01*
X275939Y426250D01*
X276185Y425969D01*
X276392Y425702D01*
X276563Y425450D01*
X276698Y425216D01*
X276801Y425000D01*
X276875Y424803D01*
X276922Y424623D01*
X276949Y424459D01*
X276962Y424215D01*
X277036Y424061D01*
Y376205D01*
X276962Y376051D01*
X276949Y375809D01*
X276923Y375641D01*
X276874Y375457D01*
X276800Y375253D01*
X276696Y375029D01*
X276560Y374785D01*
X276403Y374544D01*
X275922Y373936D01*
X275629Y373619D01*
X275569Y373454D01*
X274513Y371874D01*
X274084Y369719D01*
X274513Y367564D01*
X275734Y365736D01*
X277561Y364515D01*
X279716Y364087D01*
X281872Y364515D01*
X283699Y365736D01*
X284111Y366353D01*
X285258D01*
X287085Y365132D01*
X289241Y364703D01*
X291396Y365132D01*
X293223Y366353D01*
X294444Y368180D01*
X294873Y370336D01*
X294444Y372491D01*
X293223Y374318D01*
X293150Y374367D01*
X293116Y374446D01*
X292801Y374754D01*
X292554Y375023D01*
X292347Y375279D01*
X292177Y375519D01*
X292043Y375745D01*
X291941Y375952D01*
X291869Y376143D01*
X291821Y376317D01*
X291794Y376480D01*
X291781Y376725D01*
X291707Y376878D01*
Y423688D01*
X291781Y423842D01*
X291794Y424086D01*
X291821Y424250D01*
X291869Y424430D01*
X291942Y424627D01*
X292045Y424843D01*
X292180Y425077D01*
X292337Y425308D01*
X292821Y425894D01*
X293116Y426198D01*
X293140Y426257D01*
X294337Y428049D01*
X294766Y430204D01*
X294337Y432360D01*
X293116Y434187D01*
X291289Y435408D01*
X289134Y435836D01*
X286978Y435408D01*
X285151Y434187D01*
X285131Y434157D01*
X283861D01*
X283592Y434560D01*
X281765Y435780D01*
X279610Y436209D01*
D02*
G37*
G36*
X240177Y374772D02*
X237821Y374462D01*
X235626Y373552D01*
X233741Y372106D01*
X232294Y370221D01*
X231385Y368026D01*
X231075Y365670D01*
X231385Y363314D01*
X232294Y361119D01*
X233741Y359234D01*
X235626Y357788D01*
X237821Y356878D01*
X240177Y356568D01*
X242532Y356878D01*
X244728Y357788D01*
X246613Y359234D01*
X248059Y361119D01*
X248968Y363314D01*
X249279Y365670D01*
X248968Y368026D01*
X248059Y370221D01*
X246613Y372106D01*
X244728Y373552D01*
X242532Y374462D01*
X240177Y374772D01*
D02*
G37*
G36*
X386470Y364646D02*
X384284Y364358D01*
X382247Y363515D01*
X380498Y362172D01*
X379155Y360423D01*
X378312Y358386D01*
X378024Y356200D01*
X378312Y354014D01*
X379155Y351977D01*
X380498Y350228D01*
X382247Y348885D01*
X384284Y348041D01*
X386470Y347754D01*
X388656Y348041D01*
X390693Y348885D01*
X392442Y350228D01*
X393785Y351977D01*
X394628Y354014D01*
X394916Y356200D01*
X394628Y358386D01*
X393785Y360423D01*
X392442Y362172D01*
X390693Y363515D01*
X388656Y364358D01*
X386470Y364646D01*
D02*
G37*
G36*
X361070D02*
X358884Y364358D01*
X356847Y363515D01*
X355098Y362172D01*
X353755Y360423D01*
X352911Y358386D01*
X352624Y356200D01*
X352911Y354014D01*
X353755Y351977D01*
X355098Y350228D01*
X356847Y348885D01*
X358884Y348041D01*
X361070Y347754D01*
X363256Y348041D01*
X365293Y348885D01*
X367042Y350228D01*
X368385Y351977D01*
X369228Y354014D01*
X369516Y356200D01*
X369228Y358386D01*
X368385Y360423D01*
X367042Y362172D01*
X365293Y363515D01*
X363256Y364358D01*
X361070Y364646D01*
D02*
G37*
G36*
X114453Y356811D02*
X112097Y356501D01*
X109902Y355592D01*
X108017Y354146D01*
X106571Y352260D01*
X105661Y350065D01*
X105351Y347710D01*
X105661Y345354D01*
X106571Y343158D01*
X108017Y341273D01*
X109902Y339827D01*
X112097Y338918D01*
X114453Y338608D01*
X116809Y338918D01*
X119004Y339827D01*
X120889Y341273D01*
X122336Y343158D01*
X123245Y345354D01*
X123555Y347710D01*
X123245Y350065D01*
X122336Y352260D01*
X120889Y354146D01*
X119004Y355592D01*
X116809Y356501D01*
X114453Y356811D01*
D02*
G37*
G36*
X393320Y339300D02*
X379620D01*
X378454Y338816D01*
X377970Y337650D01*
Y323950D01*
X378454Y322784D01*
X379620Y322300D01*
X393320D01*
X394486Y322784D01*
X394970Y323950D01*
Y337650D01*
X394486Y338816D01*
X393320Y339300D01*
D02*
G37*
G36*
X367915D02*
X354215D01*
X353049Y338816D01*
X352566Y337650D01*
Y323950D01*
X353049Y322784D01*
X354215Y322300D01*
X367915D01*
X369082Y322784D01*
X369565Y323950D01*
Y337650D01*
X369082Y338816D01*
X367915Y339300D01*
D02*
G37*
G36*
X132414Y338851D02*
X130058Y338541D01*
X127863Y337631D01*
X125978Y336185D01*
X124531Y334300D01*
X123622Y332105D01*
X123312Y329749D01*
X123622Y327393D01*
X124531Y325198D01*
X125978Y323313D01*
X127863Y321867D01*
X130058Y320957D01*
X132414Y320647D01*
X134769Y320957D01*
X136965Y321867D01*
X138849Y323313D01*
X140296Y325198D01*
X141205Y327393D01*
X141515Y329749D01*
X141205Y332105D01*
X140296Y334300D01*
X138849Y336185D01*
X136965Y337631D01*
X134769Y338541D01*
X132414Y338851D01*
D02*
G37*
G36*
X150374Y320890D02*
X148018Y320580D01*
X145823Y319671D01*
X143938Y318225D01*
X142492Y316339D01*
X141582Y314144D01*
X141272Y311789D01*
X141582Y309433D01*
X142492Y307237D01*
X143938Y305352D01*
X145823Y303906D01*
X148018Y302997D01*
X150374Y302687D01*
X152730Y302997D01*
X154925Y303906D01*
X156810Y305352D01*
X158257Y307237D01*
X159166Y309433D01*
X159476Y311789D01*
X159166Y314144D01*
X158257Y316339D01*
X156810Y318225D01*
X154925Y319671D01*
X152730Y320580D01*
X150374Y320890D01*
D02*
G37*
G36*
X217767Y341562D02*
X215612Y341134D01*
X213785Y339913D01*
X212564Y338086D01*
X212135Y335930D01*
X212564Y333775D01*
X213785Y331948D01*
X215612Y330727D01*
X217767Y330298D01*
X219923Y330727D01*
X220395Y329624D01*
X218660Y328465D01*
X217439Y326638D01*
X217010Y324482D01*
X217439Y322327D01*
X218660Y320500D01*
X219924Y319655D01*
X220107Y319434D01*
X220117Y319433D01*
X220124Y319425D01*
X220975Y318988D01*
X222019Y318382D01*
X222261Y318222D01*
X222730Y317877D01*
X222885Y317746D01*
X223055Y317587D01*
X223226Y317522D01*
X223251Y317497D01*
X223351Y317365D01*
X223388Y317360D01*
X247018Y293730D01*
X247853Y293172D01*
X248838Y292976D01*
X259269D01*
X259422Y292902D01*
X259666Y292889D01*
X259831Y292862D01*
X260011Y292815D01*
X260208Y292741D01*
X260424Y292638D01*
X260658Y292503D01*
X260889Y292346D01*
X261474Y291863D01*
X261778Y291567D01*
X261838Y291543D01*
X263629Y290346D01*
X265785Y289917D01*
X267940Y290346D01*
X269767Y291567D01*
X270988Y293394D01*
X271417Y295550D01*
X270988Y297705D01*
X269767Y299532D01*
X267940Y300753D01*
X267077Y300925D01*
X266492Y302336D01*
X266789Y302781D01*
X267218Y304936D01*
X266789Y307092D01*
X265568Y308919D01*
X263741Y310140D01*
X261586Y310568D01*
X259430Y310140D01*
X257639Y308943D01*
X257579Y308919D01*
X257258Y308607D01*
X256977Y308361D01*
X256711Y308153D01*
X256459Y307983D01*
X256225Y307847D01*
X256009Y307745D01*
X255812Y307671D01*
X255632Y307623D01*
X255467Y307596D01*
X255223Y307583D01*
X255070Y307510D01*
X252481D01*
X224905Y335085D01*
X224902Y335109D01*
X224805Y335185D01*
X224732Y335258D01*
X224668Y335429D01*
X224527Y335579D01*
X224212Y335976D01*
X224084Y336161D01*
X223066Y337956D01*
X222857Y338381D01*
X222846Y338392D01*
X222845Y338408D01*
X222638Y338583D01*
X221750Y339913D01*
X219923Y341134D01*
X217767Y341562D01*
D02*
G37*
G36*
X168335Y302930D02*
X165979Y302620D01*
X163784Y301710D01*
X161899Y300264D01*
X160452Y298379D01*
X159543Y296184D01*
X159233Y293828D01*
X159543Y291472D01*
X160452Y289277D01*
X161899Y287392D01*
X163784Y285945D01*
X165979Y285036D01*
X168335Y284726D01*
X170690Y285036D01*
X172885Y285945D01*
X174771Y287392D01*
X176217Y289277D01*
X177126Y291472D01*
X177436Y293828D01*
X177126Y296184D01*
X176217Y298379D01*
X174771Y300264D01*
X172885Y301710D01*
X170690Y302620D01*
X168335Y302930D01*
D02*
G37*
G36*
X362340Y289304D02*
Y281270D01*
X370374D01*
X370218Y282451D01*
X369272Y284735D01*
X367767Y286697D01*
X365806Y288202D01*
X363521Y289148D01*
X362340Y289304D01*
D02*
G37*
G36*
X359800D02*
X358619Y289148D01*
X356334Y288202D01*
X354373Y286697D01*
X352868Y284735D01*
X351922Y282451D01*
X351766Y281270D01*
X359800D01*
Y289304D01*
D02*
G37*
G36*
X204989Y299534D02*
X202834Y299105D01*
X201006Y297885D01*
X199785Y296057D01*
X199357Y293902D01*
X199785Y291747D01*
X201006Y289919D01*
X202834Y288698D01*
X204989Y288270D01*
X207144Y288698D01*
X208972Y289919D01*
X209653Y289986D01*
X220802Y278838D01*
X220316Y277664D01*
X211426D01*
X210441Y277468D01*
X209944Y277136D01*
X209598Y277008D01*
X209261Y276695D01*
X209176Y276627D01*
X209151Y276637D01*
X209111Y276618D01*
X207789Y276881D01*
X205634Y276453D01*
X203807Y275232D01*
X202586Y273405D01*
X202157Y271249D01*
X202586Y269094D01*
X203807Y267267D01*
X205634Y266046D01*
X207789Y265617D01*
X209945Y266046D01*
X211772Y267267D01*
X212993Y269094D01*
X213421Y271249D01*
X213365Y271536D01*
X214170Y272518D01*
X224919D01*
X225517Y271397D01*
X225066Y270722D01*
X224638Y268567D01*
X225066Y266411D01*
X226287Y264584D01*
X228114Y263363D01*
X230270Y262935D01*
X232425Y263363D01*
X232718Y263559D01*
X232904Y263570D01*
X233193Y263711D01*
X233381Y263781D01*
X233529Y263817D01*
X233640Y263830D01*
X233723Y263827D01*
X233791Y263815D01*
X233861Y263791D01*
X233945Y263748D01*
X234051Y263675D01*
X234246Y263500D01*
X234406Y263444D01*
X283261Y214589D01*
Y206991D01*
X282088Y206505D01*
X280512Y208081D01*
X280457Y208245D01*
X280328Y208393D01*
X280261Y208491D01*
X280187Y208635D01*
X280110Y208829D01*
X280036Y209073D01*
X279970Y209369D01*
X279919Y209694D01*
X279854Y210570D01*
X279849Y211067D01*
X279826Y211121D01*
X279403Y213248D01*
X278183Y215075D01*
X276355Y216296D01*
X274200Y216724D01*
X272045Y216296D01*
X270217Y215075D01*
X268996Y213248D01*
X268568Y211092D01*
X268794Y209953D01*
X267651Y209189D01*
X267523Y209275D01*
X265368Y209703D01*
X263212Y209275D01*
X261454Y208100D01*
X261379Y208071D01*
X260644Y207379D01*
X260351Y207139D01*
X260069Y206933D01*
X259813Y206770D01*
X259588Y206649D01*
X259397Y206567D01*
X259242Y206518D01*
X259126Y206495D01*
X258930Y206482D01*
X258775Y206405D01*
X249578D01*
X219400Y236583D01*
X218643Y237089D01*
X217749Y237267D01*
X197255D01*
X197108Y237342D01*
X196686Y237376D01*
X196478Y237431D01*
X196324Y237508D01*
X196186Y237618D01*
X196039Y237792D01*
X195882Y238064D01*
X195729Y238452D01*
X195595Y238963D01*
X195495Y239595D01*
X195433Y240398D01*
X195418Y240427D01*
X195427Y240459D01*
X195299Y240689D01*
X195087Y242302D01*
X194177Y244497D01*
X192731Y246382D01*
X190846Y247829D01*
X188651Y248738D01*
X186295Y249048D01*
X183939Y248738D01*
X181744Y247829D01*
X179859Y246382D01*
X178413Y244497D01*
X177503Y242302D01*
X177193Y239946D01*
X177503Y237591D01*
X178413Y235396D01*
X179859Y233510D01*
X181744Y232064D01*
X183939Y231155D01*
X186295Y230845D01*
X187595Y231016D01*
X187871Y230937D01*
X187925Y230967D01*
X187985Y230954D01*
X193431Y231972D01*
X196492Y232520D01*
X196576Y232531D01*
X196696Y232599D01*
X216783D01*
X224034Y225348D01*
X223373Y224212D01*
X222833Y224320D01*
X216513D01*
X216375Y224393D01*
X216046Y224425D01*
X215770Y224498D01*
X215392Y224652D01*
X214926Y224897D01*
X214386Y225239D01*
X213807Y225658D01*
X211594Y227591D01*
X210775Y228406D01*
X210641Y228461D01*
X208807Y229868D01*
X206611Y230778D01*
X204256Y231088D01*
X201900Y230778D01*
X199705Y229868D01*
X197820Y228422D01*
X196373Y226537D01*
X195464Y224342D01*
X195154Y221986D01*
X195464Y219630D01*
X196373Y217435D01*
X197820Y215550D01*
X199705Y214104D01*
X201900Y213194D01*
X204256Y212884D01*
X206611Y213194D01*
X208807Y214104D01*
X210641Y215511D01*
X210775Y215566D01*
X211615Y216401D01*
X212378Y217116D01*
X213794Y218305D01*
X214386Y218733D01*
X214926Y219074D01*
X215392Y219320D01*
X215770Y219474D01*
X216046Y219547D01*
X216375Y219579D01*
X216513Y219652D01*
X221866D01*
X249993Y191525D01*
X250751Y191019D01*
X251644Y190842D01*
X251644Y190842D01*
X264427D01*
X264582Y190765D01*
X264778Y190751D01*
X264895Y190728D01*
X265049Y190679D01*
X265240Y190597D01*
X265465Y190477D01*
X265721Y190314D01*
X265987Y190120D01*
X266652Y189547D01*
X267007Y189198D01*
X267061Y189177D01*
X268864Y187972D01*
X271020Y187543D01*
X271345Y186313D01*
X271305Y186070D01*
X270571Y185377D01*
X270277Y185137D01*
X269995Y184931D01*
X269739Y184768D01*
X269514Y184648D01*
X269323Y184565D01*
X269168Y184517D01*
X269052Y184494D01*
X268856Y184480D01*
X268701Y184403D01*
X254396D01*
X233124Y205676D01*
X232367Y206182D01*
X231474Y206359D01*
X231011D01*
X231008Y206381D01*
X230099Y208576D01*
X228652Y210461D01*
X226767Y211908D01*
X224572Y212817D01*
X222216Y213127D01*
X219860Y212817D01*
X217665Y211908D01*
X215780Y210461D01*
X214334Y208576D01*
X213424Y206381D01*
X213114Y204025D01*
X213424Y201670D01*
X214334Y199475D01*
X215780Y197589D01*
X217665Y196143D01*
X219860Y195234D01*
X222216Y194924D01*
X224572Y195234D01*
X226767Y196143D01*
X228652Y197589D01*
X230099Y199475D01*
X230430Y200275D01*
X231676Y200523D01*
X251779Y180419D01*
X252537Y179913D01*
X253430Y179736D01*
X268701D01*
X268856Y179659D01*
X269052Y179645D01*
X269168Y179622D01*
X269323Y179574D01*
X269514Y179491D01*
X269739Y179371D01*
X269995Y179208D01*
X270261Y179014D01*
X270926Y178441D01*
X271281Y178092D01*
X271335Y178071D01*
X273138Y176866D01*
X275294Y176437D01*
X277449Y176866D01*
X278641Y177663D01*
X279911Y176984D01*
Y163053D01*
X280089Y162160D01*
X280595Y161403D01*
X292652Y149346D01*
X293409Y148840D01*
X294303Y148662D01*
X294303Y148662D01*
X307392D01*
X311607Y144447D01*
X312365Y143941D01*
X313258Y143763D01*
X313258Y143763D01*
X331579D01*
X331644Y143654D01*
X331749Y143443D01*
X331842Y143217D01*
X331923Y142976D01*
X331992Y142718D01*
X332047Y142442D01*
X332095Y142101D01*
X332158Y141994D01*
X332145Y141870D01*
X332287Y141692D01*
X332500Y140619D01*
X333721Y138792D01*
X335549Y137571D01*
X337704Y137142D01*
X339859Y137571D01*
X341687Y138792D01*
X342907Y140619D01*
X343336Y142774D01*
X342907Y144930D01*
X341687Y146757D01*
X339859Y147978D01*
X337704Y148406D01*
X335570Y147982D01*
X335127Y148208D01*
X334673Y149469D01*
X335182Y150231D01*
X335611Y152386D01*
X335182Y154541D01*
X333962Y156369D01*
X332134Y157590D01*
X329979Y158018D01*
X327824Y157590D01*
X327594Y157436D01*
X327432Y157428D01*
X327035Y157240D01*
X326455Y157674D01*
X326052Y158180D01*
X326445Y160157D01*
X326017Y162313D01*
X324796Y164140D01*
X322968Y165361D01*
X320813Y165790D01*
X318658Y165361D01*
X316831Y164140D01*
X316783Y164168D01*
X316044Y165349D01*
X316473Y167504D01*
X316044Y169660D01*
X314823Y171487D01*
X312996Y172708D01*
X310841Y173137D01*
X308685Y172708D01*
X306894Y171511D01*
X306834Y171487D01*
X306514Y171175D01*
X305558Y172026D01*
X306339Y173196D01*
X306768Y175351D01*
X306339Y177507D01*
X305118Y179334D01*
X303291Y180555D01*
X301136Y180983D01*
X300510Y181497D01*
Y222195D01*
X300315Y223180D01*
X299757Y224015D01*
X238075Y285696D01*
X237691Y287626D01*
X236470Y289453D01*
X234643Y290674D01*
X232488Y291103D01*
X230332Y290674D01*
X228505Y289453D01*
X227284Y287626D01*
X226856Y285471D01*
X227284Y283316D01*
X227857Y282458D01*
X227178Y281188D01*
X225730D01*
X211197Y295722D01*
X210362Y296279D01*
X209995Y296352D01*
X208972Y297885D01*
X207144Y299105D01*
X204989Y299534D01*
D02*
G37*
G36*
X287402Y300262D02*
X285246Y299833D01*
X283419Y298612D01*
X282198Y296785D01*
X281769Y294630D01*
X282198Y292474D01*
X283373Y290716D01*
X283401Y290641D01*
X284095Y289905D01*
X284336Y289612D01*
X284543Y289329D01*
X284705Y289073D01*
X284827Y288847D01*
X284909Y288656D01*
X284958Y288502D01*
X284980Y288386D01*
X284982Y288365D01*
X284980Y288339D01*
X284958Y288228D01*
X284911Y288087D01*
X284833Y287914D01*
X284716Y287711D01*
X284557Y287480D01*
X284367Y287243D01*
X283786Y286640D01*
X283431Y286322D01*
X283363Y286180D01*
X283154Y286040D01*
X281933Y284213D01*
X281504Y282057D01*
X281933Y279902D01*
X283154Y278075D01*
X284981Y276854D01*
X287136Y276425D01*
X289292Y276854D01*
X291119Y278075D01*
X292340Y279902D01*
X292769Y282057D01*
X292340Y284213D01*
X291455Y285537D01*
X291368Y285800D01*
X291027Y286195D01*
X290465Y286926D01*
X290268Y287222D01*
X290104Y287503D01*
X289981Y287750D01*
X289896Y287958D01*
X289845Y288125D01*
X289822Y288245D01*
X289818Y288312D01*
X289823Y288386D01*
X289845Y288502D01*
X289894Y288656D01*
X289977Y288847D01*
X290098Y289073D01*
X290261Y289329D01*
X290455Y289595D01*
X291029Y290261D01*
X291378Y290617D01*
X291400Y290671D01*
X292605Y292474D01*
X293034Y294630D01*
X292605Y296785D01*
X291384Y298612D01*
X289557Y299833D01*
X287402Y300262D01*
D02*
G37*
G36*
X370374Y278730D02*
X362340D01*
Y270696D01*
X363521Y270852D01*
X365806Y271798D01*
X367767Y273303D01*
X369272Y275264D01*
X370218Y277549D01*
X370374Y278730D01*
D02*
G37*
G36*
X359800D02*
X351766D01*
X351922Y277549D01*
X352868Y275264D01*
X354373Y273303D01*
X356334Y271798D01*
X358619Y270852D01*
X359800Y270696D01*
Y278730D01*
D02*
G37*
G36*
X52500Y309114D02*
X47946Y308755D01*
X43503Y307689D01*
X39283Y305940D01*
X35387Y303554D01*
X31913Y300586D01*
X28946Y297113D01*
X26560Y293217D01*
X24811Y288997D01*
X23745Y284554D01*
X23386Y280000D01*
X23745Y275446D01*
X24811Y271003D01*
X26560Y266783D01*
X28946Y262887D01*
X31913Y259414D01*
X35387Y256446D01*
X39283Y254060D01*
X43503Y252311D01*
X47946Y251245D01*
X52500Y250886D01*
X57054Y251245D01*
X61497Y252311D01*
X65717Y254060D01*
X69613Y256446D01*
X73087Y259414D01*
X76054Y262887D01*
X78440Y266783D01*
X80189Y271003D01*
X81255Y275446D01*
X81614Y280000D01*
X81255Y284554D01*
X80189Y288997D01*
X78440Y293217D01*
X76054Y297113D01*
X73087Y300586D01*
X69613Y303554D01*
X65717Y305940D01*
X61497Y307689D01*
X57054Y308755D01*
X52500Y309114D01*
D02*
G37*
G36*
X386470Y263046D02*
X384284Y262758D01*
X382247Y261915D01*
X380498Y260572D01*
X379155Y258823D01*
X378312Y256786D01*
X378024Y254600D01*
X378312Y252414D01*
X379155Y250377D01*
X380498Y248627D01*
X382247Y247285D01*
X384284Y246441D01*
X386470Y246154D01*
X388656Y246441D01*
X390693Y247285D01*
X392442Y248627D01*
X393785Y250377D01*
X394628Y252414D01*
X394916Y254600D01*
X394628Y256786D01*
X393785Y258823D01*
X392442Y260572D01*
X390693Y261915D01*
X388656Y262758D01*
X386470Y263046D01*
D02*
G37*
G36*
X361070D02*
X358884Y262758D01*
X356847Y261915D01*
X355098Y260572D01*
X353755Y258823D01*
X352911Y256786D01*
X352624Y254600D01*
X352911Y252414D01*
X353755Y250377D01*
X355098Y248627D01*
X356847Y247285D01*
X358884Y246441D01*
X361070Y246154D01*
X363256Y246441D01*
X365293Y247285D01*
X367042Y248627D01*
X368385Y250377D01*
X369228Y252414D01*
X369516Y254600D01*
X369228Y256786D01*
X368385Y258823D01*
X367042Y260572D01*
X365293Y261915D01*
X363256Y262758D01*
X361070Y263046D01*
D02*
G37*
G36*
X386470Y237646D02*
X384284Y237358D01*
X382247Y236515D01*
X380498Y235172D01*
X379155Y233423D01*
X378312Y231386D01*
X378024Y229200D01*
X378312Y227014D01*
X379155Y224977D01*
X380498Y223228D01*
X382247Y221885D01*
X384284Y221041D01*
X386470Y220754D01*
X388656Y221041D01*
X390693Y221885D01*
X392442Y223228D01*
X393785Y224977D01*
X394628Y227014D01*
X394916Y229200D01*
X394628Y231386D01*
X393785Y233423D01*
X392442Y235172D01*
X390693Y236515D01*
X388656Y237358D01*
X386470Y237646D01*
D02*
G37*
G36*
X361070D02*
X358884Y237358D01*
X356847Y236515D01*
X355098Y235172D01*
X353755Y233423D01*
X352911Y231386D01*
X352624Y229200D01*
X352911Y227014D01*
X353755Y224977D01*
X355098Y223228D01*
X356847Y221885D01*
X358884Y221041D01*
X361070Y220754D01*
X363256Y221041D01*
X365293Y221885D01*
X367042Y223228D01*
X368385Y224977D01*
X369228Y227014D01*
X369516Y229200D01*
X369228Y231386D01*
X368385Y233423D01*
X367042Y235172D01*
X365293Y236515D01*
X363256Y237358D01*
X361070Y237646D01*
D02*
G37*
G36*
X132414Y231088D02*
X130058Y230778D01*
X127863Y229868D01*
X125978Y228422D01*
X124531Y226537D01*
X123622Y224342D01*
X123312Y221986D01*
X123622Y219630D01*
X124531Y217435D01*
X125978Y215550D01*
X127863Y214104D01*
X130058Y213194D01*
X132414Y212884D01*
X134769Y213194D01*
X136965Y214104D01*
X138849Y215550D01*
X140296Y217435D01*
X141205Y219630D01*
X141515Y221986D01*
X141205Y224342D01*
X140296Y226537D01*
X138849Y228422D01*
X136965Y229868D01*
X134769Y230778D01*
X132414Y231088D01*
D02*
G37*
G36*
X393320Y212300D02*
X379620D01*
X378454Y211816D01*
X377970Y210650D01*
Y196950D01*
X378454Y195784D01*
X379620Y195300D01*
X393320D01*
X394486Y195784D01*
X394970Y196950D01*
Y210650D01*
X394486Y211816D01*
X393320Y212300D01*
D02*
G37*
G36*
X367920D02*
X354220D01*
X353054Y211816D01*
X352570Y210650D01*
Y196950D01*
X353054Y195784D01*
X354220Y195300D01*
X367920D01*
X369086Y195784D01*
X369570Y196950D01*
Y210650D01*
X369086Y211816D01*
X367920Y212300D01*
D02*
G37*
G36*
X150374Y213127D02*
X148018Y212817D01*
X145823Y211908D01*
X143938Y210461D01*
X142492Y208576D01*
X141582Y206381D01*
X141272Y204025D01*
X141582Y201670D01*
X142492Y199475D01*
X143938Y197589D01*
X145823Y196143D01*
X148018Y195234D01*
X150374Y194924D01*
X152730Y195234D01*
X154925Y196143D01*
X156810Y197589D01*
X158257Y199475D01*
X159166Y201670D01*
X159476Y204025D01*
X159166Y206381D01*
X158257Y208576D01*
X156810Y210461D01*
X154925Y211908D01*
X152730Y212817D01*
X150374Y213127D01*
D02*
G37*
G36*
X168335Y195167D02*
X165979Y194857D01*
X163784Y193947D01*
X161899Y192501D01*
X160452Y190616D01*
X159543Y188421D01*
X159233Y186065D01*
X159543Y183709D01*
X160452Y181514D01*
X161899Y179629D01*
X163784Y178183D01*
X165979Y177273D01*
X168335Y176963D01*
X170690Y177273D01*
X172885Y178183D01*
X174771Y179629D01*
X176217Y181514D01*
X177126Y183709D01*
X177436Y186065D01*
X177126Y188421D01*
X176217Y190616D01*
X174771Y192501D01*
X172885Y193947D01*
X170690Y194857D01*
X168335Y195167D01*
D02*
G37*
G36*
X386470Y186846D02*
X384284Y186558D01*
X382247Y185715D01*
X380498Y184372D01*
X379155Y182623D01*
X378312Y180586D01*
X378024Y178400D01*
X378312Y176214D01*
X379155Y174177D01*
X380498Y172428D01*
X382247Y171085D01*
X384284Y170242D01*
X386470Y169954D01*
X388656Y170242D01*
X390693Y171085D01*
X392442Y172428D01*
X393785Y174177D01*
X394628Y176214D01*
X394916Y178400D01*
X394628Y180586D01*
X393785Y182623D01*
X392442Y184372D01*
X390693Y185715D01*
X388656Y186558D01*
X386470Y186846D01*
D02*
G37*
G36*
X361070D02*
X358884Y186558D01*
X356847Y185715D01*
X355098Y184372D01*
X353755Y182623D01*
X352911Y180586D01*
X352624Y178400D01*
X352911Y176214D01*
X353755Y174177D01*
X355098Y172428D01*
X356847Y171085D01*
X358884Y170242D01*
X361070Y169954D01*
X363256Y170242D01*
X365293Y171085D01*
X367042Y172428D01*
X368385Y174177D01*
X369228Y176214D01*
X369516Y178400D01*
X369228Y180586D01*
X368385Y182623D01*
X367042Y184372D01*
X365293Y185715D01*
X363256Y186558D01*
X361070Y186846D01*
D02*
G37*
G36*
X386470Y161446D02*
X384284Y161159D01*
X382247Y160315D01*
X380498Y158972D01*
X379155Y157223D01*
X378312Y155186D01*
X378024Y153000D01*
X378312Y150814D01*
X379155Y148777D01*
X380498Y147028D01*
X382247Y145685D01*
X384284Y144841D01*
X386470Y144554D01*
X388656Y144841D01*
X390693Y145685D01*
X392442Y147028D01*
X393785Y148777D01*
X394628Y150814D01*
X394916Y153000D01*
X394628Y155186D01*
X393785Y157223D01*
X392442Y158972D01*
X390693Y160315D01*
X388656Y161159D01*
X386470Y161446D01*
D02*
G37*
G36*
X361070D02*
X358884Y161159D01*
X356847Y160315D01*
X355098Y158972D01*
X353755Y157223D01*
X352911Y155186D01*
X352624Y153000D01*
X352911Y150814D01*
X353755Y148777D01*
X355098Y147028D01*
X356847Y145685D01*
X358884Y144841D01*
X361070Y144554D01*
X363256Y144841D01*
X365293Y145685D01*
X367042Y147028D01*
X368385Y148777D01*
X369228Y150814D01*
X369516Y153000D01*
X369228Y155186D01*
X368385Y157223D01*
X367042Y158972D01*
X365293Y160315D01*
X363256Y161159D01*
X361070Y161446D01*
D02*
G37*
G36*
X240177Y159246D02*
X237821Y158935D01*
X235626Y158026D01*
X233741Y156580D01*
X232294Y154695D01*
X231385Y152500D01*
X231075Y150144D01*
X231385Y147788D01*
X232294Y145593D01*
X233741Y143708D01*
X235626Y142261D01*
X237821Y141352D01*
X240177Y141042D01*
X242532Y141352D01*
X244728Y142261D01*
X246613Y143708D01*
X248059Y145593D01*
X248968Y147788D01*
X249279Y150144D01*
X248968Y152500D01*
X248059Y154695D01*
X246613Y156580D01*
X244728Y158026D01*
X242532Y158935D01*
X240177Y159246D01*
D02*
G37*
G36*
X222216Y141285D02*
X219860Y140975D01*
X217665Y140066D01*
X215780Y138619D01*
X214334Y136734D01*
X213424Y134539D01*
X213114Y132183D01*
X213424Y129828D01*
X214334Y127632D01*
X215780Y125747D01*
X217665Y124301D01*
X219860Y123392D01*
X222216Y123082D01*
X224572Y123392D01*
X226767Y124301D01*
X228652Y125747D01*
X230099Y127632D01*
X231008Y129828D01*
X231318Y132183D01*
X231008Y134539D01*
X230099Y136734D01*
X228652Y138619D01*
X226767Y140066D01*
X224572Y140975D01*
X222216Y141285D01*
D02*
G37*
G36*
X435698Y72869D02*
X429468D01*
Y64049D01*
X438288D01*
Y70279D01*
X438090Y71270D01*
X437529Y72111D01*
X436689Y72672D01*
X435698Y72869D01*
D02*
G37*
G36*
X426928D02*
X420698D01*
X419707Y72672D01*
X418867Y72111D01*
X418305Y71270D01*
X418108Y70279D01*
Y64049D01*
X426928D01*
Y72869D01*
D02*
G37*
G36*
Y61509D02*
X418108D01*
Y55279D01*
X418305Y54288D01*
X418867Y53448D01*
X419707Y52887D01*
X420698Y52690D01*
X426928D01*
Y61509D01*
D02*
G37*
G36*
X274145Y59018D02*
X272380Y58667D01*
X270884Y57667D01*
X269884Y56171D01*
X269533Y54405D01*
X269884Y52640D01*
X270884Y51144D01*
X272380Y50144D01*
X274145Y49793D01*
X275910Y50144D01*
X277407Y51144D01*
X278407Y52640D01*
X278758Y54405D01*
X278407Y56171D01*
X277407Y57667D01*
X275910Y58667D01*
X274145Y59018D01*
D02*
G37*
G36*
X262145D02*
X260380Y58667D01*
X258884Y57667D01*
X257884Y56171D01*
X257533Y54405D01*
X257884Y52640D01*
X258884Y51144D01*
X260380Y50144D01*
X262145Y49793D01*
X263910Y50144D01*
X265407Y51144D01*
X266407Y52640D01*
X266758Y54405D01*
X266407Y56171D01*
X265407Y57667D01*
X263910Y58667D01*
X262145Y59018D01*
D02*
G37*
G36*
X250145D02*
X248380Y58667D01*
X246884Y57667D01*
X245884Y56171D01*
X245533Y54405D01*
X245884Y52640D01*
X246884Y51144D01*
X248380Y50144D01*
X250145Y49793D01*
X251910Y50144D01*
X253407Y51144D01*
X254407Y52640D01*
X254758Y54405D01*
X254407Y56171D01*
X253407Y57667D01*
X251910Y58667D01*
X250145Y59018D01*
D02*
G37*
G36*
X226145D02*
X224380Y58667D01*
X222884Y57667D01*
X221884Y56171D01*
X221533Y54405D01*
X221884Y52640D01*
X222884Y51144D01*
X224380Y50144D01*
X226145Y49793D01*
X227910Y50144D01*
X229407Y51144D01*
X230407Y52640D01*
X230758Y54405D01*
X230407Y56171D01*
X229407Y57667D01*
X227910Y58667D01*
X226145Y59018D01*
D02*
G37*
G36*
X245415Y49801D02*
Y45675D01*
X249541D01*
X249364Y46567D01*
X248139Y48399D01*
X246307Y49624D01*
X245415Y49801D01*
D02*
G37*
G36*
X268145Y49018D02*
X266380Y48667D01*
X264884Y47667D01*
X263884Y46171D01*
X263533Y44405D01*
X263884Y42640D01*
X264884Y41144D01*
X266380Y40144D01*
X268145Y39793D01*
X269911Y40144D01*
X271407Y41144D01*
X272407Y42640D01*
X272758Y44405D01*
X272407Y46171D01*
X271407Y47667D01*
X269911Y48667D01*
X268145Y49018D01*
D02*
G37*
G36*
X256145D02*
X254380Y48667D01*
X252884Y47667D01*
X251884Y46171D01*
X251533Y44405D01*
X251884Y42640D01*
X252884Y41144D01*
X254380Y40144D01*
X256145Y39793D01*
X257910Y40144D01*
X259407Y41144D01*
X260407Y42640D01*
X260758Y44405D01*
X260407Y46171D01*
X259407Y47667D01*
X257910Y48667D01*
X256145Y49018D01*
D02*
G37*
G36*
X249541Y43135D02*
X245415D01*
Y39009D01*
X246307Y39187D01*
X248139Y40411D01*
X249364Y42244D01*
X249541Y43135D01*
D02*
G37*
G36*
X238145Y59018D02*
X236380Y58667D01*
X234884Y57667D01*
X233884Y56171D01*
X233533Y54405D01*
X233884Y52640D01*
X234884Y51144D01*
X235572Y50684D01*
Y37627D01*
X234884Y37167D01*
X233884Y35670D01*
X233533Y33905D01*
X233884Y32140D01*
X234884Y30644D01*
X236380Y29644D01*
X238145Y29293D01*
X239910Y29644D01*
X241407Y30644D01*
X242407Y32140D01*
X242758Y33905D01*
X242407Y35670D01*
X241407Y37167D01*
X240876Y37521D01*
X240902Y38574D01*
X241571Y38953D01*
X242012Y39181D01*
X242875Y39009D01*
Y44405D01*
Y49801D01*
X242786Y49783D01*
X241468Y50660D01*
X241442Y50712D01*
X241408Y51134D01*
X241434Y51184D01*
X242407Y52640D01*
X242758Y54405D01*
X242407Y56171D01*
X241407Y57667D01*
X239910Y58667D01*
X238145Y59018D01*
D02*
G37*
G36*
X358370Y95540D02*
X353816Y95182D01*
X349373Y94115D01*
X345153Y92367D01*
X341257Y89980D01*
X337784Y87013D01*
X334817Y83539D01*
X332430Y79644D01*
X330681Y75423D01*
X329615Y70981D01*
X329256Y66426D01*
X329615Y61872D01*
X330681Y57430D01*
X332430Y53209D01*
X334817Y49314D01*
X337784Y45840D01*
X341257Y42873D01*
X345153Y40486D01*
X349373Y38737D01*
X353816Y37671D01*
X358370Y37313D01*
X362924Y37671D01*
X367367Y38737D01*
X371587Y40486D01*
X375483Y42873D01*
X378956Y45840D01*
X381923Y49314D01*
X384310Y53209D01*
X386059Y57430D01*
X387125Y61872D01*
X387484Y66426D01*
X387125Y70981D01*
X386059Y75423D01*
X384310Y79644D01*
X381923Y83539D01*
X378956Y87013D01*
X375483Y89980D01*
X371587Y92367D01*
X367367Y94115D01*
X362924Y95182D01*
X358370Y95540D01*
D02*
G37*
G36*
X250145Y38518D02*
X248380Y38167D01*
X246884Y37167D01*
X245884Y35670D01*
X245533Y33905D01*
X245884Y32140D01*
X246884Y30644D01*
X248380Y29644D01*
X250145Y29293D01*
X251910Y29644D01*
X253407Y30644D01*
X254407Y32140D01*
X254758Y33905D01*
X254407Y35670D01*
X253407Y37167D01*
X251910Y38167D01*
X250145Y38518D01*
D02*
G37*
G36*
X226145D02*
X224380Y38167D01*
X222884Y37167D01*
X221884Y35670D01*
X221533Y33905D01*
X221884Y32140D01*
X222884Y30644D01*
X224380Y29644D01*
X226145Y29293D01*
X227910Y29644D01*
X229407Y30644D01*
X230407Y32140D01*
X230758Y33905D01*
X230407Y35670D01*
X229407Y37167D01*
X227910Y38167D01*
X226145Y38518D01*
D02*
G37*
G36*
X245415Y29301D02*
Y25175D01*
X249541D01*
X249364Y26067D01*
X248139Y27899D01*
X246307Y29124D01*
X245415Y29301D01*
D02*
G37*
G36*
X242875D02*
X241984Y29124D01*
X240151Y27899D01*
X238927Y26067D01*
X238749Y25175D01*
X242875D01*
Y29301D01*
D02*
G37*
G36*
X249541Y22635D02*
X245415D01*
Y18509D01*
X246307Y18687D01*
X248139Y19911D01*
X249364Y21744D01*
X249541Y22635D01*
D02*
G37*
G36*
X242875D02*
X238749D01*
X238927Y21744D01*
X240151Y19911D01*
X241984Y18687D01*
X242875Y18509D01*
Y22635D01*
D02*
G37*
%LPD*%
G36*
X282068Y427369D02*
X281492Y426672D01*
X281258Y426327D01*
X281060Y425984D01*
X280898Y425644D01*
X280772Y425305D01*
X280682Y424969D01*
X280628Y424636D01*
X280609Y424304D01*
X278610D01*
X278591Y424636D01*
X278538Y424969D01*
X278448Y425305D01*
X278321Y425644D01*
X278160Y425984D01*
X277962Y426327D01*
X277728Y426672D01*
X277458Y427019D01*
X277152Y427369D01*
X276810Y427720D01*
X282409D01*
X282068Y427369D01*
D02*
G37*
G36*
X291592Y426996D02*
X291016Y426299D01*
X290782Y425954D01*
X290584Y425611D01*
X290422Y425271D01*
X290296Y424933D01*
X290206Y424596D01*
X290152Y424263D01*
X290134Y423931D01*
X288134D01*
X288116Y424263D01*
X288062Y424596D01*
X287972Y424933D01*
X287846Y425271D01*
X287684Y425611D01*
X287486Y425954D01*
X287252Y426299D01*
X286982Y426646D01*
X286676Y426996D01*
X286334Y427347D01*
X291934D01*
X291592Y426996D01*
D02*
G37*
G36*
X285127Y426257D02*
X285151Y426198D01*
X285463Y425877D01*
X285709Y425596D01*
X285917Y425329D01*
X286087Y425078D01*
X286222Y424843D01*
X286325Y424627D01*
X286399Y424430D01*
X286447Y424250D01*
X286473Y424086D01*
X286487Y423842D01*
X286560Y423688D01*
Y376822D01*
X286487Y376668D01*
X286474Y376425D01*
X286447Y376258D01*
X286398Y376074D01*
X286324Y375870D01*
X286221Y375645D01*
X286085Y375402D01*
X285927Y375160D01*
X285446Y374553D01*
X285154Y374235D01*
X285093Y374071D01*
X284916Y373807D01*
X284033Y373768D01*
X283478Y373940D01*
X283277Y374137D01*
X283030Y374406D01*
X282822Y374662D01*
X282653Y374903D01*
X282519Y375128D01*
X282417Y375336D01*
X282344Y375526D01*
X282297Y375701D01*
X282270Y375863D01*
X282257Y376108D01*
X282183Y376262D01*
Y424061D01*
X282257Y424215D01*
X282270Y424459D01*
X282297Y424623D01*
X282345Y424803D01*
X282418Y425000D01*
X282521Y425216D01*
X282656Y425450D01*
X282813Y425681D01*
X283297Y426266D01*
X283473Y426448D01*
X284205Y426630D01*
X284878D01*
X285127Y426257D01*
D02*
G37*
G36*
X290152Y376301D02*
X290207Y375966D01*
X290299Y375630D01*
X290427Y375295D01*
X290591Y374958D01*
X290792Y374621D01*
X291030Y374283D01*
X291305Y373945D01*
X291616Y373606D01*
X291963Y373266D01*
X286365Y373116D01*
X286701Y373480D01*
X287267Y374196D01*
X287497Y374548D01*
X287692Y374896D01*
X287851Y375241D01*
X287975Y375581D01*
X288063Y375918D01*
X288116Y376250D01*
X288134Y376579D01*
X290134Y376635D01*
X290152Y376301D01*
D02*
G37*
G36*
X280628Y375684D02*
X280683Y375349D01*
X280774Y375014D01*
X280902Y374678D01*
X281067Y374341D01*
X281268Y374004D01*
X281506Y373666D01*
X281780Y373328D01*
X282092Y372989D01*
X282439Y372649D01*
X276841Y372500D01*
X277177Y372863D01*
X277743Y373579D01*
X277973Y373931D01*
X278167Y374280D01*
X278327Y374624D01*
X278450Y374964D01*
X278539Y375301D01*
X278592Y375634D01*
X278610Y375963D01*
X280609Y376018D01*
X280628Y375684D01*
D02*
G37*
G36*
X221606Y337186D02*
X222686Y335282D01*
X222887Y334991D01*
X223277Y334501D01*
X223464Y334301D01*
X222844Y332093D01*
X222574Y332335D01*
X222293Y332530D01*
X222003Y332678D01*
X221702Y332780D01*
X221390Y332836D01*
X221068Y332845D01*
X220737Y332808D01*
X220394Y332724D01*
X220042Y332593D01*
X219679Y332416D01*
X221376Y337657D01*
X221606Y337186D01*
D02*
G37*
G36*
X225942Y322155D02*
X225808Y321807D01*
X225721Y321469D01*
X225680Y321141D01*
X225687Y320823D01*
X225741Y320514D01*
X225842Y320214D01*
X225990Y319924D01*
X226186Y319644D01*
X226428Y319374D01*
X224185Y318788D01*
X223983Y318979D01*
X223752Y319173D01*
X223204Y319576D01*
X222888Y319785D01*
X221767Y320436D01*
X220877Y320893D01*
X226123Y322512D01*
X225942Y322155D01*
D02*
G37*
G36*
X258729Y302136D02*
X258377Y302478D01*
X257681Y303054D01*
X257336Y303288D01*
X256993Y303486D01*
X256652Y303648D01*
X256314Y303774D01*
X255978Y303864D01*
X255644Y303918D01*
X255313Y303936D01*
Y305936D01*
X255644Y305954D01*
X255978Y306008D01*
X256314Y306098D01*
X256652Y306224D01*
X256993Y306386D01*
X257336Y306584D01*
X257681Y306818D01*
X258028Y307088D01*
X258377Y307394D01*
X258729Y307736D01*
Y302136D01*
D02*
G37*
G36*
X262928Y292750D02*
X262577Y293092D01*
X261880Y293668D01*
X261535Y293902D01*
X261192Y294100D01*
X260851Y294262D01*
X260513Y294388D01*
X260177Y294478D01*
X259843Y294532D01*
X259512Y294550D01*
Y296550D01*
X259843Y296568D01*
X260177Y296622D01*
X260513Y296712D01*
X260851Y296838D01*
X261192Y297000D01*
X261535Y297198D01*
X261880Y297432D01*
X262227Y297702D01*
X262577Y298008D01*
X262928Y298350D01*
Y292750D01*
D02*
G37*
G36*
X212133Y274384D02*
X211955Y274198D01*
X211670Y273855D01*
X211563Y273697D01*
X211479Y273547D01*
X211419Y273407D01*
X211383Y273276D01*
X211370Y273154D01*
X211381Y273041D01*
X211416Y272937D01*
X209210Y274988D01*
X209317Y274962D01*
X209433Y274959D01*
X209559Y274980D01*
X209695Y275025D01*
X209841Y275094D01*
X209997Y275187D01*
X210162Y275304D01*
X210338Y275445D01*
X210719Y275798D01*
X212133Y274384D01*
D02*
G37*
G36*
X234108Y269823D02*
X235188Y267919D01*
X235390Y267628D01*
X235779Y267138D01*
X235966Y266938D01*
X235346Y264729D01*
X235076Y264971D01*
X234796Y265166D01*
X234505Y265315D01*
X234204Y265417D01*
X233892Y265473D01*
X233571Y265482D01*
X233239Y265444D01*
X232897Y265360D01*
X232544Y265230D01*
X232181Y265053D01*
X233878Y270294D01*
X234108Y269823D01*
D02*
G37*
G36*
X193856Y239402D02*
X193979Y238624D01*
X194158Y237938D01*
X194393Y237344D01*
X194684Y236841D01*
X195030Y236429D01*
X195433Y236109D01*
X195891Y235881D01*
X196406Y235743D01*
X196976Y235698D01*
X196373Y234168D01*
X196245Y234152D01*
X193134Y233595D01*
X187682Y232576D01*
X193788Y240270D01*
X193856Y239402D01*
D02*
G37*
G36*
X210469Y226384D02*
X212779Y224366D01*
X213461Y223872D01*
X214100Y223468D01*
X214694Y223155D01*
X215245Y222930D01*
X215753Y222796D01*
X216217Y222751D01*
Y221221D01*
X215753Y221176D01*
X215245Y221042D01*
X214694Y220817D01*
X214100Y220503D01*
X213461Y220100D01*
X212779Y219606D01*
X211283Y218351D01*
X210469Y217588D01*
X209612Y216736D01*
Y227236D01*
X210469Y226384D01*
D02*
G37*
G36*
X278205Y210501D02*
X278279Y209505D01*
X278348Y209062D01*
X278439Y208654D01*
X278551Y208283D01*
X278685Y207948D01*
X278840Y207649D01*
X279016Y207387D01*
X279214Y207160D01*
X278132Y206078D01*
X277906Y206276D01*
X277643Y206452D01*
X277344Y206607D01*
X277009Y206741D01*
X276638Y206853D01*
X276230Y206944D01*
X275787Y207013D01*
X275307Y207061D01*
X274240Y207092D01*
X278200Y211052D01*
X278205Y210501D01*
D02*
G37*
G36*
X262511Y201271D02*
X262117Y201658D01*
X261361Y202309D01*
X260998Y202574D01*
X260646Y202798D01*
X260304Y202981D01*
X259973Y203123D01*
X259652Y203225D01*
X259342Y203286D01*
X259041Y203306D01*
Y204836D01*
X259342Y204857D01*
X259652Y204918D01*
X259973Y205019D01*
X260304Y205162D01*
X260646Y205345D01*
X260998Y205569D01*
X261361Y205833D01*
X261734Y206139D01*
X262511Y206871D01*
Y201271D01*
D02*
G37*
G36*
X268163Y190375D02*
X267770Y190762D01*
X267013Y191413D01*
X266651Y191678D01*
X266299Y191902D01*
X265957Y192085D01*
X265625Y192227D01*
X265304Y192329D01*
X264994Y192390D01*
X264694Y192410D01*
Y193940D01*
X264994Y193961D01*
X265304Y194022D01*
X265625Y194123D01*
X265957Y194266D01*
X266299Y194449D01*
X266651Y194673D01*
X267013Y194937D01*
X267386Y195243D01*
X268163Y195975D01*
Y190375D01*
D02*
G37*
G36*
X272437Y179270D02*
X272043Y179656D01*
X271287Y180307D01*
X270924Y180572D01*
X270572Y180796D01*
X270231Y180979D01*
X269899Y181121D01*
X269578Y181223D01*
X269268Y181284D01*
X268967Y181304D01*
Y182834D01*
X269268Y182855D01*
X269578Y182916D01*
X269899Y183018D01*
X270231Y183160D01*
X270572Y183343D01*
X270924Y183567D01*
X271287Y183832D01*
X271660Y184137D01*
X272437Y184869D01*
Y179270D01*
D02*
G37*
G36*
X307984Y164704D02*
X307633Y165046D01*
X306936Y165622D01*
X306591Y165856D01*
X306248Y166054D01*
X305907Y166216D01*
X305569Y166342D01*
X305233Y166432D01*
X304899Y166486D01*
X304568Y166504D01*
Y168504D01*
X304899Y168522D01*
X305233Y168576D01*
X305569Y168666D01*
X305907Y168792D01*
X306248Y168954D01*
X306591Y169152D01*
X306936Y169386D01*
X307283Y169656D01*
X307633Y169962D01*
X307984Y170304D01*
Y164704D01*
D02*
G37*
G36*
X317994Y157319D02*
X317637Y157658D01*
X316930Y158229D01*
X316582Y158461D01*
X316236Y158658D01*
X315894Y158818D01*
X315554Y158943D01*
X315218Y159032D01*
X314885Y159086D01*
X314554Y159104D01*
X314527Y161104D01*
X314860Y161122D01*
X315194Y161176D01*
X315529Y161267D01*
X315867Y161394D01*
X316205Y161558D01*
X316545Y161757D01*
X316887Y161993D01*
X317229Y162265D01*
X317574Y162574D01*
X317919Y162919D01*
X317994Y157319D01*
D02*
G37*
G36*
X326392Y150617D02*
X326185Y151000D01*
X325961Y151342D01*
X325721Y151645D01*
X325465Y151907D01*
X325193Y152129D01*
X324904Y152311D01*
X324599Y152452D01*
X324278Y152553D01*
X323941Y152613D01*
X323587Y152633D01*
X324270Y154633D01*
X324552Y154646D01*
X324858Y154685D01*
X325186Y154751D01*
X325538Y154842D01*
X326312Y155103D01*
X326734Y155272D01*
X328138Y155937D01*
X326392Y150617D01*
D02*
G37*
G36*
X333556Y146449D02*
X333779Y146295D01*
X334013Y146178D01*
X334257Y146097D01*
X334512Y146052D01*
X334778Y146043D01*
X335055Y146070D01*
X335342Y146134D01*
X335639Y146233D01*
X335948Y146368D01*
X333729Y142330D01*
X333674Y142719D01*
X333599Y143093D01*
X333504Y143452D01*
X333388Y143797D01*
X333251Y144126D01*
X333094Y144442D01*
X332917Y144742D01*
X332719Y145028D01*
X332500Y145300D01*
X332261Y145556D01*
X333343Y146638D01*
X333556Y146449D01*
D02*
G37*
G36*
X289814Y291379D02*
X289162Y290622D01*
X288897Y290259D01*
X288673Y289907D01*
X288490Y289565D01*
X288347Y289234D01*
X288245Y288913D01*
X288184Y288603D01*
X288164Y288313D01*
X288183Y288033D01*
X288242Y287728D01*
X288340Y287406D01*
X288477Y287070D01*
X288652Y286717D01*
X288868Y286349D01*
X289122Y285966D01*
X289748Y285152D01*
X290119Y284722D01*
X284532Y285093D01*
X284932Y285452D01*
X285607Y286153D01*
X285881Y286494D01*
X286113Y286831D01*
X286302Y287161D01*
X286450Y287486D01*
X286555Y287805D01*
X286618Y288118D01*
X286635Y288365D01*
X286619Y288603D01*
X286558Y288913D01*
X286456Y289234D01*
X286313Y289565D01*
X286130Y289907D01*
X285906Y290259D01*
X285641Y290622D01*
X285335Y290995D01*
X284601Y291773D01*
X290201D01*
X289814Y291379D01*
D02*
G37*
D10*
X279610Y369719D02*
Y430577D01*
X289134Y370229D02*
Y430204D01*
X238145Y33905D02*
Y53905D01*
X296025Y154285D02*
X309721D01*
X285835Y164476D02*
X296025Y154285D01*
X310373Y153633D02*
X328732D01*
X309721Y154285D02*
X310373Y153633D01*
X328732D02*
X329979Y152386D01*
X232923Y268567D02*
X285835Y215655D01*
X232972Y275091D02*
X289835Y218228D01*
Y167872D02*
X297603Y160104D01*
X235661Y278615D02*
X293629Y220646D01*
Y172415D02*
X298540Y167504D01*
X297937Y178550D02*
X301136Y175351D01*
X230270Y268567D02*
X232923D01*
X224664Y278615D02*
X235661D01*
X289134Y370229D02*
X289241Y370336D01*
X288758Y369853D02*
X289134Y370229D01*
X329979Y152386D02*
X330119Y152526D01*
X320813Y160157D02*
X321070Y159901D01*
X301136Y175351D02*
X301317Y175170D01*
X320760Y160104D02*
X320813Y160157D01*
X297603Y160104D02*
X320760D01*
X298540Y167504D02*
X310841D01*
X207789Y271454D02*
X211426Y275091D01*
X207789Y271249D02*
Y271454D01*
X204989Y293902D02*
X209377D01*
X224664Y278615D01*
X211426Y275091D02*
X232972D01*
X361070Y127600D02*
Y133495D01*
X217767Y335930D02*
X220420D01*
X251415Y304936D01*
X248838Y295550D02*
X265785D01*
X222642Y321745D02*
Y324482D01*
Y321745D02*
X248838Y295550D01*
X251415Y304936D02*
X261586D01*
X293629Y172415D02*
Y220646D01*
X289835Y167872D02*
Y218228D01*
X285835Y164476D02*
Y215655D01*
X297937Y178550D02*
Y222195D01*
X232488Y285471D02*
X234661D01*
X297937Y222195D01*
D50*
X335894Y340584D02*
X335913Y340565D01*
X230320Y97135D02*
Y97813D01*
X239478Y106971D01*
X335894Y340584D02*
Y389209D01*
X334866D02*
X335894D01*
X313731Y410344D02*
X334866Y389209D01*
X313731Y410344D02*
Y447637D01*
X361070Y305400D02*
X374122Y292348D01*
X393498D01*
X402096Y283750D01*
X334655Y331815D02*
X361070Y305400D01*
X334655Y331815D02*
X334699Y331859D01*
X333415Y333142D02*
X334699Y331859D01*
X333415Y333142D02*
Y338068D01*
X335913Y340565D01*
X402096Y63481D02*
X402798Y62779D01*
X311402Y115149D02*
X314672D01*
X402048D01*
X402096Y115198D01*
Y63481D02*
Y115198D01*
Y283750D01*
X239478Y106971D02*
X303224D01*
X311402Y115149D01*
X201720Y97135D02*
X230320D01*
X190831Y108024D02*
X201720Y97135D01*
X144330Y108024D02*
X190831D01*
X143627Y107322D02*
X144330Y108024D01*
D53*
X284382Y282255D02*
X287402Y285275D01*
X284382Y282255D02*
X284580Y282057D01*
X287136D01*
X287402Y285275D02*
Y294630D01*
D54*
X336009Y142890D02*
X337597D01*
X332802Y146097D02*
X336009Y142890D01*
X313258Y146097D02*
X332802D01*
X308358Y150996D02*
X313258Y146097D01*
X294303Y150996D02*
X308358D01*
X282245Y163053D02*
X294303Y150996D01*
X274200Y211092D02*
X282245Y203047D01*
X248611Y204071D02*
X265368D01*
X222216Y204025D02*
X231474D01*
X186295Y239946D02*
X191309Y234933D01*
X217749D01*
X248611Y204071D01*
X204256Y221986D02*
X222833D01*
X231474Y204025D02*
X253430Y182069D01*
X251644Y193175D02*
X271020D01*
X222833Y221986D02*
X251644Y193175D01*
X282245Y163053D02*
Y203047D01*
X253430Y182069D02*
X275294D01*
D56*
X262145Y54405D02*
D03*
X274145D02*
D03*
X256145Y44405D02*
D03*
X244145D02*
D03*
X250145Y54405D02*
D03*
X238145D02*
D03*
X226145D02*
D03*
X268145Y44405D02*
D03*
X226145Y33905D02*
D03*
X244145Y23905D02*
D03*
X250145Y33905D02*
D03*
X238145D02*
D03*
D57*
X258137Y491394D02*
D03*
X240177Y509354D02*
D03*
X60571Y401591D02*
D03*
X96493D02*
D03*
X78532Y419552D02*
D03*
X114453D02*
D03*
X96493Y437512D02*
D03*
X132414D02*
D03*
X114453Y455473D02*
D03*
X150374D02*
D03*
X132414Y473433D02*
D03*
X168335D02*
D03*
X150374Y491394D02*
D03*
X186295D02*
D03*
X168335Y509354D02*
D03*
X240177Y365670D02*
D03*
X222216Y383630D02*
D03*
X204256Y401591D02*
D03*
X186295Y419552D02*
D03*
X114453Y347710D02*
D03*
X132414Y329749D02*
D03*
X150374Y311789D02*
D03*
X168335Y293828D02*
D03*
X222216Y204025D02*
D03*
X204256Y221986D02*
D03*
X186295Y239946D02*
D03*
X168335Y186065D02*
D03*
X150374Y204025D02*
D03*
X132414Y221986D02*
D03*
X240177Y150144D02*
D03*
X222216Y132183D02*
D03*
X204256Y114223D02*
D03*
X186295Y96262D02*
D03*
X402798Y62779D02*
D03*
D58*
X78532Y383630D02*
D03*
D59*
X386470Y203800D02*
D03*
X361070D02*
D03*
Y432400D02*
D03*
X386470D02*
D03*
Y330800D02*
D03*
X361065D02*
D03*
D60*
X386470Y178400D02*
D03*
Y153000D02*
D03*
Y127600D02*
D03*
X361070Y178400D02*
D03*
Y153000D02*
D03*
Y127600D02*
D03*
Y407000D02*
D03*
Y381600D02*
D03*
Y356200D02*
D03*
X386470Y407000D02*
D03*
Y381600D02*
D03*
Y356200D02*
D03*
Y229200D02*
D03*
Y254600D02*
D03*
Y280000D02*
D03*
Y305400D02*
D03*
X361070Y229200D02*
D03*
Y254600D02*
D03*
Y280000D02*
D03*
Y305400D02*
D03*
D61*
X358374Y493574D02*
D03*
X358370Y66426D02*
D03*
X52500Y280000D02*
D03*
D62*
X428198Y62779D02*
D03*
D63*
X230320Y97135D02*
D03*
X310991Y131573D02*
D03*
X298839Y118655D02*
D03*
X305753Y144707D02*
D03*
X337704Y142774D02*
D03*
X274200Y211092D02*
D03*
X420000Y500000D02*
D03*
X400000D02*
D03*
X390000Y520000D02*
D03*
X340000Y540000D02*
D03*
Y20000D02*
D03*
X320000Y540000D02*
D03*
X330000Y520000D02*
D03*
X320000Y500000D02*
D03*
X300000Y540000D02*
D03*
X310000Y520000D02*
D03*
X300000Y500000D02*
D03*
X310000Y480000D02*
D03*
X280000Y540000D02*
D03*
X290000Y520000D02*
D03*
X280000Y500000D02*
D03*
X290000Y480000D02*
D03*
X260000Y540000D02*
D03*
X270000Y520000D02*
D03*
Y360000D02*
D03*
X240000Y540000D02*
D03*
Y460000D02*
D03*
X250000Y440000D02*
D03*
Y400000D02*
D03*
X220000Y540000D02*
D03*
Y500000D02*
D03*
X230000Y480000D02*
D03*
X220000Y460000D02*
D03*
X230000Y440000D02*
D03*
X210000Y520000D02*
D03*
X200000Y500000D02*
D03*
X210000Y480000D02*
D03*
X200000Y460000D02*
D03*
X210000Y440000D02*
D03*
X190000Y520000D02*
D03*
Y440000D02*
D03*
X160000Y100000D02*
D03*
X170000Y80000D02*
D03*
X160000Y60000D02*
D03*
X150000Y280000D02*
D03*
Y240000D02*
D03*
Y80000D02*
D03*
X140000Y60000D02*
D03*
X120000Y260000D02*
D03*
X130000Y240000D02*
D03*
X110000Y480000D02*
D03*
X100000Y260000D02*
D03*
X110000Y240000D02*
D03*
X100000Y220000D02*
D03*
X80000Y460000D02*
D03*
X90000Y280000D02*
D03*
Y240000D02*
D03*
X80000Y220000D02*
D03*
X70000Y440000D02*
D03*
X60000Y420000D02*
D03*
X70000Y240000D02*
D03*
X60000Y220000D02*
D03*
X70000Y200000D02*
D03*
X40000Y380000D02*
D03*
Y340000D02*
D03*
X50000Y320000D02*
D03*
Y240000D02*
D03*
X40000Y220000D02*
D03*
X50000Y200000D02*
D03*
X40000Y180000D02*
D03*
X30000Y360000D02*
D03*
X20000Y340000D02*
D03*
X30000Y320000D02*
D03*
X20000Y300000D02*
D03*
Y260000D02*
D03*
X30000Y240000D02*
D03*
X20000Y220000D02*
D03*
X30000Y200000D02*
D03*
X373649Y218413D02*
D03*
X373765Y189872D02*
D03*
X373652Y166180D02*
D03*
X373878Y140683D02*
D03*
X393733Y86869D02*
D03*
X348867Y276853D02*
D03*
X336998Y290336D02*
D03*
X265348Y214681D02*
D03*
X270671Y348431D02*
D03*
X220508Y399805D02*
D03*
X208108Y415283D02*
D03*
X117105Y301902D02*
D03*
X187667Y265915D02*
D03*
X142694Y357752D02*
D03*
X289241Y370336D02*
D03*
X279716Y369719D02*
D03*
X279610Y430577D02*
D03*
X289134Y430204D02*
D03*
X335894Y389209D02*
D03*
X313731Y447637D02*
D03*
X166339Y231752D02*
D03*
X204059Y175907D02*
D03*
X265368Y204071D02*
D03*
X116855Y392736D02*
D03*
X106279Y380333D02*
D03*
X279321Y259344D02*
D03*
X347921Y217210D02*
D03*
X299645Y347121D02*
D03*
X271020Y193175D02*
D03*
X272096Y167083D02*
D03*
X301136Y175351D02*
D03*
X320813Y160157D02*
D03*
X329979Y152386D02*
D03*
X287136Y282057D02*
D03*
X287402Y294630D02*
D03*
X310841Y167504D02*
D03*
X207789Y271249D02*
D03*
X204989Y293902D02*
D03*
X230270Y268567D02*
D03*
X232488Y285471D02*
D03*
X156971Y338408D02*
D03*
X189918Y210307D02*
D03*
X261586Y304936D02*
D03*
X265785Y295550D02*
D03*
X279000Y299697D02*
D03*
X222642Y324482D02*
D03*
X217767Y335930D02*
D03*
X333415Y338068D02*
D03*
X266019Y154181D02*
D03*
X275294Y182069D02*
D03*
X94509Y88201D02*
D03*
X38300Y167376D02*
D03*
X224435Y111349D02*
D03*
X247629Y129959D02*
D03*
X280154Y88734D02*
D03*
X314672Y115149D02*
D03*
X143627Y107322D02*
D03*
X79470Y131885D02*
D03*
M02*
