G04*
G04 #@! TF.GenerationSoftware,Altium Limited,Altium Designer,25.1.2 (22)*
G04*
G04 Layer_Color=65535*
%FSLAX44Y44*%
%MOMM*%
G71*
G04*
G04 #@! TF.SameCoordinates,BCEF5572-1F7E-4207-9204-8C5AED3481CC*
G04*
G04*
G04 #@! TF.FilePolarity,Positive*
G04*
G01*
G75*
%ADD10C,0.2000*%
%ADD11C,0.6000*%
%ADD12C,0.2500*%
%ADD13C,0.1000*%
%ADD14C,0.1500*%
%ADD15C,0.1270*%
%ADD16C,0.2032*%
D10*
X404020Y204103D02*
G03*
X404020Y204103I-1000J0D01*
G01*
X344374Y204729D02*
G03*
X344374Y204729I-1000J0D01*
G01*
X362070Y454150D02*
G03*
X362070Y454150I-1000J0D01*
G01*
X387470D02*
G03*
X387470Y454150I-1000J0D01*
G01*
X403988Y332508D02*
G03*
X403988Y332508I-1000J0D01*
G01*
X342581Y339596D02*
G03*
X342581Y339596I-1000J0D01*
G01*
X195995Y71658D02*
G03*
X195995Y71658I-1000J0D01*
G01*
X58966Y152091D02*
G03*
X58966Y152091I-254J0D01*
G01*
X349020Y216709D02*
X373120D01*
X222216Y509354D02*
X240177Y527315D01*
X276098Y491394D01*
X258137Y473433D02*
X276098Y491394D01*
X222216Y509354D02*
X258137Y473433D01*
X168335Y527315D02*
X204256Y491394D01*
X42611Y401591D02*
X78532Y365670D01*
X42611Y401591D02*
X168335Y527315D01*
X78532Y365670D02*
X204256Y491394D01*
X168335Y419552D02*
X186295Y437512D01*
X258137Y365670D01*
X168335Y419552D02*
X240177Y347710D01*
X258137Y365670D01*
X168335Y275867D02*
X186295Y293828D01*
X96493Y347710D02*
X168335Y275867D01*
X114453Y365670D02*
X186295Y293828D01*
X96493Y347710D02*
X114453Y365670D01*
X374420Y112350D02*
X398520D01*
Y219050D01*
X374420Y112350D02*
Y219050D01*
X349020Y112350D02*
X373120D01*
Y219050D01*
X349020Y112350D02*
Y219050D01*
Y447650D02*
X373120D01*
Y340950D02*
Y447650D01*
X349020Y340950D02*
Y447650D01*
X374420D02*
X398520D01*
Y340950D02*
Y447650D01*
X374420Y340950D02*
Y447650D01*
X219676Y277005D02*
X263517Y320845D01*
Y233164D02*
X307358Y277005D01*
X219676D02*
X263517Y233164D01*
Y320845D02*
X307358Y277005D01*
X374420Y216709D02*
Y343578D01*
X398520Y216709D02*
Y343578D01*
X374420Y216709D02*
X398520D01*
X374420Y343578D02*
X398520D01*
X349020Y216709D02*
Y343578D01*
X373120Y216709D02*
Y343578D01*
X349020D02*
X373120D01*
X186295Y257907D02*
X240177Y204025D01*
X168335Y239946D02*
X186295Y257907D01*
X168335Y239946D02*
X222216Y186065D01*
X240177Y204025D01*
X114453Y221986D02*
X132414Y239946D01*
X186295Y186065D01*
X168335Y168104D02*
X186295Y186065D01*
X114453Y221986D02*
X168335Y168104D01*
X168335Y96262D02*
X186295Y78302D01*
X168335Y96262D02*
X240177Y168104D01*
X186295Y78302D02*
X258137Y150144D01*
X240177Y168104D02*
X258137Y150144D01*
X390098Y50079D02*
X440898D01*
Y75479D01*
X390098D02*
X440898D01*
X390098Y50079D02*
Y75479D01*
D11*
X296215Y277005D02*
G03*
X296215Y277005I-3000J0D01*
G01*
D12*
X318154Y281954D02*
G03*
X318154Y281954I-1250J0D01*
G01*
X72744Y205247D02*
X66147Y198649D01*
Y211844D01*
X64497Y213494D01*
X61198D01*
X57900Y210195D01*
Y206896D01*
X76043Y208545D02*
X74394Y210195D01*
X76043Y211844D01*
X77692Y210195D01*
X76043Y208545D01*
Y225039D02*
Y228338D01*
X79342Y231637D01*
X82640D01*
X89238Y225039D01*
Y221740D01*
X85939Y218442D01*
X82640D01*
X76043Y225039D01*
X94186Y226689D02*
X92537Y228338D01*
X94186Y229987D01*
X95836Y228338D01*
X94186Y226689D01*
X99134Y251429D02*
X92537Y244832D01*
X97485Y239884D01*
X99134Y244832D01*
X100784Y246481D01*
X104082D01*
X107381Y243182D01*
Y239884D01*
X104082Y236585D01*
X100784D01*
X47267Y193732D02*
X57163Y190434D01*
X53865Y200330D01*
X29008Y190992D02*
X19112Y200888D01*
X25709D01*
X25709Y207486D01*
X35606Y197589D01*
X37255Y215733D02*
X33956D01*
X30658Y212434D01*
Y209135D01*
X37255Y202538D01*
X40554D01*
X43853Y205836D01*
Y209135D01*
X38905Y220681D02*
X47151Y212434D01*
X50450D01*
X53749Y215733D01*
Y219032D01*
X45502Y227278D01*
X68593Y230577D02*
X58697Y240473D01*
X63645Y245422D01*
X66944D01*
X70243Y242123D01*
Y238824D01*
X65295Y233876D01*
X76840Y255318D02*
X73541D01*
X70243Y252019D01*
Y248720D01*
X76840Y242123D01*
X80139D01*
X83438Y245422D01*
Y248720D01*
X78490Y260266D02*
X88386Y250370D01*
X93334Y255318D01*
Y258617D01*
X91685Y260266D01*
X88386Y260266D01*
X83438Y255318D01*
X88386Y260266D01*
Y263565D01*
X86737Y265214D01*
X83438D01*
X78490Y260266D01*
D13*
X52915Y174712D02*
G03*
X52915Y174712I-254J0D01*
G01*
X69952Y157566D02*
G03*
X69952Y157566I-254J0D01*
G01*
X86091Y141407D02*
G03*
X86091Y141407I-254J0D01*
G01*
X279395Y39155D02*
Y59655D01*
X220895Y39155D02*
X279395D01*
X220895D02*
Y59655D01*
X279395D01*
X255395Y18655D02*
Y39155D01*
X220895Y18655D02*
X255395D01*
X220895D02*
Y39155D01*
X255395D01*
X60515Y175479D02*
X62311Y173683D01*
X61833Y175001D02*
X64287Y175658D01*
X62491Y177454D02*
X64287Y175658D01*
X61833Y175001D02*
X62491Y177454D01*
X77553Y158333D02*
X79349Y156537D01*
X78871Y157855D02*
X81324Y158513D01*
X79528Y160309D02*
X81324Y158513D01*
X78871Y157855D02*
X79528Y160309D01*
X93692Y142173D02*
X95488Y140377D01*
X95010Y141695D02*
X97464Y142353D01*
X95668Y144149D02*
X97464Y142353D01*
X95010Y141695D02*
X95668Y144149D01*
X358909Y105775D02*
Y108275D01*
X347909Y105775D02*
Y108275D01*
X349377Y100871D02*
Y103371D01*
X338377Y100871D02*
Y103371D01*
X339732Y95584D02*
Y98084D01*
X328732Y95584D02*
Y98084D01*
X277176Y420848D02*
Y423348D01*
X266176Y420848D02*
Y423348D01*
X344789Y151276D02*
Y153776D01*
X333789Y151276D02*
Y153776D01*
X335450Y158651D02*
Y161151D01*
X324450Y158651D02*
Y161151D01*
X325208Y308522D02*
X326976Y306754D01*
X332986Y316300D02*
X334754Y314532D01*
X327397Y318004D02*
X329164Y316237D01*
X335175Y325783D02*
X336942Y324015D01*
X298542Y368884D02*
X301042D01*
X298542Y379883D02*
X301042D01*
X315433Y379499D02*
X317933D01*
X315433Y390499D02*
X317933D01*
X340766Y128875D02*
X343266D01*
X340766Y139875D02*
X343266D01*
X326859Y296460D02*
X328627Y294693D01*
X319081Y288682D02*
X320849Y286915D01*
X330142Y306599D02*
X331909Y304831D01*
X322364Y298821D02*
X324131Y297053D01*
X382024Y454221D02*
Y456721D01*
X371025Y454221D02*
Y456721D01*
X372761Y460327D02*
Y462827D01*
X361761Y460327D02*
Y462827D01*
X279748Y375948D02*
Y378448D01*
X268748Y375948D02*
Y378448D01*
X278217Y380973D02*
Y383473D01*
X289217Y380973D02*
Y383473D01*
X286971Y415589D02*
Y418089D01*
X275971Y415589D02*
Y418089D01*
X314945Y166254D02*
Y168754D01*
X325945Y166254D02*
Y168754D01*
X316389Y173920D02*
Y176420D01*
X305389Y173920D02*
Y176420D01*
D14*
X226145Y46155D02*
X227645Y44655D01*
X224645D02*
X227645D01*
X224645D02*
X226145Y46155D01*
X226145Y25655D02*
X227645Y24155D01*
X224645D02*
X227645D01*
X224645D02*
X226145Y25655D01*
X100519Y463638D02*
X94864Y469293D01*
X104289Y467408D01*
X98634Y473063D01*
X105232Y477775D02*
X103347D01*
X101462Y475890D01*
X101462Y474005D01*
X105232Y470235D01*
X107117D01*
X109002Y472120D01*
X109002Y474005D01*
X117484Y480603D02*
X111829Y486258D01*
X121254Y484373D01*
X115599Y490028D01*
X122197Y494740D02*
X120312D01*
X118427Y492855D01*
X118427Y490970D01*
X122197Y487200D01*
X124082D01*
X125967Y489085D01*
X125967Y490970D01*
X253695Y383702D02*
X251810D01*
X249925Y381816D01*
X249925Y379931D01*
X250867Y378989D01*
X252752Y378989D01*
X254637Y380874D01*
X256522Y380874D01*
X257465Y379931D01*
X257465Y378046D01*
X255580Y376161D01*
X253695D01*
X254637Y386529D02*
X260292Y380874D01*
X263120Y383702D01*
X263120Y385587D01*
X259350Y389356D01*
X257465D01*
X254637Y386529D01*
X265947D02*
X262177Y390299D01*
Y394069D01*
X265947D01*
X269717Y390299D01*
X266890Y393127D01*
X263120Y389356D01*
X235700Y402007D02*
X233815D01*
X231930Y400122D01*
X231930Y398237D01*
X232872Y397295D01*
X234757Y397295D01*
X236642Y399179D01*
X238527Y399179D01*
X239470Y398237D01*
X239470Y396352D01*
X237585Y394467D01*
X235700D01*
X241355Y407662D02*
X239470D01*
X237585Y405777D01*
X237585Y403892D01*
X241355Y400122D01*
X243240D01*
X245125Y402007D01*
X245125Y403892D01*
X242297Y410490D02*
X247952Y404835D01*
X251722Y408605D01*
X183425Y312905D02*
X181540D01*
X179655Y311020D01*
X179655Y309135D01*
X180597Y308192D01*
X182482Y308192D01*
X184367Y310077D01*
X186252Y310077D01*
X187195Y309135D01*
X187195Y307250D01*
X185310Y305365D01*
X183425D01*
X184367Y315732D02*
X188137Y319502D01*
X186252Y317617D01*
X191908Y311962D01*
X193792Y325157D02*
X190023Y321387D01*
X195678Y315732D01*
X199447Y319502D01*
X192850Y318560D02*
X194735Y320445D01*
X164756Y329612D02*
X162871D01*
X160986Y327727D01*
X160986Y325842D01*
X164756Y322072D01*
X166641D01*
X168526Y323957D01*
X168526Y325842D01*
X165698Y332439D02*
X171353Y326784D01*
X175123Y330554D01*
X171353Y338094D02*
X177008Y332439D01*
X175123Y334324D01*
Y341864D01*
Y336209D01*
X180778Y336209D01*
X148433Y349134D02*
X146548D01*
X144663Y347249D01*
X144663Y345364D01*
X145605Y344422D01*
X147490Y344422D01*
X149375Y346307D01*
X151260Y346307D01*
X152203Y345364D01*
X152203Y343479D01*
X150318Y341594D01*
X148433D01*
X152203Y354789D02*
X150318Y352904D01*
X150318Y351019D01*
X154088Y347249D01*
X155973D01*
X157858Y349134D01*
X157858Y351019D01*
X154088Y354789D01*
X152203D01*
X160685Y351962D02*
X155030Y357617D01*
X158800D01*
Y361387D01*
X164455Y355732D01*
X160685Y363272D02*
X162570Y365157D01*
X161628Y364214D01*
X167283Y358559D01*
X166341Y357617D01*
X168225Y359502D01*
X128743Y364751D02*
X126858D01*
X124973Y362866D01*
X124973Y360981D01*
X125915Y360038D01*
X127800Y360038D01*
X129685Y361923D01*
X131570Y361923D01*
X132513Y360981D01*
X132513Y359096D01*
X130628Y357211D01*
X128743D01*
X129685Y367578D02*
X131570Y369463D01*
X130628Y368521D01*
X136283Y362866D01*
X135340Y361923D01*
X137225Y363808D01*
X140053Y366636D02*
X134398Y372291D01*
X138168D01*
Y376061D01*
X143823Y370406D01*
X142880Y380773D02*
X140995Y378888D01*
X140995Y377003D01*
X144765Y373233D01*
X146650D01*
X148535Y375118D01*
Y377003D01*
X144765Y380773D01*
X142880D01*
X185693Y196554D02*
X180362D01*
X185693Y201886D01*
Y203219D01*
X184360Y204552D01*
X181695D01*
X180362Y203219D01*
X188359Y196554D02*
Y197887D01*
X189692D01*
Y196554D01*
X188359D01*
X195023Y203219D02*
X196357Y204552D01*
X199022D01*
X200355Y203219D01*
Y197887D01*
X199022Y196554D01*
X196357D01*
X195023Y197887D01*
Y203219D01*
X168154Y214548D02*
X162822D01*
X168154Y219879D01*
Y221212D01*
X166821Y222545D01*
X164155D01*
X162822Y221212D01*
X170820Y214548D02*
Y215881D01*
X172153D01*
Y214548D01*
X170820D01*
X177484D02*
X180150D01*
X178817D01*
Y222545D01*
X177484Y221212D01*
X148912Y233647D02*
X143580D01*
X148912Y238979D01*
Y240312D01*
X147579Y241645D01*
X144913D01*
X143580Y240312D01*
X151578Y233647D02*
Y234980D01*
X152911D01*
Y233647D01*
X151578D01*
X163574D02*
X158242D01*
X163574Y238979D01*
Y240312D01*
X162241Y241645D01*
X159575D01*
X158242Y240312D01*
X279274Y502084D02*
X275504Y498313D01*
Y505854D01*
X274561Y506796D01*
X272676D01*
X270791Y504911D01*
X270791Y503026D01*
X281159Y503969D02*
X280216Y504911D01*
X281159Y505854D01*
X282101Y504911D01*
X281159Y503969D01*
X283986Y518106D02*
X280216Y514336D01*
X283044Y511509D01*
X283986Y514336D01*
X284929Y515279D01*
X286814D01*
X288699Y513394D01*
X288699Y511509D01*
X286814Y509623D01*
X284929D01*
X259732Y522564D02*
X255962Y518794D01*
Y526334D01*
X255019Y527276D01*
X253134D01*
X251249Y525391D01*
X251249Y523506D01*
X261617Y524449D02*
X260674Y525391D01*
X261617Y526334D01*
X262559Y525391D01*
X261617Y524449D01*
X269157Y531989D02*
X263502Y537644D01*
X263502Y531989D01*
X267272Y535759D01*
X122106Y400831D02*
X121164Y398004D01*
Y394234D01*
X123049Y392349D01*
X124934D01*
X126819Y394234D01*
X126819Y396119D01*
X125876Y397061D01*
X123991Y397061D01*
X121164Y394234D01*
X129646Y397061D02*
X128704Y398004D01*
X129646Y398946D01*
X130589Y398004D01*
X129646Y397061D01*
Y406487D02*
X129646Y408372D01*
X131531Y410257D01*
X133416D01*
X137186Y406487D01*
X137186Y404602D01*
X135301Y402716D01*
X133416D01*
X129646Y406487D01*
X142841Y415911D02*
X146611Y419682D01*
X155094Y433819D02*
X154151Y430992D01*
Y427222D01*
X156036Y425337D01*
X157921D01*
X159806Y427222D01*
Y429107D01*
X158864Y430049D01*
X156979Y430049D01*
X154151Y427222D01*
X162634Y430049D02*
X161691Y430992D01*
X162634Y431934D01*
X163576Y430992D01*
X162634Y430049D01*
X165461Y444187D02*
X164519Y441359D01*
Y437589D01*
X166404Y435704D01*
X168289D01*
X170174Y437589D01*
X170174Y439474D01*
X169231Y440417D01*
X167346Y440417D01*
X164519Y437589D01*
X237355Y222512D02*
X232105Y223438D01*
X231410Y219500D01*
X234267Y220349D01*
X235580Y220118D01*
X236661Y218574D01*
X236198Y215949D01*
X234654Y214867D01*
X232029Y215330D01*
X230947Y216874D01*
X238592Y214173D02*
X238823Y215486D01*
X240136Y215254D01*
X239904Y213941D01*
X238592Y214173D01*
X246312Y219579D02*
X247856Y220660D01*
X250482Y220197D01*
X251563Y218653D01*
X251332Y217340D01*
X249787Y216259D01*
X248475Y216491D01*
X249787Y216259D01*
X250868Y214715D01*
X250637Y213403D01*
X249093Y212321D01*
X246468Y212784D01*
X245387Y214328D01*
X218687Y241848D02*
X213436Y242774D01*
X212742Y238836D01*
X215599Y239686D01*
X216911Y239454D01*
X217992Y237910D01*
X217529Y235285D01*
X215985Y234204D01*
X213360Y234667D01*
X212279Y236211D01*
X219923Y233509D02*
X220155Y234822D01*
X221467Y234590D01*
X221236Y233278D01*
X219923Y233509D01*
X231737Y231426D02*
X226486Y232352D01*
X232663Y236677D01*
X232894Y237989D01*
X231813Y239534D01*
X229188Y239996D01*
X227644Y238915D01*
X200877Y260188D02*
X195627Y261114D01*
X194932Y257176D01*
X197789Y258025D01*
X199102Y257794D01*
X200183Y256250D01*
X199720Y253625D01*
X198176Y252543D01*
X195550Y253006D01*
X194469Y254550D01*
X202114Y251849D02*
X202345Y253162D01*
X203658Y252930D01*
X203426Y251618D01*
X202114Y251849D01*
X208677Y250692D02*
X211302Y250229D01*
X209990Y250460D01*
X211378Y258336D01*
X209834Y257255D01*
X206128Y344620D02*
X204243D01*
X202358Y342735D01*
X202358Y340850D01*
X203300Y339907D01*
X205185Y339907D01*
X207071Y341792D01*
X208955Y341792D01*
X209898Y340850D01*
X209898Y338965D01*
X208013Y337080D01*
X206128D01*
X209898Y350275D02*
X208013Y348390D01*
X208013Y346505D01*
X211783Y342735D01*
X213668D01*
X215553Y344620D01*
X215553Y346505D01*
X211783Y350275D01*
X209898D01*
X218381Y347447D02*
X212726Y353102D01*
X216495D01*
Y356872D01*
X222150Y351217D01*
X218381Y358757D02*
X220266Y360642D01*
X219323Y359700D01*
X224978Y354045D01*
X224035Y353102D01*
X225921Y354987D01*
X187390Y361761D02*
X185505D01*
X183620Y359876D01*
X183620Y357991D01*
X184563Y357049D01*
X186448Y357049D01*
X188333Y358934D01*
X190218Y358934D01*
X191160Y357991D01*
X191160Y356106D01*
X189275Y354221D01*
X187390D01*
X188333Y364589D02*
X190218Y366474D01*
X189275Y365531D01*
X194930Y359876D01*
X193988Y358934D01*
X195873Y360819D01*
X198700Y363646D02*
X193045Y369301D01*
X196815D01*
Y373071D01*
X202470Y367416D01*
X201528Y377784D02*
X199643Y375899D01*
X199643Y374014D01*
X203413Y370244D01*
X205298D01*
X207183Y372129D01*
Y374014D01*
X203413Y377784D01*
X201528D01*
X158641Y398317D02*
X156756D01*
X154871Y396432D01*
X154871Y394547D01*
X155814Y393605D01*
X157699Y393605D01*
X159584Y395490D01*
X161469Y395490D01*
X162411Y394547D01*
X162411Y392662D01*
X160526Y390777D01*
X158641D01*
X159584Y401145D02*
X163354Y404915D01*
X161469Y403030D01*
X167124Y397375D01*
X169009Y410570D02*
X165239Y406800D01*
X170894Y401145D01*
X174664Y404915D01*
X168066Y403972D02*
X169951Y405857D01*
X174045Y384295D02*
X172160D01*
X170275Y382410D01*
X170275Y380525D01*
X174045Y376755D01*
X175930D01*
X177815Y378640D01*
X177815Y380525D01*
X174988Y387123D02*
X180643Y381468D01*
X184412Y385238D01*
X180643Y392778D02*
X186297Y387123D01*
X184412Y389008D01*
Y396548D01*
Y390893D01*
X190068Y390893D01*
X112301Y303813D02*
X106646Y309468D01*
X109473Y312295D01*
X111358D01*
X113244Y310410D01*
X113244Y308525D01*
X110416Y305698D01*
X112301Y307583D02*
X116071D01*
X112301Y315123D02*
X121726Y313238D01*
X116071Y318893D02*
X117956Y309468D01*
X87187Y327220D02*
X90957Y330990D01*
X89072Y329105D01*
X94727Y323450D01*
X92842Y332875D02*
X102267Y330990D01*
X96612Y336645D02*
X98497Y327220D01*
X49236Y386575D02*
X45466Y382805D01*
Y390345D01*
X44524Y391287D01*
X42639D01*
X40753Y389403D01*
X40753Y387518D01*
X50904Y416623D02*
X48238Y412006D01*
X46286Y419289D01*
X45132Y419955D01*
X43311Y419467D01*
X41978Y417159D01*
X42466Y415338D01*
X52236Y418932D02*
X51082Y419598D01*
X51748Y420752D01*
X52903Y420086D01*
X52236Y418932D01*
X49797Y428035D02*
X49309Y429856D01*
X50642Y432165D01*
X52463Y432653D01*
X53617Y431986D01*
X54105Y430165D01*
X53439Y429011D01*
X54105Y430165D01*
X55926Y430653D01*
X57080Y429987D01*
X57568Y428166D01*
X56235Y425858D01*
X54414Y425370D01*
X60917Y431635D02*
X59975Y433268D01*
X60665Y435843D01*
X62297Y436785D01*
X63585Y436440D01*
X64527Y434808D01*
X64182Y433520D01*
X64527Y434808D01*
X66160Y435750D01*
X67447Y435405D01*
X68390Y433773D01*
X67700Y431198D01*
X66067Y430255D01*
X69425Y437635D02*
X68137Y437980D01*
X68482Y439268D01*
X69770Y438923D01*
X69425Y437635D01*
X63425Y446143D02*
X64805Y451292D01*
X66092Y450947D01*
X69862Y444418D01*
X71150Y444073D01*
X79502Y450220D02*
X78560Y451853D01*
X79250Y454428D01*
X80882Y455370D01*
X82170Y455025D01*
X83112Y453393D01*
X82767Y452105D01*
X83112Y453393D01*
X84745Y454335D01*
X86032Y453990D01*
X86975Y452358D01*
X86285Y449783D01*
X84652Y448840D01*
X88010Y456220D02*
X86722Y456565D01*
X87067Y457853D01*
X88355Y457508D01*
X88010Y456220D01*
X83389Y469878D02*
X83987Y466958D01*
X85872Y463693D01*
X88447Y463003D01*
X90079Y463945D01*
X90769Y466520D01*
X89827Y468153D01*
X88539Y468498D01*
X86907Y467555D01*
X85872Y463693D01*
X137176Y501163D02*
X133406Y497393D01*
Y504933D01*
X132463Y505876D01*
X130578D01*
X128693Y503991D01*
X128693Y502105D01*
X139061Y503048D02*
X138118Y503991D01*
X139061Y504933D01*
X140003Y503991D01*
X139061Y503048D01*
X138118Y513416D02*
X141888Y517186D01*
X142831Y516243D01*
Y508703D01*
X143773Y507761D01*
X185592Y523754D02*
X181822Y519983D01*
Y527523D01*
X180880Y528466D01*
X178995D01*
X177110Y526581D01*
X177110Y524696D01*
X187477Y525639D02*
X186535Y526581D01*
X187477Y527523D01*
X188420Y526581D01*
X187477Y525639D01*
X190305Y539776D02*
X189362Y536949D01*
Y533179D01*
X191247Y531294D01*
X193132D01*
X195017Y533179D01*
X195017Y535064D01*
X194075Y536006D01*
X192190D01*
X189362Y533179D01*
X152065Y102724D02*
Y108055D01*
Y105389D01*
X160062D01*
X152065Y110721D02*
X160062Y116053D01*
X152065D02*
X160062Y110721D01*
Y118719D02*
X154731Y124050D01*
X186193Y128183D02*
X178195D01*
Y132181D01*
X179528Y133514D01*
X182194D01*
X183527Y132181D01*
Y128183D01*
Y130848D02*
X186193Y133514D01*
X178195Y136180D02*
X186193Y141512D01*
X178195D02*
X186193Y136180D01*
Y144178D02*
X180861Y149509D01*
X165676Y108281D02*
X164343Y106948D01*
Y104282D01*
X165676Y102949D01*
X167009D01*
X168342Y104282D01*
Y106948D01*
X169674Y108281D01*
X171007D01*
X172340Y106948D01*
Y104282D01*
X171007Y102949D01*
X164343Y110946D02*
Y113612D01*
Y112279D01*
X172340D01*
Y110946D01*
Y113612D01*
Y117611D02*
X164343D01*
X167009Y120277D01*
X164343Y122943D01*
X172340D01*
X164343Y129607D02*
Y126941D01*
X165676Y125608D01*
X171007D01*
X172340Y126941D01*
Y129607D01*
X171007Y130940D01*
X165676D01*
X164343Y129607D01*
X189328Y132838D02*
X187995Y131505D01*
Y128840D01*
X189328Y127507D01*
X190661D01*
X191994Y128840D01*
Y131505D01*
X193326Y132838D01*
X194659D01*
X195992Y131505D01*
Y128840D01*
X194659Y127507D01*
X187995Y139503D02*
Y136837D01*
X189328Y135504D01*
X194659D01*
X195992Y136837D01*
Y139503D01*
X194659Y140836D01*
X189328D01*
X187995Y139503D01*
X195992Y143502D02*
X187995D01*
X190661Y146167D01*
X187995Y148833D01*
X195992D01*
X187995Y151499D02*
Y154165D01*
Y152832D01*
X195992D01*
Y151499D01*
Y154165D01*
X206473Y148153D02*
X205140Y146820D01*
Y144155D01*
X206473Y142822D01*
X211805D01*
X213137Y144155D01*
Y146820D01*
X211805Y148153D01*
X205140Y150819D02*
X213137D01*
Y156151D01*
X205140Y158816D02*
X213137D01*
X210472D01*
X205140Y164148D01*
X209139Y160149D01*
X213137Y164148D01*
X223180Y166822D02*
X221847Y165490D01*
Y162824D01*
X223180Y161491D01*
X224513D01*
X225846Y162824D01*
Y165490D01*
X227179Y166822D01*
X228512D01*
X229845Y165490D01*
Y162824D01*
X228512Y161491D01*
X221847Y169488D02*
Y174820D01*
Y172154D01*
X229845D01*
X221847Y182817D02*
Y177486D01*
X229845D01*
Y182817D01*
X225846Y177486D02*
Y180152D01*
X374808Y36861D02*
X375296Y38682D01*
X377605Y40015D01*
X379426Y39527D01*
X380092Y38372D01*
X379604Y36552D01*
X378450Y35885D01*
X379604Y36552D01*
X381425Y36064D01*
X382091Y34910D01*
X381604Y33089D01*
X379295Y31756D01*
X377474Y32244D01*
X381068Y42014D02*
X383733Y37397D01*
X387375Y36421D01*
X388351Y40062D01*
X385685Y44680D01*
X388660Y44858D02*
X389148Y46679D01*
X391457Y48012D01*
X393277Y47524D01*
X393944Y46370D01*
X393456Y44549D01*
X392302Y43883D01*
X393456Y44549D01*
X395277Y44061D01*
X395943Y42907D01*
X395455Y41086D01*
X393147Y39753D01*
X391326Y40241D01*
X401391Y39189D02*
X399570Y39677D01*
X397261Y38344D01*
X396773Y36523D01*
X399439Y31906D01*
X401260Y31418D01*
X403569Y32751D01*
X404057Y34571D01*
X402724Y36880D01*
X400415Y35547D01*
X407032Y34750D02*
X403033Y41676D01*
X411649Y37416D01*
X407650Y44342D01*
X409959Y45675D02*
X413958Y38749D01*
X417421Y40748D01*
X417908Y42569D01*
X415243Y47186D01*
X413422Y47674D01*
X409959Y45675D01*
X294522Y195658D02*
X293189Y196991D01*
X290523D01*
X289190Y195658D01*
Y190326D01*
X290523Y188993D01*
X293189D01*
X294522Y190326D01*
X297188Y195658D02*
X298521Y196991D01*
X301186D01*
X302519Y195658D01*
Y194325D01*
X301186Y192992D01*
X299853D01*
X301186D01*
X302519Y191659D01*
Y190326D01*
X301186Y188993D01*
X298521D01*
X297188Y190326D01*
X258317Y25364D02*
Y33361D01*
X262316D01*
X263648Y32029D01*
Y29363D01*
X262316Y28030D01*
X258317D01*
X266314Y25364D02*
Y33361D01*
X270313D01*
X271646Y32029D01*
Y29363D01*
X270313Y28030D01*
X266314D01*
X279643Y25364D02*
X274312D01*
X279643Y30696D01*
Y32029D01*
X278310Y33361D01*
X275644D01*
X274312Y32029D01*
X282729Y46364D02*
Y54361D01*
X286728D01*
X288061Y53028D01*
Y50362D01*
X286728Y49029D01*
X282729D01*
X290727Y46364D02*
Y54361D01*
X294725D01*
X296058Y53028D01*
Y50362D01*
X294725Y49029D01*
X290727D01*
X298724Y46364D02*
X301390D01*
X300057D01*
Y54361D01*
X298724Y53028D01*
X157134Y51599D02*
X154468D01*
X155801D01*
Y44935D01*
X154468Y43602D01*
X153135D01*
X151803Y44935D01*
X159800Y43602D02*
X162466D01*
X161133D01*
Y51599D01*
X159800Y50266D01*
X315477Y138226D02*
Y130228D01*
X319476D01*
X320809Y131561D01*
Y132894D01*
X319476Y134227D01*
X315477D01*
X319476D01*
X320809Y135560D01*
Y136893D01*
X319476Y138226D01*
X315477D01*
X328806Y130228D02*
X323475D01*
X328806Y135560D01*
Y136893D01*
X327473Y138226D01*
X324808D01*
X323475Y136893D01*
X331472D02*
X332805Y138226D01*
X335471D01*
X336804Y136893D01*
Y131561D01*
X335471Y130228D01*
X332805D01*
X331472Y131561D01*
Y136893D01*
X306076Y414763D02*
Y422760D01*
X310074D01*
X311407Y421427D01*
Y418762D01*
X310074Y417429D01*
X306076D01*
X308741D02*
X311407Y414763D01*
X314073Y421427D02*
X315406Y422760D01*
X318072D01*
X319405Y421427D01*
Y420095D01*
X318072Y418762D01*
X319405Y417429D01*
Y416096D01*
X318072Y414763D01*
X315406D01*
X314073Y416096D01*
Y417429D01*
X315406Y418762D01*
X314073Y420095D01*
Y421427D01*
X315406Y418762D02*
X318072D01*
X328705Y343571D02*
Y351568D01*
X332704D01*
X334037Y350235D01*
Y347570D01*
X332704Y346237D01*
X328705D01*
X331371D02*
X334037Y343571D01*
X336702Y351568D02*
X342034D01*
Y350235D01*
X336702Y344904D01*
Y343571D01*
X321595Y387160D02*
Y379163D01*
X325593D01*
X326926Y380496D01*
Y381829D01*
X325593Y383162D01*
X321595D01*
X325593D01*
X326926Y384495D01*
Y385828D01*
X325593Y387160D01*
X321595D01*
X329592Y379163D02*
X332258D01*
X330925D01*
Y387160D01*
X329592Y385828D01*
X341588Y379163D02*
X336256D01*
X341588Y384495D01*
Y385828D01*
X340255Y387160D01*
X337589D01*
X336256Y385828D01*
X282447Y357438D02*
X288102Y351783D01*
X290930Y354611D01*
X290930Y356496D01*
X289987Y357438D01*
X288102Y357438D01*
X285275Y354611D01*
X288102Y357438D01*
Y359323D01*
X287160Y360266D01*
X285275D01*
X282447Y357438D01*
X293757D02*
X295642Y359323D01*
X294700Y358381D01*
X289045Y364036D01*
X289045Y362151D01*
X298470D02*
X300355Y364036D01*
X299412Y363093D01*
X293757Y368748D01*
X293757Y366863D01*
X391375Y460714D02*
Y452717D01*
Y456716D01*
X396707D01*
Y460714D01*
Y452717D01*
X404704Y460714D02*
X402038Y459381D01*
X399372Y456716D01*
Y454050D01*
X400705Y452717D01*
X403371D01*
X404704Y454050D01*
Y455383D01*
X403371Y456716D01*
X399372D01*
X346129Y463788D02*
Y455790D01*
Y459789D01*
X351461D01*
Y463788D01*
Y455790D01*
X359458Y463788D02*
X354127D01*
Y459789D01*
X356792Y461122D01*
X358125D01*
X359458Y459789D01*
Y457123D01*
X358125Y455790D01*
X355459D01*
X354127Y457123D01*
X390064Y107786D02*
Y99789D01*
Y103788D01*
X395395D01*
Y107786D01*
Y99789D01*
X402060D02*
Y107786D01*
X398061Y103788D01*
X403392D01*
X330336Y177594D02*
Y169597D01*
Y173596D01*
X335668D01*
Y177594D01*
Y169597D01*
X338334Y176261D02*
X339666Y177594D01*
X342332D01*
X343665Y176261D01*
Y174928D01*
X342332Y173596D01*
X340999D01*
X342332D01*
X343665Y172263D01*
Y170930D01*
X342332Y169597D01*
X339666D01*
X338334Y170930D01*
X187523Y466327D02*
X185638Y466315D01*
X183765Y464417D01*
X183777Y462533D01*
X187571Y458787D01*
X189456Y458799D01*
X191329Y460696D01*
X191317Y462581D01*
X189420Y464454D01*
X187547Y462557D01*
X194138Y463542D02*
X188447Y469160D01*
X191256Y472006D01*
X193141Y472018D01*
X195038Y470145D01*
X195050Y468260D01*
X192241Y465415D01*
X194065Y474852D02*
X195938Y476749D01*
X195002Y475800D01*
X200693Y470182D01*
X199757Y469233D01*
X201630Y471130D01*
X201556Y482440D02*
X199684Y480543D01*
X199696Y478658D01*
X203490Y474912D01*
X205375Y474925D01*
X207248Y476822D01*
X207236Y478707D01*
X203442Y482452D01*
X201556Y482440D01*
X218521Y521895D02*
X216636D01*
X214751Y520010D01*
X214751Y518125D01*
X218521Y514355D01*
X220406D01*
X222291Y516240D01*
X222291Y518125D01*
X222291Y527550D02*
X220406Y525665D01*
X220406Y523780D01*
X224176Y520010D01*
X226061D01*
X227946Y521895D01*
X227946Y523780D01*
X224176Y527550D01*
X222291D01*
X230774Y524723D02*
X225119Y530378D01*
X228889D01*
Y534148D01*
X234544Y528493D01*
X236429Y530378D02*
X230774Y536033D01*
X233601Y538860D01*
X235486D01*
X237372Y536975D01*
X237372Y535090D01*
X234544Y532263D01*
X167399Y243726D02*
X163629Y247496D01*
Y251266D01*
X167399D01*
X171169Y247496D01*
X168341Y250324D01*
X164571Y246553D01*
X167399Y255036D02*
X173054Y249381D01*
X175882Y252208D01*
X175882Y254093D01*
X172111Y257864D01*
X170226D01*
X167399Y255036D01*
X177766Y263519D02*
X175882D01*
X173997Y261634D01*
X173997Y259749D01*
X177766Y255979D01*
X179652D01*
X181537Y257864D01*
X181537Y259749D01*
X243658Y346092D02*
X248370Y341380D01*
X250256D01*
X252141Y343265D01*
X252140Y345150D01*
X247428Y349863D01*
X254025Y354575D02*
X252141D01*
X250256Y352690D01*
X250255Y350805D01*
X254025Y347035D01*
X255910D01*
X257796Y348920D01*
X257796Y350805D01*
X254968Y357403D02*
X260623Y351748D01*
X263451Y354575D01*
X263451Y356460D01*
X262508Y357403D01*
X260623Y357403D01*
X257796Y354575D01*
X260623Y357403D01*
Y359288D01*
X259681Y360230D01*
X257796D01*
X254968Y357403D01*
X266278D02*
X268163Y359288D01*
X267220Y358345D01*
X261565Y364000D01*
X261565Y362115D01*
X170573Y272015D02*
X175286Y267303D01*
X177171D01*
X179056Y269188D01*
X179056Y271073D01*
X174343Y275786D01*
X180941Y280498D02*
X179056D01*
X177171Y278613D01*
X177171Y276728D01*
X180941Y272958D01*
X182826D01*
X184711Y274843D01*
X184711Y276728D01*
X187538Y277670D02*
X183768Y281441D01*
Y285210D01*
X187538D01*
X191308Y281441D01*
X188481Y284268D01*
X184711Y280498D01*
X193193Y283326D02*
X195078Y285210D01*
X194136Y284268D01*
X188481Y289923D01*
X188481Y288038D01*
X284378Y202226D02*
Y210223D01*
X288377D01*
X289710Y208890D01*
Y206224D01*
X288377Y204891D01*
X284378D01*
X287044D02*
X289710Y202226D01*
X297707Y210223D02*
X295041Y208890D01*
X292376Y206224D01*
Y203559D01*
X293708Y202226D01*
X296374D01*
X297707Y203559D01*
Y204891D01*
X296374Y206224D01*
X292376D01*
X283742Y220578D02*
Y228576D01*
X287740D01*
X289073Y227243D01*
Y224577D01*
X287740Y223244D01*
X283742D01*
X286407D02*
X289073Y220578D01*
X297071Y228576D02*
X291739D01*
Y224577D01*
X294405Y225910D01*
X295738D01*
X297071Y224577D01*
Y221911D01*
X295738Y220578D01*
X293072D01*
X291739Y221911D01*
X98852Y135116D02*
X104507Y129461D01*
X107335Y132289D01*
X107335Y134174D01*
X103565Y137944D01*
X101680D01*
X98852Y135116D01*
X105450Y139829D02*
X105450Y141714D01*
X107335Y143599D01*
X109220D01*
X110162Y142656D01*
Y140771D01*
X109220Y139829D01*
X110162Y140771D01*
X112047Y140771D01*
X112990Y139829D01*
X112990Y137944D01*
X111105Y136059D01*
X109220D01*
X83373Y151721D02*
X89028Y146066D01*
X91856Y148894D01*
X91856Y150779D01*
X88086Y154549D01*
X86201D01*
X83373Y151721D01*
X98453Y155491D02*
X94683Y151721D01*
Y159261D01*
X93741Y160204D01*
X91856D01*
X89971Y158319D01*
X89971Y156434D01*
X68174Y170473D02*
X73829Y164818D01*
X76657Y167646D01*
X76657Y169531D01*
X72887Y173301D01*
X71002D01*
X68174Y170473D01*
X79484D02*
X81369Y172358D01*
X80427Y171416D01*
X74772Y177071D01*
X74772Y175186D01*
X258393Y337535D02*
Y330871D01*
X259726Y329538D01*
X262391D01*
X263724Y330871D01*
Y337535D01*
X266390Y329538D02*
X269056D01*
X267723D01*
Y337535D01*
X266390Y336202D01*
X137271Y177127D02*
X131616Y182782D01*
X134444Y185609D01*
X136328D01*
X138214Y183724D01*
X138214Y181839D01*
X135386Y179011D01*
X137271Y180896D02*
X141041D01*
X145754Y185609D02*
X140099Y191264D01*
X140098Y185609D01*
X143869Y189379D01*
X122269Y191804D02*
X116614Y197459D01*
X119442Y200286D01*
X121327D01*
X123212Y198401D01*
X123212Y196516D01*
X120384Y193689D01*
X122269Y195574D02*
X126039D01*
X123212Y202171D02*
X123212Y204056D01*
X125097Y205941D01*
X126982D01*
X127924Y204999D01*
Y203114D01*
X126982Y202171D01*
X127924Y203114D01*
X129809Y203114D01*
X130752Y202171D01*
X130752Y200286D01*
X128867Y198401D01*
X126982D01*
X105912Y207291D02*
X100257Y212946D01*
X103084Y215773D01*
X104969D01*
X106854Y213888D01*
X106854Y212003D01*
X104027Y209176D01*
X105912Y211061D02*
X109682D01*
X115337Y216716D02*
X111567Y212946D01*
Y220486D01*
X110624Y221428D01*
X108739D01*
X106854Y219543D01*
X106854Y217658D01*
X290043Y116125D02*
Y124123D01*
X294042D01*
X295375Y122790D01*
Y120124D01*
X294042Y118791D01*
X290043D01*
X292709D02*
X295375Y116125D01*
X298041D02*
X300707D01*
X299374D01*
Y124123D01*
X298041Y122790D01*
X273091Y144943D02*
X271758Y146276D01*
X269092D01*
X267759Y144943D01*
Y139611D01*
X269092Y138278D01*
X271758D01*
X273091Y139611D01*
X281089Y146276D02*
X275757D01*
Y142277D01*
X278423Y143610D01*
X279756D01*
X281089Y142277D01*
Y139611D01*
X279756Y138278D01*
X277090D01*
X275757Y139611D01*
X295448Y349916D02*
X293563D01*
X291678Y348032D01*
X291678Y346147D01*
X295448Y342376D01*
X297333D01*
X299218Y344261D01*
X299218Y346147D01*
X305816Y350859D02*
X302046Y347089D01*
Y354629D01*
X301103Y355572D01*
X299218D01*
X297333Y353686D01*
X297333Y351801D01*
X284246Y337482D02*
X282361D01*
X280476Y335597D01*
X280476Y333712D01*
X284246Y329942D01*
X286131D01*
X288016Y331827D01*
X288016Y333712D01*
X290844Y334654D02*
X292729Y336539D01*
X291786Y335597D01*
X286131Y341252D01*
X286131Y339367D01*
X380149Y322104D02*
Y314107D01*
Y318106D01*
X385481D01*
Y322104D01*
Y314107D01*
X393478D02*
X388147D01*
X393478Y319438D01*
Y320771D01*
X392146Y322104D01*
X389480D01*
X388147Y320771D01*
X333378Y263828D02*
Y255830D01*
Y259829D01*
X338710D01*
Y263828D01*
Y255830D01*
X341376D02*
X344041D01*
X342708D01*
Y263828D01*
X341376Y262495D01*
X334798Y326914D02*
X340453Y321259D01*
X343280Y324086D01*
X343280Y325971D01*
X342338Y326914D01*
X340453Y326914D01*
X337625Y324086D01*
X340453Y326914D01*
Y328799D01*
X339510Y329741D01*
X337626D01*
X334798Y326914D01*
X340453Y332569D02*
X344223Y336339D01*
X345165Y335396D01*
Y327856D01*
X346108Y326914D01*
X310354Y302554D02*
X316009Y296899D01*
X318837Y299727D01*
X318837Y301612D01*
X317894Y302554D01*
X316009Y302554D01*
X313182Y299727D01*
X316009Y302554D01*
Y304439D01*
X315067Y305382D01*
X313182D01*
X310354Y302554D01*
X316952Y307267D02*
X316952Y309152D01*
X318837Y311037D01*
X320722D01*
X321664Y310094D01*
Y308209D01*
X323549Y308209D01*
X324492Y307267D01*
X324492Y305382D01*
X322607Y303497D01*
X320722D01*
X319779Y304439D01*
Y306324D01*
X317894Y306324D01*
X316952Y307267D01*
X319779Y306324D02*
X321664Y308209D01*
X293167Y179484D02*
Y171487D01*
X297166D01*
X298498Y172820D01*
Y174153D01*
X297166Y175486D01*
X293167D01*
X297166D01*
X298498Y176818D01*
Y178151D01*
X297166Y179484D01*
X293167D01*
X301164Y171487D02*
X303830D01*
X302497D01*
Y179484D01*
X301164Y178151D01*
X291974Y168344D02*
Y160346D01*
X295972D01*
X297305Y161679D01*
Y163012D01*
X295972Y164345D01*
X291974D01*
X295972D01*
X297305Y165678D01*
Y167011D01*
X295972Y168344D01*
X291974D01*
X305303Y160346D02*
X299971D01*
X305303Y165678D01*
Y167011D01*
X303970Y168344D01*
X301304D01*
X299971Y167011D01*
X309209Y161411D02*
Y153413D01*
X313208D01*
X314541Y154746D01*
Y156079D01*
X313208Y157412D01*
X309209D01*
X313208D01*
X314541Y158745D01*
Y160078D01*
X313208Y161411D01*
X309209D01*
X317206Y160078D02*
X318539Y161411D01*
X321205D01*
X322538Y160078D01*
Y158745D01*
X321205Y157412D01*
X319872D01*
X321205D01*
X322538Y156079D01*
Y154746D01*
X321205Y153413D01*
X318539D01*
X317206Y154746D01*
X319997Y151043D02*
Y143046D01*
X323996D01*
X325328Y144379D01*
Y145712D01*
X323996Y147045D01*
X319997D01*
X323996D01*
X325328Y148378D01*
Y149711D01*
X323996Y151043D01*
X319997D01*
X331993Y143046D02*
Y151043D01*
X327994Y147045D01*
X333326D01*
X241899Y430229D02*
Y422232D01*
X245898D01*
X247231Y423564D01*
Y424897D01*
X245898Y426230D01*
X241899D01*
X245898D01*
X247231Y427563D01*
Y428896D01*
X245898Y430229D01*
X241899D01*
X249897Y422232D02*
X252562D01*
X251229D01*
Y430229D01*
X249897Y428896D01*
X256561D02*
X257894Y430229D01*
X260560D01*
X261893Y428896D01*
Y427563D01*
X260560Y426230D01*
X259227D01*
X260560D01*
X261893Y424897D01*
Y423564D01*
X260560Y422232D01*
X257894D01*
X256561Y423564D01*
X268929Y412482D02*
Y404485D01*
X272927D01*
X274260Y405818D01*
Y407151D01*
X272927Y408484D01*
X268929D01*
X272927D01*
X274260Y409817D01*
Y411149D01*
X272927Y412482D01*
X268929D01*
X276926Y404485D02*
X279592D01*
X278259D01*
Y412482D01*
X276926Y411149D01*
X287589Y404485D02*
Y412482D01*
X283591Y408484D01*
X288922D01*
X276300Y395009D02*
Y387011D01*
X280299D01*
X281632Y388344D01*
Y389677D01*
X280299Y391010D01*
X276300D01*
X280299D01*
X281632Y392343D01*
Y393676D01*
X280299Y395009D01*
X276300D01*
X284298Y387011D02*
X286963D01*
X285630D01*
Y395009D01*
X284298Y393676D01*
X296294Y395009D02*
X290962D01*
Y391010D01*
X293628Y392343D01*
X294961D01*
X296294Y391010D01*
Y388344D01*
X294961Y387011D01*
X292295D01*
X290962Y388344D01*
X264287Y373167D02*
Y365170D01*
X268286D01*
X269619Y366503D01*
Y367836D01*
X268286Y369168D01*
X264287D01*
X268286D01*
X269619Y370501D01*
Y371834D01*
X268286Y373167D01*
X264287D01*
X272285Y365170D02*
X274951D01*
X273618D01*
Y373167D01*
X272285Y371834D01*
X284281Y373167D02*
X281615Y371834D01*
X278949Y369168D01*
Y366503D01*
X280282Y365170D01*
X282948D01*
X284281Y366503D01*
Y367836D01*
X282948Y369168D01*
X278949D01*
X335796Y123140D02*
X327799D01*
Y119141D01*
X329132Y117808D01*
X330465D01*
X331798Y119141D01*
Y123140D01*
Y119141D01*
X333131Y117808D01*
X334464D01*
X335796Y119141D01*
Y123140D01*
X327799Y115142D02*
Y112477D01*
Y113809D01*
X335796D01*
X334464Y115142D01*
X335796Y108478D02*
Y103146D01*
X334464D01*
X329132Y108478D01*
X327799D01*
X345970Y126913D02*
X337973D01*
Y122914D01*
X339306Y121581D01*
X340639D01*
X341971Y122914D01*
Y126913D01*
Y122914D01*
X343304Y121581D01*
X344637D01*
X345970Y122914D01*
Y126913D01*
X337973Y118916D02*
Y116250D01*
Y117583D01*
X345970D01*
X344637Y118916D01*
Y112251D02*
X345970Y110918D01*
Y108252D01*
X344637Y106920D01*
X343304D01*
X341971Y108252D01*
X340639Y106920D01*
X339306D01*
X337973Y108252D01*
Y110918D01*
X339306Y112251D01*
X340639D01*
X341971Y110918D01*
X343304Y112251D01*
X344637D01*
X341971Y110918D02*
Y108252D01*
X359469Y108251D02*
Y100254D01*
X363468D01*
X364801Y101587D01*
Y102920D01*
X363468Y104253D01*
X359469D01*
X363468D01*
X364801Y105585D01*
Y106918D01*
X363468Y108251D01*
X359469D01*
X367467Y100254D02*
X370133D01*
X368800D01*
Y108251D01*
X367467Y106918D01*
X374131Y101587D02*
X375464Y100254D01*
X378130D01*
X379463Y101587D01*
Y106918D01*
X378130Y108251D01*
X375464D01*
X374131Y106918D01*
Y105585D01*
X375464Y104253D01*
X379463D01*
X290025Y459299D02*
Y467297D01*
X294024D01*
X295357Y465964D01*
Y463298D01*
X294024Y461965D01*
X290025D01*
X292691D02*
X295357Y459299D01*
X298022Y460632D02*
X299355Y459299D01*
X302021D01*
X303354Y460632D01*
Y465964D01*
X302021Y467297D01*
X299355D01*
X298022Y465964D01*
Y464631D01*
X299355Y463298D01*
X303354D01*
X283321Y436959D02*
Y444956D01*
X287320D01*
X288653Y443623D01*
Y440957D01*
X287320Y439624D01*
X283321D01*
X285987D02*
X288653Y436959D01*
X291319D02*
X293985D01*
X292652D01*
Y444956D01*
X291319Y443623D01*
X297983D02*
X299316Y444956D01*
X301982D01*
X303315Y443623D01*
Y438292D01*
X301982Y436959D01*
X299316D01*
X297983Y438292D01*
Y443623D01*
X380945Y472013D02*
X387870Y468015D01*
X389870Y471478D01*
X389382Y473298D01*
X388228Y473965D01*
X386407Y473477D01*
X384408Y470014D01*
X386407Y473477D01*
X385919Y475298D01*
X384765Y475964D01*
X382944Y475476D01*
X380945Y472013D01*
X387609Y483557D02*
X384943Y478939D01*
X388406Y476940D01*
X388585Y479915D01*
X389251Y481069D01*
X391072Y481557D01*
X393381Y480224D01*
X393868Y478404D01*
X392536Y476095D01*
X390715Y475607D01*
X392073Y468627D02*
X398999Y464628D01*
X400999Y468091D01*
X400511Y469912D01*
X399356Y470578D01*
X397536Y470090D01*
X395536Y466627D01*
X397536Y470090D01*
X397048Y471911D01*
X395893Y472578D01*
X394073Y472090D01*
X392073Y468627D01*
X398738Y480170D02*
X398559Y477195D01*
X399535Y473553D01*
X401844Y472220D01*
X403664Y472708D01*
X404997Y475017D01*
X404509Y476838D01*
X403355Y477504D01*
X401534Y477016D01*
X399535Y473553D01*
X328542Y296854D02*
X334197Y291199D01*
X337025Y294027D01*
X337025Y295912D01*
X336082Y296854D01*
X334197Y296854D01*
X331370Y294027D01*
X334197Y296854D01*
Y298739D01*
X333255Y299682D01*
X331370D01*
X328542Y296854D01*
X338910Y297797D02*
X340795D01*
X342680Y299682D01*
X342680Y301567D01*
X338910Y305337D01*
X337025D01*
X335140Y303452D01*
X335140Y301567D01*
X336082Y300624D01*
X337967Y300624D01*
X340795Y303452D01*
X314749Y275278D02*
X320404Y269623D01*
X323232Y272451D01*
X323232Y274336D01*
X322289Y275278D01*
X320404Y275278D01*
X317577Y272451D01*
X320404Y275278D01*
Y277163D01*
X319461Y278106D01*
X317577D01*
X314749Y275278D01*
X326059D02*
X327944Y277163D01*
X327001Y276221D01*
X321347Y281876D01*
X321347Y279991D01*
X326059Y284703D02*
X326059Y286588D01*
X327944Y288473D01*
X329829D01*
X333599Y284703D01*
X333599Y282818D01*
X331714Y280933D01*
X329829D01*
X326059Y284703D01*
X146039Y72301D02*
X150752Y67589D01*
X152637D01*
X154522Y69474D01*
X154522Y71359D01*
X149809Y76071D01*
X156407Y80784D02*
X154522D01*
X152637Y78899D01*
X152637Y77014D01*
X156407Y73244D01*
X158292D01*
X160177Y75129D01*
X160177Y77014D01*
X163004Y77956D02*
X159234Y81726D01*
Y85496D01*
X163004D01*
X166774Y81726D01*
X163947Y84554D01*
X160177Y80784D01*
X163947Y88324D02*
X163947Y90209D01*
X165832Y92094D01*
X167717D01*
X171487Y88324D01*
X171487Y86439D01*
X169602Y84554D01*
X167717D01*
X163947Y88324D01*
X171613Y165027D02*
X177268Y159372D01*
X181038Y163142D01*
Y174452D02*
X177268Y170682D01*
X182923Y165027D01*
X186693Y168797D01*
X180095Y167854D02*
X181980Y169739D01*
X182923Y176337D02*
X188578Y170682D01*
X191405Y173509D01*
X191405Y175394D01*
X187635Y179164D01*
X185750D01*
X182923Y176337D01*
X194233D02*
X197060Y179164D01*
X197060Y181049D01*
X195175D01*
X193290Y179164D01*
X191405D01*
X191405Y181049D01*
X194233Y183877D01*
X78334Y132575D02*
X72679Y126920D01*
X75506Y124093D01*
X77391Y124093D01*
X81161Y127863D01*
Y129748D01*
X78334Y132575D01*
X81161Y118438D02*
X86816Y124093D01*
X81161Y124093D01*
X84931Y120323D01*
D15*
X319952Y184064D02*
X324016D01*
X319952Y196764D02*
X324016D01*
X297337Y317653D02*
X300211Y314779D01*
X306318Y326633D02*
X309191Y323759D01*
X278769Y116810D02*
Y120873D01*
X266069Y116810D02*
Y120873D01*
X190231Y23308D02*
Y25556D01*
X307955Y23308D02*
Y25556D01*
X189845Y63270D02*
Y65308D01*
X196835D01*
X307955Y63656D02*
Y65308D01*
X301483D02*
X307955D01*
X321011Y429639D02*
X325075D01*
X321011Y442847D02*
X325075D01*
X321084Y451885D02*
X325148D01*
X321084Y465093D02*
X325148D01*
X303064Y108638D02*
X307128D01*
X303064Y95430D02*
X307128D01*
X93285Y191612D02*
X96159Y194486D01*
X83946Y200952D02*
X86819Y203825D01*
X107621Y177169D02*
X110494Y180043D01*
X98281Y186509D02*
X101155Y189383D01*
X122073Y162744D02*
X124947Y165618D01*
X112734Y172084D02*
X115607Y174957D01*
X319802Y241736D02*
X323867D01*
X319802Y228528D02*
X323867D01*
X319653Y204529D02*
X323717D01*
X319653Y217737D02*
X323717D01*
X323332Y371508D02*
X327396D01*
X323332Y358300D02*
X327396D01*
X324684Y408341D02*
X328748D01*
X324684Y395133D02*
X328748D01*
X320103Y340354D02*
X322977Y337480D01*
X311123Y331373D02*
X313997Y328500D01*
X44883Y133951D02*
X58533Y120301D01*
X65178Y153887D02*
X78469Y140596D01*
D16*
X67269Y363987D02*
X70261Y366979D01*
X68765Y365483D01*
X59788Y374460D01*
Y371468D01*
M02*
