G04*
G04 #@! TF.GenerationSoftware,Altium Limited,Altium Designer,25.1.2 (22)*
G04*
G04 Layer_Color=128*
%FSLAX44Y44*%
%MOMM*%
G71*
G04*
G04 #@! TF.SameCoordinates,BCEF5572-1F7E-4207-9204-8C5AED3481CC*
G04*
G04*
G04 #@! TF.FilePolarity,Positive*
G04*
G01*
G75*
%ADD64C,0.0508*%
D64*
X260645Y54405D02*
X263645D01*
X262145Y52905D02*
Y55905D01*
X272645Y54405D02*
X275645D01*
X274145Y52905D02*
Y55905D01*
X254645Y44405D02*
X257645D01*
X256145Y42905D02*
Y45905D01*
X242645Y44405D02*
X245645D01*
X244145Y42905D02*
Y45905D01*
X248645Y54405D02*
X251645D01*
X250145Y52905D02*
Y55905D01*
X236645Y54405D02*
X239645D01*
X238145Y52905D02*
Y55905D01*
X224645Y54405D02*
X227645D01*
X226145Y52905D02*
Y55905D01*
X266645Y44405D02*
X269645D01*
X268145Y42905D02*
Y45905D01*
X224645Y33905D02*
X227645D01*
X226145Y32405D02*
Y35405D01*
X242645Y23905D02*
X245645D01*
X244145Y22405D02*
Y25405D01*
X248645Y33905D02*
X251645D01*
X250145Y32405D02*
Y35405D01*
X236645Y33905D02*
X239645D01*
X238145Y32405D02*
Y35405D01*
X253637Y491394D02*
X262637D01*
X258137Y486894D02*
Y495894D01*
X235677Y509354D02*
X244677D01*
X240177Y504854D02*
Y513854D01*
X74032Y383630D02*
X83032D01*
X78532Y379131D02*
Y388130D01*
X56072Y401591D02*
X65072D01*
X60571Y397091D02*
Y406091D01*
X91993Y401591D02*
X100992D01*
X96493Y397091D02*
Y406091D01*
X74032Y419552D02*
X83032D01*
X78532Y415052D02*
Y424052D01*
X109953Y419552D02*
X118953D01*
X114453Y415052D02*
Y424052D01*
X91993Y437512D02*
X100992D01*
X96493Y433012D02*
Y442012D01*
X127914Y437512D02*
X136913D01*
X132414Y433012D02*
Y442012D01*
X109953Y455473D02*
X118953D01*
X114453Y450973D02*
Y459973D01*
X145874Y455473D02*
X154874D01*
X150374Y450973D02*
Y459973D01*
X127914Y473433D02*
X136913D01*
X132414Y468933D02*
Y477933D01*
X163835Y473433D02*
X172835D01*
X168335Y468933D02*
Y477933D01*
X145874Y491394D02*
X154874D01*
X150374Y486894D02*
Y495894D01*
X181795Y491394D02*
X190795D01*
X186295Y486894D02*
Y495894D01*
X163835Y509354D02*
X172835D01*
X168335Y504854D02*
Y513854D01*
X235677Y365670D02*
X244677D01*
X240177Y361170D02*
Y370170D01*
X217716Y383630D02*
X226716D01*
X222216Y379131D02*
Y388130D01*
X199756Y401591D02*
X208756D01*
X204256Y397091D02*
Y406091D01*
X181795Y419552D02*
X190795D01*
X186295Y415051D02*
Y424052D01*
X109953Y347710D02*
X118953D01*
X114453Y343209D02*
Y352210D01*
X127914Y329749D02*
X136913D01*
X132414Y325249D02*
Y334249D01*
X145874Y311789D02*
X154874D01*
X150374Y307288D02*
Y316289D01*
X163835Y293828D02*
X172835D01*
X168335Y289328D02*
Y298328D01*
X381370Y203800D02*
X391570D01*
X386470Y198700D02*
Y208900D01*
X381370Y178400D02*
X391570D01*
X386470Y173300D02*
Y183500D01*
X381370Y153000D02*
X391570D01*
X386470Y147900D02*
Y158100D01*
X381370Y127600D02*
X391570D01*
X386470Y122500D02*
Y132700D01*
X355970Y203800D02*
X366170D01*
X361070Y198700D02*
Y208900D01*
X355970Y178400D02*
X366170D01*
X361070Y173300D02*
Y183500D01*
X355970Y153000D02*
X366170D01*
X361070Y147900D02*
Y158100D01*
X355970Y127600D02*
X366170D01*
X361070Y122500D02*
Y132700D01*
X355970Y432400D02*
X366170D01*
X361070Y427300D02*
Y437500D01*
X355970Y407000D02*
X366170D01*
X361070Y401900D02*
Y412100D01*
X355970Y381600D02*
X366170D01*
X361070Y376500D02*
Y386700D01*
X355970Y356200D02*
X366170D01*
X361070Y351100D02*
Y361300D01*
X381370Y432400D02*
X391570D01*
X386470Y427300D02*
Y437500D01*
X381370Y407000D02*
X391570D01*
X386470Y401900D02*
Y412100D01*
X381370Y381600D02*
X391570D01*
X386470Y376500D02*
Y386700D01*
X381370Y356200D02*
X391570D01*
X386470Y351100D02*
Y361300D01*
X381370Y229200D02*
X391570D01*
X386470Y224100D02*
Y234300D01*
X381370Y254600D02*
X391570D01*
X386470Y249500D02*
Y259700D01*
X381370Y280000D02*
X391570D01*
X386470Y274900D02*
Y285100D01*
X381370Y305400D02*
X391570D01*
X386470Y300300D02*
Y310500D01*
X381370Y330800D02*
X391570D01*
X386470Y325700D02*
Y335900D01*
X355970Y229200D02*
X366170D01*
X361070Y224100D02*
Y234300D01*
X355970Y254600D02*
X366170D01*
X361070Y249500D02*
Y259700D01*
X355970Y280000D02*
X366170D01*
X361070Y274900D02*
Y285100D01*
X355970Y305400D02*
X366170D01*
X361070Y300300D02*
Y310500D01*
X355965Y330800D02*
X366165D01*
X361065Y325700D02*
Y335900D01*
X335874Y493574D02*
X380874D01*
X358374Y471074D02*
Y516074D01*
X335870Y66426D02*
X380870D01*
X358370Y43926D02*
Y88926D01*
X30000Y280000D02*
X75000D01*
X52500Y257500D02*
Y302500D01*
X217716Y204025D02*
X226716D01*
X222216Y199525D02*
Y208525D01*
X199756Y221986D02*
X208756D01*
X204256Y217486D02*
Y226486D01*
X181795Y239946D02*
X190795D01*
X186295Y235446D02*
Y244447D01*
X163835Y186065D02*
X172835D01*
X168335Y181565D02*
Y190565D01*
X145874Y204025D02*
X154874D01*
X150374Y199525D02*
Y208525D01*
X127914Y221986D02*
X136913D01*
X132414Y217486D02*
Y226486D01*
X235677Y150144D02*
X244677D01*
X240177Y145644D02*
Y154644D01*
X217716Y132183D02*
X226716D01*
X222216Y127683D02*
Y136683D01*
X199756Y114223D02*
X208756D01*
X204256Y109723D02*
Y118723D01*
X181795Y96262D02*
X190795D01*
X186295Y91762D02*
Y100762D01*
X398298Y62779D02*
X407298D01*
X402798Y58279D02*
Y67279D01*
X423698Y62779D02*
X432698D01*
X428198Y58279D02*
Y67279D01*
X228320Y97135D02*
X232320D01*
X230320Y95135D02*
Y99135D01*
X308991Y131573D02*
X312991D01*
X310991Y129573D02*
Y133573D01*
X296839Y118655D02*
X300839D01*
X298839Y116655D02*
Y120655D01*
X303754Y144707D02*
X307754D01*
X305753Y142707D02*
Y146707D01*
X335704Y142774D02*
X339704D01*
X337704Y140774D02*
Y144774D01*
X272200Y211092D02*
X276200D01*
X274200Y209092D02*
Y213092D01*
X418000Y500000D02*
X422000D01*
X420000Y498000D02*
Y502000D01*
X398000Y500000D02*
X402000D01*
X400000Y498000D02*
Y502000D01*
X388000Y520000D02*
X392000D01*
X390000Y518000D02*
Y522000D01*
X338000Y540000D02*
X342000D01*
X340000Y538000D02*
Y542000D01*
X338000Y20000D02*
X342000D01*
X340000Y18000D02*
Y22000D01*
X318000Y540000D02*
X322000D01*
X320000Y538000D02*
Y542000D01*
X328000Y520000D02*
X332000D01*
X330000Y518000D02*
Y522000D01*
X318000Y500000D02*
X322000D01*
X320000Y498000D02*
Y502000D01*
X298000Y540000D02*
X302000D01*
X300000Y538000D02*
Y542000D01*
X308000Y520000D02*
X312000D01*
X310000Y518000D02*
Y522000D01*
X298000Y500000D02*
X302000D01*
X300000Y498000D02*
Y502000D01*
X308000Y480000D02*
X312000D01*
X310000Y478000D02*
Y482000D01*
X278000Y540000D02*
X282000D01*
X280000Y538000D02*
Y542000D01*
X288000Y520000D02*
X292000D01*
X290000Y518000D02*
Y522000D01*
X278000Y500000D02*
X282000D01*
X280000Y498000D02*
Y502000D01*
X288000Y480000D02*
X292000D01*
X290000Y478000D02*
Y482000D01*
X258000Y540000D02*
X262000D01*
X260000Y538000D02*
Y542000D01*
X268000Y520000D02*
X272000D01*
X270000Y518000D02*
Y522000D01*
X268000Y360000D02*
X272000D01*
X270000Y358000D02*
Y362000D01*
X238000Y540000D02*
X242000D01*
X240000Y538000D02*
Y542000D01*
X238000Y460000D02*
X242000D01*
X240000Y458000D02*
Y462000D01*
X248000Y440000D02*
X252000D01*
X250000Y438000D02*
Y442000D01*
X248000Y400000D02*
X252000D01*
X250000Y398000D02*
Y402000D01*
X218000Y540000D02*
X222000D01*
X220000Y538000D02*
Y542000D01*
X218000Y500000D02*
X222000D01*
X220000Y498000D02*
Y502000D01*
X228000Y480000D02*
X232000D01*
X230000Y478000D02*
Y482000D01*
X218000Y460000D02*
X222000D01*
X220000Y458000D02*
Y462000D01*
X228000Y440000D02*
X232000D01*
X230000Y438000D02*
Y442000D01*
X208000Y520000D02*
X212000D01*
X210000Y518000D02*
Y522000D01*
X198000Y500000D02*
X202000D01*
X200000Y498000D02*
Y502000D01*
X208000Y480000D02*
X212000D01*
X210000Y478000D02*
Y482000D01*
X198000Y460000D02*
X202000D01*
X200000Y458000D02*
Y462000D01*
X208000Y440000D02*
X212000D01*
X210000Y438000D02*
Y442000D01*
X188000Y520000D02*
X192000D01*
X190000Y518000D02*
Y522000D01*
X188000Y440000D02*
X192000D01*
X190000Y438000D02*
Y442000D01*
X158000Y100000D02*
X162000D01*
X160000Y98000D02*
Y102000D01*
X168000Y80000D02*
X172000D01*
X170000Y78000D02*
Y82000D01*
X158000Y60000D02*
X162000D01*
X160000Y58000D02*
Y62000D01*
X148000Y280000D02*
X152000D01*
X150000Y278000D02*
Y282000D01*
X148000Y240000D02*
X152000D01*
X150000Y238000D02*
Y242000D01*
X148000Y80000D02*
X152000D01*
X150000Y78000D02*
Y82000D01*
X138000Y60000D02*
X142000D01*
X140000Y58000D02*
Y62000D01*
X118000Y260000D02*
X122000D01*
X120000Y258000D02*
Y262000D01*
X128000Y240000D02*
X132000D01*
X130000Y238000D02*
Y242000D01*
X108000Y480000D02*
X112000D01*
X110000Y478000D02*
Y482000D01*
X98000Y260000D02*
X102000D01*
X100000Y258000D02*
Y262000D01*
X108000Y240000D02*
X112000D01*
X110000Y238000D02*
Y242000D01*
X98000Y220000D02*
X102000D01*
X100000Y218000D02*
Y222000D01*
X78000Y460000D02*
X82000D01*
X80000Y458000D02*
Y462000D01*
X88000Y280000D02*
X92000D01*
X90000Y278000D02*
Y282000D01*
X88000Y240000D02*
X92000D01*
X90000Y238000D02*
Y242000D01*
X78000Y220000D02*
X82000D01*
X80000Y218000D02*
Y222000D01*
X68000Y440000D02*
X72000D01*
X70000Y438000D02*
Y442000D01*
X58000Y420000D02*
X62000D01*
X60000Y418000D02*
Y422000D01*
X68000Y240000D02*
X72000D01*
X70000Y238000D02*
Y242000D01*
X58000Y220000D02*
X62000D01*
X60000Y218000D02*
Y222000D01*
X68000Y200000D02*
X72000D01*
X70000Y198000D02*
Y202000D01*
X38000Y380000D02*
X42000D01*
X40000Y378000D02*
Y382000D01*
X38000Y340000D02*
X42000D01*
X40000Y338000D02*
Y342000D01*
X48000Y320000D02*
X52000D01*
X50000Y318000D02*
Y322000D01*
X48000Y240000D02*
X52000D01*
X50000Y238000D02*
Y242000D01*
X38000Y220000D02*
X42000D01*
X40000Y218000D02*
Y222000D01*
X48000Y200000D02*
X52000D01*
X50000Y198000D02*
Y202000D01*
X38000Y180000D02*
X42000D01*
X40000Y178000D02*
Y182000D01*
X28000Y360000D02*
X32000D01*
X30000Y358000D02*
Y362000D01*
X18000Y340000D02*
X22000D01*
X20000Y338000D02*
Y342000D01*
X28000Y320000D02*
X32000D01*
X30000Y318000D02*
Y322000D01*
X18000Y300000D02*
X22000D01*
X20000Y298000D02*
Y302000D01*
X18000Y260000D02*
X22000D01*
X20000Y258000D02*
Y262000D01*
X28000Y240000D02*
X32000D01*
X30000Y238000D02*
Y242000D01*
X18000Y220000D02*
X22000D01*
X20000Y218000D02*
Y222000D01*
X28000Y200000D02*
X32000D01*
X30000Y198000D02*
Y202000D01*
X371650Y218413D02*
X375649D01*
X373649Y216413D02*
Y220413D01*
X371765Y189872D02*
X375765D01*
X373765Y187872D02*
Y191872D01*
X371652Y166180D02*
X375652D01*
X373652Y164180D02*
Y168180D01*
X371878Y140683D02*
X375878D01*
X373878Y138684D02*
Y142683D01*
X391734Y86869D02*
X395733D01*
X393733Y84869D02*
Y88869D01*
X346866Y276853D02*
X350867D01*
X348867Y274853D02*
Y278853D01*
X334998Y290336D02*
X338998D01*
X336998Y288336D02*
Y292336D01*
X263349Y214681D02*
X267348D01*
X265348Y212681D02*
Y216681D01*
X268671Y348431D02*
X272670D01*
X270671Y346431D02*
Y350431D01*
X218508Y399805D02*
X222508D01*
X220508Y397805D02*
Y401805D01*
X206108Y415283D02*
X210108D01*
X208108Y413283D02*
Y417283D01*
X115105Y301902D02*
X119105D01*
X117105Y299902D02*
Y303902D01*
X185667Y265915D02*
X189667D01*
X187667Y263915D02*
Y267915D01*
X140694Y357752D02*
X144694D01*
X142694Y355752D02*
Y359752D01*
X287241Y370336D02*
X291241D01*
X289241Y368336D02*
Y372336D01*
X277717Y369719D02*
X281716D01*
X279716Y367719D02*
Y371719D01*
X277610Y430577D02*
X281609D01*
X279610Y428577D02*
Y432577D01*
X287134Y430204D02*
X291134D01*
X289134Y428204D02*
Y432204D01*
X333894Y389209D02*
X337894D01*
X335894Y387209D02*
Y391209D01*
X311731Y447637D02*
X315731D01*
X313731Y445637D02*
Y449637D01*
X164339Y231752D02*
X168339D01*
X166339Y229752D02*
Y233752D01*
X202059Y175907D02*
X206059D01*
X204059Y173907D02*
Y177907D01*
X263368Y204071D02*
X267367D01*
X265368Y202071D02*
Y206071D01*
X114855Y392736D02*
X118855D01*
X116855Y390736D02*
Y394736D01*
X104279Y380333D02*
X108279D01*
X106279Y378333D02*
Y382333D01*
X277321Y259344D02*
X281321D01*
X279321Y257344D02*
Y261344D01*
X345921Y217210D02*
X349921D01*
X347921Y215210D02*
Y219210D01*
X297645Y347121D02*
X301645D01*
X299645Y345121D02*
Y349121D01*
X269020Y193175D02*
X273020D01*
X271020Y191175D02*
Y195175D01*
X270096Y167083D02*
X274096D01*
X272096Y165084D02*
Y169083D01*
X299136Y175351D02*
X303136D01*
X301136Y173351D02*
Y177351D01*
X318813Y160157D02*
X322813D01*
X320813Y158157D02*
Y162157D01*
X327979Y152386D02*
X331979D01*
X329979Y150386D02*
Y154386D01*
X285136Y282057D02*
X289136D01*
X287136Y280057D02*
Y284057D01*
X285401Y294630D02*
X289401D01*
X287402Y292630D02*
Y296630D01*
X308841Y167504D02*
X312841D01*
X310841Y165504D02*
Y169504D01*
X205789Y271249D02*
X209789D01*
X207789Y269249D02*
Y273249D01*
X202989Y293902D02*
X206989D01*
X204989Y291902D02*
Y295902D01*
X228270Y268567D02*
X232270D01*
X230270Y266567D02*
Y270567D01*
X230488Y285471D02*
X234488D01*
X232488Y283471D02*
Y287471D01*
X154971Y338408D02*
X158971D01*
X156971Y336408D02*
Y340407D01*
X187918Y210307D02*
X191918D01*
X189918Y208307D02*
Y212307D01*
X259586Y304936D02*
X263586D01*
X261586Y302936D02*
Y306936D01*
X263785Y295550D02*
X267785D01*
X265785Y293550D02*
Y297550D01*
X277000Y299697D02*
X281000D01*
X279000Y297697D02*
Y301697D01*
X220642Y324482D02*
X224642D01*
X222642Y322482D02*
Y326482D01*
X215767Y335930D02*
X219767D01*
X217767Y333930D02*
Y337930D01*
X331415Y338068D02*
X335415D01*
X333415Y336068D02*
Y340068D01*
X264018Y154181D02*
X268018D01*
X266019Y152181D02*
Y156181D01*
X273294Y182069D02*
X277294D01*
X275294Y180070D02*
Y184069D01*
X92509Y88201D02*
X96509D01*
X94509Y86201D02*
Y90201D01*
X36300Y167376D02*
X40300D01*
X38300Y165376D02*
Y169376D01*
X222435Y111349D02*
X226435D01*
X224435Y109349D02*
Y113349D01*
X245629Y129959D02*
X249629D01*
X247629Y127959D02*
Y131959D01*
X278154Y88734D02*
X282154D01*
X280154Y86734D02*
Y90734D01*
X312672Y115149D02*
X316672D01*
X314672Y113149D02*
Y117149D01*
X141627Y107322D02*
X145627D01*
X143627Y105322D02*
Y109322D01*
X77470Y131885D02*
X81470D01*
X79470Y129885D02*
Y133885D01*
M02*
