G04*
G04 #@! TF.GenerationSoftware,Altium Limited,Altium Designer,25.1.2 (22)*
G04*
G04 Layer_Color=8421504*
%FSLAX44Y44*%
%MOMM*%
G71*
G04*
G04 #@! TF.SameCoordinates,BCEF5572-1F7E-4207-9204-8C5AED3481CC*
G04*
G04*
G04 #@! TF.FilePolarity,Positive*
G04*
G01*
G75*
%ADD17R,1.0400X1.4700*%
G04:AMPARAMS|DCode=18|XSize=1.04mm|YSize=1.47mm|CornerRadius=0mm|HoleSize=0mm|Usage=FLASHONLY|Rotation=315.000|XOffset=0mm|YOffset=0mm|HoleType=Round|Shape=Rectangle|*
%AMROTATEDRECTD18*
4,1,4,-0.8874,-0.1520,0.1520,0.8874,0.8874,0.1520,-0.1520,-0.8874,-0.8874,-0.1520,0.0*
%
%ADD18ROTATEDRECTD18*%

%ADD19R,1.4700X1.0400*%
G04:AMPARAMS|DCode=20|XSize=0.25mm|YSize=1.25mm|CornerRadius=0mm|HoleSize=0mm|Usage=FLASHONLY|Rotation=315.000|XOffset=0mm|YOffset=0mm|HoleType=Round|Shape=Round|*
%AMOVALD20*
21,1,1.0000,0.2500,0.0000,0.0000,45.0*
1,1,0.2500,-0.3536,-0.3536*
1,1,0.2500,0.3536,0.3536*
%
%ADD20OVALD20*%

G04:AMPARAMS|DCode=21|XSize=0.25mm|YSize=1.25mm|CornerRadius=0mm|HoleSize=0mm|Usage=FLASHONLY|Rotation=225.000|XOffset=0mm|YOffset=0mm|HoleType=Round|Shape=Round|*
%AMOVALD21*
21,1,1.0000,0.2500,0.0000,0.0000,315.0*
1,1,0.2500,-0.3536,0.3536*
1,1,0.2500,0.3536,-0.3536*
%
%ADD21OVALD21*%

%ADD22R,2.1000X3.0000*%
%ADD23R,0.8000X1.6000*%
%ADD24P,1.1314X4X180.0*%
G04:AMPARAMS|DCode=25|XSize=1.04mm|YSize=1.47mm|CornerRadius=0mm|HoleSize=0mm|Usage=FLASHONLY|Rotation=225.000|XOffset=0mm|YOffset=0mm|HoleType=Round|Shape=Rectangle|*
%AMROTATEDRECTD25*
4,1,4,-0.1520,0.8874,0.8874,-0.1520,0.1520,-0.8874,-0.8874,0.1520,-0.1520,0.8874,0.0*
%
%ADD25ROTATEDRECTD25*%

G04:AMPARAMS|DCode=26|XSize=0.8128mm|YSize=0.8mm|CornerRadius=0mm|HoleSize=0mm|Usage=FLASHONLY|Rotation=315.000|XOffset=0mm|YOffset=0mm|HoleType=Round|Shape=Rectangle|*
%AMROTATEDRECTD26*
4,1,4,-0.5702,0.0045,-0.0045,0.5702,0.5702,-0.0045,0.0045,-0.5702,-0.5702,0.0045,0.0*
%
%ADD26ROTATEDRECTD26*%

D17*
X331384Y190414D02*
D03*
X312584D02*
D03*
X332443Y436243D02*
D03*
X313643D02*
D03*
X332516Y458489D02*
D03*
X313716D02*
D03*
X295696Y102034D02*
D03*
X314496D02*
D03*
X312435Y235132D02*
D03*
X331235D02*
D03*
X331085Y211133D02*
D03*
X312285D02*
D03*
X315964Y364904D02*
D03*
X334764D02*
D03*
X317316Y401737D02*
D03*
X336116D02*
D03*
D18*
X309911Y314059D02*
D03*
X296618Y327353D02*
D03*
X310403Y341073D02*
D03*
X323697Y327780D02*
D03*
D19*
X272419Y128242D02*
D03*
Y109441D02*
D03*
D20*
X312131Y286728D02*
D03*
X308595Y290263D02*
D03*
X305060Y293799D02*
D03*
X301524Y297334D02*
D03*
X297988Y300870D02*
D03*
X294453Y304405D02*
D03*
X290917Y307941D02*
D03*
X287382Y311476D02*
D03*
X283846Y315012D02*
D03*
X280311Y318547D02*
D03*
X276775Y322083D02*
D03*
X273240Y325618D02*
D03*
X214903Y267282D02*
D03*
X218439Y263746D02*
D03*
X221975Y260211D02*
D03*
X225510Y256675D02*
D03*
X229046Y253140D02*
D03*
X232581Y249604D02*
D03*
X236117Y246069D02*
D03*
X239652Y242533D02*
D03*
X243188Y238998D02*
D03*
X246723Y235462D02*
D03*
X250259Y231927D02*
D03*
X253794Y228391D02*
D03*
D21*
Y325618D02*
D03*
X250259Y322083D02*
D03*
X246723Y318547D02*
D03*
X243188Y315012D02*
D03*
X239652Y311476D02*
D03*
X236117Y307941D02*
D03*
X232581Y304405D02*
D03*
X229046Y300870D02*
D03*
X225510Y297334D02*
D03*
X221975Y293799D02*
D03*
X218439Y290263D02*
D03*
X214903Y286728D02*
D03*
X273240Y228391D02*
D03*
X276775Y231927D02*
D03*
X280311Y235462D02*
D03*
X283846Y238998D02*
D03*
X287382Y242533D02*
D03*
X290917Y246069D02*
D03*
X294453Y249604D02*
D03*
X297988Y253140D02*
D03*
X301524Y256675D02*
D03*
X305060Y260211D02*
D03*
X308595Y263746D02*
D03*
X312131Y267282D02*
D03*
D22*
X179555Y44308D02*
D03*
X317855D02*
D03*
D23*
X292555Y73308D02*
D03*
X280055D02*
D03*
X267555D02*
D03*
X255055D02*
D03*
X242555D02*
D03*
X230055D02*
D03*
X217555D02*
D03*
X205055D02*
D03*
D24*
X57235Y170307D02*
D03*
X67842Y180914D02*
D03*
X74273Y153161D02*
D03*
X84880Y163768D02*
D03*
X90413Y137001D02*
D03*
X101019Y147608D02*
D03*
D25*
X96699Y204366D02*
D03*
X83406Y191072D02*
D03*
X111035Y189923D02*
D03*
X97741Y176629D02*
D03*
X125487Y175498D02*
D03*
X112193Y162204D02*
D03*
D26*
X63163Y147100D02*
D03*
X51849Y135786D02*
D03*
X60368Y127267D02*
D03*
X71682Y138581D02*
D03*
M02*
