G04*
G04 #@! TF.GenerationSoftware,Altium Limited,Altium Designer,24.9.1 (31)*
G04*
G04 Layer_Color=128*
%FSLAX44Y44*%
%MOMM*%
G71*
G04*
G04 #@! TF.SameCoordinates,21AEE92C-E314-49C0-A966-B7B5AD7E222B*
G04*
G04*
G04 #@! TF.FilePolarity,Positive*
G04*
G01*
G75*
%ADD27C,0.0508*%
D27*
X1603990Y650240D02*
X1614190D01*
X1609090Y645140D02*
Y655340D01*
X1603990Y624840D02*
X1614190D01*
X1609090Y619740D02*
Y629940D01*
X1603990Y599440D02*
X1614190D01*
X1609090Y594340D02*
Y604540D01*
X1603990Y574040D02*
X1614190D01*
X1609090Y568940D02*
Y579140D01*
X1603990Y548640D02*
X1614190D01*
X1609090Y543540D02*
Y553740D01*
X1603990Y523240D02*
X1614190D01*
X1609090Y518140D02*
Y528340D01*
X1603990Y497840D02*
X1614190D01*
X1609090Y492740D02*
Y502940D01*
X1603990Y472440D02*
X1614190D01*
X1609090Y467340D02*
Y477540D01*
X1603990Y447040D02*
X1614190D01*
X1609090Y441940D02*
Y452140D01*
X1603990Y421640D02*
X1614190D01*
X1609090Y416540D02*
Y426740D01*
X1603990Y396240D02*
X1614190D01*
X1609090Y391140D02*
Y401340D01*
X1603990Y370840D02*
X1614190D01*
X1609090Y365740D02*
Y375940D01*
X1603990Y345440D02*
X1614190D01*
X1609090Y340340D02*
Y350540D01*
X1603990Y320040D02*
X1614190D01*
X1609090Y314940D02*
Y325140D01*
X1603990Y294640D02*
X1614190D01*
X1609090Y289540D02*
Y299740D01*
X1603990Y269240D02*
X1614190D01*
X1609090Y264140D02*
Y274340D01*
X1761470Y269240D02*
X1771670D01*
X1766570Y264140D02*
Y274340D01*
X1761470Y294640D02*
X1771670D01*
X1766570Y289540D02*
Y299740D01*
X1761470Y320040D02*
X1771670D01*
X1766570Y314940D02*
Y325140D01*
X1761470Y345440D02*
X1771670D01*
X1766570Y340340D02*
Y350540D01*
X1761470Y370840D02*
X1771670D01*
X1766570Y365740D02*
Y375940D01*
X1761470Y396240D02*
X1771670D01*
X1766570Y391140D02*
Y401340D01*
X1761470Y421640D02*
X1771670D01*
X1766570Y416540D02*
Y426740D01*
X1761470Y447040D02*
X1771670D01*
X1766570Y441940D02*
Y452140D01*
X1761470Y472440D02*
X1771670D01*
X1766570Y467340D02*
Y477540D01*
X1761470Y497840D02*
X1771670D01*
X1766570Y492740D02*
Y502940D01*
X1761470Y523240D02*
X1771670D01*
X1766570Y518140D02*
Y528340D01*
X1761470Y548640D02*
X1771670D01*
X1766570Y543540D02*
Y553740D01*
X1761470Y574040D02*
X1771670D01*
X1766570Y568940D02*
Y579140D01*
X1761470Y599440D02*
X1771670D01*
X1766570Y594340D02*
Y604540D01*
X1761470Y624840D02*
X1771670D01*
X1766570Y619740D02*
Y629940D01*
X1761470Y650240D02*
X1771670D01*
X1766570Y645140D02*
Y655340D01*
M02*
