G04*
G04 #@! TF.GenerationSoftware,Altium Limited,Altium Designer,24.9.1 (31)*
G04*
G04 Layer_Color=16711935*
%FSLAX44Y44*%
%MOMM*%
G71*
G04*
G04 #@! TF.SameCoordinates,21AEE92C-E314-49C0-A966-B7B5AD7E222B*
G04*
G04*
G04 #@! TF.FilePolarity,Negative*
G04*
G01*
G75*
%ADD17C,1.4716*%
%ADD18R,1.4716X1.4716*%
%ADD24R,1.5748X0.3716*%
D17*
X1609090Y650240D02*
D03*
Y624840D02*
D03*
Y599440D02*
D03*
Y574040D02*
D03*
Y548640D02*
D03*
Y523240D02*
D03*
Y497840D02*
D03*
Y472440D02*
D03*
Y447040D02*
D03*
Y421640D02*
D03*
Y396240D02*
D03*
Y370840D02*
D03*
Y345440D02*
D03*
Y320040D02*
D03*
Y294640D02*
D03*
Y269240D02*
D03*
X1766570Y294640D02*
D03*
Y320040D02*
D03*
Y345440D02*
D03*
Y370840D02*
D03*
Y396240D02*
D03*
Y421640D02*
D03*
Y447040D02*
D03*
Y472440D02*
D03*
Y497840D02*
D03*
Y523240D02*
D03*
Y548640D02*
D03*
Y574040D02*
D03*
Y599440D02*
D03*
Y624840D02*
D03*
Y650240D02*
D03*
D18*
Y269240D02*
D03*
D24*
X1726306Y422971D02*
D03*
Y427975D02*
D03*
Y432725D02*
D03*
Y437729D02*
D03*
Y442479D02*
D03*
Y447483D02*
D03*
Y452487D02*
D03*
Y457237D02*
D03*
Y462241D02*
D03*
Y466991D02*
D03*
Y471995D02*
D03*
Y476999D02*
D03*
Y481749D02*
D03*
Y486753D02*
D03*
Y491503D02*
D03*
Y496507D02*
D03*
X1650614D02*
D03*
Y491503D02*
D03*
Y486753D02*
D03*
Y481749D02*
D03*
Y476999D02*
D03*
Y471995D02*
D03*
Y466991D02*
D03*
Y462241D02*
D03*
Y457237D02*
D03*
Y452487D02*
D03*
Y447483D02*
D03*
Y442479D02*
D03*
Y437729D02*
D03*
Y432725D02*
D03*
Y427975D02*
D03*
Y422971D02*
D03*
M02*
