G04*
G04 #@! TF.GenerationSoftware,Altium Limited,Altium Designer,24.9.1 (31)*
G04*
G04 Layer_Color=65535*
%FSLAX44Y44*%
%MOMM*%
G71*
G04*
G04 #@! TF.SameCoordinates,21AEE92C-E314-49C0-A966-B7B5AD7E222B*
G04*
G04*
G04 #@! TF.FilePolarity,Positive*
G04*
G01*
G75*
%ADD10C,0.1524*%
%ADD11C,0.2000*%
%ADD12C,0.1500*%
%ADD13C,0.3000*%
%ADD14C,0.5000*%
D10*
X1691513Y404114D02*
G03*
X1685417Y404114I-3048J0D01*
G01*
X1657477D02*
Y405892D01*
X1719453Y513588D02*
Y515366D01*
X1657477D02*
X1719453D01*
X1657477Y513588D02*
Y515366D01*
Y404114D02*
X1685417D01*
X1691513D01*
X1719453D01*
Y405892D01*
D11*
X1596645Y256540D02*
X1621535D01*
X1596645Y662940D02*
X1621535D01*
X1596645Y256540D02*
Y662940D01*
X1621535Y256540D02*
Y662940D01*
X1754125D02*
X1779015D01*
X1754125Y256540D02*
X1779015D01*
Y662940D01*
X1754125Y256540D02*
Y662940D01*
X1649730Y614121D02*
X1651396Y615787D01*
X1654728D01*
X1656395Y614121D01*
Y612454D01*
X1654728Y610788D01*
X1653062D01*
X1654728D01*
X1656395Y609122D01*
Y607456D01*
X1654728Y605790D01*
X1651396D01*
X1649730Y607456D01*
X1666391Y605790D02*
X1659727D01*
X1666391Y612454D01*
Y614121D01*
X1664725Y615787D01*
X1661393D01*
X1659727Y614121D01*
X1669724Y610788D02*
X1676388D01*
X1679720Y615787D02*
X1686385D01*
X1683053D01*
Y605790D01*
X1696382Y614121D02*
X1694716Y615787D01*
X1691383D01*
X1689717Y614121D01*
Y612454D01*
X1691383Y610788D01*
X1694716D01*
X1696382Y609122D01*
Y607456D01*
X1694716Y605790D01*
X1691383D01*
X1689717Y607456D01*
X1706378Y614121D02*
X1704712Y615787D01*
X1701380D01*
X1699714Y614121D01*
Y612454D01*
X1701380Y610788D01*
X1704712D01*
X1706378Y609122D01*
Y607456D01*
X1704712Y605790D01*
X1701380D01*
X1699714Y607456D01*
X1714709Y615787D02*
X1711377D01*
X1709711Y614121D01*
Y607456D01*
X1711377Y605790D01*
X1714709D01*
X1716375Y607456D01*
Y614121D01*
X1714709Y615787D01*
X1719707Y605790D02*
Y615787D01*
X1724706D01*
X1726372Y614121D01*
Y610788D01*
X1724706Y609122D01*
X1719707D01*
X1649730Y586181D02*
X1651396Y587847D01*
X1654728D01*
X1656395Y586181D01*
Y584515D01*
X1654728Y582848D01*
X1653062D01*
X1654728D01*
X1656395Y581182D01*
Y579516D01*
X1654728Y577850D01*
X1651396D01*
X1649730Y579516D01*
X1666391Y577850D02*
X1659727D01*
X1666391Y584515D01*
Y586181D01*
X1664725Y587847D01*
X1661393D01*
X1659727Y586181D01*
X1669724Y582848D02*
X1676388D01*
X1679720Y577850D02*
Y587847D01*
X1683053Y584515D01*
X1686385Y587847D01*
Y577850D01*
X1696382Y586181D02*
X1694716Y587847D01*
X1691383D01*
X1689717Y586181D01*
Y584515D01*
X1691383Y582848D01*
X1694716D01*
X1696382Y581182D01*
Y579516D01*
X1694716Y577850D01*
X1691383D01*
X1689717Y579516D01*
X1704712Y587847D02*
X1701380D01*
X1699714Y586181D01*
Y579516D01*
X1701380Y577850D01*
X1704712D01*
X1706378Y579516D01*
Y586181D01*
X1704712Y587847D01*
X1709711Y577850D02*
Y587847D01*
X1714709D01*
X1716375Y586181D01*
Y582848D01*
X1714709Y581182D01*
X1709711D01*
X1654332Y561340D02*
X1651000Y564672D01*
Y568004D01*
X1654332Y571337D01*
X1659331Y569671D02*
X1660997Y571337D01*
X1664329D01*
X1665995Y569671D01*
Y563006D01*
X1664329Y561340D01*
X1660997D01*
X1659331Y563006D01*
Y569671D01*
X1669327Y561340D02*
Y563006D01*
X1670994D01*
Y561340D01*
X1669327D01*
X1684323Y571337D02*
X1680990Y569671D01*
X1677658Y566338D01*
Y563006D01*
X1679324Y561340D01*
X1682657D01*
X1684323Y563006D01*
Y564672D01*
X1682657Y566338D01*
X1677658D01*
X1694319Y571337D02*
X1687655D01*
Y566338D01*
X1690987Y568004D01*
X1692653D01*
X1694319Y566338D01*
Y563006D01*
X1692653Y561340D01*
X1689321D01*
X1687655Y563006D01*
X1697652Y561340D02*
Y568004D01*
X1699318D01*
X1700984Y566338D01*
Y561340D01*
Y566338D01*
X1702650Y568004D01*
X1704316Y566338D01*
Y561340D01*
X1707648D02*
Y568004D01*
X1709315D01*
X1710981Y566338D01*
Y561340D01*
Y566338D01*
X1712647Y568004D01*
X1714313Y566338D01*
Y561340D01*
X1717645D02*
X1720977Y564672D01*
Y568004D01*
X1717645Y571337D01*
X1649730Y600151D02*
X1651396Y601817D01*
X1654728D01*
X1656395Y600151D01*
Y598484D01*
X1654728Y596818D01*
X1653062D01*
X1654728D01*
X1656395Y595152D01*
Y593486D01*
X1654728Y591820D01*
X1651396D01*
X1649730Y593486D01*
X1666391Y591820D02*
X1659727D01*
X1666391Y598484D01*
Y600151D01*
X1664725Y601817D01*
X1661393D01*
X1659727Y600151D01*
X1669724Y596818D02*
X1676388D01*
X1679720Y601817D02*
Y595152D01*
X1683053Y591820D01*
X1686385Y595152D01*
Y601817D01*
X1696382Y600151D02*
X1694716Y601817D01*
X1691383D01*
X1689717Y600151D01*
Y598484D01*
X1691383Y596818D01*
X1694716D01*
X1696382Y595152D01*
Y593486D01*
X1694716Y591820D01*
X1691383D01*
X1689717Y593486D01*
X1706378Y600151D02*
X1704712Y601817D01*
X1701380D01*
X1699714Y600151D01*
Y598484D01*
X1701380Y596818D01*
X1704712D01*
X1706378Y595152D01*
Y593486D01*
X1704712Y591820D01*
X1701380D01*
X1699714Y593486D01*
X1714709Y601817D02*
X1711377D01*
X1709711Y600151D01*
Y593486D01*
X1711377Y591820D01*
X1714709D01*
X1716375Y593486D01*
Y600151D01*
X1714709Y601817D01*
X1719707Y591820D02*
Y601817D01*
X1724706D01*
X1726372Y600151D01*
Y596818D01*
X1724706Y595152D01*
X1719707D01*
D12*
X1629410Y646430D02*
X1632076D01*
X1630743D01*
Y654427D01*
X1629410Y653094D01*
X1636075Y654427D02*
X1641406D01*
Y653094D01*
X1636075Y647763D01*
Y646430D01*
X1736090D02*
X1738756D01*
X1737423D01*
Y654427D01*
X1736090Y653094D01*
X1748086Y654427D02*
X1745420Y653094D01*
X1742755Y650429D01*
Y647763D01*
X1744087Y646430D01*
X1746753D01*
X1748086Y647763D01*
Y649096D01*
X1746753Y650429D01*
X1742755D01*
X1629410Y269555D02*
X1630743Y270887D01*
X1633409D01*
X1634742Y269555D01*
Y268222D01*
X1633409Y266889D01*
X1632076D01*
X1633409D01*
X1634742Y265556D01*
Y264223D01*
X1633409Y262890D01*
X1630743D01*
X1629410Y264223D01*
X1642739Y262890D02*
X1637407D01*
X1642739Y268222D01*
Y269555D01*
X1641406Y270887D01*
X1638740D01*
X1637407Y269555D01*
X1743710Y262890D02*
X1746376D01*
X1745043D01*
Y270887D01*
X1743710Y269555D01*
D13*
X1725930Y401320D02*
Y402653D01*
X1727263D01*
Y401320D01*
X1725930D01*
D14*
X1732280Y265430D02*
Y267929D01*
X1734779D01*
Y265430D01*
X1732280D01*
M02*
