G04*
G04 #@! TF.GenerationSoftware,Altium Limited,Altium Designer,24.9.1 (31)*
G04*
G04 Layer_Physical_Order=2*
G04 Layer_Color=16711680*
%FSLAX44Y44*%
%MOMM*%
G71*
G04*
G04 #@! TF.SameCoordinates,21AEE92C-E314-49C0-A966-B7B5AD7E222B*
G04*
G04*
G04 #@! TF.FilePolarity,Positive*
G04*
G01*
G75*
%ADD20C,1.3700*%
%ADD21R,1.3700X1.3700*%
%ADD22R,1.4732X0.2700*%
%ADD23C,0.2700*%
D20*
X1609090Y650240D02*
D03*
Y624840D02*
D03*
Y599440D02*
D03*
Y574040D02*
D03*
Y548640D02*
D03*
Y523240D02*
D03*
Y497840D02*
D03*
Y472440D02*
D03*
Y447040D02*
D03*
Y421640D02*
D03*
Y396240D02*
D03*
Y370840D02*
D03*
Y345440D02*
D03*
Y320040D02*
D03*
Y294640D02*
D03*
Y269240D02*
D03*
X1766570Y294640D02*
D03*
Y320040D02*
D03*
Y345440D02*
D03*
Y370840D02*
D03*
Y396240D02*
D03*
Y421640D02*
D03*
Y447040D02*
D03*
Y472440D02*
D03*
Y497840D02*
D03*
Y523240D02*
D03*
Y548640D02*
D03*
Y574040D02*
D03*
Y599440D02*
D03*
Y624840D02*
D03*
Y650240D02*
D03*
D21*
Y269240D02*
D03*
D22*
X1726306Y422971D02*
D03*
Y427975D02*
D03*
Y432725D02*
D03*
Y437729D02*
D03*
Y442479D02*
D03*
Y447483D02*
D03*
Y452487D02*
D03*
Y457237D02*
D03*
Y462241D02*
D03*
Y466991D02*
D03*
Y471995D02*
D03*
Y476999D02*
D03*
Y481749D02*
D03*
Y486753D02*
D03*
Y491503D02*
D03*
Y496507D02*
D03*
X1650614D02*
D03*
Y491503D02*
D03*
Y486753D02*
D03*
Y481749D02*
D03*
Y476999D02*
D03*
Y471995D02*
D03*
Y466991D02*
D03*
Y462241D02*
D03*
Y457237D02*
D03*
Y452487D02*
D03*
Y447483D02*
D03*
Y442479D02*
D03*
Y437729D02*
D03*
Y432725D02*
D03*
Y427975D02*
D03*
Y422971D02*
D03*
D23*
X1619287Y457237D02*
X1649354D01*
X1609090Y447040D02*
X1619287Y457237D01*
X1609090Y472440D02*
X1619289Y462241D01*
X1649354D01*
X1609090Y638804D02*
Y650240D01*
X1643488Y496507D02*
X1649354D01*
X1609090Y638804D02*
X1643488Y604406D01*
Y496507D02*
Y604406D01*
X1609090Y486404D02*
Y497840D01*
X1628461Y466991D02*
X1649354D01*
X1629855Y471995D02*
X1649354D01*
X1631291Y476999D02*
X1649354D01*
X1609090Y523240D02*
X1618964Y513366D01*
X1609090Y574040D02*
X1628012Y555118D01*
X1609090Y624840D02*
X1637060Y596870D01*
X1609090Y599440D02*
X1632536Y575994D01*
X1623488Y484802D02*
Y534242D01*
X1609090Y548640D02*
X1623488Y534242D01*
X1618964Y482928D02*
Y513366D01*
Y476488D02*
Y476530D01*
Y476488D02*
X1628461Y466991D01*
X1624409Y477440D02*
X1629855Y471995D01*
X1618964Y482928D02*
X1624409Y477482D01*
X1623488Y484802D02*
X1631291Y476999D01*
X1624409Y477440D02*
Y477482D01*
X1609090Y486404D02*
X1618964Y476530D01*
X1637060Y493676D02*
Y596870D01*
X1639253Y491483D02*
X1642590D01*
X1642609Y491503D01*
X1637060Y493676D02*
X1639253Y491483D01*
X1642609Y491503D02*
X1649334D01*
X1632536Y490904D02*
Y575994D01*
X1636687Y486753D02*
X1649354D01*
X1632536Y490904D02*
X1636687Y486753D01*
X1634071Y481749D02*
X1649354D01*
X1628012Y487808D02*
Y555118D01*
Y487808D02*
X1634071Y481749D01*
X1628012Y431672D02*
X1634071Y437731D01*
X1628012Y364362D02*
Y431672D01*
X1634071Y437731D02*
X1649354D01*
X1632536Y428576D02*
X1636687Y432727D01*
X1649354D01*
X1632536Y343486D02*
Y428576D01*
X1642609Y427977D02*
X1649334D01*
X1637060Y425804D02*
X1639253Y427997D01*
X1642590D02*
X1642609Y427977D01*
X1639253Y427997D02*
X1642590D01*
X1637060Y322610D02*
Y425804D01*
X1609090Y433076D02*
X1618964Y442950D01*
X1624409Y441998D02*
Y442039D01*
X1623488Y434678D02*
X1631291Y442481D01*
X1618964Y436552D02*
X1624409Y441998D01*
Y442039D02*
X1629855Y447485D01*
X1618964Y442992D02*
X1628461Y452489D01*
X1618964Y442950D02*
Y442992D01*
Y406114D02*
Y436552D01*
X1609090Y370840D02*
X1623488Y385238D01*
Y434678D01*
X1609090Y320040D02*
X1632536Y343486D01*
X1609090Y294640D02*
X1637060Y322610D01*
X1609090Y345440D02*
X1628012Y364362D01*
X1609090Y396240D02*
X1618964Y406114D01*
X1631291Y442481D02*
X1649354D01*
X1629855Y447485D02*
X1649354D01*
X1628461Y452489D02*
X1649354D01*
X1609090Y421640D02*
Y433076D01*
X1643488Y315074D02*
Y422973D01*
X1609090Y280676D02*
X1643488Y315074D01*
Y422973D02*
X1649354D01*
X1609090Y269240D02*
Y280676D01*
X1619289Y457239D02*
X1649354D01*
X1609090Y447040D02*
X1619289Y457239D01*
X1756371D02*
X1766570Y447040D01*
X1726306Y457239D02*
X1756371D01*
X1766570Y269240D02*
Y280676D01*
X1726306Y422973D02*
X1732172D01*
Y315074D02*
X1766570Y280676D01*
X1732172Y315074D02*
Y422973D01*
X1766570Y421640D02*
Y433076D01*
X1726306Y452489D02*
X1747199D01*
X1726306Y447485D02*
X1745805D01*
X1726306Y442481D02*
X1744369D01*
X1756696Y406114D02*
X1766570Y396240D01*
X1747648Y364362D02*
X1766570Y345440D01*
X1738600Y322610D02*
X1766570Y294640D01*
X1743124Y343486D02*
X1766570Y320040D01*
X1752172Y385238D02*
Y434678D01*
Y385238D02*
X1766570Y370840D01*
X1756696Y406114D02*
Y436552D01*
Y442950D02*
Y442992D01*
X1747199Y452489D02*
X1756696Y442992D01*
X1745805Y447485D02*
X1751250Y442039D01*
Y441998D02*
X1756696Y436552D01*
X1744369Y442481D02*
X1752172Y434678D01*
X1751250Y441998D02*
Y442039D01*
X1756696Y442950D02*
X1766570Y433076D01*
X1738600Y322610D02*
Y425804D01*
X1733071Y427997D02*
X1736407D01*
X1733051Y427977D02*
X1733071Y427997D01*
X1736407D02*
X1738600Y425804D01*
X1726326Y427977D02*
X1733051D01*
X1743124Y343486D02*
Y428576D01*
X1726306Y432727D02*
X1738973D01*
X1743124Y428576D01*
X1726306Y437731D02*
X1741589D01*
X1747648Y364362D02*
Y431672D01*
X1741589Y437731D02*
X1747648Y431672D01*
X1741589Y481749D02*
X1747648Y487808D01*
Y555118D01*
X1726306Y481749D02*
X1741589D01*
X1738973Y486753D02*
X1743124Y490904D01*
X1726306Y486753D02*
X1738973D01*
X1743124Y490904D02*
Y575994D01*
X1726326Y491503D02*
X1733051D01*
X1736407Y491483D02*
X1738600Y493676D01*
X1733051Y491503D02*
X1733071Y491483D01*
X1736407D01*
X1738600Y493676D02*
Y596870D01*
X1756696Y476530D02*
X1766570Y486404D01*
X1751250Y477440D02*
Y477482D01*
X1744369Y476999D02*
X1752172Y484802D01*
X1751250Y477482D02*
X1756696Y482928D01*
X1745805Y471995D02*
X1751250Y477440D01*
X1747199Y466991D02*
X1756696Y476488D01*
Y476530D01*
Y482928D02*
Y513366D01*
X1752172Y534242D02*
X1766570Y548640D01*
X1752172Y484802D02*
Y534242D01*
X1743124Y575994D02*
X1766570Y599440D01*
X1738600Y596870D02*
X1766570Y624840D01*
X1747648Y555118D02*
X1766570Y574040D01*
X1756696Y513366D02*
X1766570Y523240D01*
X1726306Y476999D02*
X1744369D01*
X1726306Y471995D02*
X1745805D01*
X1726306Y466991D02*
X1747199D01*
X1766570Y486404D02*
Y497840D01*
X1732172Y496507D02*
Y604406D01*
X1766570Y638804D01*
X1726306Y496507D02*
X1732172D01*
X1766570Y638804D02*
Y650240D01*
X1726306Y462241D02*
X1756371D01*
X1766570Y472440D01*
X1756373Y457237D02*
X1766570Y447040D01*
X1726306Y457237D02*
X1756373D01*
M02*
