G04*
G04 #@! TF.GenerationSoftware,Altium Limited,Altium Designer,25.1.2 (22)*
G04*
G04 Layer_Color=128*
%FSLAX44Y44*%
%MOMM*%
G71*
G04*
G04 #@! TF.SameCoordinates,B52A457E-B352-49CB-BE48-5EE90B4D2348*
G04*
G04*
G04 #@! TF.FilePolarity,Positive*
G04*
G01*
G75*
%ADD61C,0.0508*%
D61*
X218772Y438812D02*
X230872D01*
X224822Y432762D02*
Y444862D01*
X381370Y356200D02*
X391570D01*
X386470Y351100D02*
Y361300D01*
X381370Y381600D02*
X391570D01*
X386470Y376500D02*
Y386700D01*
X381370Y407000D02*
X391570D01*
X386470Y401900D02*
Y412100D01*
X381370Y432400D02*
X391570D01*
X386470Y427300D02*
Y437500D01*
X355970Y127600D02*
X366170D01*
X361070Y122500D02*
Y132700D01*
X355970Y153000D02*
X366170D01*
X361070Y147900D02*
Y158100D01*
X355970Y178400D02*
X366170D01*
X361070Y173300D02*
Y183500D01*
X355970Y203800D02*
X366170D01*
X361070Y198700D02*
Y208900D01*
X30000Y280000D02*
X75000D01*
X52500Y257500D02*
Y302500D01*
X335870Y66426D02*
X380870D01*
X358370Y43926D02*
Y88926D01*
X335874Y493574D02*
X380874D01*
X358374Y471074D02*
Y516074D01*
X355970Y356200D02*
X366170D01*
X361070Y351100D02*
Y361300D01*
X355970Y381600D02*
X366170D01*
X361070Y376500D02*
Y386700D01*
X355970Y407000D02*
X366170D01*
X361070Y401900D02*
Y412100D01*
X355970Y432400D02*
X366170D01*
X361070Y427300D02*
Y437500D01*
X381370Y127600D02*
X391570D01*
X386470Y122500D02*
Y132700D01*
X381370Y153000D02*
X391570D01*
X386470Y147900D02*
Y158100D01*
X381370Y178400D02*
X391570D01*
X386470Y173300D02*
Y183500D01*
X381370Y203800D02*
X391570D01*
X386470Y198700D02*
Y208900D01*
X355970Y229200D02*
X366170D01*
X361070Y224100D02*
Y234300D01*
X355970Y254600D02*
X366170D01*
X361070Y249500D02*
Y259700D01*
X355970Y280000D02*
X366170D01*
X361070Y274900D02*
Y285100D01*
X355970Y305400D02*
X366170D01*
X361070Y300300D02*
Y310500D01*
X355965Y330800D02*
X366165D01*
X361065Y325700D02*
Y335900D01*
X381370Y229200D02*
X391570D01*
X386470Y224100D02*
Y234300D01*
X381370Y254600D02*
X391570D01*
X386470Y249500D02*
Y259700D01*
X381370Y280000D02*
X391570D01*
X386470Y274900D02*
Y285100D01*
X381370Y305400D02*
X391570D01*
X386470Y300300D02*
Y310500D01*
X381370Y330800D02*
X391570D01*
X386470Y325700D02*
Y335900D01*
X270077Y113674D02*
X274076D01*
X272076Y111674D02*
Y115674D01*
X384668Y242112D02*
X388668D01*
X386668Y240112D02*
Y244112D01*
X384447Y267330D02*
X388447D01*
X386447Y265330D02*
Y269330D01*
X349345Y270681D02*
X353345D01*
X351345Y268681D02*
Y272681D01*
X359133Y267137D02*
X363133D01*
X361133Y265137D02*
Y269137D01*
X340739Y280891D02*
X344739D01*
X342739Y278890D02*
Y282890D01*
X340699Y106313D02*
X344699D01*
X342699Y104313D02*
Y108313D01*
X397413Y102591D02*
X401413D01*
X399413Y100591D02*
Y104591D01*
X397248Y165480D02*
X401248D01*
X399248Y163480D02*
Y167480D01*
X371792Y139378D02*
X375792D01*
X373792Y137378D02*
Y141378D01*
X371653Y448702D02*
X375653D01*
X373653Y446702D02*
Y450702D01*
X371653Y418344D02*
X375653D01*
X373653Y416344D02*
Y420344D01*
X371753Y393958D02*
X375753D01*
X373753Y391958D02*
Y395958D01*
X372051Y368577D02*
X376051D01*
X374051Y366577D02*
Y370577D01*
X371255Y343693D02*
X375255D01*
X373255Y341693D02*
Y345693D01*
X371454Y316221D02*
X375454D01*
X373454Y314221D02*
Y318221D01*
X390263Y466039D02*
X394263D01*
X392263Y464039D02*
Y468039D01*
X287995Y481045D02*
X291995D01*
X289995Y479044D02*
Y483045D01*
X409235Y48203D02*
X413235D01*
X411235Y46203D02*
Y50203D01*
X125660Y495953D02*
X129660D01*
X127660Y493953D02*
Y497953D01*
X318823Y205929D02*
X322823D01*
X320823Y203929D02*
Y207929D01*
X330676Y226029D02*
X334676D01*
X332676Y224030D02*
Y228029D01*
X330953Y186894D02*
X334953D01*
X332953Y184893D02*
Y188893D01*
X304812Y198131D02*
X308812D01*
X306812Y196131D02*
Y200131D01*
X330605Y155012D02*
X334605D01*
X332605Y153012D02*
Y157012D01*
X284650Y313507D02*
X288650D01*
X286650Y311507D02*
Y315507D01*
X338828Y341645D02*
X342828D01*
X340828Y339645D02*
Y343644D01*
X295060Y356143D02*
X299060D01*
X297060Y354143D02*
Y358143D01*
X317586Y356143D02*
X321586D01*
X319586Y354143D02*
Y358143D01*
X316995Y52152D02*
X320995D01*
X318995Y50152D02*
Y54152D01*
X329432Y246994D02*
X333432D01*
X331432Y244994D02*
Y248994D01*
X164578Y195653D02*
X168578D01*
X166578Y193653D02*
Y197653D01*
X275260Y20567D02*
X279260D01*
X277260Y18567D02*
Y22567D01*
X235386Y405421D02*
X239386D01*
X237386Y403421D02*
Y407421D01*
X286725Y405655D02*
X290725D01*
X288725Y403655D02*
Y407655D01*
X125962Y390732D02*
X129962D01*
X127962Y388732D02*
Y392732D01*
X278909Y140374D02*
X282909D01*
X280909Y138374D02*
Y142374D01*
X168764Y138742D02*
X172764D01*
X170764Y136742D02*
Y140742D01*
X206942Y106381D02*
X210942D01*
X208942Y104381D02*
Y108380D01*
X286010Y260335D02*
X290010D01*
X288010Y258335D02*
Y262335D01*
X286580Y287631D02*
X290580D01*
X288580Y285631D02*
Y289631D01*
X303223Y231054D02*
X307223D01*
X305223Y229054D02*
Y233054D01*
X259480Y248502D02*
X263480D01*
X261480Y246502D02*
Y250502D01*
X212295Y197449D02*
X216295D01*
X214295Y195449D02*
Y199449D01*
X236783Y222818D02*
X240783D01*
X238783Y220818D02*
Y224818D01*
X215391Y293736D02*
X219391D01*
X217391Y291736D02*
Y295736D01*
X239631Y272741D02*
X243631D01*
X241631Y270741D02*
Y274741D01*
X232378Y308050D02*
X236378D01*
X234378Y306050D02*
Y310050D01*
X257190Y284384D02*
X261190D01*
X259190Y282384D02*
Y286384D01*
X275529Y225815D02*
X279529D01*
X277529Y223815D02*
Y227815D01*
X263678Y201682D02*
X267678D01*
X265678Y199682D02*
Y203682D01*
X154754Y109414D02*
X158754D01*
X156754Y107414D02*
Y111414D01*
X119527Y105150D02*
X123526D01*
X121527Y103150D02*
Y107150D01*
X86735Y96767D02*
X90735D01*
X88735Y94767D02*
Y98767D01*
X255481Y15453D02*
X259481D01*
X257481Y13453D02*
Y17453D01*
X311908Y123191D02*
X315908D01*
X313908Y121191D02*
Y125191D01*
X215572Y359273D02*
X219572D01*
X217572Y357273D02*
Y361273D01*
X259634Y356536D02*
X263633D01*
X261633Y354536D02*
Y358536D01*
X237994Y357057D02*
X241994D01*
X239994Y355057D02*
Y359057D01*
X279448Y375829D02*
X283448D01*
X281448Y373829D02*
Y377829D01*
X272018Y391603D02*
X276018D01*
X274018Y389603D02*
Y393603D01*
X274494Y420021D02*
X278494D01*
X276495Y418021D02*
Y422021D01*
X200841Y370875D02*
X204841D01*
X202841Y368875D02*
Y372875D01*
X275277Y436447D02*
X279277D01*
X277277Y434447D02*
Y438447D01*
X247119Y393037D02*
X251119D01*
X249119Y391037D02*
Y395037D01*
X336224Y437319D02*
X340224D01*
X338224Y435319D02*
Y439319D01*
X320913Y406547D02*
X324913D01*
X322913Y404547D02*
Y408547D01*
X449609Y488729D02*
X453609D01*
X451609Y486729D02*
Y490729D01*
X319427Y532802D02*
X323427D01*
X321427Y530802D02*
Y534802D01*
X161490Y495858D02*
X165490D01*
X163490Y493858D02*
Y497858D01*
X160156Y391073D02*
X164156D01*
X162156Y389073D02*
Y393073D01*
X130012Y334249D02*
X134012D01*
X132012Y332249D02*
Y336249D01*
X144408Y297260D02*
X148408D01*
X146408Y295261D02*
Y299261D01*
X371879Y220890D02*
X375879D01*
X373879Y218890D02*
Y222890D01*
X371790Y185260D02*
X375790D01*
X373790Y183260D02*
Y187260D01*
X84816Y121397D02*
X88816D01*
X86816Y119397D02*
Y123397D01*
X217796Y72771D02*
X221796D01*
X219796Y70771D02*
Y74771D01*
X334296Y20657D02*
X338297D01*
X336297Y18657D02*
Y22657D01*
X187473Y31341D02*
X191473D01*
X189473Y29341D02*
Y33341D01*
X149952Y49588D02*
X153952D01*
X151952Y47588D02*
Y51588D01*
X226471Y539237D02*
X230471D01*
X228471Y537237D02*
Y541237D01*
M02*
