G04*
G04 #@! TF.GenerationSoftware,Altium Limited,Altium Designer,25.1.2 (22)*
G04*
G04 Layer_Color=8388736*
%FSLAX44Y44*%
%MOMM*%
G71*
G04*
G04 #@! TF.SameCoordinates,1B355CDF-056A-496C-88C6-064FCE6B5934*
G04*
G04*
G04 #@! TF.FilePolarity,Negative*
G04*
G01*
G75*
%ADD18R,1.2000X1.9000*%
%ADD19R,1.2000X1.9000*%
%ADD20R,1.2000X1.9000*%
%ADD30R,0.3500X0.5500*%
%ADD31R,0.5500X0.3500*%
%ADD32R,0.3500X1.1001*%
%ADD33R,1.1416X1.5716*%
G04:AMPARAMS|DCode=34|XSize=2.1016mm|YSize=1.1016mm|CornerRadius=0.1758mm|HoleSize=0mm|Usage=FLASHONLY|Rotation=180.000|XOffset=0mm|YOffset=0mm|HoleType=Round|Shape=RoundedRectangle|*
%AMROUNDEDRECTD34*
21,1,2.1016,0.7500,0,0,180.0*
21,1,1.7500,1.1016,0,0,180.0*
1,1,0.3516,-0.8750,0.3750*
1,1,0.3516,0.8750,0.3750*
1,1,0.3516,0.8750,-0.3750*
1,1,0.3516,-0.8750,-0.3750*
%
%ADD34ROUNDEDRECTD34*%
%ADD35R,2.6016X2.6016*%
%ADD36C,1.1016*%
%ADD37R,0.3500X0.2500*%
%ADD38R,0.2500X0.3500*%
%ADD39R,0.9016X0.9016*%
G04:AMPARAMS|DCode=40|XSize=2.0716mm|YSize=0.7016mm|CornerRadius=0.2008mm|HoleSize=0mm|Usage=FLASHONLY|Rotation=90.000|XOffset=0mm|YOffset=0mm|HoleType=Round|Shape=RoundedRectangle|*
%AMROUNDEDRECTD40*
21,1,2.0716,0.3000,0,0,90.0*
21,1,1.6700,0.7016,0,0,90.0*
1,1,0.4016,0.1500,0.8350*
1,1,0.4016,0.1500,-0.8350*
1,1,0.4016,-0.1500,-0.8350*
1,1,0.4016,-0.1500,0.8350*
%
%ADD40ROUNDEDRECTD40*%
%ADD41R,1.1049X0.6604*%
G04:AMPARAMS|DCode=42|XSize=1.4216mm|YSize=0.7016mm|CornerRadius=0.1258mm|HoleSize=0mm|Usage=FLASHONLY|Rotation=180.000|XOffset=0mm|YOffset=0mm|HoleType=Round|Shape=RoundedRectangle|*
%AMROUNDEDRECTD42*
21,1,1.4216,0.4500,0,0,180.0*
21,1,1.1700,0.7016,0,0,180.0*
1,1,0.2516,-0.5850,0.2250*
1,1,0.2516,0.5850,0.2250*
1,1,0.2516,0.5850,-0.2250*
1,1,0.2516,-0.5850,-0.2250*
%
%ADD42ROUNDEDRECTD42*%
%ADD43R,1.5716X1.1416*%
%ADD44C,1.3116*%
%ADD45C,1.4716*%
%ADD46R,1.4716X1.4716*%
%ADD47C,1.4720*%
%ADD48C,7.1016*%
%ADD49C,1.0032*%
%ADD50C,0.9016*%
D18*
X266742Y339853D02*
D03*
X286742D02*
D03*
X206742D02*
D03*
X186742D02*
D03*
X166742D02*
D03*
X146742D02*
D03*
D19*
X246742D02*
D03*
X226742D02*
D03*
D20*
X166742Y168853D02*
D03*
X146742D02*
D03*
X206742D02*
D03*
X186742D02*
D03*
X246742Y168853D02*
D03*
X226742D02*
D03*
X286742Y168853D02*
D03*
X266742D02*
D03*
D30*
X402131Y70164D02*
D03*
X343627Y260580D02*
D03*
D31*
X342088Y292173D02*
D03*
X333574Y216178D02*
D03*
X357828Y535066D02*
D03*
X338142Y428105D02*
D03*
X382418Y459962D02*
D03*
D32*
X343627Y257829D02*
D03*
D33*
X198037Y113352D02*
D03*
X179237D02*
D03*
X301601Y111386D02*
D03*
X282801D02*
D03*
X281700Y539011D02*
D03*
X300501D02*
D03*
X309101Y286702D02*
D03*
X327901D02*
D03*
X327953Y263794D02*
D03*
X309153D02*
D03*
X327355Y341282D02*
D03*
X308555D02*
D03*
X233376Y147655D02*
D03*
X252176D02*
D03*
X164208Y46041D02*
D03*
X183008D02*
D03*
X221240Y110927D02*
D03*
X240040D02*
D03*
X220958Y147674D02*
D03*
X202158D02*
D03*
D34*
X304822Y375812D02*
D03*
Y390812D02*
D03*
Y405812D02*
D03*
Y420812D02*
D03*
Y435812D02*
D03*
Y450812D02*
D03*
Y465812D02*
D03*
Y480812D02*
D03*
Y495812D02*
D03*
Y510812D02*
D03*
X144822D02*
D03*
Y495812D02*
D03*
Y480812D02*
D03*
Y465812D02*
D03*
Y450812D02*
D03*
Y435812D02*
D03*
Y420812D02*
D03*
Y405812D02*
D03*
Y390812D02*
D03*
Y375812D02*
D03*
D35*
X51458Y227231D02*
D03*
X121458D02*
D03*
Y157231D02*
D03*
X51458D02*
D03*
D36*
X270811Y151252D02*
D03*
X290737Y150906D02*
D03*
X162310Y150321D02*
D03*
X183681Y149642D02*
D03*
X127684Y351435D02*
D03*
D37*
X402131Y72914D02*
D03*
Y67414D02*
D03*
X343627Y263330D02*
D03*
Y252330D02*
D03*
Y257830D02*
D03*
D38*
X344838Y292173D02*
D03*
X339338D02*
D03*
X336324Y216178D02*
D03*
X330824D02*
D03*
X355078Y535066D02*
D03*
X360578D02*
D03*
X340892Y428105D02*
D03*
X335392D02*
D03*
X379668Y459962D02*
D03*
X385168D02*
D03*
D39*
X239341Y539220D02*
D03*
X254341D02*
D03*
D40*
X200771Y87089D02*
D03*
X213471D02*
D03*
X226171D02*
D03*
X238871D02*
D03*
X251571D02*
D03*
X264271D02*
D03*
X276971D02*
D03*
Y37589D02*
D03*
X264271D02*
D03*
X251571D02*
D03*
X238871D02*
D03*
X226171D02*
D03*
X213471D02*
D03*
X200771D02*
D03*
D41*
X155203Y67311D02*
D03*
Y76811D02*
D03*
Y86311D02*
D03*
X182254D02*
D03*
Y76811D02*
D03*
Y67311D02*
D03*
D42*
X332501Y304569D02*
D03*
Y323569D02*
D03*
X312501Y314069D02*
D03*
X86601Y112229D02*
D03*
Y131229D02*
D03*
X66601Y121729D02*
D03*
D43*
X105578Y337578D02*
D03*
Y318778D02*
D03*
X79910Y337590D02*
D03*
Y318790D02*
D03*
X297033Y19076D02*
D03*
Y37876D02*
D03*
X105104Y125894D02*
D03*
Y107094D02*
D03*
X297034Y81419D02*
D03*
Y62619D02*
D03*
X333720Y390504D02*
D03*
Y371704D02*
D03*
X318908Y39392D02*
D03*
Y20592D02*
D03*
X318260Y112494D02*
D03*
Y93694D02*
D03*
D44*
X224822Y438812D02*
D03*
D45*
X386470Y356200D02*
D03*
Y381600D02*
D03*
Y407000D02*
D03*
X361070Y127600D02*
D03*
Y153000D02*
D03*
Y356200D02*
D03*
Y381600D02*
D03*
Y407000D02*
D03*
X386470Y127600D02*
D03*
Y153000D02*
D03*
X361070Y254600D02*
D03*
Y280000D02*
D03*
Y305400D02*
D03*
X386470Y254600D02*
D03*
Y280000D02*
D03*
Y305400D02*
D03*
D46*
Y432400D02*
D03*
X361070Y203800D02*
D03*
Y432400D02*
D03*
X386470Y203800D02*
D03*
X361065Y330800D02*
D03*
X386470D02*
D03*
D47*
X361070Y178400D02*
D03*
X386470D02*
D03*
X361070Y229200D02*
D03*
X386470D02*
D03*
D48*
X52500Y280000D02*
D03*
X358370Y66426D02*
D03*
X358374Y493574D02*
D03*
D49*
X332676Y226029D02*
D03*
X331432Y246994D02*
D03*
D50*
X297060Y356143D02*
D03*
X319586D02*
D03*
M02*
