G04*
G04 #@! TF.GenerationSoftware,Altium Limited,Altium Designer,25.1.2 (22)*
G04*
G04 Layer_Physical_Order=1*
G04 Layer_Color=255*
%FSLAX44Y44*%
%MOMM*%
G71*
G04*
G04 #@! TF.SameCoordinates,1B355CDF-056A-496C-88C6-064FCE6B5934*
G04*
G04*
G04 #@! TF.FilePolarity,Positive*
G04*
G01*
G75*
%ADD10C,0.2000*%
%ADD12C,0.1500*%
%ADD21R,1.0400X1.4700*%
G04:AMPARAMS|DCode=22|XSize=2mm|YSize=1mm|CornerRadius=0.125mm|HoleSize=0mm|Usage=FLASHONLY|Rotation=180.000|XOffset=0mm|YOffset=0mm|HoleType=Round|Shape=RoundedRectangle|*
%AMROUNDEDRECTD22*
21,1,2.0000,0.7500,0,0,180.0*
21,1,1.7500,1.0000,0,0,180.0*
1,1,0.2500,-0.8750,0.3750*
1,1,0.2500,0.8750,0.3750*
1,1,0.2500,0.8750,-0.3750*
1,1,0.2500,-0.8750,-0.3750*
%
%ADD22ROUNDEDRECTD22*%
%ADD23R,2.5000X2.5000*%
%ADD24C,1.0000*%
%ADD25R,0.8000X0.8000*%
G04:AMPARAMS|DCode=26|XSize=1.97mm|YSize=0.6mm|CornerRadius=0.15mm|HoleSize=0mm|Usage=FLASHONLY|Rotation=90.000|XOffset=0mm|YOffset=0mm|HoleType=Round|Shape=RoundedRectangle|*
%AMROUNDEDRECTD26*
21,1,1.9700,0.3000,0,0,90.0*
21,1,1.6700,0.6000,0,0,90.0*
1,1,0.3000,0.1500,0.8350*
1,1,0.3000,0.1500,-0.8350*
1,1,0.3000,-0.1500,-0.8350*
1,1,0.3000,-0.1500,0.8350*
%
%ADD26ROUNDEDRECTD26*%
%ADD27R,1.0033X0.5588*%
G04:AMPARAMS|DCode=28|XSize=1.32mm|YSize=0.6mm|CornerRadius=0.075mm|HoleSize=0mm|Usage=FLASHONLY|Rotation=180.000|XOffset=0mm|YOffset=0mm|HoleType=Round|Shape=RoundedRectangle|*
%AMROUNDEDRECTD28*
21,1,1.3200,0.4500,0,0,180.0*
21,1,1.1700,0.6000,0,0,180.0*
1,1,0.1500,-0.5850,0.2250*
1,1,0.1500,0.5850,0.2250*
1,1,0.1500,0.5850,-0.2250*
1,1,0.1500,-0.5850,-0.2250*
%
%ADD28ROUNDEDRECTD28*%
%ADD29R,1.4700X1.0400*%
%ADD37R,0.3500X0.2500*%
%ADD38R,0.2500X0.3500*%
%ADD51R,1.2000X3.0000*%
%ADD52C,0.4000*%
%ADD53C,0.8000*%
%ADD54C,0.6000*%
%ADD55C,0.5000*%
%ADD56C,1.2100*%
%ADD57C,1.3700*%
%ADD58R,1.3700X1.3700*%
%ADD59C,7.0000*%
%ADD60C,0.8000*%
G36*
X296784Y557469D02*
X313506Y555949D01*
X330107Y553423D01*
X346524Y549898D01*
X362699Y545389D01*
X378572Y539912D01*
X394085Y533486D01*
X409182Y526135D01*
X423807Y517887D01*
X437908Y508770D01*
X451433Y498818D01*
X464332Y488068D01*
X469456Y483244D01*
X468988Y482064D01*
X409130D01*
X408340Y481907D01*
X407671Y481459D01*
X407223Y480790D01*
X407066Y480000D01*
Y80000D01*
X407223Y79210D01*
X407671Y78541D01*
X408340Y78093D01*
X409130Y77936D01*
X468987Y77935D01*
X469455Y76755D01*
X464332Y71932D01*
X451433Y61182D01*
X437908Y51230D01*
X423807Y42113D01*
X409182Y33865D01*
X394085Y26514D01*
X386862Y23522D01*
X386297Y24663D01*
X386481Y24769D01*
X386525Y24828D01*
X386587Y24869D01*
X386828Y25225D01*
X387089Y25568D01*
X404378Y60921D01*
X404398Y61000D01*
X404444Y61067D01*
X404526Y61483D01*
X404635Y61892D01*
X404624Y61972D01*
X404639Y62052D01*
Y64640D01*
X405405D01*
Y75688D01*
X404705D01*
Y86539D01*
X404509Y87524D01*
X403951Y88359D01*
X368545Y123764D01*
X369228Y125414D01*
X369516Y127600D01*
X369228Y129786D01*
X368385Y131823D01*
X367042Y133572D01*
X365293Y134915D01*
X363256Y135758D01*
X361070Y136046D01*
X358884Y135758D01*
X356847Y134915D01*
X355098Y133572D01*
X353755Y131823D01*
X352911Y129786D01*
X352624Y127600D01*
X352911Y125414D01*
X353755Y123377D01*
X355098Y121628D01*
X356847Y120285D01*
X358884Y119441D01*
X361070Y119154D01*
X363256Y119441D01*
X364906Y120125D01*
X399558Y85473D01*
Y75688D01*
X398857D01*
Y64640D01*
X399492D01*
Y62648D01*
X382897Y28711D01*
X353519Y16742D01*
X297623Y7653D01*
X257049Y8786D01*
X197304Y19812D01*
X161895Y34907D01*
X162149Y36151D01*
X162938D01*
Y44771D01*
X156468D01*
Y39346D01*
X155332Y38778D01*
X121657Y64037D01*
X107308Y87390D01*
Y100370D01*
X113978D01*
Y113818D01*
X99870D01*
X99639Y114049D01*
X98804Y114607D01*
X97819Y114802D01*
X94705D01*
X94593Y115366D01*
X94090Y116118D01*
X93338Y116621D01*
X92451Y116798D01*
X80751D01*
X79864Y116621D01*
X79111Y116118D01*
X78609Y115366D01*
X78432Y114479D01*
Y109979D01*
X78609Y109092D01*
X79111Y108340D01*
X79864Y107837D01*
X80751Y107660D01*
X92451D01*
X93338Y107837D01*
X94090Y108340D01*
X94593Y109092D01*
X94705Y109656D01*
X96230D01*
Y100370D01*
X102161D01*
Y86663D01*
X102201Y86462D01*
X102194Y86257D01*
X102298Y85974D01*
X102357Y85678D01*
X102471Y85508D01*
X102542Y85316D01*
X117528Y60925D01*
X117856Y60571D01*
X118177Y60214D01*
X152538Y34439D01*
X151874Y33351D01*
X150818Y33865D01*
X136193Y42113D01*
X122092Y51230D01*
X108567Y61182D01*
X95668Y71932D01*
X83441Y83441D01*
X71932Y95668D01*
X61182Y108567D01*
X51230Y122092D01*
X42113Y136193D01*
X38776Y142110D01*
X39416Y143207D01*
X59338D01*
X62859Y139686D01*
Y127014D01*
X62271Y126298D01*
X60751D01*
X59864Y126121D01*
X59111Y125618D01*
X58609Y124866D01*
X58432Y123979D01*
Y119479D01*
X58609Y118592D01*
X59111Y117839D01*
X59864Y117337D01*
X60751Y117160D01*
X72451D01*
X73338Y117337D01*
X74090Y117839D01*
X74593Y118592D01*
X74769Y119479D01*
Y123979D01*
X74593Y124866D01*
X74090Y125618D01*
X73338Y126121D01*
X73207Y126147D01*
X72084Y127014D01*
Y141596D01*
X71733Y143362D01*
X70733Y144858D01*
X65482Y150110D01*
Y171255D01*
X37434D01*
Y146991D01*
X36205Y146668D01*
X33865Y150818D01*
X26514Y165915D01*
X20088Y181428D01*
X14611Y197301D01*
X10102Y213476D01*
X6578Y229893D01*
X4051Y246494D01*
X2531Y263216D01*
X2024Y280000D01*
X2531Y296784D01*
X4051Y313506D01*
X6578Y330107D01*
X10102Y346524D01*
X14611Y362699D01*
X20088Y378572D01*
X26514Y394085D01*
X33865Y409182D01*
X42113Y423807D01*
X51230Y437908D01*
X61182Y451433D01*
X71932Y464332D01*
X83441Y476559D01*
X95668Y488068D01*
X108567Y498818D01*
X122092Y508770D01*
X132081Y515228D01*
X133008Y514697D01*
X133243Y514467D01*
Y507062D01*
X133459Y505980D01*
X134072Y505062D01*
X134924Y504493D01*
X134962Y504208D01*
X134846Y503183D01*
X134593Y503132D01*
X133339Y502295D01*
X132502Y501041D01*
X132207Y499562D01*
Y497082D01*
X144822D01*
X157436D01*
Y499562D01*
X157142Y501041D01*
X156304Y502295D01*
X155050Y503132D01*
X154797Y503183D01*
X154681Y504208D01*
X154720Y504493D01*
X155572Y505062D01*
X156185Y505980D01*
X156400Y507062D01*
Y514562D01*
X156185Y515644D01*
X155572Y516562D01*
X154654Y517175D01*
X153572Y517391D01*
X137898D01*
X137565Y518661D01*
X150818Y526135D01*
X165915Y533486D01*
X181428Y539912D01*
X197301Y545389D01*
X213476Y549898D01*
X229893Y553423D01*
X246494Y555949D01*
X263216Y557469D01*
X280000Y557976D01*
X296784Y557469D01*
D02*
G37*
%LPC*%
G36*
X245881Y545760D02*
X240611D01*
Y540490D01*
X245881D01*
Y545760D01*
D02*
G37*
G36*
X238071D02*
X232801D01*
Y540490D01*
X238071D01*
Y545760D01*
D02*
G37*
G36*
X245881Y537951D02*
X240611D01*
Y532680D01*
X245881D01*
Y537951D01*
D02*
G37*
G36*
X238071D02*
X232801D01*
Y532680D01*
X238071D01*
Y537951D01*
D02*
G37*
G36*
X288424Y547885D02*
X274977D01*
Y544853D01*
X256341D01*
X255797Y544744D01*
X248817D01*
Y533696D01*
X255797D01*
X256341Y533588D01*
X274977D01*
Y530137D01*
X288424D01*
Y547885D01*
D02*
G37*
G36*
X157436Y494542D02*
X144822D01*
X132207D01*
Y492062D01*
X132502Y490583D01*
X133339Y489330D01*
X134593Y488492D01*
X134846Y488442D01*
X134962Y487416D01*
X134924Y487131D01*
X134072Y486562D01*
X133459Y485644D01*
X133243Y484562D01*
Y477062D01*
X133459Y475980D01*
X134072Y475062D01*
X134989Y474449D01*
X136072Y474234D01*
X153572D01*
X154654Y474449D01*
X155572Y475062D01*
X156185Y475980D01*
X156400Y477062D01*
Y484562D01*
X156185Y485644D01*
X155572Y486562D01*
X154720Y487131D01*
X154681Y487416D01*
X154797Y488442D01*
X155050Y488492D01*
X156304Y489330D01*
X157142Y490583D01*
X157436Y492062D01*
Y494542D01*
D02*
G37*
G36*
X153572Y472391D02*
X136072D01*
X134989Y472175D01*
X134072Y471562D01*
X133459Y470645D01*
X133243Y469562D01*
Y462062D01*
X133459Y460980D01*
X134072Y460062D01*
X134989Y459449D01*
X136072Y459234D01*
X153572D01*
X154654Y459449D01*
X155572Y460062D01*
X156185Y460980D01*
X156400Y462062D01*
Y469562D01*
X156185Y470645D01*
X155572Y471562D01*
X154654Y472175D01*
X153572Y472391D01*
D02*
G37*
G36*
Y457391D02*
X136072D01*
X134989Y457175D01*
X134072Y456562D01*
X133459Y455645D01*
X133243Y454562D01*
Y447062D01*
X133459Y445980D01*
X134072Y445062D01*
X134989Y444449D01*
X136072Y444234D01*
X153572D01*
X154654Y444449D01*
X155572Y445062D01*
X156185Y445980D01*
X156400Y447062D01*
Y454562D01*
X156185Y455645D01*
X155572Y456562D01*
X154654Y457175D01*
X153572Y457391D01*
D02*
G37*
G36*
X224822Y446451D02*
X222845Y446191D01*
X221002Y445428D01*
X219420Y444214D01*
X218206Y442632D01*
X217443Y440789D01*
X217182Y438812D01*
X217443Y436835D01*
X218206Y434992D01*
X219420Y433410D01*
X221002Y432196D01*
X222845Y431433D01*
X224822Y431173D01*
X226799Y431433D01*
X228641Y432196D01*
X230224Y433410D01*
X231438Y434992D01*
X232201Y436835D01*
X232461Y438812D01*
X232201Y440789D01*
X231438Y442632D01*
X230224Y444214D01*
X228641Y445428D01*
X226799Y446191D01*
X224822Y446451D01*
D02*
G37*
G36*
X153572Y442391D02*
X136072D01*
X134989Y442175D01*
X134072Y441562D01*
X133459Y440644D01*
X133243Y439562D01*
Y432062D01*
X133459Y430980D01*
X134072Y430062D01*
X134989Y429449D01*
X136072Y429234D01*
X153572D01*
X154654Y429449D01*
X155572Y430062D01*
X156185Y430980D01*
X156400Y432062D01*
Y439562D01*
X156185Y440644D01*
X155572Y441562D01*
X154654Y442175D01*
X153572Y442391D01*
D02*
G37*
G36*
X394844Y440774D02*
X378096D01*
Y424026D01*
X394844D01*
Y440774D01*
D02*
G37*
G36*
X153572Y427391D02*
X136072D01*
X134989Y427175D01*
X134072Y426562D01*
X133459Y425644D01*
X133243Y424562D01*
Y417062D01*
X133459Y415980D01*
X134072Y415062D01*
X134989Y414449D01*
X136072Y414234D01*
X153572D01*
X154654Y414449D01*
X155572Y415062D01*
X156185Y415980D01*
X156400Y417062D01*
Y424562D01*
X156185Y425644D01*
X155572Y426562D01*
X154654Y427175D01*
X153572Y427391D01*
D02*
G37*
G36*
X386470Y415446D02*
X384284Y415159D01*
X382247Y414315D01*
X380498Y412972D01*
X379155Y411223D01*
X378312Y409186D01*
X378024Y407000D01*
X378312Y404814D01*
X379155Y402777D01*
X380498Y401028D01*
X382247Y399685D01*
X384284Y398842D01*
X386470Y398554D01*
X388656Y398842D01*
X390693Y399685D01*
X392442Y401028D01*
X393785Y402777D01*
X394628Y404814D01*
X394916Y407000D01*
X394628Y409186D01*
X393785Y411223D01*
X392442Y412972D01*
X390693Y414315D01*
X388656Y415159D01*
X386470Y415446D01*
D02*
G37*
G36*
X361070D02*
X358884Y415159D01*
X356847Y414315D01*
X355098Y412972D01*
X353755Y411223D01*
X352966Y409319D01*
X333900D01*
X333013Y409142D01*
X332261Y408639D01*
X324478Y400857D01*
X318197D01*
X317391Y401838D01*
X317436Y402062D01*
Y404542D01*
X304822D01*
X292208D01*
Y402062D01*
X292252Y401838D01*
X291446Y400857D01*
X271023D01*
X270935Y400916D01*
X269950Y401112D01*
X268965Y400916D01*
X268130Y400358D01*
X224624Y356852D01*
X224067Y356017D01*
X223871Y355032D01*
Y350877D01*
X219219D01*
Y317829D01*
X234266D01*
Y350877D01*
X229018D01*
Y353966D01*
X271271Y396220D01*
X292432D01*
X293320Y394950D01*
X293243Y394562D01*
Y387062D01*
X293258Y386986D01*
X292224Y385716D01*
X277824D01*
X277735Y385775D01*
X276751Y385971D01*
X275766Y385775D01*
X274931Y385217D01*
X244793Y355079D01*
X244235Y354244D01*
X244039Y353259D01*
Y350877D01*
X239219D01*
Y317829D01*
X254266D01*
Y350877D01*
X249186D01*
Y352193D01*
X278071Y381079D01*
X292338D01*
X293292Y379809D01*
X293243Y379562D01*
Y372062D01*
X293459Y370980D01*
X294072Y370062D01*
X294989Y369449D01*
X296072Y369234D01*
X304542D01*
Y350155D01*
X301831D01*
Y332407D01*
X304542D01*
Y317256D01*
X304509Y317207D01*
X304333Y316320D01*
Y311819D01*
X304509Y310932D01*
X305012Y310180D01*
X305764Y309677D01*
X306651Y309501D01*
X308933D01*
X309155Y309457D01*
X311501D01*
X311723Y309501D01*
X318351D01*
X319238Y309677D01*
X319991Y310180D01*
X320493Y310932D01*
X320670Y311819D01*
Y316320D01*
X320493Y317207D01*
X319991Y317959D01*
X319238Y318461D01*
X318351Y318638D01*
X313767D01*
Y332407D01*
X315279D01*
Y350155D01*
X313767D01*
Y352623D01*
X315037Y353008D01*
X315604Y352161D01*
X317431Y350940D01*
X319586Y350511D01*
X319615Y350488D01*
Y342551D01*
X326085D01*
Y351171D01*
X324200D01*
X323757Y352441D01*
X324510Y353570D01*
X353096D01*
X353755Y351977D01*
X355098Y350228D01*
X356847Y348885D01*
X358884Y348041D01*
X361070Y347754D01*
X363256Y348041D01*
X365293Y348885D01*
X367042Y350228D01*
X368385Y351977D01*
X369228Y354014D01*
X369516Y356200D01*
X369228Y358386D01*
X368385Y360423D01*
X367042Y362172D01*
X365293Y363515D01*
X363256Y364358D01*
X361070Y364646D01*
X358884Y364358D01*
X356847Y363515D01*
X355098Y362172D01*
X353755Y360423D01*
X353049Y358717D01*
X324510D01*
X323569Y360126D01*
X321742Y361347D01*
X319586Y361776D01*
X317431Y361347D01*
X315604Y360126D01*
X315037Y359278D01*
X313767Y359663D01*
Y369273D01*
X314654Y369449D01*
X315572Y370062D01*
X316810Y370184D01*
X317814Y369181D01*
X318648Y368623D01*
X319633Y368427D01*
X324846D01*
Y364980D01*
X342594D01*
Y378428D01*
X342224D01*
X342049Y379688D01*
X342801Y380190D01*
X343689Y381079D01*
X352692D01*
X352911Y379414D01*
X353755Y377377D01*
X355098Y375628D01*
X356847Y374285D01*
X358884Y373442D01*
X361070Y373154D01*
X363256Y373442D01*
X365293Y374285D01*
X367042Y375628D01*
X368385Y377377D01*
X369228Y379414D01*
X369516Y381600D01*
X369228Y383786D01*
X368385Y385823D01*
X367042Y387572D01*
X365293Y388915D01*
X363256Y389758D01*
X361070Y390046D01*
X358884Y389758D01*
X356847Y388915D01*
X355098Y387572D01*
X353755Y385823D01*
X353711Y385716D01*
X342729D01*
X342594Y385827D01*
Y397228D01*
X329066D01*
X328580Y398401D01*
X334860Y404682D01*
X352966D01*
X353755Y402777D01*
X355098Y401028D01*
X356847Y399685D01*
X358884Y398842D01*
X361070Y398554D01*
X363256Y398842D01*
X365293Y399685D01*
X367042Y401028D01*
X368385Y402777D01*
X369228Y404814D01*
X369516Y407000D01*
X369228Y409186D01*
X368385Y411223D01*
X367042Y412972D01*
X365293Y414315D01*
X363256Y415159D01*
X361070Y415446D01*
D02*
G37*
G36*
X153572Y412391D02*
X136072D01*
X134989Y412175D01*
X134072Y411562D01*
X133459Y410644D01*
X133243Y409562D01*
Y402062D01*
X133459Y400980D01*
X134072Y400062D01*
X134924Y399493D01*
X134962Y399208D01*
X134846Y398183D01*
X134593Y398132D01*
X133339Y397295D01*
X132502Y396041D01*
X132207Y394562D01*
Y392082D01*
X144822D01*
X157436D01*
Y394562D01*
X157142Y396041D01*
X156304Y397295D01*
X155050Y398132D01*
X154797Y398183D01*
X154681Y399208D01*
X154720Y399493D01*
X155572Y400062D01*
X156185Y400980D01*
X156400Y402062D01*
Y409562D01*
X156185Y410644D01*
X155572Y411562D01*
X154654Y412175D01*
X153572Y412391D01*
D02*
G37*
G36*
X386470Y390046D02*
X384284Y389758D01*
X382247Y388915D01*
X380498Y387572D01*
X379155Y385823D01*
X378312Y383786D01*
X378024Y381600D01*
X378312Y379414D01*
X379155Y377377D01*
X380498Y375628D01*
X382247Y374285D01*
X384284Y373442D01*
X386470Y373154D01*
X388656Y373442D01*
X390693Y374285D01*
X392442Y375628D01*
X393785Y377377D01*
X394628Y379414D01*
X394916Y381600D01*
X394628Y383786D01*
X393785Y385823D01*
X392442Y387572D01*
X390693Y388915D01*
X388656Y389758D01*
X386470Y390046D01*
D02*
G37*
G36*
X157436Y389542D02*
X144822D01*
X132207D01*
Y387062D01*
X132502Y385583D01*
X133339Y384330D01*
X134593Y383492D01*
X134846Y383442D01*
X134962Y382416D01*
X134924Y382131D01*
X134072Y381562D01*
X133459Y380645D01*
X133243Y379562D01*
Y372062D01*
X133459Y370980D01*
X134072Y370062D01*
X134989Y369449D01*
X136072Y369234D01*
X153572D01*
X154654Y369449D01*
X155572Y370062D01*
X156185Y370980D01*
X156400Y372062D01*
Y379562D01*
X156185Y380645D01*
X155572Y381562D01*
X154720Y382131D01*
X154681Y382416D01*
X154797Y383442D01*
X155050Y383492D01*
X156304Y384330D01*
X157142Y385583D01*
X157436Y387062D01*
Y389542D01*
D02*
G37*
G36*
X297060Y361776D02*
X294904Y361347D01*
X293077Y360126D01*
X292136Y358717D01*
X275340D01*
X275055Y358773D01*
X274070Y358578D01*
X273235Y358020D01*
X266092Y350877D01*
X259219D01*
Y317829D01*
X274266D01*
Y350877D01*
X274266Y350877D01*
X274266D01*
X274565Y352071D01*
X276064Y353570D01*
X291185D01*
X291429Y353163D01*
X290710Y351893D01*
X288013D01*
Y335623D01*
X295282D01*
Y349864D01*
X296264Y350669D01*
X297060Y350511D01*
X299215Y350940D01*
X301042Y352161D01*
X302263Y353988D01*
X302692Y356143D01*
X302263Y358299D01*
X301042Y360126D01*
X299215Y361347D01*
X297060Y361776D01*
D02*
G37*
G36*
X386470Y364646D02*
X384284Y364358D01*
X382247Y363515D01*
X380498Y362172D01*
X379155Y360423D01*
X378312Y358386D01*
X378024Y356200D01*
X378312Y354014D01*
X379155Y351977D01*
X380498Y350228D01*
X382247Y348885D01*
X384284Y348041D01*
X386470Y347754D01*
X388656Y348041D01*
X390693Y348885D01*
X392442Y350228D01*
X393785Y351977D01*
X394628Y354014D01*
X394916Y356200D01*
X394628Y358386D01*
X393785Y360423D01*
X392442Y362172D01*
X390693Y363515D01*
X388656Y364358D01*
X386470Y364646D01*
D02*
G37*
G36*
X335095Y351171D02*
X328625D01*
Y342551D01*
X335095D01*
Y351171D01*
D02*
G37*
G36*
X285473Y351893D02*
X278202D01*
Y335623D01*
X285473D01*
Y351893D01*
D02*
G37*
G36*
X335095Y340011D02*
X328625D01*
Y331391D01*
X335095D01*
Y340011D01*
D02*
G37*
G36*
X326085D02*
X319615D01*
Y331391D01*
X326085D01*
Y340011D01*
D02*
G37*
G36*
X394844Y339174D02*
X378096D01*
Y322426D01*
X394844D01*
Y339174D01*
D02*
G37*
G36*
X369439D02*
X352691D01*
Y322426D01*
X369439D01*
Y339174D01*
D02*
G37*
G36*
X295282Y333083D02*
X288013D01*
Y316813D01*
X295282D01*
Y333083D01*
D02*
G37*
G36*
X285473D02*
X278202D01*
Y316813D01*
X285473D01*
Y333083D01*
D02*
G37*
G36*
X155282D02*
X148013D01*
Y316813D01*
X155282D01*
Y333083D01*
D02*
G37*
G36*
X145472D02*
X138202D01*
Y316813D01*
X145472D01*
Y333083D01*
D02*
G37*
G36*
X386470Y313846D02*
X384284Y313558D01*
X382247Y312715D01*
X380498Y311372D01*
X379155Y309623D01*
X378312Y307586D01*
X378024Y305400D01*
X378312Y303214D01*
X379155Y301177D01*
X380498Y299428D01*
X382247Y298085D01*
X384284Y297241D01*
X386470Y296954D01*
X388656Y297241D01*
X390693Y298085D01*
X392442Y299428D01*
X393785Y301177D01*
X394628Y303214D01*
X394916Y305400D01*
X394628Y307586D01*
X393785Y309623D01*
X392442Y311372D01*
X390693Y312715D01*
X388656Y313558D01*
X386470Y313846D01*
D02*
G37*
G36*
X342900Y328182D02*
X332501D01*
X332280Y328138D01*
X326651D01*
X325764Y327962D01*
X325012Y327459D01*
X324509Y326707D01*
X324333Y325820D01*
Y321320D01*
X324509Y320432D01*
X325012Y319680D01*
X325764Y319177D01*
X326651Y319001D01*
X332280D01*
X332501Y318957D01*
X340990D01*
X352776Y307171D01*
X352424Y305400D01*
X352852Y303244D01*
X352975Y303061D01*
X353755Y301177D01*
X355098Y299428D01*
X356847Y298085D01*
X358884Y297241D01*
X361070Y296954D01*
X363256Y297241D01*
X365293Y298085D01*
X367042Y299428D01*
X368385Y301177D01*
X369228Y303214D01*
X369516Y305400D01*
X369228Y307586D01*
X368385Y309623D01*
X367042Y311372D01*
X365293Y312715D01*
X363256Y313558D01*
X361070Y313846D01*
X359371Y313622D01*
X346162Y326831D01*
X344666Y327831D01*
X342900Y328182D01*
D02*
G37*
G36*
X307225Y547885D02*
X293776D01*
Y530137D01*
X295466D01*
X295992Y528867D01*
X277041Y509916D01*
X276152Y508585D01*
X275839Y507015D01*
Y454974D01*
X276152Y453404D01*
X277041Y452073D01*
X293243Y435871D01*
Y432062D01*
X293271Y431925D01*
X292265Y430655D01*
X272042D01*
X272018Y430660D01*
X271033Y430464D01*
X270198Y429906D01*
X205609Y365317D01*
X104964D01*
X103979Y365121D01*
X103144Y364563D01*
X82895Y344314D01*
X71036D01*
Y330866D01*
X88784D01*
Y342925D01*
X106030Y360170D01*
X115847D01*
X116333Y358997D01*
X103758Y346422D01*
X103200Y345587D01*
X103005Y344602D01*
Y344302D01*
X96704D01*
Y330854D01*
X114452D01*
Y344302D01*
X110577D01*
X110091Y345476D01*
X120719Y356103D01*
X121376Y356017D01*
X121986Y354725D01*
X121328Y353138D01*
X121104Y351435D01*
X121328Y349732D01*
X121986Y348145D01*
X123032Y346782D01*
X124394Y345737D01*
X125981Y345079D01*
X127684Y344855D01*
X129388Y345079D01*
X130975Y345737D01*
X132338Y346782D01*
X133383Y348145D01*
X134041Y349732D01*
X134230Y351171D01*
X138202D01*
Y335623D01*
X146742D01*
X155282D01*
Y348020D01*
X156456Y348506D01*
X159219Y345743D01*
Y317829D01*
X174266D01*
Y350877D01*
X161364D01*
X156864Y355376D01*
X157020Y356122D01*
X157343Y356646D01*
X176072D01*
X180667Y352050D01*
X180181Y350877D01*
X179219D01*
Y317829D01*
X194266D01*
Y350877D01*
X188935D01*
X188562Y351434D01*
X181000Y358997D01*
X181486Y360170D01*
X204169D01*
Y350877D01*
X199219D01*
Y317829D01*
X214266D01*
Y350877D01*
X209316D01*
Y361745D01*
X273589Y426018D01*
X292297D01*
X293280Y424748D01*
X293243Y424562D01*
Y417062D01*
X293459Y415980D01*
X294072Y415062D01*
X294924Y414493D01*
X294962Y414208D01*
X294846Y413183D01*
X294593Y413132D01*
X293339Y412295D01*
X292502Y411041D01*
X292208Y409562D01*
Y407082D01*
X304822D01*
X317436D01*
Y409562D01*
X317142Y411041D01*
X316304Y412295D01*
X315051Y413132D01*
X314797Y413183D01*
X314681Y414208D01*
X314720Y414493D01*
X315572Y415062D01*
X316185Y415980D01*
X316400Y417062D01*
Y424562D01*
X316363Y424748D01*
X317346Y426018D01*
X332618D01*
Y424831D01*
X343666D01*
Y425678D01*
X352696D01*
Y424026D01*
X369444D01*
Y440774D01*
X352696D01*
Y430825D01*
X343666D01*
Y431379D01*
X332618D01*
Y430655D01*
X317379D01*
X316373Y431925D01*
X316400Y432062D01*
Y439562D01*
X316185Y440644D01*
X315572Y441562D01*
X314654Y442175D01*
X313572Y442391D01*
X298648D01*
X298199Y442964D01*
X298817Y444234D01*
X313572D01*
X314654Y444449D01*
X315572Y445062D01*
X316185Y445980D01*
X316400Y447062D01*
Y454562D01*
X316185Y455645D01*
X315572Y456562D01*
X314654Y457175D01*
X313572Y457391D01*
X296072D01*
X294989Y457175D01*
X294072Y456562D01*
X293459Y455645D01*
X293243Y454562D01*
Y449135D01*
X292070Y448649D01*
X284045Y456674D01*
Y505315D01*
X292070Y513340D01*
X293243Y512854D01*
Y509584D01*
X288448Y504789D01*
X287890Y503954D01*
X287694Y502970D01*
Y489341D01*
X287890Y488357D01*
X288448Y487522D01*
X290476Y485494D01*
X291310Y484937D01*
X292056Y484788D01*
X292208Y484562D01*
Y482082D01*
X304822D01*
Y479542D01*
X292208D01*
Y477062D01*
X292502Y475583D01*
X293339Y474330D01*
X294593Y473492D01*
X294846Y473442D01*
X294962Y472416D01*
X294924Y472131D01*
X294072Y471562D01*
X293459Y470645D01*
X293243Y469562D01*
Y462062D01*
X293459Y460980D01*
X294072Y460062D01*
X294989Y459449D01*
X296072Y459234D01*
X313572D01*
X314654Y459449D01*
X315572Y460062D01*
X316185Y460980D01*
X316400Y462062D01*
Y469562D01*
X316185Y470645D01*
X315572Y471562D01*
X314720Y472131D01*
X314681Y472416D01*
X314797Y473442D01*
X315051Y473492D01*
X316304Y474330D01*
X317142Y475583D01*
X317436Y477062D01*
Y479760D01*
X318706Y480396D01*
X319123Y480084D01*
Y477792D01*
X319300Y476905D01*
X319803Y476153D01*
X341295Y454660D01*
X342047Y454158D01*
X342935Y453981D01*
X376506D01*
X377393Y454158D01*
X378145Y454660D01*
X380173Y456688D01*
X386542D01*
X396438Y446792D01*
Y199235D01*
X396114Y199018D01*
X394844Y199697D01*
Y212174D01*
X381735D01*
X378282Y215627D01*
X378257Y215644D01*
X377868Y216886D01*
X378052Y217192D01*
X379083Y218734D01*
X379511Y220890D01*
X379295Y221979D01*
X380315Y223080D01*
X380641Y223117D01*
X382247Y221885D01*
X384284Y221041D01*
X386470Y220754D01*
X388656Y221041D01*
X390693Y221885D01*
X392442Y223228D01*
X393785Y224977D01*
X394628Y227014D01*
X394916Y229200D01*
X394628Y231386D01*
X393785Y233423D01*
X392442Y235172D01*
X390693Y236515D01*
X388656Y237358D01*
X386470Y237646D01*
X384284Y237358D01*
X382247Y236515D01*
X380782Y235390D01*
X379512Y235812D01*
Y247988D01*
X380782Y248409D01*
X382247Y247285D01*
X384284Y246441D01*
X386470Y246154D01*
X388656Y246441D01*
X390693Y247285D01*
X392442Y248627D01*
X393785Y250377D01*
X394628Y252414D01*
X394916Y254600D01*
X394628Y256786D01*
X393785Y258823D01*
X392442Y260572D01*
X390693Y261915D01*
X388656Y262758D01*
X386470Y263046D01*
X384284Y262758D01*
X382247Y261915D01*
X380782Y260791D01*
X379512Y261212D01*
Y273388D01*
X380782Y273809D01*
X382247Y272685D01*
X384284Y271841D01*
X386470Y271554D01*
X388656Y271841D01*
X390693Y272685D01*
X392442Y274028D01*
X393785Y275777D01*
X394628Y277814D01*
X394916Y280000D01*
X394628Y282186D01*
X393785Y284223D01*
X392442Y285972D01*
X390693Y287315D01*
X388656Y288158D01*
X386470Y288446D01*
X384284Y288158D01*
X382247Y287315D01*
X380498Y285972D01*
X380388Y285950D01*
X379034Y286151D01*
X378758Y286563D01*
X371329Y293992D01*
X370494Y294550D01*
X369510Y294746D01*
X347612D01*
Y295447D01*
X336564D01*
Y294593D01*
X335865Y294113D01*
X334625Y294699D01*
Y295576D01*
X324058D01*
X323572Y296750D01*
X326779Y299957D01*
X333501D01*
X333723Y300001D01*
X338351D01*
X339239Y300177D01*
X339991Y300680D01*
X340493Y301432D01*
X340670Y302320D01*
Y306819D01*
X340493Y307707D01*
X339991Y308459D01*
X339239Y308962D01*
X338351Y309138D01*
X333723D01*
X333501Y309182D01*
X324868D01*
X323103Y308831D01*
X321606Y307831D01*
X309352Y295576D01*
X302377D01*
Y277828D01*
X304747D01*
Y272668D01*
X302429D01*
Y254920D01*
X315877D01*
Y272668D01*
X313972D01*
Y277828D01*
X315825D01*
Y289003D01*
X320003Y293182D01*
X321177Y292696D01*
Y277828D01*
X334625D01*
Y285968D01*
X337555Y288899D01*
X347612D01*
Y289599D01*
X356389D01*
X356641Y288329D01*
X356334Y288202D01*
X354373Y286697D01*
X352868Y284735D01*
X351922Y282451D01*
X351766Y281270D01*
X361070D01*
X370374D01*
X370218Y282451D01*
X369272Y284735D01*
X367767Y286697D01*
X365806Y288202D01*
X365499Y288329D01*
X365751Y289599D01*
X368444D01*
X374365Y283678D01*
Y226921D01*
X373879Y226522D01*
X371724Y226093D01*
X369897Y224872D01*
X368676Y223045D01*
X368247Y220890D01*
X368676Y218734D01*
X369399Y217651D01*
X368721Y216381D01*
X339760D01*
X339098Y217043D01*
Y219452D01*
X334431D01*
X334306Y220722D01*
X334831Y220826D01*
X334838Y220831D01*
X334847Y220833D01*
X335750Y221440D01*
X336658Y222047D01*
X336663Y222054D01*
X336671Y222059D01*
X360669Y246206D01*
X361070Y246154D01*
X363256Y246441D01*
X365293Y247285D01*
X367042Y248627D01*
X368385Y250377D01*
X369228Y252414D01*
X369516Y254600D01*
X369228Y256786D01*
X368385Y258823D01*
X367042Y260572D01*
X365293Y261915D01*
X363256Y262758D01*
X361070Y263046D01*
X358884Y262758D01*
X356847Y261915D01*
X355098Y260572D01*
X353755Y258823D01*
X352911Y256786D01*
X352624Y254600D01*
X352683Y254151D01*
X348171Y249611D01*
X346901Y250135D01*
X346901Y250588D01*
Y259540D01*
X347917D01*
Y262060D01*
X343627D01*
X339337D01*
Y260403D01*
X335083D01*
X334677Y260809D01*
Y272668D01*
X321229D01*
Y254920D01*
X334677D01*
Y254920D01*
X335230Y254869D01*
X335708Y253550D01*
X334048Y251890D01*
X333587Y252198D01*
X331432Y252626D01*
X281346D01*
X281346Y252626D01*
X279684Y252296D01*
X217533Y314447D01*
X216698Y315005D01*
X215713Y315201D01*
X137845D01*
X132549Y320498D01*
X131714Y321056D01*
X130729Y321252D01*
X114452D01*
Y325502D01*
X96704D01*
Y321263D01*
X88784D01*
Y325514D01*
X71036D01*
Y312967D01*
X69766Y312255D01*
X69133Y312644D01*
X63821Y314844D01*
X58231Y316186D01*
X52500Y316637D01*
X46769Y316186D01*
X41179Y314844D01*
X35867Y312644D01*
X30965Y309640D01*
X26594Y305906D01*
X22860Y301535D01*
X19856Y296633D01*
X17656Y291321D01*
X16314Y285731D01*
X15863Y280000D01*
X16314Y274269D01*
X17656Y268679D01*
X19856Y263367D01*
X22860Y258465D01*
X26594Y254094D01*
X30965Y250360D01*
X35867Y247356D01*
X41179Y245156D01*
X46769Y243814D01*
X52500Y243363D01*
X58231Y243814D01*
X63821Y245156D01*
X69133Y247356D01*
X74035Y250360D01*
X78406Y254094D01*
X82140Y258465D01*
X85144Y263367D01*
X87344Y268679D01*
X88686Y274269D01*
X89137Y280000D01*
X88686Y285731D01*
X87344Y291321D01*
X85144Y296633D01*
X82140Y301535D01*
X78406Y305906D01*
X74035Y309640D01*
X72148Y310796D01*
X72506Y312066D01*
X88784D01*
Y316117D01*
X96704D01*
Y312054D01*
X114452D01*
Y316105D01*
X129663D01*
X134959Y310808D01*
X135794Y310250D01*
X136779Y310054D01*
X214647D01*
X275544Y249157D01*
X222760Y196373D01*
X221539Y194546D01*
X221110Y192390D01*
X221110Y192390D01*
Y190877D01*
X219219D01*
Y157829D01*
X221110D01*
Y156548D01*
X214234D01*
Y138800D01*
X225110D01*
X226742Y138476D01*
X228279Y138781D01*
X240100D01*
Y156529D01*
X232375D01*
Y157829D01*
X234266D01*
Y190877D01*
X234266D01*
X233952Y191635D01*
X283679Y241362D01*
X331432D01*
X333587Y241791D01*
X335415Y243012D01*
X336636Y244839D01*
X337064Y246994D01*
X336959Y247523D01*
X339064Y249628D01*
X340353D01*
Y249556D01*
X345819D01*
X346326Y249556D01*
X346854Y248286D01*
X328681Y230000D01*
X328078Y229091D01*
X327472Y228185D01*
X327471Y228176D01*
X327466Y228169D01*
X327255Y227093D01*
X327043Y226029D01*
X327045Y226021D01*
X327043Y226012D01*
X327261Y224938D01*
X327472Y223874D01*
X327477Y223867D01*
X327479Y223858D01*
X328086Y222956D01*
X328693Y222047D01*
X328700Y222042D01*
X328705Y222035D01*
X329614Y221432D01*
X330520Y220826D01*
X330529Y220824D01*
X330536Y220819D01*
X331036Y220722D01*
X330913Y219452D01*
X328050D01*
Y218751D01*
X268271D01*
X267286Y218555D01*
X266451Y217997D01*
X244923Y196469D01*
X244365Y195634D01*
X244169Y194649D01*
Y190877D01*
X239219D01*
Y157829D01*
X243284D01*
X244436Y157545D01*
X244436Y156559D01*
Y148925D01*
X259916D01*
Y156559D01*
X259916Y157545D01*
X260423Y157670D01*
X261068Y157829D01*
X264169D01*
Y155379D01*
X264365Y154394D01*
X264788Y153760D01*
X264455Y152955D01*
X264231Y151252D01*
X264455Y149549D01*
X265113Y147962D01*
X266158Y146599D01*
X267521Y145553D01*
X269108Y144896D01*
X270811Y144672D01*
X272514Y144896D01*
X274101Y145553D01*
X275464Y146599D01*
X276510Y147962D01*
X277167Y149549D01*
X277391Y151252D01*
X277167Y152955D01*
X276510Y154542D01*
X275464Y155905D01*
X274564Y156596D01*
X274266Y157829D01*
X274266D01*
X274266Y157829D01*
Y190877D01*
X259219D01*
Y158815D01*
X259218Y157829D01*
X258712Y157704D01*
X258066Y157545D01*
X255419D01*
X254266Y157829D01*
X254266Y158815D01*
Y190877D01*
X249316D01*
Y193583D01*
X269337Y213604D01*
X328050D01*
Y212904D01*
X335959D01*
X336875Y211988D01*
X337709Y211430D01*
X338694Y211234D01*
X352696D01*
Y195426D01*
X365805D01*
X367062Y194169D01*
X367897Y193611D01*
X368001Y193590D01*
X368555Y193036D01*
X368632Y192253D01*
X362974Y186596D01*
X361070Y186846D01*
X358884Y186558D01*
X356847Y185715D01*
X355098Y184372D01*
X353755Y182623D01*
X352911Y180586D01*
X352624Y178400D01*
X352911Y176214D01*
X353755Y174177D01*
X355098Y172428D01*
X356847Y171085D01*
X358884Y170242D01*
X361070Y169954D01*
X363256Y170242D01*
X365293Y171085D01*
X367042Y172428D01*
X368385Y174177D01*
X369228Y176214D01*
X369516Y178400D01*
X369357Y179611D01*
X370487Y180372D01*
X371217Y179938D01*
Y166786D01*
X364906Y160475D01*
X363256Y161159D01*
X361070Y161446D01*
X358884Y161159D01*
X356847Y160315D01*
X355098Y158972D01*
X353755Y157223D01*
X352911Y155186D01*
X352624Y153000D01*
X352911Y150814D01*
X353755Y148777D01*
X355098Y147028D01*
X356847Y145685D01*
X358884Y144841D01*
X361070Y144554D01*
X363256Y144841D01*
X365293Y145685D01*
X367042Y147028D01*
X368385Y148777D01*
X369228Y150814D01*
X369516Y153000D01*
X369228Y155186D01*
X368545Y156836D01*
X375610Y163900D01*
X376167Y164735D01*
X376363Y165720D01*
Y179809D01*
X376976Y180171D01*
X378154Y179393D01*
X378024Y178400D01*
X378312Y176214D01*
X379155Y174177D01*
X380498Y172428D01*
X382247Y171085D01*
X384284Y170242D01*
X386470Y169954D01*
X388656Y170242D01*
X390693Y171085D01*
X392442Y172428D01*
X393785Y174177D01*
X394628Y176214D01*
X394916Y178400D01*
X394628Y180586D01*
X393785Y182623D01*
X392442Y184372D01*
X390693Y185715D01*
X388656Y186558D01*
X386470Y186846D01*
X384284Y186558D01*
X382247Y185715D01*
X380548Y184411D01*
X380412Y184437D01*
X379392Y185106D01*
X379422Y185260D01*
X378993Y187415D01*
X378560Y188064D01*
X379239Y189333D01*
X398513D01*
X399400Y189510D01*
X400153Y190012D01*
X404175Y194035D01*
X404678Y194788D01*
X404854Y195675D01*
Y496175D01*
X404913Y496264D01*
X405109Y497249D01*
Y502479D01*
X404913Y503464D01*
X404356Y504299D01*
X371768Y536886D01*
X370933Y537444D01*
X369948Y537640D01*
X363352D01*
Y538340D01*
X352304D01*
Y537640D01*
X346800D01*
X345815Y537444D01*
X344980Y536886D01*
X319030Y510936D01*
X318472Y510102D01*
X318277Y509117D01*
Y508353D01*
X317670Y507888D01*
X316400Y508514D01*
Y514562D01*
X316185Y515644D01*
X315572Y516562D01*
X314654Y517175D01*
X313572Y517391D01*
X297779D01*
X297293Y518564D01*
X303502Y524772D01*
X304391Y526103D01*
X304704Y527673D01*
Y530137D01*
X307225D01*
Y547885D01*
D02*
G37*
G36*
X370374Y278730D02*
X362340D01*
Y270696D01*
X363521Y270852D01*
X365806Y271798D01*
X367767Y273303D01*
X369272Y275264D01*
X370218Y277549D01*
X370374Y278730D01*
D02*
G37*
G36*
X359800D02*
X351766D01*
X351922Y277549D01*
X352868Y275264D01*
X354373Y273303D01*
X356334Y271798D01*
X358619Y270852D01*
X359800Y270696D01*
Y278730D01*
D02*
G37*
G36*
X347917Y267120D02*
X344897D01*
Y264600D01*
X347917D01*
Y267120D01*
D02*
G37*
G36*
X342357D02*
X339337D01*
Y264600D01*
X342357D01*
Y267120D01*
D02*
G37*
G36*
X361070Y237646D02*
X358884Y237358D01*
X356847Y236515D01*
X355098Y235172D01*
X353755Y233423D01*
X352911Y231386D01*
X352624Y229200D01*
X352911Y227014D01*
X353755Y224977D01*
X355098Y223228D01*
X356847Y221885D01*
X358884Y221041D01*
X361070Y220754D01*
X363256Y221041D01*
X365293Y221885D01*
X367042Y223228D01*
X368385Y224977D01*
X369228Y227014D01*
X369516Y229200D01*
X369228Y231386D01*
X368385Y233423D01*
X367042Y235172D01*
X365293Y236515D01*
X363256Y237358D01*
X361070Y237646D01*
D02*
G37*
G36*
X135482Y241255D02*
X107434D01*
Y213207D01*
X135482D01*
Y241255D01*
D02*
G37*
G36*
X175282Y191893D02*
X168013D01*
Y175623D01*
X175282D01*
Y191893D01*
D02*
G37*
G36*
X165473D02*
X158202D01*
Y175623D01*
X165473D01*
Y191893D01*
D02*
G37*
G36*
X214266Y190877D02*
X199219D01*
Y165673D01*
X195440Y161894D01*
X194266Y162380D01*
Y190877D01*
X179219D01*
Y163082D01*
X176456Y160319D01*
X175282Y160805D01*
Y173083D01*
X166742D01*
X158202D01*
Y156813D01*
X158202D01*
X158399Y155543D01*
X157657Y154974D01*
X156612Y153611D01*
X155954Y152024D01*
X155730Y150321D01*
X155954Y148618D01*
X156612Y147031D01*
X157657Y145668D01*
X159020Y144623D01*
X160607Y143965D01*
X162310Y143741D01*
X164013Y143965D01*
X165600Y144623D01*
X166963Y145668D01*
X167806Y146767D01*
X169116D01*
X170101Y146963D01*
X170936Y147521D01*
X176792Y153376D01*
X177868Y152657D01*
X177325Y151345D01*
X177101Y149642D01*
X177325Y147939D01*
X177982Y146352D01*
X179028Y144989D01*
X180391Y143944D01*
X181978Y143286D01*
X183681Y143062D01*
X185384Y143286D01*
X186971Y143944D01*
X188334Y144989D01*
X189380Y146352D01*
X190037Y147939D01*
X190261Y149642D01*
X190201Y150098D01*
X193245Y153141D01*
X194418Y152655D01*
Y148944D01*
X202158D01*
X209898D01*
Y157564D01*
X211059Y157829D01*
X214266D01*
Y190877D01*
D02*
G37*
G36*
X154266D02*
X139219D01*
Y157829D01*
X154266D01*
Y190877D01*
D02*
G37*
G36*
X386470Y161446D02*
X384284Y161159D01*
X382247Y160315D01*
X380498Y158972D01*
X379155Y157223D01*
X378312Y155186D01*
X378024Y153000D01*
X378312Y150814D01*
X379155Y148777D01*
X380498Y147028D01*
X382247Y145685D01*
X384284Y144841D01*
X386470Y144554D01*
X388656Y144841D01*
X390693Y145685D01*
X392442Y147028D01*
X393785Y148777D01*
X394628Y150814D01*
X394916Y153000D01*
X394628Y155186D01*
X393785Y157223D01*
X392442Y158972D01*
X390693Y160315D01*
X388656Y161159D01*
X386470Y161446D01*
D02*
G37*
G36*
X294266Y190877D02*
X279219D01*
Y157829D01*
X284169D01*
Y154959D01*
X284365Y153974D01*
X284724Y153437D01*
X284381Y152610D01*
X284157Y150906D01*
X284381Y149203D01*
X285039Y147616D01*
X286084Y146253D01*
X287447Y145208D01*
X289034Y144550D01*
X290737Y144326D01*
X292440Y144550D01*
X294027Y145208D01*
X295390Y146253D01*
X296436Y147616D01*
X297093Y149203D01*
X297318Y150906D01*
X297093Y152610D01*
X296436Y154197D01*
X295390Y155559D01*
X294088Y156559D01*
X294069Y156816D01*
X294266Y157829D01*
X294266D01*
Y190877D01*
D02*
G37*
G36*
X209898Y146404D02*
X203428D01*
Y137784D01*
X209898D01*
Y146404D01*
D02*
G37*
G36*
X200888D02*
X194418D01*
Y137784D01*
X200888D01*
Y146404D01*
D02*
G37*
G36*
X259916Y146385D02*
X253446D01*
Y137765D01*
X259916D01*
Y146385D01*
D02*
G37*
G36*
X250906D02*
X244436D01*
Y137765D01*
X250906D01*
Y146385D01*
D02*
G37*
G36*
X85331Y136833D02*
X80751D01*
X79467Y136578D01*
X78379Y135851D01*
X77652Y134763D01*
X77396Y133479D01*
Y132499D01*
X85331D01*
Y136833D01*
D02*
G37*
G36*
Y129959D02*
X77396D01*
Y128979D01*
X77652Y127695D01*
X78379Y126607D01*
X79467Y125880D01*
X80751Y125625D01*
X85331D01*
Y129959D01*
D02*
G37*
G36*
X386470Y136046D02*
X384284Y135758D01*
X382247Y134915D01*
X380498Y133572D01*
X379155Y131823D01*
X378312Y129786D01*
X378024Y127600D01*
X378312Y125414D01*
X379155Y123377D01*
X380498Y121628D01*
X382247Y120285D01*
X384284Y119441D01*
X386470Y119154D01*
X388656Y119441D01*
X390693Y120285D01*
X392442Y121628D01*
X393785Y123377D01*
X394628Y125414D01*
X394916Y127600D01*
X394628Y129786D01*
X393785Y131823D01*
X392442Y133572D01*
X390693Y134915D01*
X388656Y135758D01*
X386470Y136046D01*
D02*
G37*
G36*
X319531Y120234D02*
Y113764D01*
X328150D01*
Y120234D01*
X319531D01*
D02*
G37*
G36*
X328150Y111224D02*
X319531D01*
Y104754D01*
X328150D01*
Y111224D01*
D02*
G37*
G36*
X65482Y241255D02*
X37434D01*
Y213207D01*
X45829D01*
X92304Y166733D01*
Y147060D01*
X92655Y145295D01*
X93655Y143798D01*
X100507Y136945D01*
X102004Y135946D01*
X103769Y135594D01*
X123050D01*
X131911Y126733D01*
X132123Y125679D01*
X133348Y123854D01*
X135178Y122637D01*
X137334Y122213D01*
X170598Y122287D01*
X171497Y121390D01*
Y114622D01*
X179237D01*
Y112082D01*
X171497D01*
Y104660D01*
X170810Y104523D01*
X169644Y103744D01*
X161203Y95303D01*
X160424Y94137D01*
X160151Y92762D01*
Y90629D01*
X154805D01*
X117721Y127714D01*
X116886Y128272D01*
X115901Y128468D01*
X113978D01*
Y132618D01*
X96629Y132618D01*
X95898Y133382D01*
X95762Y133694D01*
X95550Y134763D01*
X94823Y135851D01*
X93735Y136578D01*
X92451Y136833D01*
X87871D01*
Y131229D01*
Y125625D01*
X92451D01*
X93735Y125880D01*
X94823Y126607D01*
X94960Y126813D01*
X96230Y126427D01*
Y119170D01*
X113978D01*
Y122382D01*
X115248Y122908D01*
X148663Y89493D01*
Y81993D01*
X148663D01*
Y81129D01*
X147977Y80143D01*
X147914Y80131D01*
X146748Y79352D01*
X142975Y75579D01*
X142196Y74413D01*
X141923Y73038D01*
Y62778D01*
X142196Y61403D01*
X142975Y60238D01*
X147200Y56013D01*
X148366Y55234D01*
X149741Y54960D01*
X156468D01*
Y47311D01*
X171948D01*
Y54960D01*
X175033D01*
X176284Y54915D01*
Y37167D01*
X189732D01*
Y48640D01*
X195912D01*
X196591Y47370D01*
X196423Y47119D01*
X196188Y45939D01*
Y29239D01*
X196423Y28059D01*
X197091Y27059D01*
X198091Y26391D01*
X199271Y26156D01*
X202271D01*
X203451Y26391D01*
X204452Y27059D01*
X205120Y28059D01*
X205355Y29239D01*
Y45939D01*
X205120Y47119D01*
X204952Y47370D01*
X205631Y48640D01*
X208612D01*
X209291Y47370D01*
X209123Y47119D01*
X208888Y45939D01*
Y29239D01*
X209123Y28059D01*
X209791Y27059D01*
X210791Y26391D01*
X211971Y26156D01*
X212527D01*
X216765Y21918D01*
X217517Y21415D01*
X218404Y21239D01*
X259910D01*
X262632Y18517D01*
X262632Y18517D01*
X270142Y11007D01*
X270894Y10505D01*
X271781Y10328D01*
X284862D01*
X285749Y10505D01*
X286501Y11007D01*
X287188Y11694D01*
X288159Y12352D01*
Y12352D01*
X288159Y12352D01*
X305907D01*
Y18874D01*
X310034D01*
Y13868D01*
X327782D01*
Y27316D01*
X310034D01*
Y23511D01*
X305907D01*
Y25800D01*
X288159D01*
Y19223D01*
X283901Y14965D01*
X272741D01*
X266590Y21117D01*
Y26319D01*
X266951Y26391D01*
X267952Y27059D01*
X268620Y28059D01*
X268855Y29239D01*
Y45939D01*
X268684Y46796D01*
X269398Y48066D01*
X270622D01*
X271523Y46796D01*
X271352Y45939D01*
Y38859D01*
X276971D01*
X282591D01*
Y44734D01*
X283860Y45260D01*
X288159Y40962D01*
Y31152D01*
X305907D01*
Y44600D01*
X291800D01*
X283941Y52459D01*
X283106Y53017D01*
X282121Y53212D01*
X252637D01*
X243783Y62066D01*
X239834Y66015D01*
X240320Y67189D01*
X243522D01*
X250150Y60561D01*
X250984Y60003D01*
X251969Y59807D01*
X288160D01*
Y55895D01*
X305908D01*
Y69343D01*
X288160D01*
Y64954D01*
X253035D01*
X247497Y70493D01*
X248023Y71762D01*
X258368D01*
X259353Y71958D01*
X260188Y72516D01*
X263328Y75656D01*
X265771D01*
X266951Y75890D01*
X267952Y76559D01*
X268620Y77559D01*
X268855Y78739D01*
Y95439D01*
X268620Y96619D01*
X267952Y97619D01*
X266951Y98287D01*
X265771Y98522D01*
X262771D01*
X261591Y98287D01*
X260591Y97619D01*
X259923Y96619D01*
X259688Y95439D01*
Y79295D01*
X257961Y77568D01*
X257096Y77642D01*
X256155Y78739D01*
Y95439D01*
X255920Y96619D01*
X255674Y96987D01*
Y122474D01*
X277289Y122521D01*
X278188Y121624D01*
Y120260D01*
X276077D01*
Y102512D01*
X289525D01*
Y120260D01*
X287413D01*
Y122544D01*
X293775Y122558D01*
X293819Y122491D01*
X295150Y121602D01*
X295512Y121530D01*
X295387Y120260D01*
X294877D01*
Y102512D01*
X298008D01*
Y94400D01*
Y88143D01*
X288160D01*
Y84093D01*
X281555D01*
Y95439D01*
X281320Y96619D01*
X280651Y97619D01*
X279651Y98287D01*
X278471Y98522D01*
X275471D01*
X274291Y98287D01*
X273291Y97619D01*
X272623Y96619D01*
X272388Y95439D01*
Y78739D01*
X272623Y77559D01*
X273291Y76559D01*
X274291Y75890D01*
X275471Y75656D01*
X278471D01*
X279651Y75890D01*
X280651Y76559D01*
X281320Y77559D01*
X281555Y78739D01*
Y78946D01*
X288160D01*
Y74695D01*
X305908D01*
Y88143D01*
X305194D01*
Y90101D01*
X309387D01*
Y86970D01*
X326203Y86970D01*
X326634Y86970D01*
X326936Y86524D01*
X327416Y85817D01*
X325726Y83059D01*
X323526Y77748D01*
X322184Y72158D01*
X321733Y66426D01*
X322184Y60695D01*
X323526Y55105D01*
X325726Y49793D01*
X326678Y48240D01*
X326058Y47132D01*
X320178D01*
Y40662D01*
X328798D01*
Y42978D01*
X329989Y43417D01*
X332464Y40520D01*
X336835Y36786D01*
X341737Y33782D01*
X347049Y31582D01*
X352639Y30240D01*
X358370Y29789D01*
X364101Y30240D01*
X369691Y31582D01*
X375003Y33782D01*
X379905Y36786D01*
X384276Y40520D01*
X388010Y44892D01*
X391014Y49793D01*
X393214Y55105D01*
X394556Y60695D01*
X395007Y66426D01*
X394556Y72158D01*
X393214Y77748D01*
X391014Y83059D01*
X388010Y87961D01*
X384276Y92332D01*
X379905Y96066D01*
X375003Y99070D01*
X369691Y101270D01*
X364101Y102612D01*
X358370Y103063D01*
X352639Y102612D01*
X347049Y101270D01*
X341737Y99070D01*
X336835Y96066D01*
X332464Y92332D01*
X328730Y87961D01*
X328405Y87430D01*
X327135Y87788D01*
X327135Y88033D01*
Y100418D01*
X309387D01*
Y97287D01*
X305194D01*
Y102512D01*
X308325D01*
Y103503D01*
X308370Y104754D01*
X309595Y104754D01*
X316991D01*
Y112494D01*
Y120234D01*
X309583D01*
X308325Y120260D01*
X307111Y120260D01*
X298054D01*
X297929Y121530D01*
X298291Y121602D01*
X299622Y122491D01*
X299740Y122610D01*
X301697Y123004D01*
X303522Y124229D01*
X303522Y124229D01*
X324938Y145740D01*
X324939Y145740D01*
X326155Y147570D01*
X326579Y149726D01*
X326579Y149726D01*
X326455Y205942D01*
X326240Y207012D01*
X326027Y208085D01*
X326023Y208090D01*
X326022Y208096D01*
X325413Y209004D01*
X324806Y209912D01*
X324801Y209915D01*
X324797Y209921D01*
X323888Y210525D01*
X322979Y211133D01*
X322972Y211134D01*
X322967Y211137D01*
X321899Y211348D01*
X320823Y211562D01*
X320817Y211560D01*
X320811Y211561D01*
X319741Y211346D01*
X318668Y211133D01*
X318663Y211129D01*
X318657Y211128D01*
X317749Y210518D01*
X316841Y209912D01*
X316837Y209907D01*
X316832Y209903D01*
X316228Y208994D01*
X315620Y208085D01*
X315619Y208078D01*
X315615Y208073D01*
X315405Y207005D01*
X315191Y205929D01*
X315192Y205923D01*
X315191Y205917D01*
X315310Y152034D01*
X297185Y133830D01*
X284850Y133802D01*
X251090Y133728D01*
X200569Y133617D01*
X176764Y133565D01*
X138211Y133480D01*
X129657Y142034D01*
X130143Y143207D01*
X135482D01*
Y171255D01*
X107434D01*
Y144820D01*
X105680D01*
X101529Y148970D01*
Y168643D01*
X101178Y170408D01*
X100178Y171905D01*
X60049Y212034D01*
X60535Y213207D01*
X65482D01*
Y241255D01*
D02*
G37*
G36*
X317638Y47132D02*
X309018D01*
Y40662D01*
X317638D01*
Y47132D01*
D02*
G37*
G36*
X171948Y44771D02*
X165478D01*
Y36151D01*
X171948D01*
Y44771D01*
D02*
G37*
G36*
X328798Y38122D02*
X320178D01*
Y31652D01*
X328798D01*
Y38122D01*
D02*
G37*
G36*
X317638D02*
X309018D01*
Y31652D01*
X317638D01*
Y38122D01*
D02*
G37*
G36*
X282591Y36319D02*
X278241D01*
Y25120D01*
X278471D01*
X280048Y25433D01*
X281384Y26326D01*
X282277Y27663D01*
X282591Y29239D01*
Y36319D01*
D02*
G37*
G36*
X275701D02*
X271352D01*
Y29239D01*
X271666Y27663D01*
X272559Y26326D01*
X273895Y25433D01*
X275471Y25120D01*
X275701D01*
Y36319D01*
D02*
G37*
%LPD*%
G36*
X399962Y501413D02*
Y497249D01*
X400158Y496264D01*
X400217Y496175D01*
Y451951D01*
X399044Y451465D01*
X388727Y461782D01*
X387942Y462307D01*
Y463236D01*
X381047D01*
X380579Y464506D01*
X384280Y467668D01*
X388014Y472039D01*
X391018Y476941D01*
X393218Y482252D01*
X394560Y487842D01*
X395011Y493574D01*
X394560Y499305D01*
X393218Y504895D01*
X392181Y507398D01*
X393258Y508118D01*
X399962Y501413D01*
D02*
G37*
G36*
X247468Y121557D02*
Y120779D01*
X246764Y119801D01*
X233316D01*
Y102053D01*
X236867D01*
Y99104D01*
X235930Y98477D01*
X234544Y98745D01*
X234181Y99288D01*
X231962Y101507D01*
X231127Y102065D01*
X230142Y102261D01*
X228980Y102435D01*
Y109657D01*
X213500D01*
Y102261D01*
X208988D01*
X208003Y102065D01*
X207168Y101507D01*
X206144Y100483D01*
X204874Y101009D01*
Y122362D01*
X246569Y122454D01*
X247468Y121557D01*
D02*
G37*
G36*
X174698Y90591D02*
Y87581D01*
X182254D01*
X189811D01*
Y89906D01*
X191081Y90432D01*
X192641Y88872D01*
Y76188D01*
X192837Y75203D01*
X193395Y74368D01*
X195543Y72219D01*
X196378Y71661D01*
X197363Y71466D01*
X204782Y71466D01*
X205766Y71661D01*
X206601Y72219D01*
X209172Y74790D01*
X209730Y75625D01*
X211067Y75836D01*
X211971Y75656D01*
X214971D01*
X216151Y75890D01*
X217152Y76559D01*
X217820Y77559D01*
X218055Y78739D01*
Y84516D01*
X221588D01*
Y78739D01*
X221823Y77559D01*
X222491Y76559D01*
X223491Y75890D01*
X224137Y75762D01*
X224352Y75441D01*
X229309Y70484D01*
X229318Y70471D01*
X230495Y69294D01*
X230009Y68120D01*
X188795D01*
Y71477D01*
X189811D01*
Y75541D01*
X182254D01*
X174698D01*
Y71477D01*
X175714D01*
Y62993D01*
X174795Y62146D01*
X162663D01*
X161744Y62993D01*
Y64738D01*
X161908D01*
X162892Y64934D01*
X163727Y65492D01*
X170658Y72423D01*
X171216Y73258D01*
X171412Y74242D01*
Y89102D01*
X173428Y91118D01*
X174698Y90591D01*
D02*
G37*
%LPC*%
G36*
X228980Y120817D02*
X222510D01*
Y112197D01*
X228980D01*
Y120817D01*
D02*
G37*
G36*
X219970D02*
X213500D01*
Y112197D01*
X219970D01*
Y120817D01*
D02*
G37*
G36*
X189811Y85041D02*
X182254D01*
X174698D01*
Y80977D01*
Y78081D01*
X182254D01*
X189811D01*
Y80977D01*
Y85041D01*
D02*
G37*
%LPD*%
D10*
X277153Y81519D02*
X297034D01*
X104735Y86663D02*
Y107094D01*
X86601Y112229D02*
X97819D01*
X102954Y107094D01*
X104735D01*
X105104Y125894D02*
X115901D01*
X290268Y489341D02*
X292295Y487314D01*
X360578Y535066D02*
X369948D01*
X402536Y502479D01*
Y497249D02*
Y502479D01*
X346800Y535066D02*
X355078D01*
X320850Y509117D02*
X346800Y535066D01*
X320850Y506841D02*
Y509117D01*
X309822Y495812D02*
X320850Y506841D01*
X304822Y495812D02*
X309822D01*
X349900Y268830D02*
X361070Y280000D01*
X340892Y428251D02*
X356921D01*
X314822Y390812D02*
X333720D01*
X266742Y155379D02*
X270856Y151265D01*
X226444Y333675D02*
Y355032D01*
X286742Y154959D02*
X290782Y150919D01*
X337998Y252201D02*
X343627D01*
X105578Y318678D02*
X130729D01*
X79910Y318690D02*
X105566D01*
X239440Y87658D02*
Y110927D01*
X182254Y67408D02*
X184116Y65547D01*
X386908Y459962D02*
X399012Y447858D01*
Y197614D02*
Y447858D01*
X226444Y355032D02*
X269950Y398538D01*
X331432Y246994D02*
X332791D01*
X343627Y268830D02*
X349900D01*
X402131Y72914D02*
Y86539D01*
X361070Y127600D02*
X402131Y86539D01*
X290268Y489341D02*
Y502970D01*
X298111Y510812D01*
X304822D01*
X345838Y292173D02*
X369510D01*
X207353Y76610D02*
X207353Y98053D01*
X356921Y428251D02*
X361070Y432400D01*
X246612Y353259D02*
X276751Y383397D01*
X359273D02*
X361070Y381600D01*
X251571Y37589D02*
Y50639D01*
X234661Y74336D02*
X258368Y74336D01*
X264271Y80239D01*
Y87089D01*
X208988Y99687D02*
X230142D01*
X207353Y98053D02*
X208988Y99687D01*
X230142D02*
X232361Y97469D01*
X213471Y87089D02*
X226171D01*
X402066Y62052D02*
Y67224D01*
X251571Y50639D02*
X282121D01*
X79910Y337690D02*
X104964Y362743D01*
X246612Y334774D02*
Y353259D01*
X206742Y334353D02*
Y362676D01*
X206675Y362743D02*
X206742Y362676D01*
X104964Y362743D02*
X206675D01*
X186742Y334353D02*
Y349615D01*
X177138Y359220D02*
X186742Y349615D01*
X105578Y337678D02*
Y344602D01*
X120195Y359220D01*
X177138D01*
X166742Y334353D02*
Y341858D01*
X127730Y351448D02*
X130025Y353744D01*
X154857D01*
X166742Y341858D01*
X266742Y347888D02*
X275055Y356200D01*
X266742Y334353D02*
Y347888D01*
X286742Y154959D02*
Y174353D01*
X266742Y155379D02*
Y174353D01*
X246742D02*
Y194649D01*
X275112Y356143D02*
X297060D01*
X275055Y356200D02*
X275112Y356143D01*
X319586D02*
X361013D01*
X361070Y356200D01*
X232361Y76636D02*
Y97469D01*
Y76636D02*
X234661Y74336D01*
X226171Y77261D02*
X226171Y87089D01*
X226171Y77261D02*
X231137Y72295D01*
Y72291D02*
Y72295D01*
Y72291D02*
X233666Y69762D01*
X251969Y62381D02*
X296887D01*
X244588Y69762D02*
X251969Y62381D01*
X233666Y69762D02*
X244588D01*
X196557Y17333D02*
X256778Y6219D01*
X297795Y5074D01*
X354220Y14248D01*
X384777Y26699D01*
X402066Y62052D01*
X157352Y34046D02*
X196557Y17333D01*
X119721Y62272D02*
X157352Y34046D01*
X104735Y86663D02*
X119721Y62272D01*
X105566Y318690D02*
X105578Y318678D01*
X238871Y87089D02*
X239440Y87658D01*
X282121Y50639D02*
X294784Y37976D01*
X297033D01*
X165572Y149340D02*
X169116D01*
X186742Y166966D01*
Y174353D01*
X206675Y362743D02*
X272018Y428086D01*
X268271Y216178D02*
X330824D01*
X246742Y194649D02*
X268271Y216178D01*
X215713Y312628D02*
X281346Y246994D01*
X130729Y318678D02*
X136779Y312628D01*
X215713D01*
X332791Y246994D02*
X337998Y252201D01*
X336324Y216178D02*
X338694Y213808D01*
X376462D01*
X386470Y203800D01*
X361070Y178400D02*
Y181230D01*
Y203800D02*
X368882Y195988D01*
X373790Y165720D02*
Y185260D01*
X361070Y153000D02*
X373790Y165720D01*
X115901Y125894D02*
X154701Y87094D01*
X204782Y74039D02*
X207353Y76610D01*
X174879Y96208D02*
X188944D01*
X197363Y74039D02*
X204782Y74039D01*
X195214Y76188D02*
X197363Y74039D01*
X195214Y76188D02*
Y89938D01*
X188944Y96208D02*
X195214Y89938D01*
X168839Y90168D02*
X174879Y96208D01*
X155203Y67311D02*
X161908D01*
X168839Y74242D01*
Y90168D01*
X241964Y60247D02*
X251571Y50639D01*
X184116Y65547D02*
X236663D01*
X241964Y60247D01*
X277153Y81519D02*
X278933Y79739D01*
X276971Y81701D02*
X277153Y81519D01*
X319633Y371001D02*
X333250Y371001D01*
X312511Y378123D02*
X319633Y371001D01*
X369510Y292173D02*
X376939Y284744D01*
X373879Y220890D02*
X376939Y223949D01*
Y284744D01*
X334017Y257830D02*
X343627D01*
X328053Y263794D02*
X334017Y257830D01*
D12*
X315031Y488086D02*
X321442Y481675D01*
Y477792D02*
X342935Y456300D01*
X321442Y477792D02*
Y481675D01*
X292295Y487314D02*
X293840D01*
X294612Y488086D01*
X315031D01*
X379668Y459462D02*
Y459962D01*
X376506Y456300D02*
X379668Y459462D01*
X342935Y456300D02*
X376506D01*
X182408Y46041D02*
X187326Y50959D01*
X272018Y428336D02*
X335518D01*
X299249Y21192D02*
X318908D01*
X297033Y18976D02*
X299249Y21192D01*
X291190Y18976D02*
X297033D01*
X183280Y148361D02*
X185186D01*
X402536Y195675D02*
Y497249D01*
X269950Y398538D02*
X325438D01*
X331672Y286294D02*
X337550Y292173D01*
X339338D01*
X325438Y398538D02*
X333900Y407000D01*
X361070D01*
X341162Y381830D02*
X342729Y383397D01*
X324710D02*
X326278Y381830D01*
X276751Y383397D02*
X324710D01*
X342729D02*
X359273D01*
X326278Y381830D02*
X341162D01*
X284862Y12647D02*
X291190Y18976D01*
X271781Y12647D02*
X284862D01*
X226171Y37589D02*
Y47159D01*
X222371Y50959D02*
X226171Y47159D01*
X187326Y50959D02*
X222371D01*
X213471Y28490D02*
Y37589D01*
Y28490D02*
X218404Y23558D01*
X260870D01*
X264271Y20156D02*
X271781Y12647D01*
X260870Y23558D02*
X264271Y20156D01*
Y37589D01*
X206742Y169918D02*
Y174353D01*
X185186Y148361D02*
X206742Y169918D01*
X331324Y216178D02*
X335824D01*
X355578Y535066D02*
X360078D01*
X335892Y428105D02*
X340392D01*
X380168Y459962D02*
X384668D01*
X343627Y253080D02*
Y257330D01*
X368882Y195988D02*
X370194Y194676D01*
X396074D01*
X399012Y197614D01*
X398513Y191652D02*
X402536Y195675D01*
X361070Y181230D02*
Y181413D01*
X371309Y191652D01*
X398513D01*
D21*
X198037Y113352D02*
D03*
X179237D02*
D03*
X301601Y111386D02*
D03*
X282801D02*
D03*
X281700Y539011D02*
D03*
X300501D02*
D03*
X309101Y286702D02*
D03*
X327901D02*
D03*
X327953Y263794D02*
D03*
X309153D02*
D03*
X327355Y341282D02*
D03*
X308555D02*
D03*
X233376Y147655D02*
D03*
X252176D02*
D03*
X164208Y46041D02*
D03*
X183008D02*
D03*
X221240Y110927D02*
D03*
X240040D02*
D03*
X220958Y147674D02*
D03*
X202158D02*
D03*
D22*
X304822Y375812D02*
D03*
Y390812D02*
D03*
Y405812D02*
D03*
Y420812D02*
D03*
Y435812D02*
D03*
Y450812D02*
D03*
Y465812D02*
D03*
Y480812D02*
D03*
Y495812D02*
D03*
Y510812D02*
D03*
X144822D02*
D03*
Y495812D02*
D03*
Y480812D02*
D03*
Y465812D02*
D03*
Y450812D02*
D03*
Y435812D02*
D03*
Y420812D02*
D03*
Y405812D02*
D03*
Y390812D02*
D03*
Y375812D02*
D03*
D23*
X51458Y227231D02*
D03*
X121458D02*
D03*
Y157231D02*
D03*
X51458D02*
D03*
D24*
X270811Y151252D02*
D03*
X290737Y150906D02*
D03*
X162310Y150321D02*
D03*
X183681Y149642D02*
D03*
X127684Y351435D02*
D03*
D25*
X239341Y539220D02*
D03*
X254341D02*
D03*
D26*
X200771Y87089D02*
D03*
X213471D02*
D03*
X226171D02*
D03*
X238871D02*
D03*
X251571D02*
D03*
X264271D02*
D03*
X276971D02*
D03*
Y37589D02*
D03*
X264271D02*
D03*
X251571D02*
D03*
X238871D02*
D03*
X226171D02*
D03*
X213471D02*
D03*
X200771D02*
D03*
D27*
X155203Y67311D02*
D03*
Y76811D02*
D03*
Y86311D02*
D03*
X182254D02*
D03*
Y76811D02*
D03*
Y67311D02*
D03*
D28*
X332501Y304569D02*
D03*
Y323569D02*
D03*
X312501Y314069D02*
D03*
X86601Y112229D02*
D03*
Y131229D02*
D03*
X66601Y121729D02*
D03*
D29*
X105578Y337578D02*
D03*
Y318778D02*
D03*
X79910Y337590D02*
D03*
Y318790D02*
D03*
X297033Y19076D02*
D03*
Y37876D02*
D03*
X105104Y125894D02*
D03*
Y107094D02*
D03*
X297034Y81419D02*
D03*
Y62619D02*
D03*
X333720Y390504D02*
D03*
Y371704D02*
D03*
X318908Y39392D02*
D03*
Y20592D02*
D03*
X318260Y112494D02*
D03*
Y93694D02*
D03*
D37*
X402131Y72914D02*
D03*
Y67414D02*
D03*
X343627Y263330D02*
D03*
Y252330D02*
D03*
Y257830D02*
D03*
D38*
X344838Y292173D02*
D03*
X339338D02*
D03*
X336324Y216178D02*
D03*
X330824D02*
D03*
X355078Y535066D02*
D03*
X360578D02*
D03*
X340892Y428105D02*
D03*
X335392D02*
D03*
X379668Y459962D02*
D03*
X385168D02*
D03*
D51*
X246742Y174353D02*
D03*
X166742Y334353D02*
D03*
X206742D02*
D03*
X186742D02*
D03*
X266742D02*
D03*
X286742D02*
D03*
X246742D02*
D03*
X226742D02*
D03*
Y174353D02*
D03*
X286742D02*
D03*
X266742D02*
D03*
X186742D02*
D03*
X206742D02*
D03*
X166742D02*
D03*
X146742D02*
D03*
Y334353D02*
D03*
D52*
X301601Y94400D02*
Y111386D01*
Y84619D02*
Y94400D01*
X302306Y93694D02*
X318260D01*
X301601Y94400D02*
X302306Y93694D01*
X297034Y81519D02*
X298501D01*
X301601Y84619D01*
X238871Y37589D02*
Y47017D01*
X146364Y334249D02*
X146502Y334112D01*
X251576Y147655D02*
X258857Y140374D01*
X217294Y106381D02*
X221840Y110927D01*
X193826Y138742D02*
X202758Y147674D01*
X164808Y46041D02*
Y49013D01*
X151952Y49588D02*
X164233D01*
X276971Y37589D02*
X277260Y37300D01*
X170764Y138742D02*
X193826D01*
X258857Y140374D02*
X280909D01*
X277260Y20567D02*
Y37300D01*
X132012Y334249D02*
X146364D01*
X155203Y76811D02*
X161177D01*
X163744Y79379D01*
X208942Y106381D02*
X217294D01*
X163744Y79379D02*
Y92762D01*
X172185Y101203D01*
X200771D01*
X149289Y76811D02*
X155203D01*
X145516Y62778D02*
X149741Y58553D01*
X145516Y62778D02*
Y73038D01*
X149289Y76811D01*
X149741Y58553D02*
X227334D01*
X238871Y47017D01*
X164233Y49588D02*
X164808Y49013D01*
D53*
X284862Y128170D02*
X299531Y128203D01*
X251103Y128096D02*
X284862Y128170D01*
X166578Y175594D02*
X167281Y174891D01*
X226742Y147674D02*
Y174353D01*
Y144108D02*
Y147674D01*
X281391Y539220D02*
X281600Y539011D01*
X256341Y539220D02*
X281391D01*
X320823Y205929D02*
X320947Y149714D01*
X332676Y226029D02*
X361070Y254600D01*
X358056Y305400D02*
X361070D01*
X281346Y246994D02*
X331432D01*
X226742Y192390D02*
X281346Y246994D01*
X226742Y174353D02*
Y192390D01*
X166742Y174353D02*
X167281Y174891D01*
X166578Y175594D02*
Y195653D01*
X299531Y128203D02*
X320947Y149714D01*
X176776Y127932D02*
X200581Y127985D01*
X251103Y128096D01*
X137322Y127845D02*
X176776Y127932D01*
X239241Y539237D02*
X239260Y539218D01*
X228471Y539237D02*
X239241D01*
D54*
X282801Y111386D02*
Y126109D01*
X284862Y128170D01*
X96916Y147060D02*
Y168643D01*
X103769Y140207D02*
X124960D01*
X96916Y147060D02*
X103769Y140207D01*
X124960D02*
X137322Y127845D01*
X86818Y126681D02*
Y136538D01*
X86704Y136652D02*
X86818Y136538D01*
X86566Y136514D02*
X86704Y136652D01*
X67471Y127014D02*
Y141596D01*
X309155Y314069D02*
Y371479D01*
X304822Y375812D02*
X309155Y371479D01*
X46458Y219102D02*
X96916Y168643D01*
X309101Y288802D02*
X324868Y304569D01*
X46458Y162610D02*
X67471Y141596D01*
X324868Y304569D02*
X332501D01*
X333501D01*
X332501Y323569D02*
X342900D01*
X361070Y305400D01*
X309155Y314069D02*
X311501D01*
X309359Y266750D02*
Y282982D01*
X309101Y286702D02*
Y288802D01*
D55*
X200771Y101203D02*
Y127795D01*
X327118Y341645D02*
X340828D01*
X326755Y341282D02*
X327118Y341645D01*
X319166Y63724D02*
Y63976D01*
X319166Y52323D02*
X319166Y63724D01*
X318995Y38879D02*
Y52152D01*
X144555Y390732D02*
X144649Y390639D01*
X300601Y527673D02*
Y539011D01*
X289995Y481045D02*
X304589D01*
X304822Y480812D01*
X279942Y507015D02*
X300601Y527673D01*
X279942Y454974D02*
X299104Y435812D01*
X279942Y454974D02*
Y507015D01*
X299104Y435812D02*
X304822D01*
X144681Y495953D02*
X144822Y495812D01*
X127660Y495953D02*
X144681D01*
X144649Y390639D02*
X144822Y390812D01*
X286650Y334260D02*
X286742Y334353D01*
X286650Y313507D02*
Y334260D01*
X146502Y334112D02*
X146742Y334353D01*
X296721Y125393D02*
X299531Y128203D01*
X251103Y128096D02*
X251571Y127627D01*
Y87089D02*
Y127627D01*
X318908Y38792D02*
X318995Y38879D01*
X127962Y390732D02*
X144555D01*
X200581Y127985D02*
X200771Y127795D01*
X182254Y76811D02*
Y86311D01*
X200771Y87221D02*
Y101203D01*
D56*
X224822Y438812D02*
D03*
D57*
X386470Y356200D02*
D03*
Y381600D02*
D03*
Y407000D02*
D03*
X361070Y127600D02*
D03*
Y153000D02*
D03*
Y178400D02*
D03*
Y356200D02*
D03*
Y381600D02*
D03*
Y407000D02*
D03*
X386470Y127600D02*
D03*
Y153000D02*
D03*
Y178400D02*
D03*
X361070Y229200D02*
D03*
Y254600D02*
D03*
Y280000D02*
D03*
Y305400D02*
D03*
X386470Y229200D02*
D03*
Y254600D02*
D03*
Y280000D02*
D03*
Y305400D02*
D03*
D58*
Y432400D02*
D03*
X361070Y203800D02*
D03*
Y432400D02*
D03*
X386470Y203800D02*
D03*
X361065Y330800D02*
D03*
X386470D02*
D03*
D59*
X52500Y280000D02*
D03*
X358370Y66426D02*
D03*
X358374Y493574D02*
D03*
D60*
X272076Y113674D02*
D03*
X386668Y242112D02*
D03*
X386447Y267330D02*
D03*
X351345Y270681D02*
D03*
X361133Y267137D02*
D03*
X342739Y280891D02*
D03*
X342699Y106313D02*
D03*
X399413Y102591D02*
D03*
X399248Y165480D02*
D03*
X373792Y139378D02*
D03*
X373653Y448702D02*
D03*
X373653Y418344D02*
D03*
X373753Y393958D02*
D03*
X374051Y368577D02*
D03*
X373255Y343693D02*
D03*
X373454Y316221D02*
D03*
X392263Y466039D02*
D03*
X289995Y481045D02*
D03*
X411235Y48203D02*
D03*
X127660Y495953D02*
D03*
X320823Y205929D02*
D03*
X332676Y226029D02*
D03*
X332953Y186894D02*
D03*
X306812Y198131D02*
D03*
X332605Y155012D02*
D03*
X286650Y313507D02*
D03*
X340828Y341645D02*
D03*
X297060Y356143D02*
D03*
X319586D02*
D03*
X318995Y52152D02*
D03*
X331432Y246994D02*
D03*
X166578Y195653D02*
D03*
X277260Y20567D02*
D03*
X237386Y405421D02*
D03*
X288725Y405655D02*
D03*
X127962Y390732D02*
D03*
X280909Y140374D02*
D03*
X170764Y138742D02*
D03*
X208942Y106381D02*
D03*
X288010Y260335D02*
D03*
X288580Y287631D02*
D03*
X305223Y231054D02*
D03*
X261480Y248502D02*
D03*
X214295Y197449D02*
D03*
X238783Y222818D02*
D03*
X217391Y293736D02*
D03*
X241631Y272741D02*
D03*
X234378Y308050D02*
D03*
X259190Y284384D02*
D03*
X277529Y225815D02*
D03*
X265678Y201682D02*
D03*
X156754Y109414D02*
D03*
X121527Y105150D02*
D03*
X88735Y96767D02*
D03*
X257481Y15453D02*
D03*
X313908Y123191D02*
D03*
X217572Y359273D02*
D03*
X261633Y356536D02*
D03*
X239994Y357057D02*
D03*
X281448Y375829D02*
D03*
X274018Y391603D02*
D03*
X276495Y420021D02*
D03*
X202841Y370875D02*
D03*
X277277Y436447D02*
D03*
X249119Y393037D02*
D03*
X338224Y437319D02*
D03*
X322913Y406547D02*
D03*
X451609Y488729D02*
D03*
X321427Y532802D02*
D03*
X163490Y495858D02*
D03*
X162156Y391073D02*
D03*
X132012Y334249D02*
D03*
X146408Y297260D02*
D03*
X373879Y220890D02*
D03*
X373790Y185260D02*
D03*
X86816Y121397D02*
D03*
X219796Y72771D02*
D03*
X336297Y20657D02*
D03*
X189473Y31341D02*
D03*
X151952Y49588D02*
D03*
X228471Y539237D02*
D03*
M02*
