M48
;Layer_Color=9474304
;FILE_FORMAT=4:4
METRIC,LZ
;TYPE=PLATED
T01F00S00C0.4000
T04F00S00C0.7112
T05F00S00C0.8000
T06F00S00C0.9000
T07F00S00C1.0000
T08F00S00C4.5000
;TYPE=NON_PLATED
T09F00S00C0.6500
%
T01
X00069974Y00120237
X00089974
X00109974
X00099974Y00100237
X00119974
X00149974Y00080237
X00139974Y00060237
X00159974
X00179974
X00299974
X00309974Y00080237
X00321845Y0015558
X00322397Y00168484
X00259974Y00177041
X00249974Y00160237
X00229974
X00202627Y00183528
X00207782Y00221931
X00199974Y00260237
X00197073Y00301953
X00225801Y00290279
X00269974Y00280237
X00289974
X00309974
X00333722Y00241936
X00374455Y00241211
X00374599Y00266843
X00374162Y00291715
X00396096Y00318748
X00389974Y00360237
X00319987Y00379455
X00287979Y00379079
X00271472Y00366313
X00270886Y00346821
X00296733Y00350825
X00211368Y00342186
X00209974Y00360237
X00189974
X00169974
X00179974Y00380237
X00199974
X00219974
X00119974
X00099974
X00079974
X00059974
X00039974
X00049974Y00360237
X00069974
X00089974
X00109974
X00129974
X00134312Y00346641
X00079974Y00340237
X00059974
X00039974
X00029974Y00320237
X00069974
X0010547Y00282446
X00135697Y00260526
X00158233Y00239925
X00139974Y00220237
X00119974
X00099974
X00079974
X00059974
X00039974
X00029974Y00240237
X00069974
Y00200237
X00049974
X00039974Y00180237
X00059974
X00049974Y00160237
X00287863Y00219679
X00381475Y00103404
X00389974Y00040237
X00339974Y00020237
X00407683Y00043289
X00449974Y00080237
X00439974Y00100237
X00459974
X00479974
X00489974Y00120237
X00469974
X00449974
X00429974
X00419974Y00140237
X00439974
X00459974
X00479974
X00499974
X00489974Y00160237
X00469974
X00509974
X00519974Y00180237
X00499974
X00479974Y00300237
X00459974
X00469974Y00320237
X00489974
X00479974Y00340237
X00499974
X00489974Y00360237
X00469974
X00479974Y00380237
X00499974
X00519974
X00529974Y00360237
X00509974
X00539974Y00340237
X00459974
Y00380237
X00419974
X00407851Y00403925
X00419974Y00420237
X0040917Y00437461
X00419974Y00460237
X00403192Y00465989
X00449974Y00480237
X00459974Y00460237
X00479974
X00469974Y00440237
X00489974
X00499974Y00420237
X00479974
X00459974
X00469974Y00400237
X00489974
X00509974
X00378986Y00454081
X00325507Y00451978
X00325743Y00433948
X00299886Y00442836
X00289974Y00480237
X00309974
X00295975Y00496238
X00279974Y00500237
X00259974
X00269974Y00480237
X00249974
X00219974Y00460237
X00229974Y00440237
X00209974
X00189974
X00199974Y00420237
X00219974
X00238812Y00402573
X00263753Y00431296
X00158629Y00430826
X00143058Y00428437
X00124341Y00429193
X00099974Y00420237
X00079974
X00064254Y00424088
X00069974Y00400237
X00049974
X00089974
X00109974
X00115765Y00456014
X00079974Y00460237
X00149168Y00485376
X00168544Y0047382
X00197819Y00515911
X00209974Y00520237
X00229974
X00221941Y00509243
X00219974Y00540237
X00207222Y00538406
X00242476Y00546908
X00283431Y00547429
X00326988Y0054617
T04
X00250578Y00232854
X00250285Y0038214
X00250849Y00454197
T05
X00514474Y00210237
Y00230237
T06
X00511386Y0028748
X00536786
T07
X0036107Y002292
Y002546
X0038647
Y002292
Y0028
X0036107
Y003054
X0038647
Y003308
X0036107
T08
X000525Y0028
X0035837Y00066426
X00358374Y00493574
T09
X0014126Y0010934
X00191316Y0008044
M30
