M48
;Layer_Color=9474304
;FILE_FORMAT=4:4
METRIC,LZ
;TYPE=PLATED
T01F00S00C0.3000
T02F00S00C0.4000
T03F00S00C0.9000
T04F00S00C1.0200
T05F00S00C4.5000
%
T01
X00226145Y00033905
X00238145
X00250145
X00244145Y00023905
X00244145Y00044405
X00256145
X00268145
X00274145Y00054405
X00262145
X00250145
X00238145
X00226145
T02
X00094509Y00088201
X0007947Y00131885
X000383Y00167376
X0004Y0018
X0005Y002
X0007
X0008Y0022
X001
X0011Y0024
X0013
X0015
X00166339Y00231752
X00189918Y00210307
X00204059Y00175907
X00272096Y00167083
X00275294Y00182069
X0027102Y00193175
X00265368Y00204071
X00265348Y00214681
X002742Y00211092
X00279321Y00259344
X00287136Y00282057
X00287402Y0029463
X00279Y00299697
X00265785Y0029555
X00261586Y00304936
X00232488Y00285471
X0023027Y00268567
X00207789Y00271249
X00204989Y00293902
X00187667Y00265915
X0015Y0028
X0012Y0026
X001
X0009Y0028
Y0024
X0007
X0005
X0003
X0004Y0022
X0006
X0002
X0003Y002
X0002Y0026
Y003
X0003Y0032
X0005
X0004Y0034
X0002
X0003Y0036
X0004Y0038
X00106279Y00380333
X00116855Y00392736
X00142694Y00357752
X00156971Y00338408
X00217767Y0033593
X00222642Y00324482
X00270671Y00348431
X0027Y0036
X00279716Y00369719
X00289241Y00370336
X00299645Y00347121
X00333415Y00338068
X00336998Y00290336
X00348867Y00276853
X00347921Y0021721
X00373649Y00218413
X00373765Y00189872
X00373652Y0016618
X00373878Y00140683
X00337704Y00142774
X00329979Y00152386
X00320813Y00160157
X00310841Y00167504
X00301136Y00175351
X00305753Y00144707
X00310991Y00131573
X00314672Y00115149
X00298839Y00118655
X00280154Y00088734
X0023032Y00097135
X00224435Y00111349
X00247629Y00129959
X00266019Y00154181
X0016Y001
X00143627Y00107322
X0015Y0008
X0017
X0016Y0006
X0014
X0034Y0002
X00393733Y00086869
X00335894Y00389209
X00117105Y00301902
X004Y005
X0042
X0039Y0052
X0033
X0031
X0029
X0027
X0028Y0054
X003
X0032
X0034
X0032Y005
X003
X0028
X0029Y0048
X0031
X00313731Y00447637
X00289134Y00430204
X0027961Y00430577
X0025Y0044
X0023
X0021
X0019
X002Y0046
X0022
X0024
X0023Y0048
X0021
X0022Y005
X002
X0021Y0052
X0019
X0022Y0054
X0024
X0026
X0025Y004
X00220508Y00399805
X00208108Y00415283
X0006Y0042
X0007Y0044
X0008Y0046
X0011Y0048
T03
X00186295Y00096262
X00204256Y00114223
X00222216Y00132183
X00240177Y00150144
X00222216Y00204025
X00204256Y00221986
X00186295Y00239946
X00168335Y00293828
X00150374Y00311789
X00132414Y00329749
X00114453Y0034771
X00078532Y0038363
X00222216Y0038363
X00240177Y0036567
X00168335Y00186065
X00150374Y00204025
X00132414Y00221986
X00402798Y00062779
X00428198
X00204256Y00401591
X00186295Y00419552
X00114453Y00419552
X00132414Y00437512
X00096493
Y00401591
X00060571
X00078532Y00419552
X00114453Y00455473
X00150374
X00132414Y00473433
X00168335
Y00509354
X00150374Y00491394
X00186295
X00240177Y00509354
X00258137Y00491394
T04
X0036107Y001276
X0038647
Y00153
Y001784
Y002038
Y002292
Y002546
Y0028
Y003054
Y003308
Y003562
X0036107
Y003816
X0038647
X00361065Y003308
X0036107Y003054
Y0028
Y002546
Y002292
Y002038
Y001784
Y00153
Y00407
Y004324
X0038647
Y00407
T05
X000525Y0028
X0035837Y00066426
X00358374Y00493574
M30
