M48
;Layer_Color=9474304
;FILE_FORMAT=4:4
METRIC,LZ
;TYPE=PLATED
T01F00S00C1.0200
%
T01
X0160909Y0026924
Y0029464
Y0032004
Y0034544
Y0037084
Y0039624
X0176657
Y0037084
Y0034544
Y0032004
Y0029464
Y0026924
Y0042164
Y0044704
Y0047244
Y0049784
Y0052324
Y0054864
Y0057404
Y0059944
Y0062484
Y0065024
X0160909
Y0062484
Y0059944
Y0057404
Y0054864
Y0052324
Y0049784
Y0047244
Y0044704
Y0042164
M30
